<?xml version="1.0" encoding="utf-8"?>
<!-- Generator: Adobe Illustrator 28.3.0, SVG Export Plug-In . SVG Version: 6.00 Build 0)  -->
<svg version="1.1" id="Layer_1" xmlns="http://www.w3.org/2000/svg" xmlns:xlink="http://www.w3.org/1999/xlink" x="0px" y="0px"
	 viewBox="0 0 379.5 379.5" style="enable-background:new 0 0 379.5 379.5;" xml:space="preserve">
<style type="text/css">
	.st0{fill:#184B5C;}
</style>
<path class="st0" d="M309-135.1v-3.6c0-3.9-2.5-7.4-6.1-8.6v-3.6c0-5.1-4.1-9.2-9.2-9.2h-98c-5.1,0-9.2,4.1-9.2,9.2v3.6
	c-3.7,1.3-6.1,4.8-6.1,8.6v3.6c-3.7,1.3-6.1,4.8-6.1,8.6v55.1c0,5.1,4.1,9.2,9.2,9.2h122.5c5.1,0,9.2-4.1,9.2-9.2v-55.1
	C315.1-130.4,312.7-133.8,309-135.1z M195.7-154h98c1.7,0,3.1,1.4,3.1,3.1v3.1H192.7v-3.1C192.7-152.7,194-154,195.7-154z
	 M189.6-141.8h110.2c1.7,0,3.1,1.4,3.1,3.1v3.1H186.5v-3.1C186.5-140.4,187.9-141.8,189.6-141.8z M309-71.4c0,1.7-1.4,3.1-3.1,3.1
	H183.5c-1.7,0-3.1-1.4-3.1-3.1v-55.1c0-1.7,1.4-3.1,3.1-3.1h122.5c1.7,0,3.1,1.4,3.1,3.1V-71.4z"/>
<path class="st0" d="M246.9-101.4c-0.3-0.1-0.7-0.2-0.9-0.4c-0.3-0.1-0.7-0.3-1.1-0.4c-2-0.8-3.2-1.4-3.2-2.2c0-0.2,0.4-0.8,1.2-1.3
	c0.7-0.3,3-1.2,6.1,1c1.4,1,3.3,0.7,4.3-0.7c1-1.4,0.7-3.3-0.6-4.3c-1.5-1.1-3.1-1.9-4.9-2.3v-2.3c0-1.7-1.4-3-3.1-3
	c-1.7,0-3,1.4-3,3v2.5c-0.5,0.2-1,0.4-1.5,0.6c-2.8,1.4-4.6,4-4.6,6.7c0,5.2,4.8,7,7.1,7.9c0.3,0.1,0.6,0.2,0.8,0.3
	c0.4,0.2,0.8,0.3,1.2,0.5c2.4,0.9,3.1,1.4,3.1,2.1c0,0.2-0.4,0.8-1.2,1.3c-0.7,0.3-3,1.2-6.1-1c-1.4-1-3.3-0.7-4.3,0.7
	s-0.7,3.3,0.7,4.3c1.5,1.1,3.1,1.9,4.9,2.3v2.5c0,1.7,1.4,3,3.1,3c1.7,0,3-1.4,3-3v-2.6c0.5-0.2,1-0.4,1.5-0.6
	c2.8-1.4,4.6-4,4.6-6.7C253.9-98.8,249.1-100.6,246.9-101.4z"/>
<path class="st0" d="M244.7-126.5c-15.2,0-27.6,12.3-27.6,27.6c0,15.2,12.3,27.6,27.6,27.6c15.2,0,27.6-12.3,27.6-27.6l0,0
	C272.2-114.1,259.9-126.5,244.7-126.5z M244.7-77.5c-11.8,0-21.4-9.6-21.4-21.4s9.6-21.4,21.4-21.4s21.4,9.6,21.4,21.4l0,0
	C266.1-87.1,256.5-77.5,244.7-77.5L244.7-77.5z"/>
<path class="st0" d="M214.1-80.6h-12.6c-1.1-4.3-4.5-7.7-8.8-8.8v-19.1c4.3-1.1,7.7-4.5,8.8-8.8h12.6c1.7,0,3-1.4,3-3.1
	c0-1.7-1.4-3-3-3h-15.3c-1.7,0-3.1,1.4-3.1,3.1c0,0,0,0,0,0c0,3.4-2.7,6.1-6.1,6.1c-1.7,0-3.1,1.4-3.1,3.1c0,0,0,0,0,0v24.5
	c0,1.7,1.4,3.1,3.1,3.1c3.4,0,6.1,2.7,6.1,6.1c0,1.7,1.4,3.1,3.1,3.1h15.3c1.7,0,3.1-1.3,3.1-3C217.2-79.2,215.8-80.5,214.1-80.6
	C214.1-80.6,214.1-80.6,214.1-80.6L214.1-80.6z"/>
<path class="st0" d="M299.8-114.2c-3.4,0-6.1-2.7-6.1-6.1c0-1.7-1.4-3.1-3.1-3.1l0,0h-15.3c-1.7,0-3.1,1.3-3.1,3
	c0,1.7,1.3,3.1,3,3.1c0,0,0,0,0.1,0H288c1.1,4.3,4.5,7.7,8.8,8.8v19.1c-4.3,1.1-7.7,4.5-8.8,8.8h-12.6c-1.7,0-3.1,1.3-3.1,3
	s1.3,3.1,3,3.1c0,0,0,0,0.1,0h15.3c1.7,0,3.1-1.4,3.1-3.1c0-3.4,2.7-6.1,6.1-6.1c1.7,0,3.1-1.4,3.1-3.1v-24.5
	C302.9-112.9,301.5-114.2,299.8-114.2L299.8-114.2z"/>
<g>
	<g>
		<path class="st0" d="M362.9,47.7c2.7-2.7,2.7-6.8,0-9.5l-0.5-0.5L322.9,7.2c-1.4-0.9-2.7-1.4-4.1-1.4H169.7
			c-3.6,0-6.8,3.2-6.8,6.8v50c0,3.6,3.2,6.8,6.8,6.8h41.4l-33.6,48.6c-2.3,3.2-1.4,7.3,1.8,9.5c3.2,2.3,7.3,1.4,9.5-1.8l38.6-55.9
			l30.9,14.5v30.5h-15c-2.3,0-4.5,0.9-5.5,3.2l-91.8,136.4c-0.9,0.9-1.4,2.3-0.9,3.6v104.6c0,3.6,3.2,6.8,6.8,6.8h186.4
			c3.6,0,6.8-3.2,6.8-6.8V121.7c0-3.6-3.2-6.8-6.8-6.8H322V89L362.9,47.7z M158.3,355.9v-86.4h172.7v86.4H158.3z M331.1,255.8H161.5
			L247,128.6h84.1V255.8z M272,114.9v-35c0-2.7-1.4-5-4.1-5.9l-36.4-17.3c-0.9-0.5-1.8-0.5-2.7-0.5h-52.3V19.5h139.6l31.4,24.1
			l-37.3,37.7c-1.4,1.4-1.8,3.2-1.8,5v28.6H272z"/>
		<path class="st0" d="M338.3,370.6H152c-4.2,0-7.9-3.7-7.9-7.9V258.3c-0.5-1.6,0-3.3,1.2-4.5l91.7-136.2c1-2.4,3.4-3.8,6.4-3.8
			h13.9V85.2l-29.4-13.9l-38.1,55.1c-2.7,3.8-7.5,4.7-11.1,2.1c-1.8-1.3-3-3.1-3.4-5.1c-0.4-2.1,0.1-4.2,1.3-6L209,70.6h-39.3
			c-4.2,0-7.9-3.7-7.9-7.9v-50c0-4.2,3.7-7.9,7.9-7.9h149.1c1.6,0,3.2,0.5,4.7,1.5l39.7,30.6l0.5,0.5c3.2,3.2,3.2,7.9,0,11.1
			l-40.6,41v24.4h15.3c4.2,0,7.9,3.7,7.9,7.9v240.9C346.3,366.9,342.6,370.6,338.3,370.6z M243.3,116c-1,0-3.5,0.2-4.4,2.5l-0.1,0.2
			l-91.9,136.5l-0.1,0.1c-0.7,0.7-0.9,1.6-0.6,2.5l0.1,0.2v104.7c0,3,2.7,5.7,5.7,5.7h186.4c3,0,5.7-2.7,5.7-5.7V121.7
			c0-3-2.7-5.7-5.7-5.7h-17.5V88.6l41.2-41.7c2.3-2.3,2.3-5.7,0-8l-0.4-0.4L322.2,8.1c-1.1-0.7-2.3-1.1-3.4-1.1H169.7
			c-3,0-5.7,2.7-5.7,5.7v50c0,3,2.7,5.7,5.7,5.7h43.5l-34.8,50.4c-0.9,1.3-1.3,2.8-1,4.3c0.3,1.5,1.2,2.8,2.5,3.8
			c2.6,1.9,6,1.2,8-1.6l39.2-56.7l32.4,15.2V116H243.3z M332.2,357H157.2v-88.6h174.9V357z M159.4,354.8H330v-84.2H159.4V354.8z
			 M332.2,256.9H159.5l86.9-129.5h85.8V256.9z M163.6,254.7H330V129.7h-82.4L163.6,254.7z M309.4,116h-38.6V79.9
			c0-2.4-1.2-4.1-3.3-4.9l-0.1,0l-36.4-17.3c-0.7-0.3-1.4-0.3-2.3-0.3h-53.4v-39h141l32.6,25.1l-38.1,38.6c-1,1-1.5,2.4-1.5,4.2V116
			z M273.1,113.8h34.2V86.3c0-2.4,0.7-4.4,2.1-5.8l36.4-36.8l-30.1-23.1H177.6v34.6h51.2c1,0,2.1,0,3.2,0.6L268.3,73
			c3,1,4.8,3.6,4.8,6.9V113.8z"/>
	</g>
	<g>
		<path class="st0" d="M119.7,60.4c6.3,0,11.4-5.1,11.4-11.4s-5.1-11.4-11.4-11.4c-6.3,0-11.4,5.1-11.4,11.4S113.4,60.4,119.7,60.4z
			"/>
		<path class="st0" d="M119.7,61.5c-6.9,0-12.5-5.6-12.5-12.5s5.6-12.5,12.5-12.5s12.5,5.6,12.5,12.5S126.6,61.5,119.7,61.5z
			 M119.7,38.8c-5.7,0-10.3,4.6-10.3,10.3s4.6,10.3,10.3,10.3S130,54.7,130,49S125.4,38.8,119.7,38.8z"/>
	</g>
	<g>
		<path class="st0" d="M78.8,92.2c6.3,0,11.4-5.1,11.4-11.4c0-6.3-5.1-11.4-11.4-11.4c-6.3,0-11.4,5.1-11.4,11.4
			C67.4,87.1,72.5,92.2,78.8,92.2z"/>
		<path class="st0" d="M78.8,93.3c-6.9,0-12.5-5.6-12.5-12.5c0-6.9,5.6-12.5,12.5-12.5c6.9,0,12.5,5.6,12.5,12.5
			C91.3,87.7,85.7,93.3,78.8,93.3z M78.8,70.6c-5.7,0-10.3,4.6-10.3,10.3s4.6,10.3,10.3,10.3s10.3-4.6,10.3-10.3
			S84.4,70.6,78.8,70.6z"/>
	</g>
	<g>
		<path class="st0" d="M78.8,33.1c6.3,0,11.4-5.1,11.4-11.4s-5.1-11.4-11.4-11.4c-6.3,0-11.4,5.1-11.4,11.4S72.5,33.1,78.8,33.1z"/>
		<path class="st0" d="M78.8,34.2c-6.9,0-12.5-5.6-12.5-12.5S71.9,9.3,78.8,9.3c6.9,0,12.5,5.6,12.5,12.5S85.7,34.2,78.8,34.2z
			 M78.8,11.5c-5.7,0-10.3,4.6-10.3,10.3S73.1,32,78.8,32s10.3-4.6,10.3-10.3S84.4,11.5,78.8,11.5z"/>
	</g>
	<g>
		<path class="st0" d="M205.7,336.7h-16.5c-1.5-5.6-5.9-10-11.5-11.5v-25c5.6-1.5,10-5.9,11.5-11.5h16.5c2.2,0,4-1.8,4-4
			c0-2.2-1.8-3.9-4-4h-20c-2.2,0-4,1.8-4,4c0,0,0,0,0,0c0,4.4-3.6,8-8,8c-2.2,0-4,1.8-4,4c0,0,0,0,0,0v32c0,2.2,1.8,4,4,4
			c4.4,0,8,3.6,8,8c0,2.2,1.8,4,4,4h20c2.2,0,4-1.8,4-4S208,336.7,205.7,336.7C205.8,336.7,205.8,336.7,205.7,336.7L205.7,336.7z"/>
	</g>
	<g>
		<g>
			<path class="st0" d="M247.2,312.2c-0.4-0.2-0.8-0.3-1.1-0.4c-0.4-0.2-0.8-0.3-1.3-0.5c-2.4-0.9-3.7-1.6-3.7-2.5
				c0-0.3,0.4-1,1.5-1.5c0.8-0.4,3.5-1.4,7.2,1.2c1.6,1.2,3.8,0.8,5-0.8c1.2-1.6,0.8-3.8-0.8-5c-1.7-1.3-3.6-2.2-5.7-2.7v-2.7
				c0-2-1.6-3.6-3.6-3.5c-2,0-3.5,1.6-3.5,3.5v2.9c-0.6,0.2-1.2,0.4-1.8,0.7c-3.3,1.7-5.4,4.7-5.4,7.9c0,6,5.6,8.2,8.3,9.2
				c0.4,0.1,0.7,0.3,1,0.4c0.4,0.2,0.9,0.4,1.4,0.6c2.8,1.1,3.6,1.6,3.6,2.5c0,0.3-0.4,1-1.5,1.5c-0.8,0.4-3.5,1.4-7.2-1.2
				c-1.6-1.2-3.8-0.8-5,0.8c-1.2,1.6-0.8,3.8,0.8,5c1.7,1.3,3.6,2.2,5.7,2.7v2.9c0,2,1.6,3.6,3.6,3.5c2,0,3.5-1.6,3.5-3.5V330
				c0.6-0.2,1.2-0.4,1.8-0.7c3.3-1.7,5.4-4.7,5.4-7.9C255.4,315.4,249.9,313.2,247.2,312.2z"/>
		</g>
		<g>
			<path class="st0" d="M244.7,282.9c-17.8,0-32.2,14.4-32.2,32.2s14.4,32.2,32.2,32.2s32.2-14.4,32.2-32.2l0,0
				C276.9,297.4,262.5,283,244.7,282.9z M244.7,340.2c-13.8,0-25.1-11.2-25.1-25.1c0-13.8,11.2-25.1,25.1-25.1s25.1,11.2,25.1,25.1
				l0,0C269.8,329,258.5,340.2,244.7,340.2L244.7,340.2z"/>
		</g>
	</g>
	<g>
		<path class="st0" d="M315.8,293.3c-4.3,0-7.7-3.5-7.7-7.7c0-2.1-1.7-3.9-3.9-3.9l0,0h-19.3c-2.1,0-3.9,1.7-3.9,3.8
			c0,2.1,1.7,3.9,3.8,3.9c0,0,0.1,0,0.1,0h16c1.4,5.4,5.7,9.7,11.1,11.1v24.2c-5.4,1.4-9.7,5.7-11.1,11.1h-16
			c-2.1,0-3.9,1.7-3.9,3.8c0,2.1,1.7,3.9,3.8,3.9c0,0,0,0,0.1,0h19.3c2.1,0,3.9-1.7,3.9-3.9c0-4.3,3.5-7.7,7.7-7.7
			c2.1,0,3.9-1.7,3.9-3.9v-30.9C319.6,295.1,317.9,293.3,315.8,293.3L315.8,293.3z"/>
	</g>
	<g>
		<path class="st0" d="M235.6,174v27.9h-6.5v-22.7h-5.6V174H235.6z"/>
		<path class="st0" d="M261.1,193.4c0,4.7-3.6,9-11.6,9c-3.9,0-7.9-1.1-10.6-3l2.5-4.9c2.1,1.6,5.1,2.5,8,2.5c3.2,0,5.2-1.3,5.2-3.6
			c0-2.1-1.6-3.4-5.2-3.4h-2.9v-4.3l5.7-6.5h-11.9V174h19.5v4.2l-6.3,7.2C258.5,186.2,261.1,189.3,261.1,193.4z"/>
		<path class="st0" d="M264.6,188.2h11.3v5h-11.3V188.2z"/>
		<path class="st0" d="M299.2,193.4c0,4.7-3.6,9-11.6,9c-3.9,0-7.9-1.1-10.6-3l2.5-4.9c2.1,1.6,5.1,2.5,8,2.5c3.2,0,5.2-1.3,5.2-3.6
			c0-2.1-1.6-3.4-5.2-3.4h-2.9v-4.3l5.7-6.5h-11.9V174H298v4.2l-6.3,7.2C296.7,186.2,299.2,189.3,299.2,193.4z"/>
		<path class="st0" d="M322.6,193.4c0,4.7-3.6,9-11.6,9c-3.9,0-7.9-1.1-10.6-3l2.5-4.9c2.1,1.6,5.1,2.5,8,2.5c3.2,0,5.2-1.3,5.2-3.6
			c0-2.1-1.6-3.4-5.2-3.4H308v-4.3l5.7-6.5h-11.9V174h19.5v4.2l-6.3,7.2C320.1,186.2,322.6,189.3,322.6,193.4z"/>
		<path class="st0" d="M252,249.8l0-16.7l-8.2,13.8h-2.9l-8.2-13.4v16.4h-6.1v-27.9h5.3l10.4,17.3l10.3-17.3h5.3l0.1,27.9H252z"/>
		<path class="st0" d="M264.6,221.9h6.5v27.9h-6.5V221.9z"/>
		<path class="st0" d="M296.1,243.8h-13l-2.5,6h-6.6l12.4-27.9h6.4l12.5,27.9h-6.8L296.1,243.8z M294.1,238.9l-4.4-10.7l-4.4,10.7
			H294.1z"/>
		<path class="st0" d="M307.6,246.2c0-2.3,1.7-3.8,3.9-3.8s3.9,1.5,3.9,3.8c0,2.3-1.7,3.9-3.9,3.9S307.6,248.4,307.6,246.2z"/>
	</g>
</g>
</svg>
