<?xml version="1.0" encoding="utf-8"?>
<!-- Generator: Adobe Illustrator 28.3.0, SVG Export Plug-In . SVG Version: 6.00 Build 0)  -->
<svg version="1.1" id="Layer_1" xmlns="http://www.w3.org/2000/svg" xmlns:xlink="http://www.w3.org/1999/xlink" x="0px" y="0px"
	 viewBox="0 0 2072.4 1061.3" style="enable-background:new 0 0 2072.4 1061.3;" xml:space="preserve">
<style type="text/css">
	.st0{fill:#184B5C;}
	.st1{fill-rule:evenodd;clip-rule:evenodd;fill:#184B5C;}
	.st2{font-family:'Montserrat-Bold';}
	.st3{font-size:279.4133px;}
</style>
<g id="toxic_from_plastic">
	<path class="st0" d="M1851.7,569.4h-41.7c-10.6,0-19.2,8.6-19.2,19.2v97.6h-72.9c-3-1.8-6.1-3.5-9.3-5.1v-92.5
		c0-10.6-8.6-19.2-19.2-19.2h-41.7c-10.6,0-19.2,8.6-19.2,19.2v81.2c-9.1,1.6-18,4.2-26.5,7.8c-0.6-13.7-5.3-26.9-13.5-37.9
		l-43-58.4v-22h13.6c3.9,0,7-3.1,7-7v-27c0-10.7-8.7-19.3-19.3-19.3h-67.8c-10.7,0-19.3,8.7-19.3,19.3v27c0,3.9,3.1,7,7,7h12.4v24.1
		l-42.3,56c-9.1,12.1-14.1,26.8-14.1,42v279.2c0,22,17.9,39.9,39.9,39.9h99.7c22,0,39.9-17.9,39.9-39.9v-43.8
		c8.5,3.5,17.3,6.1,26.4,7.7v43.6c0,17.8,14.4,32.3,32.2,32.3h177.9c17.8,0,32.2-14.5,32.2-32.3V588.6
		C1870.8,578,1862.2,569.4,1851.7,569.4z M1790.7,700.2c-0.9,8-7.6,14-15.6,14h-24.5c-4.2-5-8.7-9.7-13.6-14H1790.7z M1651.3,681.8
		c63.7,0,115.4,51.7,115.4,115.4s-51.7,115.4-115.4,115.4c-63.7,0-115.4-51.7-115.4-115.4C1536,733.5,1587.6,681.8,1651.3,681.8z
		 M1642.4,608.3h30c3.9,0,7-3.1,7-7c0-3.9-3.1-7-7-7h-30v-5.8c0-2.9,2.3-5.2,5.2-5.2h41.7c2.9,0,5.2,2.3,5.2,5.2v86.6
		c-13.9-4.9-28.4-7.4-43.2-7.4c-3,0-6,0.1-8.9,0.3V608.3z M1473.6,545.3v-20c0-2.9,2.4-5.3,5.3-5.3l0,0h67.8c2.9,0,5.3,2.4,5.3,5.3
		l0,0v20H1473.6z M1531.4,559.3v13.5H1493v-13.5H1531.4z M1588,960.6c0,14.3-11.6,25.9-25.9,25.9h-5.1l9.7-16.1
		c1.9-3.4,0.6-7.6-2.8-9.5c-3.2-1.8-7.2-0.7-9.2,2.3l-14,23.3h-19.6v-19.7c0-3.9-3.1-7-7-7s-7,3.1-7,7l0,0v19.7h-19.6l-14-23.3
		c-1.9-3.4-6.1-4.6-9.5-2.8c-3.4,1.9-4.6,6.1-2.8,9.5c0.1,0.2,0.2,0.3,0.3,0.5l9.7,16.1h-8.8c-14.3,0-25.8-11.6-25.8-25.9V847.2
		h62.6c3.9,0,7-3.1,7-7c0-3.9-3.1-7-7-7h-62.6v-53.6h62.6c3.9,0,7-3.1,7-7c0-3.9-3.1-7-7-7h-62.6v-84.1c0-12.1,4-23.9,11.3-33.6
		l46.1-61.1h38.1l45.1,61.2c7.1,9.6,10.9,21.2,10.9,33.1v3.3c-62.3,34.9-84.5,113.8-49.6,176.1c11.6,20.8,28.8,37.9,49.6,49.6
		L1588,960.6z M1838.6,986.5h-178c-9.6,0-17.6-7.5-18.1-17.1h214.3C1856.2,979,1848.2,986.5,1838.6,986.5z M1856.8,955.3h-214.4
		v-29.1c2.9,0.2,5.9,0.3,8.9,0.3c71.4,0,129.4-57.9,129.4-129.3c0-24.5-6.9-48.4-20-69.1h14.3c16.4,0,29.7-13.4,29.7-29.8v-90h30
		c3.9,0,7-3.1,7-7s-3.1-7-7-7h-30v-5.8c0-2.9,2.3-5.2,5.2-5.2h41.7c2.9,0,5.2,2.3,5.1,5.2L1856.8,955.3z"/>
	<path class="st0" d="M1633.1,830.7c0.7,3.5,4,5.8,7.6,5.2c3.1-0.6,5.3-3.2,5.3-6.3c0,3.6,2.9,6.5,6.5,6.5c3.6,0,6.5-2.9,6.5-6.5
		c0-0.8-0.1-1.6-0.4-2.3c-0.3-0.9-6.3-9.2-9.9-14.1c-1.1-1.4-3.1-1.8-4.5-0.7c-0.3,0.2-0.5,0.4-0.7,0.7l-9,12.4
		c-0.2,0.3-0.4,0.6-0.6,1l0,0C1633.1,827.8,1632.8,829.3,1633.1,830.7z"/>
	<path class="st0" d="M1667.9,813c6.9,3,14.5,1.1,16.8-4.3c2.4-5.4-1.3-12.2-8.3-15.3c-6.9-3-14.5-1.1-16.8,4.3
		C1657.2,803.2,1660.9,810,1667.9,813z"/>
	<path class="st0" d="M1622.4,813c6.9-3,10.7-9.9,8.3-15.3c-2.4-5.4-9.9-7.3-16.8-4.3c-6.9,3-10.6,9.9-8.3,15.3
		C1608,814.2,1615.5,816.1,1622.4,813z"/>
	<path class="st0" d="M1587.7,840.4c4.4,3.1,7,8.2,7,13.5v2.7c0,11.9,9.7,21.6,21.6,21.6h59.1c11.9,0,21.6-9.7,21.6-21.6V854
		c0-5.4,2.6-10.4,7-13.5c10.5-7.6,16.7-19.7,16.6-32.7v-17c0.1-19.8-7.8-38.8-21.9-52.8l0,0c-29.2-29.2-76.5-29.2-105.6,0
		c-14,14-21.9,33-21.9,52.8v17C1571.1,820.7,1577.2,832.9,1587.7,840.4z M1585.2,790.8c0-33.5,27.2-60.7,60.7-60.7
		c16.1,0,31.5,6.4,42.9,17.8l0,0c11.4,11.4,17.8,26.8,17.8,42.9v17c0.1,8.4-3.9,16.3-10.6,21.2c-8.1,5.7-12.9,15.1-12.9,25v2.7
		c0,4.2-3.4,7.6-7.6,7.6h-9.5v-7.2c0-3.3-2.7-6-6-6s-6,2.7-6,6v7.2h-16v-7.2c0-3.3-2.7-6-6-6s-6,2.7-6,6v7.2h-9.5
		c-4.2,0-7.6-3.4-7.6-7.6V854c0-9.9-4.8-19.3-12.9-25c-6.8-4.9-10.7-12.8-10.6-21.2L1585.2,790.8z"/>
</g>
<path class="st0" d="M1311.1,391.4c9.3,0,18.5,2.2,27,6.4c8.5,4.3,16.2,10.5,22.5,18.4c22.5,24.9,52.3,38.7,83.4,38.7
	c31.1,0,61-13.9,83.4-38.7c6.4-7.8,14-14.1,22.6-18.4c8.5-4.3,17.7-6.5,27-6.5s18.5,2.2,27,6.5c8.5,4.3,16.2,10.5,22.6,18.4
	c22.5,24.9,52.3,38.7,83.4,38.7c31.1,0,61-13.9,83.4-38.7c6.4-7.8,14-14.1,22.6-18.4c8.5-4.3,17.7-6.5,27-6.5c9.3,0,18.5,2.2,27,6.5
	c8.5,4.3,16.2,10.5,22.6,18.4c22.3,25.2,52.3,39.3,83.4,39.1c7,0,13.8-3.2,18.7-9c5-5.8,7.8-13.6,7.8-21.7c0-8.1-2.8-15.9-7.8-21.7
	c-5-5.8-11.7-9-18.7-9c-9.3,0-18.5-2.2-27.1-6.5c-8.5-4.3-16.2-10.6-22.6-18.5c-22.4-25-52.3-39-83.4-39c-31.1,0-61,14-83.4,39
	c-6.3,7.9-14,14.2-22.6,18.5c-8.5,4.3-17.7,6.5-27,6.5s-18.5-2.2-27-6.5c-8.5-4.3-16.2-10.6-22.6-18.5c-22.4-25-52.3-39-83.4-39
	c-31.1,0-61,14-83.4,39c-6.3,7.9-14,14.2-22.5,18.5c-8.5,4.3-17.7,6.5-27,6.5c-9.3,0-18.5-2.2-27-6.5c-8.5-4.3-16.2-10.6-22.5-18.5
	c-22.3-25.1-52.3-39.1-83.4-38.9c-7,0-13.8,3.2-18.7,9c-5,5.8-7.8,13.6-7.8,21.7c0,8.1,2.8,15.9,7.8,21.7
	C1297.3,388.2,1304.1,391.4,1311.1,391.4z"/>
<g id="Layer_x0020_1">
	<path class="st1" d="M386.3,960.4H333c-5.4,0-9.5-5.2-7.9-10.3c15-50.3,23.1-98.8,27.2-143.4c-28,2.2-56.9,15.2-80.8,30.2
		c-0.8,0.5-1.6,1.1-2.7,1.6c-33.5,20.9-57.7,44.9-57.9,45.4c-4.4,4.4-13.1,2.2-13.9-4.9c-10.6-79.4,16.6-122.2,28.8-137.1
		c-12.2-15-39.4-57.7-28.8-137.1c0.8-6.5,9-9.5,13.9-4.6c29.4,29.1,90.6,73.5,141.5,77.3c-0.5-6.8-1.1-13.1-1.9-19
		c-8.2-75.4-25-123.8-25-124.1c-1.9-6.3,2.4-10.9,7.6-10.9h53.6c44.3,0,89.8,10.9,131.4,31.6c1.9,0.3,3.5,1.4,4.9,2.7
		c10.3,5.2,20.1,11.2,29.7,17.7c50.6,33.7,87.9,80.8,105.6,132.2c1.6,4.4-1.1,9.2-5.7,10.3c-15,4.4-14.7,26.7,0,30.5
		c4.6,1.4,7.3,6,5.7,10.6C622.2,868.5,503.8,960.4,386.3,960.4z M584.4,850.3c-31.6-26.1-46.2-64.7-46.8-66.4
		c-3.8-10.1,11.2-16.1,15.2-5.7c0.3,0.3,14.1,36.7,42.2,59.9c19.6-23.4,35.1-49.5,45.2-77c-20.7-12.8-19.9-43,0-55.2
		c-18.8-49-56.6-91.4-103.7-121.3c15,37-1.6,62.6-24.2,96.6c-36.2,55.5-36.2,66.7,0,121.9c19,28.8,36.5,54.7,27.7,86.8
		C555.8,878,570.8,864.7,584.4,850.3z M515.8,905.5c6.3-12,10.3-22.3,10.3-32.9c0-40-57.1-84.3-57.1-130.6
		c0-46.5,57.1-90.6,57.1-130.6c0-13.1-6.3-25.8-14.7-41.1c-20.7-10.6-43-18.5-65.8-23.9c25.3,50.3,12.2,78.1-15.5,126
		c-36.5,63.1-36.2,76.4-0.3,139c28,49,40.3,74.3,16.6,124.3C470.4,929.2,493.8,918.8,515.8,905.5z M575.9,710.2
		c-13.1,0-23.7-10.1-23.7-22.6s11.2-23.7,23.7-23.7s22.6,10.6,22.6,23.7C598.5,700.4,588.7,710.2,575.9,710.2z M575.9,680.2
		c-8.7,0-10.3,13.6,0,13.6C585.2,693.8,583.6,680.2,575.9,680.2z M260.1,824.7c14.7-26.9,34.8-55.5,34.8-82.7
		c0-22-12.8-44.1-26.4-67.7c-2.7-4.9-5.7-9.8-8.4-14.7c-20.7-13.1-37.8-26.9-48.7-36.5c-2.4,38.6,4.6,66.1,11.7,82.7
		c12.2,28.8,21.8,28.6,21.8,36.2s-9.5,7.6-21.8,36.2c-7.1,16.9-14.4,44.1-11.7,82.7C222.3,851.6,239.4,837.5,260.1,824.7z
		 M287.6,675.1c31.6,55.2,31.3,78.9,0,134.1c20.7-10.1,43.3-17.7,65.8-18.8c2.2-35.6,1.9-68,0-96.6
		C330.8,692.7,308.2,685.1,287.6,675.1z M425.5,940.6c27.5-51.1,20.1-68.6-9.8-121.1c-39.2-68.3-39.2-87.1,0-155.3
		c29.4-50.6,38.1-71,9.2-121.6c-26.9-3.8-53.9-2.7-80.8-2.7c20.9,69.9,31.3,164.9,25.6,251.6c-3.3,52.2-12,103.7-25.8,152.6
		C371.4,944.1,398.3,945.5,425.5,940.6z"/>
</g>
<path class="st0" d="M771.2,382.4c5-5.8,7.8-13.6,7.8-21.7c0-8.1-2.8-15.9-7.8-21.7c-5-5.8-11.7-9-18.7-9
	c-31.1-0.1-61.1,13.8-83.4,38.9c-6.3,7.9-14,14.2-22.5,18.5c-8.5,4.3-17.7,6.5-27,6.5s-18.5-2.2-27-6.5
	c-8.5-4.3-16.2-10.6-22.5-18.5c-22.4-25-52.3-39-83.4-39s-61,14-83.4,39c-6.3,7.9-14,14.2-22.6,18.5c-8.5,4.3-17.7,6.5-27,6.5
	c-9.3,0-18.5-2.2-27-6.5c-8.5-4.3-16.2-10.6-22.6-18.5c-22.4-25-52.3-39-83.4-39c-31.1,0-61,14-83.4,39c-6.3,7.9-14,14.2-22.6,18.5
	c-8.5,4.3-17.8,6.5-27.1,6.5c-7,0-13.8,3.2-18.7,9c-5,5.8-7.8,13.6-7.8,21.7c0,8.1,2.8,15.9,7.8,21.7c5,5.8,11.7,9,18.7,9
	c31.2,0.2,61.1-13.9,83.4-39.1c6.4-7.8,14-14.1,22.6-18.4c8.5-4.3,17.7-6.5,27-6.5c9.3,0,18.5,2.2,27,6.5
	c8.5,4.3,16.2,10.5,22.6,18.4c22.5,24.9,52.3,38.7,83.4,38.7c31.1,0,61-13.9,83.4-38.7c6.4-7.8,14-14.1,22.6-18.4
	c8.5-4.3,17.7-6.5,27-6.5s18.5,2.2,27,6.5c8.5,4.3,16.2,10.5,22.6,18.4c22.5,24.9,52.3,38.7,83.4,38.7c31.1,0,61-13.9,83.4-38.7
	c6.3-7.9,14-14.1,22.5-18.4c8.5-4.3,17.7-6.5,27-6.4C759.5,391.4,766.3,388.2,771.2,382.4z"/>
<text transform="matrix(1 0 0 1 1284.615 283.2764)" class="st0 st2 st3">2050</text>
<text transform="matrix(1 0 0 1 70.6554 286.6275)" class="st0 st2 st3">2023</text>
<path id="Arrow_Forward" class="st1" d="M1160.9,700.2c0-2.5-1-4.9-2.8-6.7l-93.2-94.2c-3.7-3.7-9.6-3.7-13.3,0
	c-3.7,3.7-3.7,9.7,0,13.4l77.2,77.9H869c-5.2,0-9.4,4.3-9.4,9.5s4.2,9.5,9.4,9.5h259.8l-77.1,77.9c-3.7,3.7-3.7,9.7,0,13.4
	c3.7,3.7,9.6,3.7,13.3,0l93.2-94.2C1159.9,705.1,1160.9,702.7,1160.9,700.2z"/>
</svg>
