<?xml version="1.0" encoding="utf-8"?>
<!-- Generator: Adobe Illustrator 28.3.0, SVG Export Plug-In . SVG Version: 6.00 Build 0)  -->
<svg version="1.1"
	 id="svg896" xmlns:sodipodi="http://sodipodi.sourceforge.net/DTD/sodipodi-0.dtd" xmlns:rdf="http://www.w3.org/1999/02/22-rdf-syntax-ns#" xmlns:cc="http://creativecommons.org/ns#" xmlns:svg="http://www.w3.org/2000/svg" xmlns:dc="http://purl.org/dc/elements/1.1/" xmlns:inkscape="http://www.inkscape.org/namespaces/inkscape"
	 xmlns="http://www.w3.org/2000/svg" xmlns:xlink="http://www.w3.org/1999/xlink" x="0px" y="0px" viewBox="0 0 653.9 670.3"
	 style="enable-background:new 0 0 653.9 670.3;" xml:space="preserve">
<style type="text/css">
	.st0{fill:#184B5C;}
	.st1{font-family:'Montserrat-Bold';}
	.st2{font-size:32.5355px;}
</style>
<g>
	
		<sodipodi:namedview  bordercolor="#666666" borderopacity="1.0" id="base" inkscape:current-layer="layer1" inkscape:cx="58.672069" inkscape:cy="27.349152" inkscape:document-rotation="0" inkscape:document-units="px" inkscape:pageopacity="0.0" inkscape:pageshadow="2" inkscape:window-height="706" inkscape:window-maximized="1" inkscape:window-width="1366" inkscape:window-x="-8" inkscape:window-y="-8" inkscape:zoom="6.9606318" pagecolor="#ffffff" showgrid="false" units="px">
		</sodipodi:namedview>
	<g id="layer1" inkscape:groupmode="layer" inkscape:label="Layer 1">
		<path id="path69" class="st0" d="M215.2,353.9c-5.5,0-9.9,4.5-9.9,10c0,0,0,0,0,0v10.2h-40.6c-2.6,0-5.1,1-7,2.8l-20.2,19.4
			c-2,1.9-3.1,4.5-3.1,7.2v11.1H114c-2.6,0-5.2,1-7,2.9l-60.7,60.7c-1.9,1.9-2.9,4.4-2.9,7v100.6c0,0.2,0,0.4,0,0.5v25.5h-0.2
			c-5.5,0-9.9,4.4-9.9,9.9c0,5.5,4.4,9.9,9.9,9.9h10.1h62c4.6,20.2,22.7,35.4,44.2,35.4c21.5,0,39.6-15.2,44.1-35.4h62v5.2
			c0,5.5,4.4,9.9,9.9,9.9h80.9c5.5,0,9.9-4.4,9.9-9.9v-5.2h11.8c4.6,20.2,22.6,35.4,44.1,35.4c14.4,0,27.1-6.9,35.4-17.4
			c8.3,10.5,21,17.4,35.4,17.4c21.5,0,39.6-15.2,44.2-35.4h51.9h20.2c5.5,0,9.9-4.4,9.9-9.9c0-5.5-4.5-9.9-9.9-9.9h-10.3v-25.6h40.6
			c5.5,0,10-4.4,10-9.9c0,0,0-0.1,0-0.1V465c0-1.3-0.3-2.5-0.7-3.7l-40.5-101.2c-1.5-3.8-5.1-6.2-9.2-6.3h-60.7H215.2z M225.1,373.8
			h303.7V546l-283.5,0V434.7c0-0.3,0-0.6,0-0.8c-0.4-5.1-4.7-9.1-9.9-9.1h-10.3V373.8z M548.7,373.8h44l37.3,93.1v99.4h-36.4
			l-16.4-17.2c-1.9-2-4.5-3.1-7.2-3.1h-21.2V373.8z M168.6,394h36.7v20.5h-50.9v-6.8L168.6,394z M569.1,394.3c-5.5,0-9.9,4.5-9.9,10
			c0,0,0,0,0,0c0,5.5,4.4,9.9,9.9,9.9h10.2c5.5,0,9.9-4.5,9.9-9.9c0-5.5-4.4-10-9.9-10c0,0,0,0,0,0L569.1,394.3z M118.1,434.5h87.1
			v0.2c0,5.5,4.4,9.9,9.9,9.9h10.3v131.6v35.6h-21.8c-4.6-20.2-22.6-35.4-44.1-35.4s-39.6,15.2-44.2,35.4h-52v-15.5h10.2
			c5.5,0,10-4.4,10-9.9c0,0,0,0,0,0c0-5.5-4.5-9.9-10-9.9c0,0,0,0,0,0H63.3v-87.1L118.1,434.5z M569.1,434.8c-5.5,0-9.9,4.4-9.9,9.9
			c0,5.5,4.4,10,9.9,10c0,0,0,0,0,0h20.2c5.5,0,9.9-4.5,9.9-10c0,0,0,0,0,0c0-5.5-4.4-9.9-9.9-9.9L569.1,434.8z M134.2,455
			c-2.6,0-5.2,1.1-7,2.9l-40.5,40.5c-1.9,1.9-2.9,4.4-2.9,7V556c0,5.5,4.4,9.9,9.9,9.9h50.6c5.5,0,9.9-4.4,9.9-9.9v-20.5h40.6
			c5.5,0,9.9-4.4,9.9-9.9V465c0-5.5-4.4-9.9-9.9-9.9H134.2z M138.4,475H185v40.8h-40.6c-5.5,0-10,4.4-10,9.9c0,0,0,0,0,0V546h-30.7
			v-36.5L138.4,475z M569.1,475.3c-5.5,0-9.9,4.4-9.9,9.9c0,5.5,4.4,9.9,9.9,9.9h40.5c5.5,0,9.9-4.4,9.9-9.9c0-5.5-4.5-9.9-9.9-9.9
			L569.1,475.3z M569.1,515.7c-5.5,0-9.9,4.4-9.9,9.9c0,5.5,4.4,9.9,9.9,9.9h40.5c5.5,0,9.9-4.4,9.9-9.9c0-5.5-4.5-9.9-9.9-9.9
			L569.1,515.7z M245.3,566h320.4l13.7,14.3v31.6h-42c-4.6-20.2-22.7-35.4-44.2-35.4c-14.4,0-27.1,6.9-35.4,17.4
			c-8.3-10.5-21-17.4-35.4-17.4c-21.5,0-39.6,15.2-44.1,35.4h-11.8v-25.5c0-5.5-4.5-9.9-9.9-9.9h-80.9c-5.5,0-9.9,4.4-9.9,9.9v25.5
			h-20.4V566z M159.5,596.3c14.2,0,25.5,11.3,25.5,25.5c0,14.2-11.3,25.5-25.5,25.5c-14.2,0-25.4-11.3-25.4-25.5
			C134.1,607.6,145.4,596.3,159.5,596.3z M285.6,596.3h20.5V627h-20.5V596.3z M326,596.3h20.6V627H326V596.3z M422.5,596.3
			c14.2,0,25.5,11.3,25.5,25.5c0,14.2-11.3,25.5-25.5,25.5S397,635.9,397,621.7C397,607.6,408.3,596.3,422.5,596.3z M493.2,596.3
			c14.2,0,25.5,11.3,25.5,25.5c0,14.2-11.3,25.5-25.5,25.5c-14.2,0-25.5-11.3-25.5-25.5C467.8,607.6,479.1,596.3,493.2,596.3z
			 M364.6,528.8c-0.7,0-1.3-0.1-2.1-0.4l-10.5-3.6h-17.6l-12.7,3.6l0,0c-2,0.6-4.2,0.2-6-1.2c-2.3-1.9-3.9-5-3.9-7.9v-74.9
			c0-12.9,8.2-24.1,20.1-28.5v-18.7c0-3.6,2.9-6.6,6.6-6.6h7.4c3.6,0,6.5,2.9,6.5,6.6v18.7c12,4.3,20.2,15.6,20.2,28.5v15.9
			c0,0.7-0.4,1.3-1,1.8c-2.5,1.6-4,4.4-4,7.3v53.1c0,0.3,0.3,0.4,0.5,0.4c0.8,0.2,1.4,0.8,1.7,1.5c0.3,0.7,0,1.8-0.6,2.2
			C367.8,528.2,366.2,528.8,364.6,528.8z M321,526.5L321,526.5L321,526.5z M336.2,415.7c0.4,0.4,0.7,0.9,0.8,1.5
			c0.2,1.1-0.4,2.1-1.6,2.3c-11.3,3-19.3,13.3-19.3,25v74.7c0,1.8,0.8,3.6,2.2,4.6c0.7,0.4,1.4,0.7,2.2,0.4l12.9-3.6
			c0.3,0,0.4-0.2,0.6-0.2h18.4c0.3,0,0.4,0,0.7,0.2l10.5,3.6c-0.3-0.5-0.3-1.2-0.3-1.6v-53.1c0-3.9,1.9-7.7,5-10.1v-14.9
			c0-11.7-7.9-22-19.4-25c-1.1-0.2-1.7-1.2-1.6-2.3c0.1-0.6,0.4-1.2,0.7-1.3v-18.5c0-1.2-1-2.2-2.2-2.2h-7.4c-1.2,0-2.2,1-2.2,2.2
			L336.2,415.7L336.2,415.7z M392.3,527.5h-24.1c-2.7,0-4.8-2.2-4.8-4.8v-53.1c0-5.4,3.3-10.1,8.3-12.1v-7.4c0-4.4,3.5-7.7,7.7-7.7
			h1.8c4.3,0,7.7,3.4,7.7,7.7v7.4c5,2,8.3,6.7,8.3,12.1v53.1C397.2,525.4,395,527.5,392.3,527.5z M379.3,446.6c-2,0-3.5,1.5-3.5,3.5
			v9c0,1-0.7,1.9-1.6,2.1c-3.8,1-6.7,4.4-6.7,8.4v53.1c0,0.3,0.3,0.4,0.5,0.4h24.2c0.2,0,0.4-0.2,0.4-0.4v-53.1
			c0-3.9-2.8-7.4-6.7-8.4c-1-0.3-1.6-1.2-1.6-2.1v-9c0-1.9-1.6-3.5-3.5-3.5H379.3z M356,409h-27.7c-1.2,0-2.2-1-2.2-2.2
			c0-1.2,1-2.2,2.2-2.2H356c1.2,0,2.2,1,2.2,2.2C358.2,408,357.2,409,356,409z M370.4,450.4h-38.6c-1.2,0-2.2-1-2.2-2.2
			c0-1.2,1-2.2,2.2-2.2h38.6c1.2,0,2.2,1,2.2,2.2C372.6,449.4,371.6,450.4,370.4,450.4z M324.9,491.2c-1.2,0-2.2-1-2.2-2.2v-20.1
			c0-1.2,1-2.2,2.2-2.2c1.2,0,2.2,1,2.2,2.2V489C327.1,490.2,326.1,491.2,324.9,491.2z M324.9,465.9c-1.2,0-2.2-1-2.2-2.2v-2.4
			c0-1.2,1-2.2,2.2-2.2c1.2,0,2.2,1,2.2,2.2v2.4C327.1,464.9,326.1,465.9,324.9,465.9z M348,508h-34c-1.2,0-2.2-1-2.2-2.2
			c0-1.2,1-2.2,2.2-2.2h34c1.2,0,2.2,1,2.2,2.2C350.2,507,349.1,508,348,508z M395,483.3h-20.4c-1.2,0-2.2-1-2.2-2.2
			c0-1.2,1-2.2,2.2-2.2h20.6c1.2,0,2.2,1,2.2,2.2C397.4,482.3,396.2,483.3,395,483.3z M395,497h-20.4c-1.2,0-2.2-1-2.2-2.2
			c0-1.2,1-2.2,2.2-2.2h20.6c1.2,0,2.2,1,2.2,2.2C397.4,496,396.2,497,395,497z M395,510.6h-20.4c-1.2,0-2.2-1-2.2-2.2
			s1-2.2,2.2-2.2h20.6c1.2,0,2.2,1,2.2,2.2S396.2,510.6,395,510.6z M369.8,441.5H348c-1.2,0-2.2-1-2.2-2.2c0-1.2,1-2.2,2.2-2.2h22
			c1.2,0,2.2,1,2.2,2.2C372.2,440.6,371,441.5,369.8,441.5z M451,529h-38.3c-1.2,0-2-0.9-2.1-1.9l-1.5-11l-5.4-43.3
			c-0.1-1.2,0.8-2.2,1.9-2.4c1.2-0.2,2.2,0.7,2.5,1.8l5.4,43.3l1.2,9.1h34.5l1.2-9.3l5.3-43c0.1-1.2,1.2-2.1,2.5-1.9
			c1.2,0.1,2,1.2,1.8,2.5l-6.8,54.2C453,528.1,452,529,451,529z M458.4,474.6h-52.7c-2.8,0-5.2-2.3-5.2-5.2s2.3-5.2,5.2-5.2h52.7
			c3,0,5.2,2.2,5.2,5.2S461.3,474.6,458.4,474.6z M405.7,468.8c-0.4,0-0.9,0.4-0.9,0.8c0,0.4,0.5,0.9,0.9,0.9h52.7
			c0.5,0,0.9-0.5,0.9-0.9c0-0.4-0.4-0.8-0.9-0.8H405.7z M452.4,517.9h-9.6c-1.2,0-2.2-1-2.2-2.2s1-2.2,2.2-2.2h9.6
			c1.2,0,2.2,1,2.2,2.2S453.6,517.9,452.4,517.9z M434.4,517.9h-23.2c-1.2,0-2.2-1-2.2-2.2s1-2.2,2.2-2.2h23.2c1.2,0,2.2,1,2.2,2.2
			S435.6,517.9,434.4,517.9z M445.9,506.5c-0.2,0-0.2,0-0.3,0c-1.2-0.1-2-1.2-1.9-2.5l2.8-22.3c0.2-1.2,1.2-2,2.5-1.9
			c1.2,0.2,2,1.2,1.9,2.5l-2.8,22.3C447.8,505.8,446.9,506.5,445.9,506.5z M417.7,506.5c-1.2,0-2-0.7-2.1-1.9l-2.8-22.3
			c-0.1-1.2,0.8-2.2,1.9-2.5c1.2-0.1,2.2,0.8,2.5,1.9l2.7,22.3c0.2,1.2-0.7,2.2-1.8,2.5C417.8,506.5,417.7,506.5,417.7,506.5z
			 M374.9,158.3c-10.7,0-19.5,8.7-19.5,19.4c0,3.6,1,7.1,2.8,10.1L326.9,219c-1.9,1.8-1.9,4.8-0.1,6.7c1.8,1.9,4.8,1.9,6.7,0.1
			c0,0,0.1-0.1,0.1-0.1l31.3-31.3c9.2,5.5,21.2,2.5,26.7-6.7c5.5-9.2,2.5-21.2-6.7-26.7C381.9,159.2,378.4,158.3,374.9,158.3z
			 M374.9,187.8c-5.5,0-10-4.5-10-10c0-5.5,4.5-10,10-10c5.5,0,10,4.5,10,10c0,0,0,0,0,0C384.9,183.3,380.4,187.8,374.9,187.8z
			 M248,177.8c0,70,56.7,126.8,126.7,126.9c20.5,0,40.7-5,58.9-14.5c27.1,22.3,67.1,18.4,89.4-8.7s18.4-67.1-8.7-89.4
			c-3.9-3.2-8.2-5.9-12.7-8.1c0.1-2.1,0.2-4.2,0.2-6.2c0-36.1-15.4-70.5-42.4-94.5l8.1-8.1l5.1,5.1c1.9,1.8,4.9,1.8,6.7-0.1
			c1.8-1.8,1.8-4.7,0-6.6l-8.4-8.4l0,0l0,0l-8.4-8.4c-1.8-1.8-4.8-1.9-6.7,0c-1.8,1.8-1.9,4.8,0,6.7l5.1,5.1l-8.7,8.7
			c-20.8-16.1-46.2-25.2-72.5-26.1v-9.8h12.5c8.2,0,14.8-6.6,14.8-14.8c0-8.2-6.6-14.8-14.8-14.8h-34.4c-8.2,0-14.8,6.6-14.8,14.8
			c0,8.2,6.6,14.8,14.8,14.8h12.5V51c-26.3,1-51.6,10.1-72.5,26.1l-8.7-8.7l5.1-5.1c1.8-1.9,1.8-4.9-0.1-6.7c-1.8-1.8-4.7-1.8-6.6,0
			l-16.8,16.8c-1.8,1.9-1.8,4.9,0.1,6.7c1.8,1.8,4.7,1.8,6.6,0l5.1-5.1l8.1,8.1C263.4,107.2,248,141.6,248,177.8z M352.3,26.4
			c0-3,2.4-5.4,5.4-5.4l0,0h34.4c3,0,5.4,2.4,5.4,5.4c0,3-2.4,5.4-5.4,5.4h-34.4C354.7,31.8,352.3,29.4,352.3,26.4
			C352.3,26.5,352.3,26.5,352.3,26.4z M414.4,263.4c-47.3,21.8-103.3,1.2-125.1-46.1C267.5,170,288.1,114,335.4,92.2
			s103.3-1.2,125.1,46.1c5.7,12.4,8.7,25.8,8.7,39.5c-0.3,0-0.6,0.1-1,0.1c-0.9,0.1-1.9,0.2-2.8,0.3c-1.1,0.2-2.2,0.3-3.4,0.5
			c-0.9,0.2-1.8,0.4-2.8,0.6c-0.6,0.1-1.2,0.2-1.8,0.4c0.3-0.6,0.4-1.3,0.4-2c-0.1-45.8-37.2-83-83-83c-2.6,0-4.7,2.1-4.7,4.7
			c0,2.6,2.1,4.7,4.7,4.7c40.6,0,73.5,33,73.6,73.6c0,1.7,0.9,3.3,2.5,4.1c-0.2,0.1-0.5,0.2-0.7,0.3c-0.9,0.3-1.7,0.7-2.5,1.1
			c-1,0.5-2,0.9-3,1.4c-0.8,0.4-1.6,0.9-2.4,1.3c-1,0.5-1.9,1.1-2.8,1.7c-0.8,0.5-1.5,1-2.2,1.5c-0.9,0.6-1.8,1.3-2.6,2
			c-0.7,0.6-1.4,1.1-2.1,1.7c-0.8,0.7-1.6,1.5-2.4,2.2c-0.6,0.6-1.3,1.2-1.9,1.9c-0.8,0.8-1.5,1.6-2.2,2.4c-0.6,0.7-1.2,1.3-1.7,2
			c-0.7,0.9-1.3,1.8-2,2.7c-0.5,0.7-1,1.4-1.5,2.2c-0.6,0.9-1.2,1.9-1.8,2.9c-0.4,0.8-0.9,1.5-1.3,2.3c-0.5,1-1,2-1.5,3.1
			c-0.4,0.8-0.8,1.6-1.1,2.4c-0.4,1.1-0.8,2.2-1.2,3.3c-0.3,0.8-0.6,1.6-0.8,2.4c-0.4,1.2-0.6,2.4-0.9,3.6c-0.2,0.8-0.4,1.6-0.6,2.4
			c-0.3,1.4-0.4,2.7-0.6,4.1c-0.1,0.7-0.2,1.3-0.3,2c-0.2,2.1-0.3,4.2-0.3,6.3c0,1.7,0.1,3.5,0.2,5.2c0,0.3,0,0.6,0.1,0.9
			c0.2,1.7,0.4,3.3,0.7,4.9c0.1,0.3,0.1,0.6,0.2,0.9c0.6,3.4,1.6,6.7,2.7,9.9C414.3,263.1,414.3,263.2,414.4,263.4z M528,241.1
			c0,29.9-24.3,54.1-54.2,54.1c-21.1,0-40.2-12.3-49.1-31.4c-3.3-7.1-5-14.8-4.9-22.6c0-29.8,24.2-54.1,54-54.1c0,0,0,0,0.1,0
			c1.8,0,3.6,0.1,5.4,0.3c5.4,0.5,10.6,1.9,15.6,4l0,0C514.9,199.7,528,219.3,528,241.1z M492.3,177.8c0,0.8,0,1.7,0,2.5
			c-1.8-0.5-3.5-0.9-5.3-1.3c-0.5-0.1-1-0.2-1.5-0.3c-1.4-0.3-2.8-0.5-4.3-0.6c-0.5-0.1-1.1-0.1-1.6-0.2c-0.3,0-0.6-0.1-0.9-0.1
			c0-57.3-46.5-103.7-103.7-103.7s-103.7,46.5-103.7,103.7c0,57.3,46.5,103.7,103.7,103.7c15,0,29.8-3.3,43.4-9.5
			c0.1,0.3,0.3,0.5,0.5,0.8c0.3,0.5,0.6,0.9,0.9,1.4c0.7,1.2,1.5,2.4,2.4,3.6c0.3,0.4,0.6,0.9,0.9,1.3c1.1,1.5,2.2,2.9,3.5,4.3
			c-58.3,28.4-128.6,4.2-157-54c-28.4-58.3-4.2-128.6,54-157s128.6-4.2,157,54C488.2,142.3,492.3,159.9,492.3,177.8z"/>
	</g>
	<text transform="matrix(1 0 0 1 429.5176 253.5416)" class="st0 st1 st2">1 MIN</text>
</g>
</svg>
