<?xml version="1.0" encoding="utf-8"?>
<!-- Generator: Adobe Illustrator 28.3.0, SVG Export Plug-In . SVG Version: 6.00 Build 0)  -->
<svg version="1.1"
	 id="svg896" xmlns:sodipodi="http://sodipodi.sourceforge.net/DTD/sodipodi-0.dtd" xmlns:rdf="http://www.w3.org/1999/02/22-rdf-syntax-ns#" xmlns:cc="http://creativecommons.org/ns#" xmlns:svg="http://www.w3.org/2000/svg" xmlns:dc="http://purl.org/dc/elements/1.1/" xmlns:inkscape="http://www.inkscape.org/namespaces/inkscape"
	 xmlns="http://www.w3.org/2000/svg" xmlns:xlink="http://www.w3.org/1999/xlink" x="0px" y="0px" viewBox="0 0 380 380"
	 style="enable-background:new 0 0 380 380;" xml:space="preserve">
<style type="text/css">
	.st0{fill:#184B5C;}
</style>
<g>
	
		<sodipodi:namedview  bordercolor="#666666" borderopacity="1.0" id="base" inkscape:current-layer="layer1" inkscape:cx="58.672069" inkscape:cy="27.349152" inkscape:document-rotation="0" inkscape:document-units="px" inkscape:pageopacity="0.0" inkscape:pageshadow="2" inkscape:window-height="706" inkscape:window-maximized="1" inkscape:window-width="1366" inkscape:window-x="-8" inkscape:window-y="-8" inkscape:zoom="6.9606318" pagecolor="#ffffff" showgrid="false" units="px">
		</sodipodi:namedview>
	<g id="layer1" inkscape:groupmode="layer" inkscape:label="Layer 1">
		<g id="path69">
			<path class="st0" d="M121.3,198.3c-3.1,0-5.7,2.6-5.7,5.7c0,0,0,0,0,0v5.9H92.4c-1.5,0-2.9,0.6-4,1.6l-11.6,11.1
				c-1.1,1.1-1.8,2.6-1.8,4.1v6.3H63.4c-1.5,0-3,0.6-4,1.7l-34.7,34.7c-1.1,1.1-1.7,2.5-1.7,4V331c0,0.1,0,0.2,0,0.3v14.6h-0.1
				c-3.1,0-5.7,2.5-5.7,5.7c0,3.1,2.5,5.7,5.7,5.7h5.8h35.5c2.6,11.5,13,20.2,25.3,20.2c12.3,0,22.6-8.7,25.3-20.2h35.5v3
				c0,3.1,2.5,5.7,5.7,5.7h46.3c3.1,0,5.7-2.5,5.7-5.7v-3h6.8c2.6,11.5,12.9,20.2,25.2,20.2c8.2,0,15.5-3.9,20.2-10
				c4.8,6,12,10,20.2,10c12.3,0,22.7-8.7,25.3-20.2h29.7h11.6c3.1,0,5.7-2.5,5.7-5.7c0-3.1-2.6-5.7-5.7-5.7H341v-14.7h23.2
				c3.1,0,5.7-2.5,5.7-5.7c0,0,0,0,0-0.1v-63.6c0-0.7-0.2-1.4-0.4-2.1l-23.2-57.9c-0.9-2.2-2.9-3.6-5.2-3.6h-34.7H121.3z M127,209.7
				h173.8v98.5l-162.2,0v-63.7c0-0.2,0-0.3,0-0.5c-0.3-2.9-2.7-5.2-5.7-5.2H127V209.7z M312.1,209.7h25.2l21.3,53.3v56.8h-20.8
				l-9.4-9.8c-1.1-1.1-2.6-1.8-4.1-1.8h-12.1V209.7z M94.6,221.3h21V233H86.5v-3.9L94.6,221.3z M323.7,221.5c-3.1,0-5.7,2.6-5.7,5.7
				c0,0,0,0,0,0c0,3.1,2.5,5.7,5.7,5.7h5.8c3.1,0,5.7-2.6,5.7-5.7c0-3.1-2.5-5.7-5.7-5.7c0,0,0,0,0,0L323.7,221.5z M65.8,244.4h49.8
				v0.1c0,3.1,2.5,5.7,5.7,5.7h5.9v75.3v20.4h-12.5c-2.6-11.5-13-20.2-25.3-20.2s-22.7,8.7-25.3,20.2H34.4V337h5.8
				c3.1,0,5.7-2.5,5.7-5.7c0,0,0,0,0,0c0-3.1-2.6-5.7-5.7-5.7c0,0,0,0,0,0h-5.8v-49.8L65.8,244.4z M323.7,244.6
				c-3.1,0-5.7,2.5-5.7,5.7c0,3.1,2.5,5.7,5.7,5.7c0,0,0,0,0,0h11.6c3.1,0,5.7-2.6,5.7-5.7c0,0,0,0,0,0c0-3.1-2.5-5.7-5.7-5.7
				L323.7,244.6z M75,256.2c-1.5,0-2.9,0.6-4,1.7L47.8,281c-1.1,1.1-1.7,2.5-1.7,4v29c0,3.1,2.5,5.7,5.7,5.7h29
				c3.1,0,5.7-2.5,5.7-5.7v-11.7h23.2c3.1,0,5.7-2.5,5.7-5.7v-34.7c0-3.1-2.5-5.7-5.7-5.7H75z M77.3,267.6H104v23.3H80.8
				c-3.1,0-5.7,2.5-5.7,5.7c0,0,0,0,0,0v11.7H57.5v-20.9L77.3,267.6z M323.7,267.8c-3.1,0-5.7,2.5-5.7,5.7c0,3.1,2.5,5.7,5.7,5.7
				h23.1c3.1,0,5.7-2.5,5.7-5.7c0-3.1-2.6-5.7-5.7-5.7L323.7,267.8z M323.7,290.9c-3.1,0-5.7,2.5-5.7,5.7c0,3.1,2.5,5.7,5.7,5.7
				h23.1c3.1,0,5.7-2.5,5.7-5.7c0-3.1-2.6-5.7-5.7-5.7L323.7,290.9z M138.5,319.6h183.3l7.8,8.2v18.1h-24
				c-2.6-11.5-13-20.2-25.3-20.2c-8.2,0-15.5,3.9-20.2,10c-4.8-6-12-10-20.2-10c-12.3,0-22.6,8.7-25.2,20.2h-6.8v-14.6
				c0-3.1-2.6-5.7-5.7-5.7h-46.3c-3.1,0-5.7,2.5-5.7,5.7v14.6h-11.7V319.6z M89.5,337c8.1,0,14.6,6.5,14.6,14.6
				c0,8.1-6.5,14.6-14.6,14.6s-14.6-6.5-14.6-14.6C74.9,343.4,81.4,337,89.5,337z M161.6,337h11.7v17.6h-11.7V337z M184.7,337h11.8
				v17.6h-11.8V337z M239.9,337c8.1,0,14.6,6.5,14.6,14.6c0,8.1-6.5,14.6-14.6,14.6c-8.1,0-14.6-6.5-14.6-14.6
				C225.3,343.4,231.8,337,239.9,337z M280.4,337c8.1,0,14.6,6.5,14.6,14.6c0,8.1-6.5,14.6-14.6,14.6c-8.1,0-14.6-6.5-14.6-14.6
				C265.8,343.4,272.2,337,280.4,337z M206.8,298.4c-0.4,0-0.8-0.1-1.2-0.2l-6-2h-10.1l-7.3,2.1l0,0c-1.1,0.4-2.4,0.1-3.4-0.7
				c-1.3-1.1-2.2-2.9-2.2-4.5v-42.9c0-7.4,4.7-13.8,11.5-16.3v-10.7c0-2.1,1.7-3.8,3.8-3.8h4.2c2,0,3.7,1.7,3.7,3.8v10.7
				c6.9,2.4,11.6,8.9,11.6,16.3v9.1c0,0.4-0.2,0.8-0.6,1c-1.4,0.9-2.3,2.5-2.3,4.2v30.4c0,0.2,0.2,0.3,0.3,0.3
				c0.5,0.1,0.8,0.5,1,0.9s0,1-0.4,1.3C208.6,298,207.7,298.4,206.8,298.4z M181.8,297.1L181.8,297.1L181.8,297.1z M190.5,233.7
				c0.3,0.2,0.4,0.5,0.5,0.9c0.1,0.6-0.3,1.2-0.9,1.3c-6.5,1.7-11,7.6-11,14.3V293c0,1,0.5,2.1,1.3,2.6c0.4,0.3,0.8,0.4,1.3,0.3
				l7.4-2.1c0.2,0,0.2-0.1,0.4-0.1h10.5c0.2,0,0.3,0,0.4,0.1l6,2c-0.2-0.3-0.2-0.7-0.2-0.9v-30.4c0-2.2,1.1-4.4,2.9-5.8v-8.5
				c0-6.7-4.5-12.6-11.1-14.3c-0.6-0.1-1-0.7-0.9-1.3c0.1-0.4,0.2-0.7,0.4-0.8v-10.6c0-0.7-0.6-1.3-1.3-1.3h-4.2
				c-0.7,0-1.3,0.6-1.3,1.3L190.5,233.7L190.5,233.7z M222.6,297.6h-13.8c-1.5,0-2.7-1.3-2.7-2.7v-30.4c0-3.1,1.9-5.8,4.7-6.9v-4.2
				c0-2.5,2-4.4,4.4-4.4h1c2.4,0,4.4,1.9,4.4,4.4v4.2c2.9,1.1,4.7,3.8,4.7,6.9v30.4C225.4,296.4,224.1,297.6,222.6,297.6z
				 M215.2,251.4c-1.1,0-2,0.9-2,2v5.1c0,0.6-0.4,1.1-0.9,1.2c-2.2,0.6-3.8,2.5-3.8,4.8v30.4c0,0.2,0.2,0.3,0.3,0.3h13.8
				c0.1,0,0.3-0.1,0.3-0.3v-30.4c0-2.2-1.6-4.2-3.8-4.8c-0.6-0.2-0.9-0.7-0.9-1.2v-5.1c0-1.1-0.9-2-2-2H215.2z M201.8,229.8H186
				c-0.7,0-1.3-0.6-1.3-1.3c0-0.7,0.6-1.3,1.3-1.3h15.8c0.7,0,1.3,0.6,1.3,1.3C203.1,229.3,202.6,229.8,201.8,229.8z M210.1,253.5
				H188c-0.7,0-1.3-0.6-1.3-1.3c0-0.7,0.6-1.3,1.3-1.3h22.1c0.7,0,1.3,0.6,1.3,1.3C211.4,252.9,210.8,253.5,210.1,253.5z M184,276.9
				c-0.7,0-1.3-0.6-1.3-1.3v-11.5c0-0.7,0.6-1.3,1.3-1.3c0.7,0,1.3,0.6,1.3,1.3v11.5C185.3,276.3,184.7,276.9,184,276.9z M184,262.4
				c-0.7,0-1.3-0.6-1.3-1.3v-1.4c0-0.7,0.6-1.3,1.3-1.3c0.7,0,1.3,0.6,1.3,1.3v1.4C185.3,261.9,184.7,262.4,184,262.4z M197.3,286.5
				h-19.4c-0.7,0-1.3-0.6-1.3-1.3c0-0.7,0.6-1.3,1.3-1.3h19.4c0.7,0,1.3,0.6,1.3,1.3C198.5,285.9,197.9,286.5,197.3,286.5z
				 M224.1,272.3h-11.7c-0.7,0-1.3-0.6-1.3-1.3c0-0.7,0.6-1.3,1.3-1.3h11.8c0.7,0,1.3,0.6,1.3,1.3
				C225.5,271.8,224.9,272.3,224.1,272.3z M224.1,280.2h-11.7c-0.7,0-1.3-0.6-1.3-1.3c0-0.7,0.6-1.3,1.3-1.3h11.8
				c0.7,0,1.3,0.6,1.3,1.3C225.5,279.6,224.9,280.2,224.1,280.2z M224.1,288h-11.7c-0.7,0-1.3-0.6-1.3-1.3s0.6-1.3,1.3-1.3h11.8
				c0.7,0,1.3,0.6,1.3,1.3S224.9,288,224.1,288z M209.7,248.5h-12.5c-0.7,0-1.3-0.6-1.3-1.3c0-0.7,0.6-1.3,1.3-1.3h12.6
				c0.7,0,1.3,0.6,1.3,1.3C211.1,247.9,210.4,248.5,209.7,248.5z M256.2,298.5h-21.9c-0.7,0-1.2-0.5-1.2-1.1l-0.9-6.3l-3.1-24.8
				c-0.1-0.7,0.5-1.3,1.1-1.4c0.7-0.1,1.3,0.4,1.4,1l3.1,24.8l0.7,5.2h19.7l0.7-5.3l3.1-24.6c0.1-0.7,0.7-1.2,1.4-1.1
				c0.7,0.1,1.1,0.7,1,1.4l-3.9,31C257.3,298,256.8,298.5,256.2,298.5z M260.4,267.4h-30.1c-1.6,0-3-1.3-3-3s1.3-3,3-3h30.1
				c1.7,0,3,1.3,3,3S262.1,267.4,260.4,267.4z M230.3,264c-0.2,0-0.5,0.2-0.5,0.5c0,0.2,0.3,0.5,0.5,0.5h30.1c0.3,0,0.5-0.3,0.5-0.5
				c0-0.3-0.2-0.5-0.5-0.5H230.3z M257,292.1h-5.5c-0.7,0-1.3-0.6-1.3-1.3c0-0.7,0.6-1.3,1.3-1.3h5.5c0.7,0,1.3,0.6,1.3,1.3
				C258.2,291.6,257.7,292.1,257,292.1z M246.7,292.1h-13.3c-0.7,0-1.3-0.6-1.3-1.3c0-0.7,0.6-1.3,1.3-1.3h13.3
				c0.7,0,1.3,0.6,1.3,1.3C248,291.6,247.4,292.1,246.7,292.1z M253.3,285.6c-0.1,0-0.1,0-0.2,0c-0.7-0.1-1.1-0.7-1.1-1.4l1.6-12.8
				c0.1-0.7,0.7-1.1,1.4-1.1c0.7,0.1,1.1,0.7,1.1,1.4l-1.6,12.8C254.4,285.2,253.9,285.6,253.3,285.6z M237.2,285.6
				c-0.7,0-1.2-0.4-1.2-1.1l-1.6-12.8c-0.1-0.7,0.5-1.3,1.1-1.4c0.7-0.1,1.3,0.5,1.4,1.1l1.5,12.8c0.1,0.7-0.4,1.3-1,1.4
				C237.2,285.6,237.2,285.6,237.2,285.6z M212.7,86.4c-6.1,0-11.1,5-11.2,11.1c0,2,0.5,4,1.6,5.8l-17.9,17.9
				c-1.1,1-1.1,2.7-0.1,3.8c1,1.1,2.7,1.1,3.8,0.1c0,0,0,0,0.1-0.1l17.9-17.9c5.3,3.2,12.1,1.5,15.3-3.8c3.2-5.3,1.5-12.1-3.8-15.3
				C216.7,87,214.7,86.4,212.7,86.4z M212.7,103.3c-3.2,0-5.7-2.6-5.7-5.7c0-3.2,2.6-5.7,5.7-5.7c3.2,0,5.7,2.6,5.7,5.7c0,0,0,0,0,0
				C218.4,100.7,215.8,103.3,212.7,103.3z M140.1,97.6c0,40.1,32.4,72.5,72.5,72.6c11.7,0,23.3-2.8,33.7-8.3
				c15.5,12.7,38.4,10.5,51.1-5s10.5-38.4-5-51.1c-2.2-1.8-4.7-3.4-7.3-4.6c0.1-1.2,0.1-2.4,0.1-3.5c0-20.7-8.8-40.3-24.2-54.1
				l4.6-4.6l2.9,2.9c1.1,1,2.8,1,3.8-0.1c1-1,1-2.7,0-3.8l-4.8-4.8l0,0l0,0l-4.8-4.8c-1.1-1.1-2.8-1.1-3.8,0c-1.1,1.1-1.1,2.8,0,3.8
				l2.9,2.9l-5,5c-11.9-9.2-26.4-14.4-41.4-15v-5.6h7.1c4.7,0,8.5-3.8,8.5-8.5c0-4.7-3.8-8.5-8.5-8.5h-19.7c-4.7,0-8.5,3.8-8.5,8.5
				c0,4.7,3.8,8.5,8.5,8.5h7.1v5.6c-15,0.5-29.5,5.8-41.4,15l-5-5l2.9-2.9c1-1.1,1-2.8-0.1-3.8c-1-1-2.7-1-3.8,0l-9.6,9.6
				c-1,1.1-1,2.8,0.1,3.8c1,1,2.7,1,3.8,0l2.9-2.9l4.6,4.6C148.9,57.2,140.1,76.9,140.1,97.6z M199.8,11c0-1.7,1.4-3.1,3.1-3.1l0,0
				h19.7c1.7,0,3.1,1.4,3.1,3.1c0,1.7-1.4,3.1-3.1,3.1h-19.7C201.1,14.1,199.8,12.7,199.8,11C199.8,11,199.8,11,199.8,11z
				 M235.2,146.6c-27,12.5-59.1,0.7-71.6-26.4c-12.5-27-0.7-59.1,26.4-71.6s59.1-0.7,71.6,26.4c3.3,7.1,5,14.8,5,22.6
				c-0.2,0-0.4,0.1-0.6,0.1c-0.5,0.1-1.1,0.1-1.6,0.2c-0.6,0.1-1.3,0.2-1.9,0.3c-0.5,0.1-1.1,0.2-1.6,0.3c-0.3,0.1-0.7,0.1-1,0.2
				c0.2-0.4,0.3-0.7,0.3-1.1c0-26.2-21.3-47.5-47.5-47.5c-1.5,0-2.7,1.2-2.7,2.7c0,1.5,1.2,2.7,2.7,2.7c23.2,0,42.1,18.9,42.1,42.1
				c0,1,0.5,1.9,1.4,2.4c-0.1,0.1-0.3,0.1-0.4,0.2c-0.5,0.2-1,0.4-1.4,0.6c-0.6,0.3-1.1,0.5-1.7,0.8c-0.5,0.2-0.9,0.5-1.4,0.7
				c-0.5,0.3-1.1,0.6-1.6,1c-0.4,0.3-0.9,0.6-1.3,0.9c-0.5,0.4-1,0.7-1.5,1.1c-0.4,0.3-0.8,0.6-1.2,1c-0.5,0.4-0.9,0.8-1.4,1.3
				c-0.4,0.4-0.7,0.7-1.1,1.1c-0.4,0.5-0.9,0.9-1.3,1.4c-0.3,0.4-0.7,0.8-1,1.2c-0.4,0.5-0.8,1-1.1,1.5c-0.3,0.4-0.6,0.8-0.9,1.2
				c-0.4,0.5-0.7,1.1-1,1.6c-0.3,0.4-0.5,0.9-0.8,1.3c-0.3,0.6-0.6,1.2-0.9,1.8c-0.2,0.5-0.4,0.9-0.6,1.4c-0.3,0.6-0.5,1.3-0.7,1.9
				c-0.2,0.5-0.3,0.9-0.5,1.4c-0.2,0.7-0.4,1.4-0.5,2.1c-0.1,0.5-0.2,0.9-0.3,1.3c-0.2,0.8-0.3,1.6-0.4,2.4
				c-0.1,0.4-0.1,0.8-0.2,1.2c-0.1,1.2-0.2,2.4-0.2,3.6c0,1,0.1,2,0.1,3c0,0.2,0,0.4,0,0.5c0.1,0.9,0.2,1.9,0.4,2.8
				c0,0.2,0.1,0.3,0.1,0.5c0.4,1.9,0.9,3.8,1.6,5.6C235.2,146.4,235.2,146.5,235.2,146.6z M300.2,133.8c0,17.1-13.9,30.9-31,30.9
				c-12.1,0-23-7-28.1-18c-1.9-4.1-2.8-8.5-2.8-12.9c0-17.1,13.8-30.9,30.9-30.9c0,0,0,0,0,0c1,0,2.1,0.1,3.1,0.2
				c3.1,0.3,6.1,1.1,8.9,2.3l0,0C292.8,110.1,300.2,121.3,300.2,133.8z M279.8,97.6c0,0.5,0,1,0,1.4c-1-0.3-2-0.5-3-0.8
				c-0.3-0.1-0.6-0.1-0.9-0.2c-0.8-0.1-1.6-0.3-2.4-0.4c-0.3,0-0.6-0.1-0.9-0.1c-0.2,0-0.4,0-0.5-0.1c0-32.8-26.6-59.3-59.3-59.3
				s-59.3,26.6-59.3,59.3c0,32.8,26.6,59.3,59.3,59.3c8.6,0,17-1.9,24.8-5.5c0.1,0.2,0.2,0.3,0.3,0.4c0.2,0.3,0.3,0.5,0.5,0.8
				c0.4,0.7,0.9,1.4,1.3,2.1c0.2,0.2,0.3,0.5,0.5,0.7c0.6,0.8,1.3,1.7,2,2.5c-33.3,16.3-73.5,2.4-89.8-30.9s-2.4-73.5,30.9-89.8
				s73.5-2.4,89.8,30.9C277.5,77.3,279.8,87.4,279.8,97.6z"/>
		</g>
	</g>
	<g>
		<path class="st0" d="M249.7,127.9v13h-3v-10.6H244v-2.4H249.7z"/>
		<path class="st0" d="M269.9,140.9l0-7.8l-3.8,6.4h-1.4l-3.8-6.3v7.6H258v-13h2.5l4.9,8.1l4.8-8.1h2.5l0,13H269.9z"/>
		<path class="st0" d="M275.8,127.9h3v13h-3V127.9z"/>
		<path class="st0" d="M293.8,127.9v13h-2.5l-6.5-7.9v7.9h-3v-13h2.5l6.5,7.9v-7.9H293.8z"/>
	</g>
</g>
</svg>
