<?xml version="1.0" encoding="UTF-8"?><svg id="Layer_1" xmlns="http://www.w3.org/2000/svg" viewBox="0 0 202 122"><defs><style>.cls-1{fill:#dcf0f1;}.cls-1,.cls-2{stroke-width:0px;}.cls-2{fill:#a0d4d1;}</style></defs><path class="cls-1" d="M66.13,54.23L26.13,120.51h32l22.86-41.14-14.86-25.14Z"/><path class="cls-2" d="M114.15,73.15c-1.35,0-2.59-.45-3.49-1.35l-16.64-15.74c-1.12-1.01-1.12-2.81-.11-3.94,1.01-1.12,2.81-1.12,3.94-.11l16.64,15.74,8.88-12.59c.9-1.12,2.25-1.91,3.71-2.02,1.35-.22,2.92.34,3.93,1.35l11.24,10.34,11.36-18.33c.9-1.35,2.59-1.69,3.93-.79,1.35.9,1.69,2.59.79,3.94l-12.03,18.33c-.79,1.24-2.14,2.14-3.71,2.25-1.46.22-3.04-.34-4.16-1.35l-11.24-10.34-8.88,12.59c-.9,1.12-2.25,1.91-3.71,2.02h-.45Z"/><path class="cls-2" d="M198.25,121.27c-.9,0-1.91-.45-2.36-1.35L127.75,6.36,59.62,119.92c-.79,1.35-2.59,1.8-3.82,1.01-1.35-.79-1.8-2.47-1.01-3.82L123.25,2.88c1.91-3.15,6.97-3.15,8.88,0l68.47,114.12c.79,1.35.34,3.04-1.01,3.82-.34.34-.79.45-1.35.45Z"/><path class="cls-2" d="M3.85,121.27c-.45,0-1.01-.11-1.46-.45-1.35-.79-1.8-2.47-1.01-3.82L49.73,36.49c1.91-3.15,6.97-3.15,8.88,0l24.62,41.04c.79,1.35.34,3.04-1.01,3.82-1.35.79-3.04.34-3.82-1.01l-24.28-40.47L6.22,119.69c-.45,1.12-1.35,1.57-2.36,1.57Z"/></svg>