<?xml version="1.0" encoding="UTF-8"?><svg id="Layer_1" xmlns="http://www.w3.org/2000/svg" xmlns:xlink="http://www.w3.org/1999/xlink" viewBox="0 0 119 159"><defs><style>.cls-1{stroke-width:8px;}.cls-1,.cls-2{fill:none;stroke:#a0d4d1;stroke-linecap:round;}.cls-2{stroke-width:16px;}.cls-3{mask:url(#mask);}.cls-4{fill:#a0d4d1;}.cls-4,.cls-5{stroke-width:0px;}.cls-5{fill:#fff;}</style><mask id="mask" x="-7.65" y="37.73" width="132.67" height="91" maskUnits="userSpaceOnUse"><g id="path-3-inside-1_439_160"><path class="cls-5" d="M.35,47.73c0-.94,0-1.41.29-1.71s.76-.29,1.71-.29h112.67c.94,0,1.41,0,1.71.29s.29.76.29,1.71v61c0,5.66,0,8.49-1.76,10.24-1.76,1.76-4.58,1.76-10.24,1.76H12.35c-5.66,0-8.49,0-10.24-1.76-1.76-1.76-1.76-4.59-1.76-10.24v-61Z"/></g></mask></defs><path class="cls-1" d="M33.68,154.06h50"/><path class="cls-1" d="M58.68,154.06v-41.67"/><g class="cls-3"><path class="cls-2" d="M.35,47.73c0-.94,0-1.41.29-1.71s.76-.29,1.71-.29h112.67c.94,0,1.41,0,1.71.29s.29.76.29,1.71v61c0,5.66,0,8.49-1.76,10.24-1.76,1.76-4.58,1.76-10.24,1.76H12.35c-5.66,0-8.49,0-10.24-1.76-1.76-1.76-1.76-4.59-1.76-10.24v-61Z"/></g><path class="cls-4" d="M54.84,77.96c-.61,2.12.62,4.34,2.75,4.94,2.12.61,4.34-.62,4.94-2.75l-7.69-2.2ZM75.08,21.67l3.85,1.1h0l-3.85-1.1ZM76.26,20.36l1.26,3.79.11-.04.11-.04-1.49-3.71ZM75.43,20.8l2.97,2.68h0l-2.97-2.68ZM76.26,20.36l-1.26-3.79-.11.04-.11.04,1.49,3.71ZM62.53,80.16l16.4-57.39-7.69-2.2-16.4,57.39,7.69,2.2ZM77.75,24.08L118.5,7.77l-2.97-7.43-40.76,16.3,2.97,7.43ZM78.93,22.77c.04-.13.05-.19.07-.24.01-.05,0-.03-.01.03-.05.13-.22.52-.58.93l-5.94-5.36c-.92,1.02-1.21,2.36-1.23,2.45l7.69,2.2ZM75,16.57h0l2.53,7.59h0l-2.53-7.59ZM74.78,16.65c-.08.03-1.39.45-2.31,1.47l5.94,5.36c-.37.41-.73.61-.86.67-.05.03-.07.03-.03.01.05-.02.11-.05.23-.09l-2.97-7.43Z"/></svg>