<?xml version="1.0" encoding="UTF-8"?><svg id="Layer_1" xmlns="http://www.w3.org/2000/svg" viewBox="0 0 160 151"><defs><style>.cls-1{stroke-linecap:round;}.cls-1,.cls-2{fill:none;stroke:#a0d4d1;stroke-width:8px;}</style></defs><path class="cls-1" d="M46.6,70.93v-38.67c0-13.2,0-19.8,4.1-23.9,4.1-4.1,10.7-4.1,23.9-4.1h10.67c13.2,0,19.8,0,23.9,4.1,4.1,4.1,4.1,10.7,4.1,23.9v38.67"/><path class="cls-2" d="M12.96,49.6c.15-1.74.22-2.61.79-3.14.57-.53,1.45-.53,3.19-.53h125.97c1.75,0,2.62,0,3.2.53.57.53.65,1.4.79,3.14l7.85,94.17c.09,1.01.13,1.52-.17,1.84-.3.32-.81.32-1.82.32H7.11c-1.02,0-1.53,0-1.82-.32-.3-.32-.25-.83-.17-1.84l7.85-94.17Z"/></svg>