<?xml version="1.0" encoding="UTF-8"?><svg id="Layer_1" xmlns="http://www.w3.org/2000/svg" viewBox="0 0 110 176"><defs><style>.cls-1{fill:none;stroke:#a0d4d1;stroke-linecap:round;stroke-linejoin:round;stroke-width:8px;}</style></defs><path class="cls-1" d="M105.13,113.27v33.33c0,13.75-11.25,25-25,25H30.13c-13.75,0-25-11.25-25-25v-41.83l32.42.17c6.08,0,12.08,1.42,17.58,4.17s11.5,4.17,17.67,4.17h32.33Z"/><path class="cls-1" d="M105.13,78.52v34.75h-32.33c-6.17,0-12.17-1.42-17.67-4.17s-11.5-4.17-17.58-4.17l-32.42-.17v-26.25c0-3.83,2.17-9.08,4.92-11.83l17.67-17.67c1.5-1.5,2.42-3.67,2.42-5.83v-13.25h50v13.25c0,2.17.92,4.33,2.42,5.83l17.67,17.67c2.75,2.75,4.92,8,4.92,11.83Z"/><path class="cls-1" d="M75.97,29.94h-41.67c-6.92,0-12.5-5.67-12.5-12.5s5.58-12.5,12.5-12.5h41.67c6.92,0,12.5,5.67,12.5,12.5s-5.58,12.5-12.5,12.5Z"/></svg>