<?xml version="1.0" encoding="utf-8"?>
<!-- Generator: Adobe Illustrator 28.3.0, SVG Export Plug-In . SVG Version: 6.00 Build 0)  -->
<svg version="1.1" id="Layer_1" xmlns="http://www.w3.org/2000/svg" xmlns:xlink="http://www.w3.org/1999/xlink" x="0px" y="0px"
	 viewBox="0 0 2245.6 2245.6" style="enable-background:new 0 0 2245.6 2245.6;" xml:space="preserve">
<style type="text/css">
	.st0{fill:#184B5C;}
</style>
<g>
	<g id="ocean_animal_death_caused_by_plastic">
		<g>
			<path class="st0" d="M469.7,292.6c-4.6-16.6-21.8-26.2-38.4-21.6c-80.8,22.5-152.1,70.5-203.2,137c-10.4,13.7-7.7,33.3,6,43.7
				c13.7,10.4,33.3,7.7,43.7-6l0,0c42.9-55.6,102.7-95.8,170.4-114.5c16.6-4.6,26.2-21.8,21.6-38.4
				C469.8,292.7,469.7,292.7,469.7,292.6z"/>
		</g>
		<g>
			<path class="st0" d="M202.5,514.5c-16.5-4.7-33.8,4.8-38.5,21.4c0,0,0,0,0,0c-10,35.1-15,71.3-15,107.8c0,17.2,14,31.2,31.2,31.2
				s31.2-14,31.2-31.2c-0.1-30.6,4.1-61.1,12.4-90.6C228.4,536.5,219,519.3,202.5,514.5z"/>
		</g>
		<g>
			<path class="st0" d="M528.7,733.5c-11.7-10.9-30-10.1-40.9,1.6c0,0,0,0,0,0l-29,31.2l-29-31.2c-10.9-11.7-29.2-12.3-40.9-1.4
				c-11.6,10.8-12.3,29-1.6,40.7l32.1,34.7l-32.1,34.7c-10.9,11.7-10.1,30.1,1.6,40.9c11.7,10.9,30.1,10.1,40.9-1.6l0,0l29-31.4
				l29,31.4c10.9,11.7,29.2,12.5,40.9,1.6c11.7-10.9,12.5-29.2,1.6-40.9l-32.1-34.7l32.1-34.7C541.1,762.7,540.4,744.4,528.7,733.5z
				"/>
		</g>
		<g>
			<path class="st0" d="M2032.4,443c-116.8-116.7-283.6-189.3-482.2-209.9L599.7,126.2c-185-20.9-368,56-477.9,200.9
				C52.5,418.1,15.1,529.3,15.4,643.6v351.2c0.1,67.3,54.6,121.8,121.8,121.9h48v54.9c0.2,98.8,80,178.9,178.8,179.4l419.9,2
				l72.4,92.2c24.3,31.1,57.1,54.4,94.4,67.2l116.8,40.1c37.7,13,78.7-7.1,91.7-44.8c5.9-17.1,5.1-35.9-2.2-52.5l-44.5-101.4
				l541.9,1.2c93.1,0.1,168.5,75.6,168.7,168.7v2c-0.4,96.6-60.4,182.9-150.8,217c-13.1-61.1-42.2-107.9-86.6-139.7
				c-93.5-66.8-219.5-39-224.8-37.8c-11.5,2.6-20.5,11.5-23.3,22.9c-1.2,4.8-28.3,117.5,31.8,206.6c20.5,30.2,48.7,54.4,81.6,70.2
				c-32.9,15.8-61.1,40-81.6,70.2c-60.1,89-33,201.9-31.8,206.6c2.8,11.4,11.9,20.2,23.3,22.8c22.7,4.6,45.8,6.9,69,6.7
				c45.9,0,106.8-8.7,157.5-45.8c47.4-34.6,77-86.7,88.1-155.1c300.3-15.2,536.2-262.9,536.7-563.6V898.5
				C2212.3,718.1,2150.1,560.6,2032.4,443z M2150,1406.7c-0.3,277.2-224.9,501.9-502.1,502.2c-16.2-0.1-29.8,12.3-31.2,28.5
				c-5.4,63.3-27.6,109.6-65.8,137.7c-51.8,38-122.2,35.8-156.2,31.9c-3.7-30.3-5.6-89.5,26.4-136.9c25.6-38.1,69.5-61.7,130.3-70.2
				c15.3-2.2,26.7-15.4,26.7-30.8v-7.9c0-15.5-11.4-28.6-26.7-30.8c-60.6-8.5-104.3-32.1-130.1-69.9c-32-47.1-30.1-106.8-26.7-137.3
				c33.6-3.9,102.7-6.2,154.7,30.9c37.7,27,60.2,71.4,66.8,132.1c1.8,17.1,17.1,29.5,34.3,27.7c1.1-0.1,2.2-0.3,3.3-0.5
				c134.9-29.8,231.2-149.1,231.7-287.3v-2c-0.3-127.4-103.5-230.7-230.9-231l-589.8-1.2l0,0c-17.2,0-31.2,13.9-31.2,31.1
				c0,4.3,0.9,8.6,2.6,12.6l63.9,145.2c2.2,4.9,0.1,10.8-4.9,13c-2.3,1-4.9,1.2-7.3,0.3L971,1453.7c-26-8.9-48.8-25.1-65.7-46.7
				l-81.6-104.3c-5.9-7.5-14.8-11.9-24.3-11.9l-435-2c-64.5-0.3-116.6-52.6-116.7-117.1v-55h211.1c46.9,0,91.5,20.6,122,56.3
				c10.8,13.4,30.4,15.5,43.8,4.7c13.4-10.8,15.5-30.4,4.7-43.8c-0.4-0.5-0.8-0.9-1.2-1.4c-42.2-49.6-104.1-78.1-169.2-78.1H137.3
				c-32.9,0-59.5-26.7-59.5-59.6V643.6c-0.4-100.7,32.5-198.7,93.5-278.8C267.9,237.4,429.4,169.6,592.4,188L1543.2,295h0.3
				c373.9,38.8,606.4,270,606.4,603.5V1406.7z"/>
		</g>
		<g>
			<path class="st0" d="M1729,721.1l-429.3-262.4c-43.2-26.5-93.8-38.5-144.3-34l-220.3,19l-53.9-33l12.5-20.4
				c11.7-19.2,5.7-44.3-13.5-56L798,284.3c-37.3-22.9-86.2-11.2-109.1,26.1c0,0.1-0.1,0.1-0.1,0.2L578.2,491.8
				c-22.9,37.4-11.1,86.3,26.3,109.1c0,0,0,0,0,0l82,50.2c6.4,3.8,13.8,5.8,21.3,5.8c14.2,0.1,27.5-7.3,34.9-19.5l10.4-17.1
				l59.5,36.3l77.7,198.9c19,48,53.1,88.5,97.1,115.5l428.2,261.7c67.8,41.5,156.4,20.3,197.9-47.5c0-0.1,0.1-0.1,0.1-0.2
				l163.1-266.6C1818.1,851,1796.7,762.5,1729,721.1z M790,403.1l-85.7,140.2v0.3l-10.2,16.7l-45.4-27.8l108.6-177.6l45.4,27.8
				L790.3,403L790,403.1z M836.6,576.3l-20.9-12.8L795.3,551l8.3-13.5l34.9-57.1l20.4,12.5l20.9,12.8L836.6,576.3z M1706.8,876.3
				l-163.1,266.6c-17.9,29.3-56.2,38.6-85.6,20.7c0,0-0.1,0-0.1-0.1l-428-261.7c-28.9-17.7-51.2-44.3-63.7-75.7l-73.3-185.8
				l71.6-117l197.5-17.1c33.2-2.9,66.4,4.9,94.8,22.4l429.3,262.1c29.3,17.9,38.6,56.2,20.7,85.6c0,0,0,0,0,0L1706.8,876.3z"/>
		</g>
		<g>
			<path class="st0" d="M881.1,939.4c-48.7,0-88.1,39.5-88.1,88.1c0,48.7,39.5,88.1,88.1,88.1c48.7,0,88.1-39.5,88.1-88.1
				c0,0,0,0,0,0C969.2,978.8,929.8,939.4,881.1,939.4z M881.1,1057.7c-16.7,0-30.3-13.6-30.3-30.3c0-16.7,13.6-30.3,30.3-30.3
				c16.7,0,30.3,13.6,30.3,30.3c0.1,16.7-13.4,30.3-30.1,30.4c-0.1,0-0.1,0-0.2,0V1057.7z"/>
		</g>
		<g>
			<path class="st0" d="M1865.4,955.1c-48.7,0-88.2,39.4-88.2,88.1c0,48.7,39.4,88.2,88.1,88.2c48.7,0,88.2-39.4,88.2-88.1
				c0,0,0-0.1,0-0.1C1953.4,994.6,1914,955.2,1865.4,955.1z M1865.4,1073.5c-16.7,0-30.3-13.5-30.3-30.2c0-16.7,13.5-30.3,30.2-30.3
				s30.3,13.5,30.3,30.2c0,0,0,0,0,0C1895.6,1059.9,1882,1073.4,1865.4,1073.5z"/>
		</g>
		<g>
			<path class="st0" d="M1836.1,509.6c-14.3-9.6-33.7-5.7-43.2,8.6c0,0,0,0,0,0l-72.2,108.1c-9.2,14.6-4.8,33.8,9.8,43
				c14,8.8,32.5,5.1,42.1-8.4l72.2-108.1C1854.2,538.5,1850.3,519.2,1836.1,509.6z"/>
		</g>
	</g>
	<g>
		<path class="st0" d="M1075.7,614.6l-59.6,106.2L991.6,707l48.5-86.5l-21.2-11.9l11.1-19.7L1075.7,614.6z"/>
		<path class="st0" d="M1064.4,678.1c19.7-35,50.2-44,76.3-29.4c26.2,14.7,34.4,45.4,14.7,80.4s-50.1,44.1-76.3,29.4
			C1053.1,743.9,1044.8,713.1,1064.4,678.1z M1130.7,715.3c13.5-24.1,10.6-38.9-1.6-45.8c-12.1-6.8-26.2-1.6-39.8,22.6
			c-13.5,24.1-10.6,38.9,1.5,45.7C1103.1,744.6,1117.2,739.4,1130.7,715.3z"/>
		<path class="st0" d="M1167.5,735.9c19.7-35,50.2-44,76.3-29.4c26.2,14.7,34.4,45.4,14.7,80.4c-19.7,35-50.1,44.1-76.3,29.4
			C1156.1,801.7,1147.8,770.9,1167.5,735.9z M1233.8,773c13.5-24.1,10.6-38.9-1.6-45.8c-12.1-6.8-26.2-1.6-39.8,22.6
			s-10.6,38.9,1.5,45.7C1206.1,802.4,1220.2,797.2,1233.8,773z"/>
		<path class="st0" d="M1245.6,831.5c4.9-8.8,14.7-10.9,22.9-6.3c8.2,4.6,11.5,14,6.5,22.8c-4.8,8.6-14.9,11.2-23.1,6.6
			C1243.8,850.1,1240.8,840.2,1245.6,831.5z"/>
		<path class="st0" d="M1306.3,813.7c19.7-35,50.2-44,76.3-29.4c26.2,14.7,34.4,45.4,14.7,80.4s-50.1,44.1-76.3,29.4
			C1294.9,879.5,1286.6,848.8,1306.3,813.7z M1372.6,850.9c13.5-24.1,10.6-38.9-1.6-45.8c-12.1-6.8-26.2-1.6-39.8,22.6
			c-13.5,24.1-10.6,38.9,1.5,45.7C1344.9,880.3,1359.1,875,1372.6,850.9z"/>
		<path class="st0" d="M1409.3,871.5c19.7-35,50.2-44,76.3-29.4c26.2,14.7,34.4,45.4,14.7,80.4c-19.7,35-50.1,44.1-76.3,29.4
			C1397.9,937.3,1389.6,906.5,1409.3,871.5z M1475.6,908.7c13.5-24.1,10.6-38.9-1.6-45.8c-12.1-6.8-26.2-1.6-39.8,22.6
			s-10.6,38.9,1.5,45.7C1448,938,1462.1,932.8,1475.6,908.7z"/>
		<path class="st0" d="M1512.3,929.2c19.7-35,50.2-44,76.3-29.4c26.2,14.7,34.4,45.4,14.7,80.4s-50.1,44.1-76.3,29.4
			C1500.9,995.1,1492.7,964.3,1512.3,929.2z M1578.6,966.4c13.5-24.1,10.6-38.9-1.6-45.8c-12.1-6.8-26.2-1.6-39.8,22.6
			c-13.5,24.1-10.6,38.9,1.5,45.7C1551,995.8,1565.1,990.5,1578.6,966.4z"/>
	</g>
</g>
</svg>
