<?xml version="1.0" encoding="UTF-8"?><svg id="Layer_1" xmlns="http://www.w3.org/2000/svg" viewBox="0 0 429 234"><defs><style>.cls-1{fill:#a0d4d1;}.cls-1,.cls-2{stroke-width:0px;}.cls-2{fill:#f4f9fb;}</style></defs><path class="cls-1" d="M237.88,104.1c-1.38,0-2.5,1.12-2.5,2.5s1.12,2.5,2.5,2.5v-5ZM254.46,109.1c1.38,0,2.5-1.12,2.5-2.5s-1.12-2.5-2.5-2.5v5ZM256.96,106.6c0-1.38-1.12-2.5-2.5-2.5s-2.5,1.12-2.5,2.5h5ZM251.96,123.27c0,1.38,1.12,2.5,2.5,2.5s2.5-1.12,2.5-2.5h-5ZM256.23,108.36c.97-.98.97-2.56,0-3.54s-2.56-.97-3.54.01l3.54,3.53ZM225.45,135.77l-1.77,1.76c.47.47,1.11.74,1.77.74s1.3-.26,1.77-.74l-1.77-1.76ZM213.02,123.27l1.77-1.76c-.47-.47-1.11-.74-1.77-.74s-1.3.26-1.77.74l1.77,1.76ZM194.67,138.17c-.97.98-.97,2.56,0,3.54.98.97,2.56.97,3.54,0l-3.55-3.53ZM237.88,109.1h16.58v-5h-16.58v5ZM251.96,106.6v16.67h5v-16.67h-5ZM252.69,104.84l-29.01,29.17,3.55,3.53,29.01-29.17-3.54-3.53ZM227.23,134l-12.43-12.5-3.54,3.53,12.43,12.5,3.55-3.53ZM211.25,121.5l-16.58,16.67,3.55,3.53,16.57-16.67-3.54-3.53Z"/><path class="cls-2" d="M15.63,215.38c4.72,1,7.2,4.04,7.2,8.04,0,4.76-3.76,9.32-12.2,9.32-3.88,0-8-.96-10.88-2.76l2.88-5.96c2.24,1.52,5.12,2.32,7.76,2.32s4.44-1.04,4.44-2.92c0-1.68-1.24-2.72-4.28-2.72h-3.32v-5l5-5.4H1.19v-6.12h20.24v4.96l-5.8,6.24ZM36.02,225.9h10.8v6.28h-21.8v-4.96l10.48-9.8c2.24-2.08,2.56-3.36,2.56-4.52,0-1.8-1.2-2.88-3.6-2.88-2.04,0-3.88.92-5,2.72l-5.88-3.28c2.12-3.52,6.08-5.84,11.6-5.84,6.44,0,10.88,3.32,10.88,8.52,0,2.72-.76,5.2-4.76,8.88l-5.28,4.88ZM59.97,225.9h10.8v6.28h-21.8v-4.96l10.48-9.8c2.24-2.08,2.56-3.36,2.56-4.52,0-1.8-1.2-2.88-3.6-2.88-2.04,0-3.88.92-5,2.72l-5.88-3.28c2.12-3.52,6.08-5.84,11.6-5.84,6.44,0,10.88,3.32,10.88,8.52,0,2.72-.76,5.2-4.76,8.88l-5.28,4.88ZM114.03,210.14c5.04,0,8.76,2.92,8.76,9.64v12.4h-7.6v-11.16c0-3.12-1.28-4.44-3.28-4.44-2.2,0-3.8,1.48-3.8,4.84v10.76h-7.6v-11.16c0-3.12-1.24-4.44-3.28-4.44-2.24,0-3.84,1.48-3.84,4.84v10.76h-7.6v-21.68h7.24v2.28c1.64-1.76,3.92-2.64,6.48-2.64,2.96,0,5.48,1.08,7,3.4,1.72-2.16,4.4-3.4,7.52-3.4ZM131.39,208.1c-2.8,0-4.64-1.76-4.64-4.04s1.84-4.04,4.64-4.04,4.64,1.64,4.64,3.92c0,2.4-1.84,4.16-4.64,4.16ZM127.59,232.18v-21.68h7.6v21.68h-7.6ZM151.01,232.54c-7.08,0-12.24-4.68-12.24-11.24s5.16-11.16,12.24-11.16,12.24,4.64,12.24,11.16-5.08,11.24-12.24,11.24ZM151.01,226.5c2.6,0,4.56-1.88,4.56-5.2s-1.96-5.12-4.56-5.12-4.56,1.84-4.56,5.12,2,5.2,4.56,5.2ZM169.85,232.54c-2.56,0-4.56-1.88-4.56-4.52s2-4.48,4.56-4.48,4.56,1.76,4.56,4.48-1.96,4.52-4.56,4.52Z"/><path class="cls-1" d="M1.2,192.18v-2.87c0-.88.16-1.64.49-2.27.33-.64.76-1.2,1.3-1.67s1.12-.88,1.76-1.24c.65-.36,1.29-.69,1.93-.98.65-.3,1.24-.6,1.78-.9.54-.3.97-.63,1.3-.98.33-.36.49-.78.49-1.27,0-.6-.21-1.1-.64-1.49-.42-.39-1-.59-1.74-.59s-1.42.22-1.99.67c-.57.44-.93,1.15-1.09,2.14H.91c0-1.15.27-2.19.78-3.12.52-.93,1.3-1.66,2.34-2.21s2.35-.82,3.94-.82c1.36,0,2.53.23,3.5.68.98.45,1.74,1.08,2.27,1.88s.79,1.74.79,2.81c0,.87-.16,1.62-.48,2.24-.31.62-.73,1.16-1.26,1.61-.52.44-1.09.82-1.72,1.14-.62.32-1.24.61-1.86.88-.62.26-1.2.53-1.73.79-.52.26-.94.56-1.26.89-.31.33-.47.72-.47,1.19v.08h8.71v3.4H1.2ZM23.52,174.59c2.14,0,3.82.78,5.04,2.34,1.22,1.55,1.84,3.76,1.84,6.61s-.6,5.04-1.81,6.59c-1.2,1.54-2.89,2.32-5.08,2.32s-3.88-.77-5.1-2.32c-1.22-1.55-1.82-3.74-1.82-6.58,0-1.9.28-3.52.83-4.86.56-1.34,1.36-2.35,2.39-3.05,1.04-.7,2.28-1.06,3.72-1.06ZM23.49,189.16c.95,0,1.63-.42,2.04-1.27.41-.85.61-2.29.61-4.32s-.21-3.59-.62-4.48-1.09-1.33-2.03-1.33-1.62.45-2.04,1.34-.64,2.38-.64,4.46.21,3.45.62,4.31c.42.86,1.11,1.28,2.05,1.28ZM35.38,192.18v-12.64h-2.99v-2.21c.98,0,1.78-.1,2.4-.31.63-.21,1.11-.5,1.44-.88.34-.38.54-.82.6-1.32h2.66v17.35h-4.12ZM42.91,174.83h13.32v3.31c-.52.61-1.05,1.35-1.58,2.23-.54.87-1.05,1.82-1.55,2.84s-.94,2.07-1.33,3.13c-.39,1.06-.7,2.09-.94,3.1-.23,1-.35,1.91-.36,2.74h-4.39c.03-.66.16-1.51.38-2.54.22-1.04.57-2.2,1.03-3.47.46-1.27,1.07-2.59,1.81-3.96.74-1.38,1.65-2.73,2.71-4.07h-9.11v-3.31Z"/><path class="cls-2" d="M275.32,30.18h13.12v28h-7.92v-21.88h-5.2v-6.12ZM296.97,49.54c2.6,0,4.52,1.76,4.52,4.48,0,1.12-.16,2-1.32,4.6l-2.52,5.84h-4.76l1.88-6.52c-1.44-.68-2.36-2.04-2.36-3.92,0-2.72,1.92-4.48,4.56-4.48ZM315.21,51.9h10.8v6.28h-21.8v-4.96l10.48-9.8c2.24-2.08,2.56-3.36,2.56-4.52,0-1.8-1.2-2.88-3.6-2.88-2.04,0-3.88.92-5,2.72l-5.88-3.28c2.12-3.52,6.08-5.84,11.6-5.84,6.44,0,10.88,3.32,10.88,8.52,0,2.72-.76,5.2-4.76,8.88l-5.28,4.88ZM369.27,36.14c5.04,0,8.76,2.92,8.76,9.64v12.4h-7.6v-11.16c0-3.12-1.28-4.44-3.28-4.44-2.2,0-3.8,1.48-3.8,4.84v10.76h-7.6v-11.16c0-3.12-1.24-4.44-3.28-4.44-2.24,0-3.84,1.48-3.84,4.84v10.76h-7.6v-21.68h7.24v2.28c1.64-1.76,3.92-2.64,6.48-2.64,2.96,0,5.48,1.08,7,3.4,1.72-2.16,4.4-3.4,7.52-3.4ZM386.63,34.1c-2.8,0-4.64-1.76-4.64-4.04s1.84-4.04,4.64-4.04,4.64,1.64,4.64,3.92c0,2.4-1.84,4.16-4.64,4.16ZM382.83,58.18v-21.68h7.6v21.68h-7.6ZM404.61,36.14c7.04,0,11.08,3.12,11.08,10v12.04h-7.08v-2.8c-1.08,2.08-3.24,3.16-6.4,3.16-5.2,0-8.08-2.92-8.08-6.68,0-4,2.92-6.48,9.64-6.48h4.32c-.12-2.2-1.6-3.44-4.6-3.44-2.08,0-4.4.72-5.88,1.88l-2.56-5.16c2.48-1.64,6.16-2.52,9.56-2.52ZM404.33,53.74c1.68,0,3.16-.8,3.76-2.52v-1.88h-3.28c-2.44,0-3.32.88-3.32,2.2s1.04,2.2,2.84,2.2ZM423.69,58.54c-2.56,0-4.56-1.88-4.56-4.52s2-4.48,4.56-4.48,4.56,1.76,4.56,4.48-1.96,4.52-4.56,4.52Z"/><path class="cls-1" d="M276.08,18.18v-2.87c0-.88.16-1.64.49-2.27.33-.64.76-1.2,1.3-1.67s1.12-.88,1.76-1.24c.65-.36,1.29-.69,1.93-.98.65-.3,1.24-.6,1.78-.9.54-.3.97-.63,1.3-.98.33-.36.49-.78.49-1.27,0-.6-.21-1.1-.64-1.49-.42-.39-1-.59-1.74-.59s-1.42.22-1.99.67c-.57.44-.93,1.15-1.09,2.14h-3.88c0-1.15.27-2.19.78-3.12.52-.93,1.3-1.66,2.34-2.21,1.04-.54,2.35-.82,3.94-.82,1.36,0,2.53.23,3.5.68.98.45,1.74,1.08,2.27,1.88.53.81.79,1.74.79,2.81,0,.87-.16,1.62-.48,2.24-.31.62-.73,1.16-1.26,1.61-.52.44-1.09.82-1.72,1.14-.62.32-1.24.61-1.86.88-.62.26-1.2.53-1.73.79-.52.26-.94.56-1.26.89-.31.33-.47.72-.47,1.19v.08h8.71v3.4h-13.27ZM298.39.59c2.14,0,3.82.78,5.04,2.34,1.22,1.55,1.84,3.76,1.84,6.61s-.6,5.04-1.81,6.59c-1.2,1.54-2.89,2.32-5.08,2.32s-3.88-.77-5.1-2.32c-1.22-1.55-1.82-3.74-1.82-6.58,0-1.9.28-3.52.83-4.86.56-1.34,1.36-2.35,2.39-3.05,1.04-.7,2.28-1.06,3.72-1.06ZM298.37,15.16c.95,0,1.63-.42,2.04-1.27.41-.85.61-2.29.61-4.32s-.21-3.59-.62-4.48c-.42-.89-1.09-1.33-2.03-1.33s-1.62.45-2.04,1.34-.64,2.38-.64,4.46.21,3.45.62,4.31c.42.86,1.11,1.28,2.05,1.28ZM309.17.83h11.5l-.17,3.31h-8.16l-.3,3.53c.67-.27,1.27-.48,1.8-.61.54-.14,1.13-.2,1.79-.2,1.2,0,2.27.22,3.2.67.94.44,1.67,1.08,2.2,1.93.54.84.8,1.86.8,3.06s-.28,2.29-.85,3.18c-.57.88-1.37,1.56-2.41,2.04-1.04.47-2.28.71-3.71.71-1.17,0-2.26-.17-3.26-.5-1-.34-1.87-.81-2.62-1.39-.74-.59-1.3-1.26-1.7-2.02l3.11-1.98c.33.49.68.94,1.04,1.34.37.4.79.72,1.27.96.49.23,1.06.35,1.72.35.94,0,1.7-.24,2.28-.72.58-.49.86-1.1.86-1.82,0-.46-.12-.88-.37-1.26-.25-.39-.6-.7-1.06-.94-.46-.23-1-.35-1.63-.35-.3,0-.59.03-.86.08-.26.05-.54.14-.84.26-.29.13-.62.31-1,.54-.13.06-.22.08-.28.08-.06,0-.16-.04-.3-.11l-2.86-1.44.8-8.71ZM330.78.59c2.14,0,3.82.78,5.04,2.34,1.22,1.55,1.84,3.76,1.84,6.61s-.6,5.04-1.81,6.59c-1.2,1.54-2.89,2.32-5.08,2.32s-3.88-.77-5.1-2.32c-1.22-1.55-1.82-3.74-1.82-6.58,0-1.9.28-3.52.83-4.86.56-1.34,1.36-2.35,2.39-3.05,1.04-.7,2.28-1.06,3.72-1.06ZM330.76,15.16c.95,0,1.63-.42,2.04-1.27.41-.85.61-2.29.61-4.32s-.21-3.59-.62-4.48c-.42-.89-1.09-1.33-2.03-1.33s-1.62.45-2.04,1.34c-.42.9-.64,2.38-.64,4.46s.21,3.45.62,4.31c.42.86,1.11,1.28,2.05,1.28Z"/></svg>