<?xml version="1.0" encoding="UTF-8"?><svg id="Layer_1" xmlns="http://www.w3.org/2000/svg" viewBox="0 0 201 211"><defs><style>.cls-1{fill:#dcf0f1;}.cls-1,.cls-2{stroke-width:0px;}.cls-2{fill:#a0d4d1;}</style></defs><circle class="cls-1" cx="76.7" cy="108.48" r="11.02"/><circle class="cls-1" cx="123.76" cy="108.48" r="11.02"/><path class="cls-2" d="M100.59,22.72c-1.9,0-3.39-1.63-3.39-3.39l.13-15.59c0-1.9,1.49-3.39,3.39-3.39,1.9,0,3.39,1.63,3.39,3.39l-.13,15.59c0,1.76-1.49,3.39-3.39,3.39Z"/><path class="cls-2" d="M50.04,39.13c-1.08,0-2.17-.54-2.71-1.49l-8.95-12.74c-1.08-1.49-.68-3.66.81-4.74,1.49-1.08,3.66-.68,4.74.81l8.95,12.74c1.08,1.49.68,3.66-.81,4.74-.68.54-1.36.68-2.03.68Z"/><path class="cls-2" d="M18.86,82.11c-.41,0-.68,0-1.08-.14l-14.78-5.01c-1.76-.54-2.71-2.58-2.17-4.34.54-1.76,2.58-2.71,4.34-2.17l14.78,5.01c1.76.54,2.71,2.58,2.17,4.34-.54,1.49-1.76,2.3-3.25,2.3Z"/><path class="cls-2" d="M4.1,139.85c-1.49,0-2.85-.95-3.25-2.44-.54-1.76.41-3.66,2.17-4.2l14.91-4.61c1.76-.54,3.66.41,4.2,2.17.54,1.76-.41,3.66-2.17,4.2l-14.91,4.61c-.27.27-.54.27-.95.27Z"/><path class="cls-2" d="M40.97,190.68c-.68,0-1.36-.27-2.03-.68-1.49-1.08-1.76-3.25-.68-4.74l9.35-12.47c1.08-1.49,3.25-1.76,4.74-.68,1.49,1.08,1.76,3.25.68,4.74l-9.35,12.47c-.68.95-1.76,1.35-2.71,1.36Z"/><path class="cls-2" d="M100.62,210.19c-1.9,0-3.39-1.63-3.39-3.39l.13-15.59c0-1.9,1.49-3.39,3.39-3.39,1.9,0,3.39,1.63,3.39,3.39l-.13,15.59c0,1.9-1.63,3.39-3.39,3.39Z"/><path class="cls-2" d="M160.26,190.8c-1.08,0-2.17-.54-2.71-1.49l-8.95-12.74c-1.09-1.49-.68-3.66.81-4.75,1.49-1.08,3.66-.68,4.74.81l8.95,12.74c1.08,1.49.68,3.66-.81,4.74-.68.41-1.35.68-2.03.68Z"/><path class="cls-2" d="M197.26,140.1c-.41,0-.68,0-1.09-.13l-14.77-5.01c-1.76-.54-2.71-2.57-2.17-4.34.54-1.76,2.58-2.71,4.34-2.17l14.77,5.01c1.76.54,2.71,2.57,2.17,4.34-.54,1.36-1.9,2.3-3.25,2.3Z"/><path class="cls-2" d="M182.34,81.95c-1.49,0-2.85-.95-3.25-2.44-.54-1.76.41-3.66,2.17-4.2l14.91-4.61c1.76-.54,3.66.41,4.2,2.17.54,1.76-.41,3.66-2.17,4.2l-14.91,4.61c-.27.27-.54.27-.95.27Z"/><path class="cls-2" d="M151.15,38.98c-.68,0-1.35-.27-2.03-.68-1.49-1.08-1.76-3.25-.68-4.74l9.35-12.47c1.08-1.49,3.25-1.76,4.74-.68s1.76,3.25.68,4.74l-9.35,12.47c-.68.95-1.76,1.36-2.71,1.36Z"/><path class="cls-2" d="M100.75,171.02c-36.19,0-65.75-29.54-65.75-65.73,0-36.19,29.54-65.75,65.73-65.75,36.19,0,65.75,29.54,65.75,65.73,0,36.19-29.54,65.75-65.73,65.75ZM100.73,46.31c-32.53,0-58.96,26.44-58.96,58.97,0,32.53,26.44,58.96,58.97,58.96,32.53,0,58.96-26.44,58.96-58.97,0-32.53-26.58-58.96-58.97-58.96Z"/><path class="cls-2" d="M100.74,123.3c-10.3,0-18.71-6.64-18.71-14.91,0-1.9,1.49-3.39,3.39-3.39,1.9,0,3.39,1.49,3.39,3.39,0,4.47,5.42,8.13,11.93,8.13,6.51,0,11.93-3.8,11.93-8.13,0-1.9,1.49-3.39,3.39-3.39,1.9,0,3.39,1.49,3.39,3.39,0,8.27-8.4,14.91-18.7,14.91Z"/><path class="cls-2" d="M84.33,84.27c-1.9,0-3.39-1.49-3.39-3.39,0-1.49-1.22-2.71-2.71-2.71-1.49,0-2.71,1.22-2.71,2.71,0,1.9-1.49,3.39-3.39,3.39-1.9,0-3.39-1.49-3.39-3.39,0-5.15,4.2-9.49,9.49-9.49,5.29,0,9.49,4.2,9.49,9.49,0,1.9-1.49,3.39-3.39,3.39Z"/><path class="cls-2" d="M129.07,84.26c-1.9,0-3.39-1.49-3.39-3.39,0-1.49-1.22-2.71-2.71-2.71-1.49,0-2.71,1.22-2.71,2.71,0,1.9-1.49,3.39-3.39,3.39-1.9,0-3.39-1.49-3.39-3.39,0-5.15,4.2-9.49,9.49-9.49,5.15,0,9.49,4.2,9.49,9.49,0,1.9-1.49,3.39-3.39,3.39Z"/></svg>