<?xml version="1.0" encoding="UTF-8"?><svg id="Layer_1" xmlns="http://www.w3.org/2000/svg" viewBox="0 0 160 161"><defs><style>.cls-1{fill:none;stroke:#a0d4d1;stroke-width:8px;}</style></defs><path class="cls-1" d="M129.83,4.93h19c2.83,0,4.24,0,5.12.88.88.88.88,2.29.88,5.12v43c0,.47,0,.71-.15.85-.15.15-.38.15-.85.15h-49M129.83,4.93h-19c-2.83,0-4.24,0-5.12.88-.88.88-.88,2.29-.88,5.12v44M129.83,4.93H8.83c-1.89,0-2.83,0-3.41.59-.59.59-.59,1.53-.59,3.41v146s25-8.33,25-8.33l25,8.33,25-8.33,25,8.33V54.93"/></svg>