<?xml version="1.0" encoding="UTF-8"?><svg id="Layer_1" xmlns="http://www.w3.org/2000/svg" viewBox="0 0 185 128"><defs><style>.cls-1{fill:#a0d4d1;stroke:#a0d4d1;stroke-miterlimit:10;}</style></defs><path class="cls-1" d="M182.72,47.09L137.89,2.26c-.56-.56-1.32-.87-2.11-.87H48.79c-.79,0-1.55.31-2.11.87L1.85,47.09c-1.13,1.13-1.17,2.95-.09,4.13l25.11,27.48c.55.61,1.33.96,2.15.97.84.02,1.61-.3,2.19-.89l14.61-14.81v59.97c0,1.65,1.34,2.99,2.99,2.99h86.98c1.65,0,2.99-1.34,2.99-2.99v-59.97l14.6,14.81c.58.59,1.39.92,2.19.89.82-.02,1.6-.37,2.15-.97l25.11-27.48c1.08-1.18,1.03-3-.1-4.13ZM155.42,72.34l-17.51-17.75c-.85-.86-2.14-1.13-3.26-.67-1.12.46-1.86,1.55-1.86,2.77v64.27H51.78V56.68c0-1.21-.73-2.31-1.86-2.77-1.12-.46-2.41-.2-3.26.67l-17.52,17.76-21.05-23.04L50.03,7.36h84.51l41.93,41.94-21.06,23.04Z"/></svg>