<?xml version="1.0" encoding="UTF-8"?>
<svg id="Layer_1" data-name="Layer 1" xmlns="http://www.w3.org/2000/svg" xmlns:xlink="http://www.w3.org/1999/xlink" viewBox="0 0 1157.45 1080.31">
  <defs>
    <style>
      .cls-1 {
        clip-path: url(#clippath);
      }

      .cls-2 {
        fill: none;
      }

      .cls-2, .cls-3, .cls-4, .cls-5, .cls-6, .cls-7, .cls-8, .cls-9, .cls-10, .cls-11, .cls-12, .cls-13, .cls-14, .cls-15, .cls-16, .cls-17, .cls-18, .cls-19, .cls-20, .cls-21, .cls-22, .cls-23, .cls-24, .cls-25, .cls-26, .cls-27, .cls-28, .cls-29 {
        stroke-width: 0px;
      }

      .cls-3 {
        fill: url(#linear-gradient);
      }

      .cls-30 {
        opacity: .2;
      }

      .cls-31, .cls-4 {
        opacity: .3;
      }

      .cls-4, .cls-29 {
        isolation: isolate;
      }

      .cls-32 {
        opacity: .9;
      }

      .cls-33 {
        opacity: .85;
      }

      .cls-34 {
        opacity: .72;
      }

      .cls-6 {
        fill: #5273b8;
      }

      .cls-7 {
        fill: #7b7a7a;
      }

      .cls-8 {
        fill: #3b1214;
      }

      .cls-9 {
        fill: #263238;
      }

      .cls-10 {
        fill: #564539;
      }

      .cls-11 {
        fill: #6d6c6c;
      }

      .cls-12 {
        fill: #6f6f70;
      }

      .cls-13 {
        fill: #2e5463;
      }

      .cls-14 {
        fill: #382831;
      }

      .cls-15 {
        fill: #1f454f;
      }

      .cls-16 {
        fill: #c9e0f4;
      }

      .cls-17 {
        fill: #ccb59f;
      }

      .cls-18 {
        fill: #e0e0e0;
      }

      .cls-19 {
        fill: #e26d6d;
      }

      .cls-20 {
        fill: #d3dce9;
      }

      .cls-21 {
        fill: #b1b2b2;
      }

      .cls-22 {
        fill: #8e6578;
      }

      .cls-23 {
        fill: #ff6260;
      }

      .cls-24 {
        fill: #8193af;
      }

      .cls-25 {
        fill: #ffebed;
      }

      .cls-26 {
        fill: #e59595;
      }

      .cls-27 {
        fill: #ff999d;
      }

      .cls-28 {
        fill: #ee4d4e;
      }

      .cls-29 {
        fill: #fff;
        opacity: .5;
      }
    </style>
    <clipPath id="clippath">
      <rect class="cls-2" width="1157.45" height="1080.31"/>
    </clipPath>
    <linearGradient id="linear-gradient" x1="616.52" y1="3422.27" x2="612.05" y2="1419.55" gradientTransform="translate(0 3032.15) scale(1 -1)" gradientUnits="userSpaceOnUse">
      <stop offset=".07" stop-color="#4eabad"/>
      <stop offset=".51" stop-color="#008081"/>
      <stop offset=".99" stop-color="#003e40"/>
    </linearGradient>
  </defs>
  <g class="cls-1">
    <g>
      <g class="cls-32">
        <path class="cls-3" d="m1247.56-16.68H-5.69c-.11,42.94-.03,85.66-.52,127.53-2.28,193.32-3.53,386.68-5.85,580-1.01,84.45-2.04,168.95-4.25,253.33-1.92,73.51-10.38,145.86-7.55,219.4,2.4,62.31,6.27,136.47,19.01,194.03,12.65,57.15,32.71,40.4,62.08,40.4,65.37,0,130.73,0,196.1,0h809.95c42.77,0,85.53,6.32,128.31,3.41,23.74-1.62,48.67,8.15,55.97-35.81,6.04-36.33,0-99.04,0-137.15V-16.68Z"/>
      </g>
      <path class="cls-18" d="m303.24,536.29c1.06,2.19,3.49,3.15,5.73,2.9,2.24-.25,4.33-1.5,6.26-2.87,2.52-1.79,5.04-4.05,5.99-7.21.6-1.99.52-4.16,1.21-6.12.83-2.34,2.65-4.04,4.41-5.62,3.63-3.28,17.51-15.18,23.74-20.59,1.18-1.02,1.4-2.92.5-4.16h0c-.91-1.26-2.59-1.36-3.7-.25-5.85,5.92-18.78,19.14-22.3,22.56-1.7,1.65-3.52,3.36-5.69,3.85-1.82.4-3.69-.1-5.51.19-2.91.46-5.34,2.84-7.37,5.32-1.55,1.89-3.03,3.98-3.67,6.44-.64,2.45-.27,5.35,1.42,6.94"/>
      <path class="cls-10" d="m998.97,566.8c4.92-31.74-6.24-63.44-11.22-95.17-4.98-31.73-1.48-69.05,24.23-88.33-4.18,16.18-7.18,32.66-8.98,49.28-1.2,11.07-1.86,22.42.85,33.23,2.08,8.29,6.08,15.97,8.83,24.07,14.2,41.81-6.22,87.84.08,131.54,18.18-12.11,26.64-34.94,27.6-56.74.95-21.81-4.39-43.32-8.13-64.82-3.75-21.5-5.83-44.13,1.36-64.74,1.11-3.19,4.27-6.95,7.09-5.09-3.19,18.37-.96,37.64,6.36,54.79,3.8,8.89,8.91,17.21,12.15,26.31,8.31,23.42,3.38,49.2-1.62,73.54-4.09,19.86-8.49,40.45-20.73,56.64-5.93,7.84-14.44,14.73-24.27,14.91-11.2.2-21.01-8.65-25.15-19.04-10.66-26.75,7.63-45.03,11.56-70.36v-.02Z"/>
      <path class="cls-10" d="m139.34,499.94c.28,16.72,2.26,32.92,8.01,47.86,5.76-17.37,9.33-36.02,10.52-54.94.67-10.54.67-21.53,4.13-31.04,3.99-10.99,11.93-18.28,18.26-27.11,6.99-9.77,12.18-21.83,14.96-34.82,6.54,16.17.3,36.16-7.39,51.4-5.78,11.44-13.77,23.49-16.19,37.23-1.84,10.48-.34,20.89-2.02,31.78-2.69,17.48-5.6,35.61-13.67,49.85-3.91,6.9-9.52,12.96-16.01,13.12-12.42.3-15.82-18.12-26.02-24.07-3.63-2.11-7.85-3.42-10.24-7.65-2.13-3.77-2.19-8.85-2.17-13.57.06-13.51.12-27.03.18-40.54,5.45,2.17,8.15,10.53,8.47,18.11.32,7.57-1,15.2-.28,22.72.71,7.53,4.45,15.5,10.12,16.11,5.36-51.11,10.72-102.22,16.08-153.33,6.33,7.5,6.84,20.28,6.4,31.55-.87,22.18-3.49,45.21-3.12,67.33v-.02Z"/>
      <path class="cls-10" d="m831.57,539.43c-.18-6.35-.34-12.86,1.72-18.88,2.06-6.01,6.84-11.51,13.12-12.57-.29,24.52.75,49.06,3.09,73.47.23,2.42.53,4.98,2,6.91,2.35,3.08,6.72,3.5,10.38,4.77,11.34,3.94,16.73,17.05,17.66,29,.48,6.18.04,12.76-3.38,17.93s-10.6,8.24-16.11,5.39c-1.93-7.16-8.05-13.03-15.29-14.66-13.76-3.1-29.84,7.8-41.33-.38-4.05-2.88-6.38-7.58-7.92-12.3-7.72-23.61.73-50.64-8.89-73.55-1.32-3.14-3-6.39-2.53-9.77s4.43-6.41,7.28-4.54c4.54,9.35,7.2,19.6,7.78,29.97.54,9.62-.4,20.23,5.51,27.84,7.09,9.13,20.49,9.56,32.05,9.18,3.63-.12,7.39-.27,10.65-1.87,6.43-3.16,9.02-10.8,10.98-17.68,3.4-11.9,6.82-23.79,10.22-35.69,1.6-5.6,4.33-12.23,10.11-13.01-.41,20.07-10.16,39.65-7.29,59.52,1.34,9.3,5.26,19.49.36,27.52-2.24,3.68-6.02,6.15-9.83,8.17-5.07,2.7-20.23,11.06-25.76,7.33-4.98-3.36-2.57-21.12-2.71-25.92-.63-22.06-1.26-44.12-1.89-66.18h.01Z"/>
      <path class="cls-14" d="m392.4,579.14c-1.58-.98-3.39-1.74-5.28-2.42-1.51-.54-3.06-1.02-4.61-1.52-4.24-1.38-28.76-12.98-30.3-11.78-.61.48-1.51,1.05-2.49,1.58-1.74.07-3.47.13-5.21.19.12-.23.28-.5.48-.8,3.29-4.8,11.15-7.85,6.81-10.46-4.36-2.6-4.99-.99-5.91,2.63-.75,2.96-6.16,5.54-6.97,8.8-1.4.04-2.8.08-4.2.11-1.58-1.36-5.63-2.1-4.86.11-.91.02-1.82.04-2.72.05-1.26-4.48-4.77-5.27-10.96-3.39-5.16,1.56-1.75,1.68.49,3.5h-4.82c.63-2.07,2.39-3.02,2.39-3.02,3.88-4.3,2.11-5.81.05-8.67-2.04-2.87-2.04-5.83-.95-8.52,1.07-2.69,4.01-2.3,3.57-5.76-.43-3.47.13-7.72-4.19-6.79-4.31.94-.7,1.93-.24,5.83.47,3.88-3.31.04-5.15-2.31-1.81-2.35-3.97-3.41-4.76.54-.78,3.94-.28,1.91,5.29,4.4,5.57,2.49,2.09,3.39,2.29,6.56.2,3.16-1.63,3.66-5.18.34-3.54-3.33-7.32-3.79-7.94-.59-.63,3.2,8.63,1.72,13.13,6.8,4.48,5.08-.6,6.9-1.89,9.39-.27.53-.34,1.14-.3,1.76-2.17-.02-4.34-.05-6.46-.1.42-.43,1.07-1.23,1.39-2.29,1.09-.68,2.01-1.49,2.45-2.51,1.63-3.78-.1-4.86-5.06-4.21-.56.07-.98.15-1.31.22-3.05-1.38-6.39-.82-4.95,1.29,1.07,1.58,1.85,4.4,1.18,5.76-.76-.07-1.48-.56-2.03-1.66-1.66-3.31-3.42-4.71-3.42-4.71,0,0,3.43-1.53,3.04-4.26-.38-2.74-4.59-3.39-4.46-1.39.13,2-1.87,6.53-4.22,2.52-2.33-4.02.31-8.05-5.34-8.64-5.66-.59-4.55.63-1.67,3.25.94.86,1.29,1.86,1.53,2.92-.99-.33-2.16-.51-3.58-.5-.31-.42-.63-.86-.96-1.32-2.86-3.99-2.85-8.11-1.34-11.86,1.48-3.74,5.58-3.2,4.97-8.02-.61-4.83.17-10.75-5.82-9.45-6,1.3-.99,2.69-.35,8.11.64,5.41-4.63.07-7.17-3.2-2.52-3.27-5.52-4.75-6.61.75-1.09,5.5-.4,2.66,7.35,6.14,7.76,3.47,2.91,4.72,3.19,9.13.15,2.32-.49,3.61-1.84,3.64.14-.74.26-1.53.32-2.4.79-10.49-5.16-9.11-7.23-4.56-.29.64-.46,1.35-.56,2.07-3.05-2.15-5.97-2.71-7.64-1.42-4.75-6.35-5.14-8.64-8.75-4.81-4.21,4.46-5.23,3.98,1.19,7.33s11.1,6.19,12.54,8.31c.6.89.36,2.13.23,3.6-.61.04-1.25.1-1.96.19-6.88.9.4,1.6-1.37,5.51-.29.64-.66,1.26-1.08,1.83-2.52-.31-5.08-.52-7.66-.66,1.6-2.11-.18-4.6-3.31-4.17-.76-.85-1.25-1.25-1.25-1.25,0,0,4.8-2.13,4.26-5.93-.46-3.26-4.83-4.39-5.94-2.88-.02-.05-.03-.09-.06-.14-1.35-2.4-2.89-3.38-7.74-1.19-.42-3.2-.71-5.71-5.77-6.23-.75-.08-1.41-.13-1.99-.17,1.36-1.53,3.6-3.35,7.54-5.62,9.66-5.56-4-4.87-7.9-.47-3.34,3.77-6.47,6.35-8.42,3.14.74-.86,1.5-1.84,2.26-2.98,6.07-9.1.31-8.69-3.81-4.98-.41.38-.79.8-1.15,1.24-1.27-1.97-2.71-1.39-4.7,3.16-.13.3-.24.57-.34.84-.19-.6-.38-1.39-.58-2.41-1.72-8.75.38-12.09-5.49-8.73-5.86,3.36-6.48,2.8-2.75,6.6,3.73,3.81,6.25,6.93,6.38,8.98.13,2.05-4.87,5.23-3.12,9.86.07.18.16.38.26.58-1.86.08-2.92,3-4.35,4.35-2.83-1.92-5.35-3.65-7.21-4.31-.87-.86-1.56-1.58-1.99-2.32.15-.07.29-.14.42-.21,3.09-1.65,2.96-4.5-.32-4.43,1.88-4.81,6.44-7.61,1.7-8.02-.09,0-.17,0-.26,0,.88-.33,1.43-.76,1.45-1.34.12-2.8-1.1-3.77-10.19-.86-1.72.55-3.03.85-4.02.95-.17-.33-.33-.62-.48-.84-.39-.58-1.11-.79-1.92-.72.27-.92,1.19-2.05,2.13-2.88,2.46-2.17,3.46-4.72,14.53-8.31,11.05-3.6-.89-4.82-6.47-1.47s-10.08,5.32-8.42-.35c1.65-5.67,1.23-7.71-4.78-2.14s-.06,3.39,1.01,6.58c1.07,3.18-9.15,10.72-3.71,14.29,0,0-.12.19-.31.52-1.08-.69-2.4-.89-4.16-.3-5.07,1.69-.78,2.58,1.94,6.81-.08.67-.11,1.36-.06,2.06.03.48.04.91.04,1.3-.69-.17-1.61-.63-2.62-1.22.36-2.77-.82-4.04-3.4-2.27-.51-.38-1-.75-1.45-1.1-1.35-1.46-2.69-2.68-3.7-3.69,1-1.87,1.87-3.58,1.99-4.99,2.12-1.43,3.93-3.24,2.29-4.64-1.08-.92-2.81.3-4.51,1.52-.01,0-.03.02-.04.03-.74-.28-1.68-.49-2.88-.63-.87-.1-1.61-.14-2.25-.13-1.2-4.25-2.75-5.19,1.06-8.93,4.08-4.01,9.46-5.88,5.63-6.88-3.83-1-7.13,1.65-9.85,4.42-2.71,2.77-.38-5.87-.52-8.07s-7.54-.09-7.29,3.72,10.23,19.25,4.17,14.96c-6.07-4.28-8.18-5.66-7.9-1.25.28,4.4,2.21,2.98,10.25,6.3.28.12.55.24.8.37.11,1.67.3,3.67-.16,5.85-.54.21-1.18.55-1.91,1.05-1.68,1.17-2.58,2.22-3.2,2.92-.73-1.92-1.49-4.82-2.99-6.81-3.03-3.99-6.96-2.88-6.32.28-1.65-1.04-2.56-.68-2.06,2.08.88,4.92,1.2,5.09,7.62,7.97.63.43,1.38.83,2.27,1.19.35.46.69,1.09.97,1.98.76,2.45-.43,5.42.43,7.31.13.39.37.83.76,1.34-3.25-.97-6.49-2.12-9.71-3.47,4.76-2.69-2.69-4.92-4.59-2.41-.34-.07-.68-.09-1-.05-.38-.17-.76-.33-1.15-.49,0-.33,0-.68-.01-1.08-.04-5-1.76-4.64-5.02-.93-1.36-.52-2.73-1.02-4.12-1.5,1.62-1.44,3.66-3.26,5.74-6.21,4.89-2.02,7.52-2.58,3.89-8.32-4.64-7.32-3.84-8.17-3.84-8.17,0,0-.78-.1-1.8-.11,2.11-.64,4.13-1.56,5.62-3.02,4.92-4.79,4.99-7.88-2.54-3.56-7.54,4.32-9.55,4.56-4.43-1.27,5.13-5.82,15.8-10.88,7.53-13.29-8.27-2.42-5.51,4.51-12.92,10.73-7.42,6.23-2.41-1.65-2.99-6.04-.57-4.39-5.44-3.29-5.76.56-.32,3.84-3.52,8.11,3.61,11.17,0,0,1.98-.83.14,2.2-1.83,3.03-6.82,2.08-6.27,6.03.23,1.62-.03,3.31-.56,4.37-.23.21-.37.42-.41.63-.77.88-1.85.61-2.88-2.03-2.03-5.19-3.32-11.67-7.51-9.97.98-1.97,1.71-3.84,1.69-5.77-.01-1.15-.52-2.38-1.33-3.52,6.85-1.77,10.19-1.03,10.04-7.36-.17-7.06.95-7.7.95-7.7,0,0-7.4-2.31-6.78,2.81.63,5.12,2.41,5.78-2.11,7.6-1.43.58-3.14,1.28-4.81,1.87-2.47-1.87-5.42-2.72-6.79-.98-.05.07-.11.13-.16.2.26-3.44,3.45-7.01-.13-5.99-3.7,1.05-11.47,1.85-7.77,5.21,3.69,3.36,6.18,1.48,2.65,5.18-1.17,1.23-2.3,1.98-3.15,2.65-.42-.2-.88-.4-1.38-.6-1.61-.63-2.91-.85-3.97-.8,1.86-2.75,4.79-7.43-1.19-7.59-6.08-.16-4.3,5.2-4.51,6.54-.14,1-2.63,1.11-5.83,1.26-1.05.05-2.19.1-3.34.19-2.16.17-3.06.08-3.45-.58,2.51-2.93,2.17-2.59.5-7.7-.03-.08-.05-.16-.07-.24,1.33-.88,4.29-.16,9.02-1.75,7.09-2.38,5.68-1.73,10.26-6.94s10.45-8.43,12.8-12.5c2.34-4.08-1.54-10.38-5.43-7.85-3.9,2.53-5.43,1.13-3.68,5.75,1.75,4.64-2.03,8.78-4.49,6.68-2.45-2.09,1.17-4.32-3.69-7.93-4.88-3.59-8.88,1.59-7.07,2.68,1.81,1.1,8.48,5.8,6.12,9.58-2.36,3.79-1.97,5.38-9.69,6.76-2.41.43-4.03.63-5.18.61-.56-3.51-.95-5.89-4.17-4.64-.69.27-1.34.52-1.96.76-3.57-2.77-10.3-7.28-9.01-10.81,1.47-4.04,5.23-4.22,10.79-7.7,5.57-3.49,4.76-2.43,6.16-7.79,1.38-5.36,5.42-10.25.55-9.29-4.87.95-8.31,1.41-7.81,4.48.48,3.07-5.58,12.47-5.64,6.88-.07-5.59,4.06-13.28-.29-13.38-4.36-.09-9.72,1.92-9.77,5.6-.05,3.68,2.79,7.38,4.98,9.78,2.18,2.41-.07,3.39-5.08,6.56-5.01,3.18-1.96,5.4.53,8.22,1.68,1.9,6.8,6.8,10.14,10.89.03.51.27,1.09.8,1.77,2.47,3.12,1.88,13.91-1.72,8.1-3.6-5.81-4.01-14.51-8.76-13.89-2.34.3-4.63,1.18-6.07,2.46-2.12-8.42-4.68-5.28-6.37-10.83-1.83-6.1-11.05-5.38-10.51-1.58s5.55,5.19,7.48,8.19c1.93,3,.8,3.49,1.09,8.04.29,4.55,17.25,15.99,12.51,14.29-4.75-1.7-18-9.63-18.9-5.61,0,0-4.22,1.96,1.72,4.33,4.76,1.9,13.95,3.88,21.55,6.21-1.85,3.41,2.38,5.12,6.48,7.44,1.07.61,2.87,1.55,5.03,2.68.87,1.62.79,2.62-2.33,1.98-5.26-1.08-12.03-3.75-14.93-2.72-.5-.42-1.04-.92-1.64-1.55-.22-.23-.45-.44-.68-.65,1.73-.2,2.56-.6,1.42-2.6-1.28-2.24-4.95-1.63-8.28-.43-3.03-.29-5.45.77-5.38,2.41-2.22.97-.4-1.39-2.75-5.05-2.57-4.01-7.59-.98-5.69,1.73,0,0,.66,5.71,6.56,7.2,0,0,2.18,2.4,3.81,5.12s1.03,2.46-2.74,2.33c-3.78-.12-13.01.45-3.92,2.24,9.09,1.79,4.8,2.43,2.25,3.43-1.2.48-1.63-.08-2.14-.64-.56-.62-1.22-1.23-3.14-.45-.62.25-1.26.58-1.85.94-4.77-2.88-4.49-2.43-11.84-.35v3.24c3,.63,7.47,1.48,13.07,2.85,15.25,3.73.62,1.82-7.72,3.02-2.31.33-4.22.82-5.35,1.33v1.81c1.79.54,5.81.84,12.95.59,9.92-.34,14.76-1.56,18.89-1.96-1.07,7.11-.59,13.39,1.35,18.9-7.37-1.95-14.51-.28-18.02-.97-3.68-.72-8.4-3.14-13.89-6.47-.47-.28-.89-.54-1.27-.77v5.71c.64.15,1.29.3,1.97.47,12.06,2.95,5.45,2.37-1.97,2.59v4.22c.59,0,1.2-.03,1.85-.05,18.91-.65,19.38-4.52,31.57.31,1,.4,1.9.76,2.72,1.09,8.37,13.34,27.34,21.32,55.45,25.53,4.61,2.66,8.25,4.59,8.25,4.59,6.22,1.99,7.61.04,6.64-2.79,51.82,4.97,128.29.21,222.77-6.95,7.2,1.92,14.88,2.62,12.32-.94,5.35-.41,10.75-.83,16.2-1.25.16,0,.32-.02.47-.04,17.69-1.89,37.96-.89,54.93-4.5-.78-5.52-2.89-12.82-8.99-16.61l.02-.03Z"/>
      <g>
        <path class="cls-14" d="m672.55,650.49c16,5.89.49,2.26-8.59,2.96-9.08.7-12.58,4.29,7.78,5.21,10.68.48,16-.56,20.47-.67-.7,3.24-1.16,6.36-1.36,9.35,1.1-.64,2.26-1.22,3.55-1.64.56-.18,1.15-.29,1.73-.42,1.22-.27,2.43-.54,3.65-.81,2.73-.61,5.48-1.22,8.21-1.83.54-.12,1.26-.17,1.7-.46,1.1-.71,2.01-1.7,2.8-2.65,1.59-1.92,2.71-4.08,3.82-6.23.91-1.77,1.77-3.64,3.15-5.19,1.06-1.19,2.52-2.05,4.38-1.97,2.86.12,5.54,1.87,7.66,3.33.89.61,1.75,1.26,2.59,1.92.29.23.57.45.86.68.07.06.62.6.72.59.21-.02.12-1.31.13-1.52l.54-21.83s.05-.04.08-.02c4.47,3.16,9.67,5.97,15.46,6.98,1.31.23,2.64.36,3.98.36.36,0,.73,0,1.09-.02.15,0,.35.02.47-.07.18-.12.13-.07,0-.24-.29-.35-.57-.7-.85-1.06-1.06-1.36-2.05-2.75-2.89-4.2-1.29-2.21-2.32-4.66-2.17-7.14.37-5.91,7.74-8.88,13.56-10.63.02,0,.05,0,.05.03,1.46,4.63,2.88,9.27,4.86,13.78,1.74,3.98,3.93,7.86,6.92,11.31,3.14,3.63,7.16,6.68,11.84,8.88.37.18.79.43,1.19.54.37.11.35-.02.47-.31.16-.41.32-.81.49-1.21.38-.88.8-1.74,1.27-2.59.92-1.65,2.04-3.23,3.5-4.58,1.37-1.26,3.06-2.29,5.04-2.82,1.48-.4,3.04-.48,4.59-.35-2.42-5.95-1.74-6.65-1.74-6.65,0,0-.83-.19-1.93-.3,2.33-.59,4.59-1.52,6.33-3.15,5.75-5.36,6.14-9.1-2.37-4.55-8.53,4.55-10.71,4.66-4.63-1.94,6.08-6.59,18.04-11.75,9.41-15.42-8.63-3.68-6.36,4.97-14.93,11.84-8.58,6.88-2.43-2.22-2.61-7.59s-5.51-4.47-6.24.16c-.73,4.62-4.6,9.51,2.77,13.86,0,0,2.2-.82-.07,2.68s-7.53,1.91-7.33,6.74c.08,1.98-.36,4.01-1.03,5.25-.27.24-.44.47-.5.73-.91.99-2.05.57-2.89-2.73-1.67-6.48-2.4-14.44-7.07-12.75,1.25-2.3,2.22-4.5,2.39-6.83.1-1.39-.33-2.93-1.07-4.39,7.52-1.53,11.04-.33,11.52-8.01.52-8.57,1.79-9.24,1.79-9.24,0,0-7.72-3.47-7.56,2.8.16,6.26,2.01,7.22-3.02,9.02-1.59.57-3.5,1.27-5.35,1.83-2.46-2.49-5.54-3.78-7.19-1.8-.07.08-.13.15-.19.22.62-4.14,4.41-8.18.45-7.27-4.09.94-12.49,1.2-8.86,5.61,3.63,4.41,6.49,2.35,2.34,6.51-1.37,1.38-2.67,2.19-3.64,2.93-.43-.28-.9-.56-1.43-.85-1.66-.91-3.04-1.29-4.18-1.32,2.27-3.17,5.89-8.57-.52-9.3-6.51-.75-5.13,5.92-5.49,7.51-.25,1.2-2.94,1.11-6.38,1-1.14-.04-2.36-.08-3.61-.07-2.33,0-3.29-.18-3.64-1.02,2.99-3.32,2.59-2.94,1.3-9.29-.02-.1-.04-.2-.06-.3,1.52-.95,4.62.19,9.86-1.31,7.85-2.25,6.26-1.58,11.71-7.48,5.45-5.9,12.07-9.27,14.99-13.99,2.91-4.74-.62-12.72-5.05-10-4.44,2.71-5.95.88-4.53,6.64,1.42,5.78-3.05,10.45-5.49,7.69-2.42-2.76,1.68-5.13-3.17-9.94-4.88-4.79-9.69,1.12-7.86,2.61s8.52,7.79,5.62,12.16c-2.91,4.37-2.65,6.34-11.08,7.32-2.63.31-4.39.4-5.63.28-.25-4.3-.43-7.22-4.01-6-.76.26-1.49.5-2.18.74-3.56-3.68-10.34-9.75-8.6-13.91,1.98-4.77,6.03-4.64,12.36-8.36,6.33-3.73,5.35-2.51,7.39-8.89,2.02-6.37,6.83-11.93,1.51-11.21-5.32.72-9.06.96-8.83,4.72.21,3.76-7.22,14.6-6.74,7.82.48-6.78,5.68-15.73,1.02-16.23-4.67-.5-10.63,1.45-11.05,5.9-.42,4.46,2.27,9.19,4.37,12.3,2.1,3.11-.42,4.1-6.11,7.49-5.69,3.4-2.64,6.36-.25,10.01,1.61,2.45,6.62,8.86,9.81,14.11-.02.62.18,1.34.69,2.21,2.34,4,.63,17.02-2.66,9.65-3.29-7.37-2.85-17.94-8.02-17.62-2.54.16-5.09,1.02-6.76,2.43-1.44-10.4-4.5-6.81-5.76-13.69-1.35-7.55-11.34-7.51-11.13-2.86.2,4.66,5.44,6.79,7.21,10.6,1.78,3.81.51,4.3.38,9.84-.14,5.54,16.93,20.93,12.01,18.45-4.93-2.48-18.36-13.29-19.73-8.5,0,0-4.72,1.99,1.42,5.41,4.92,2.73,14.59,5.96,22.51,9.47-2.32,3.96,2.04,6.42,6.21,9.6,1.09.83,2.93,2.14,5.14,3.7.77,2.04.59,3.25-2.69,2.19-5.54-1.78-12.54-5.62-15.76-4.65-.5-.55-1.03-1.21-1.61-2.02-.21-.3-.44-.58-.66-.85,1.88-.08,2.81-.49,1.79-3.02-1.15-2.83-5.16-2.42-8.85-1.27-3.22-.62-5.92.44-6.01,2.43-2.48.98-.29-1.72-2.45-6.36-2.37-5.09-8.05-1.87-6.28,1.59,0,0,.14,6.97,6.32,9.32,0,0,2.1,3.11,3.57,6.55,1.47,3.45.86,3.07-3.17,2.57-4.04-.48-14.01-.63-4.43,2.36,9.58,2.99,4.91,3.38,2.07,4.36-1.34.47-1.74-.25-2.23-.97-.53-.8-1.18-1.6-3.33-.83-.69.25-1.41.59-2.09.97-4.99-4.04-4.55-3.31-13.45-1.31-9.2,2.06-1.82,2.48,14.2,8.38l.02.02Z"/>
        <path class="cls-14" d="m1010.12,548.91c-.21,1.44-.45,3.17-.8,4.79-3.8.43-6.67,1.92-5.47,4.16.05.09.09.17.13.26-3.95-2.66-6.2-7.51-7.25-4.21-1.08,3.41-5.04,9.53,1.31,9.31,6.36-.23,5.68-3.36,7.87,1.81.72,1.72.91,3.07,1.18,4.16-.5.16-1.03.34-1.59.56-1.77.7-2.86,1.48-3.45,2.27-2.11-3.31-5.86-8.77-9.82-4.6-4.04,4.24,3.5,6.81,4.97,7.91.67.49.41,1.37-.3,2.5,1.59-.9,3.2-1.79,4.89-2.58,3.8-1.78,7.7-3.39,11.68-4.87-1.29-3.34-.77-7.34-.04-10.61,0-.02.03-.03.06-.02,5.49,1.43,10.98,2.9,16.6,3.9.89.16,1.79.3,2.69.43,2.48-.73,4.97-1.44,7.45-2.15-7.04-2.26-14.43-5.17-14.99-1.26-1.73-2.12-3.5-3.98-5.83-5.35-1.38-.82-3.17-1.33-5.05-1.58,2.21-6.17,5.22-8.04-2.45-12.47-8.55-4.94-8.6-6.21-8.6-6.21,0,0-7.44,3.64-.92,6.87,6.52,3.23,8.43,2.43,7.75,6.97h0Z"/>
        <path class="cls-14" d="m1110.12,619.4c-.17.17-.33.33-.5.47-.35.15-.6.32-.78.54-1.27.67-2.17-.05-1.62-3.36.07-.44.15-.89.23-1.34-1.36-1.89-2.73-3.77-4.12-5.64.18,3.4.71,6.8,1.85,10.09,1.49,4.28,4.06,8.26,7.58,11.64.28.27.57.62.91.84.31.2.34.08.57-.16.31-.33.63-.66.96-.99.72-.71,1.46-1.4,2.25-2.06.02-.02.04-.03.06-.04-2.53-3.3-4.99-6.64-7.42-9.99h.02Z"/>
        <path class="cls-14" d="m1088.63,591.92c-2.33-2.5-4.73-5.02-7.43-7.25-.66-.54-1.32-1.08-1.98-1.62-.94-.25-2.04-.62-3.24-1.02-1.06-.36-2.21-.74-3.39-1.09-2.21-.65-3.05-1.1-3.04-1.98,1.33-.72,2.18-1.19,2.77-1.69-1.44-1.3-2.83-2.65-4.11-4.07-1.36-1.53-2.59-3.15-3.57-4.87-1.89,4.05-4.87,7.24-4.94,2.15-.11-7.81,4.62-17.57-.41-18.74-2.47-.57-5.23-.49-7.39.36,2.87-10.12-1.48-7.64.14-14.42,1.8-7.44-7.67-10.22-9.37-5.81-1.71,4.41,2.37,7.88,2.5,11.94.13,4.06-1.27,4.17-3.65,9.3s7.49,24.33,3.85,20.63c-3.64-3.71-11.97-17.6-15.21-13.52,0,0-5.28.53-.86,5.45,3.53,3.94,11.39,9.69,17.45,15.21-3.82,3.05-.68,6.58,1.96,10.72.69,1.09,1.9,2.83,3.35,4.9-.1,2.12-.77,3.2-3.44,1.28-4.52-3.23-9.58-8.8-13.03-8.79-.24-.66-.48-1.42-.7-2.34-.08-.34-.18-.66-.28-.98,1.81.45,2.86.33,2.92-2.32.07-2.97-3.9-3.71-7.86-3.69-2.8-1.49-5.79-1.26-6.69.58-2.75.21.43-1.69.28-6.64-.17-5.42-6.86-4.02-6.59-.29,0,0-2.7,6.56,2.18,10.49,0,0,.72,3.5.71,7.13-.01,3.64-.44,3.11-4.06,1.51-3.62-1.59-13.01-4.55-5.16.96,7.86,5.5,3.26,4.54.19,4.66-1.46.06-1.55-.73-1.72-1.54-.18-.9-.47-1.83-2.81-1.71-.75.04-1.57.15-2.37.32-3.07-5.18-2.96-4.37-12.21-5.03-9.55-.67-2.73,1.8,10.03,11.84,12.75,10.02-.46,2.25-9.34.34s-13.66.46,5.25,7.07c9.91,3.47,15.38,3.99,19.66,5.16-1.99,2.83-3.68,5.61-5.11,8.35,1.3-.29,2.64-.5,4.04-.53.6-.01,1.2.06,1.8.1,1.26.09,2.53.18,3.8.27,2.84.2,5.68.41,8.52.61.56.04,1.26.2,1.8.06,1.33-.35,2.6-1.02,3.72-1.68,2.29-1.35,4.24-3.05,6.16-4.74,1.58-1.4,3.16-2.9,5.11-3.96,1.49-.81,3.22-1.21,4.96-.61,2.66.92,4.48,3.31,5.89,5.27.59.83,1.15,1.67,1.67,2.52.18.29.36.59.53.88.04.07.34.74.44.76.2.04.65-1.18.74-1.38l9.41-20.24s.06-.03.08,0c2.94,4.21,6.72,8.31,11.79,10.89,1.15.58,2.36,1.08,3.62,1.46.34.1.69.2,1.04.28.15.04.32.11.48.07.22-.07.15-.03.09-.23-.13-.41-.25-.82-.37-1.23-.45-1.56-.82-3.15-1.03-4.74-.32-2.43-.3-5.01.86-7.28.97-1.9,2.61-3.21,4.61-4.12-1-1.14-2-2.28-3.04-3.39v.02Z"/>
        <path class="cls-14" d="m1085.99,582.31c8.44-4.44,21.89-5.88,15.2-11.75-6.68-5.88-8.05,2.85-18.98,6.85-10.93,4.01-1.4-2.76.62-7.83s-3.38-5.73-5.97-1.61c-2.58,4.11-8.23,7.59-3.02,13.73,0,0,2.42-.14-1.15,2.48-3.58,2.63-7.91-.35-9.69,4.22-.61,1.57-1.59,3.06-2.56,4.07,2.42,3.36,4.88,6.71,7.42,10.01,1.51-1.24,3.18-2.37,5.07-3.2,1.81-.79,3.84-1.27,5.92-1.21,1.57.04,3.07.41,4.49.96.13-6.25,1.06-6.7,1.06-6.7,0,0-.71-.41-1.7-.83,2.44.11,4.96-.13,7.28-1.16,7.63-3.38,9.52-6.77-.4-4.92-9.93,1.84-12.05,1.33-3.58-3.12h0Z"/>
        <path class="cls-14" d="m1139.06,610.24c-9.02-1.29-24.69,1.34-8.42-3.51,7.49-2.23,13.1-3.42,16.08-4.31l.13-2.61c-.47-.16-1.01-.33-1.63-.51-9.1-2.66-8.27-3.32-14.05.84-5.77,4.17-10.75,7.21-14.69,8.16-3.76.91-11.51-.97-19.36,1.55,1.15-4.15,1.69-8.65,1.6-13.51-1.48-.98-3.08-1.78-4.89-2.31-4.19-1.21-8.37-2.43-12.56-3.64-.32-.09-.73-.15-1.02-.3-.44-.22-.84-.71-1.16-1.03-.37-.36-.71-.73-1.03-1.12-1.33-1.59-2.31-3.37-3.17-5.16-.81-1.7-1.51-3.43-2.37-5.11-.68-1.32-1.48-2.74-2.83-3.69-1.36-.97-3.08-1.09-4.75-.72-2.93.66-5.54,2.32-7.85,3.87-.85.57-1.69,1.17-2.51,1.78-.03.02-.08,0-.07-.03l.54-22.01c0-.37.06-.75.03-1.12-.04-.42-.27-.12-.56.05-.61.37-1.23.73-1.86,1.07-2.66,1.46-5.52,2.73-8.56,3.58-3.4.96-7.03,1.37-10.62.84-.03,0-.04-.04-.03-.05,1.72-1.87,3.35-3.81,4.65-5.91,1.05-1.71,1.9-3.56,2.08-5.49.17-1.73-.26-3.45-1.3-4.98-1.25-1.83-3.2-3.27-5.28-4.45-1.32-.75-2.71-1.4-4.15-2-.4-.17-.8-.33-1.2-.48-.16-.06-.58-.3-.77-.29-.26,0-.26.21-.32.38-.22.59-.44,1.18-.66,1.78-.89,2.38-1.79,4.76-2.8,7.11-1.97,4.61-4.35,9.15-7.73,13.16-3.42,4.05-7.9,7.4-13.23,9.64-.74.31-1.49.6-2.25.87-.03,0-.06,0-.06-.02-1.52-4.81-4.27-10.79-10.53-12.5-1.26-.34-2.56-.47-3.87-.44-.46.99-1.02,2.12-1.7,3.42-3.68,7.06-.83,7.68,4.52,10.04,2.34,3.55,4.63,5.73,6.42,7.44-1.46.62-2.92,1.25-4.38,1.91-3.64-4.43-5.52-4.85-5.36,1.24.01.48.02.92.03,1.32-.41.21-.81.42-1.21.63-.35-.03-.71,0-1.07.08-2.13-3-10.07-.14-4.84,3.03-3.41,1.71-6.86,3.18-10.31,4.42.4-.63.64-1.17.77-1.65.85-2.31-.55-5.9.17-8.9.27-1.08.6-1.86.96-2.42.94-.45,1.73-.95,2.4-1.49,6.79-3.63,7.13-3.84,7.88-9.85.43-3.37-.56-3.79-2.3-2.49.57-3.85-3.7-5.13-6.81-.21-1.54,2.46-2.24,6-2.95,8.35-.7-.83-1.7-2.09-3.56-3.48-.81-.6-1.5-1-2.09-1.24-.59-2.63-.46-5.08-.41-7.11.27-.16.55-.31.85-.46,8.51-4.2,10.65-2.52,10.78-7.88.13-5.36-2.09-3.64-8.45,1.69-6.36,5.34,3.78-13.64,3.89-18.28.11-4.64-7.93-7.05-8-4.37-.07,2.68,2.79,13.14-.24,9.83-3.03-3.32-6.71-6.48-10.77-5.18-4.09,1.3,1.78,3.45,6.34,8.25,4.26,4.48,2.61,5.65,1.49,10.84-.69,0-1.48.06-2.42.2-1.29.19-2.29.47-3.08.82-.02,0-.03-.02-.05-.04-1.87-1.45-3.79-2.9-4.91-1.76-1.7,1.73.31,3.89,2.65,5.59.18,1.72,1.18,3.78,2.34,6.03-1.05,1.25-2.44,2.76-3.85,4.56-.46.44-.97.9-1.51,1.37-2.85-2.1-4.08-.53-3.57,2.83-1.06.74-2.04,1.31-2.77,1.54-.02-.47-.02-1-.01-1.58.02-.85-.04-1.69-.15-2.51,2.75-5.21,7.34-6.37,1.82-8.32-1.91-.68-3.33-.41-4.47.45-.22-.4-.36-.63-.36-.63,5.72-4.46-5.59-13.41-4.57-17.3,1.03-3.9,7.52-1.37.83-8.02-6.69-6.65-7.06-4.16-5.06,2.7,2.02,6.86-2.91,4.55-9.05.6-6.14-3.95-18.95-2.22-6.9,1.93,12.06,4.15,13.23,7.22,15.97,9.81,1.05.99,2.08,2.35,2.41,3.46-.87-.07-1.64.2-2.04.91-.15.27-.31.62-.48,1.03-1.06-.1-2.48-.44-4.36-1.07-9.89-3.36-11.17-2.15-10.93,1.25.04.71.65,1.22,1.61,1.6-.09,0-.18,0-.28.02-5.08.6-.07,3.91,2.15,9.72-3.53-.03-3.56,3.44-.17,5.39.14.08.3.17.46.25-.43.92-1.14,1.8-2.04,2.87-1.97.84-4.62,3-7.59,5.39-1.58-1.62-2.84-5.14-4.86-5.2.1-.24.19-.48.25-.71,1.69-5.67-3.82-9.42-3.76-11.92s2.64-6.35,6.51-11.06c3.85-4.69,3.21-4-3.23-7.97-6.45-3.96-4.06.05-5.56,10.73-.18,1.25-.35,2.21-.53,2.95-.12-.32-.25-.65-.4-1.01-2.32-5.49-3.9-6.16-5.18-3.74-.4-.53-.82-1.03-1.29-1.48-4.58-4.43-10.78-4.81-3.9,6.13.86,1.37,1.72,2.55,2.55,3.58-1.98,3.95-5.45.87-9.19-3.64-4.38-5.27-19.1-5.83-8.48.73,4.34,2.68,6.82,4.84,8.34,6.68-.63.05-1.33.13-2.13.24-5.42.74-5.63,3.78-5.96,7.69-5.31-2.56-6.93-1.34-8.28,1.61-.03.06-.04.12-.06.17-1.26-1.82-5.92-.36-6.28,3.62-.43,4.63,4.82,7.13,4.82,7.13,0,0-.52.5-1.3,1.55-3.39-.47-5.22,2.6-3.4,5.14-2.77.22-5.52.54-8.22.97-.47-.68-.89-1.42-1.23-2.2-2.06-4.72,5.75-5.72-1.7-6.67-.76-.1-1.46-.16-2.12-.2-.2-1.79-.51-3.29.1-4.38,1.46-2.6,6.4-6.15,13.17-10.37,6.78-4.21,5.7-3.6.99-8.94-4.05-4.59-4.38-1.79-9.23,6.02-1.84-1.54-4.96-.8-8.16,1.88-.14-.88-.35-1.74-.69-2.51-2.41-5.49-8.87-7.04-7.6,5.7.11,1.06.26,2.02.44,2.91-1.46,0-2.2-1.56-2.13-4.38.13-5.36-5.14-6.78,3.07-11.16,8.21-4.38,9.06-.95,7.67-7.61-1.4-6.67-4.56-4.8-7.15-.78-2.6,4.03-8.06,10.64-7.59,4.04.48-6.59,5.81-8.39-.7-9.85-6.5-1.46-5.43,5.72-5.89,11.61-.46,5.88,3.93,5.13,5.67,9.65,1.78,4.53,1.95,9.54-.97,14.45-.34.57-.67,1.1-.98,1.62-1.53.02-2.77.27-3.84.69.22-1.29.56-2.52,1.54-3.58,2.99-3.24,4.14-4.75-1.92-3.92s-3.05,5.68-5.41,10.61c-2.36,4.93-4.7-.54-4.64-2.98s-4.44-1.55-4.74,1.78c-.3,3.32,3.45,5.11,3.45,5.11,0,0-1.84,1.74-3.49,5.8-.55,1.34-1.31,1.96-2.12,2.06-.78-1.64-.05-5.08,1.04-7.03,1.46-2.6-2.14-3.21-5.38-1.47-.35-.08-.81-.16-1.42-.24-5.37-.68-7.19.67-5.28,5.22.51,1.23,1.53,2.21,2.74,3.01.38,1.28,1.11,2.24,1.59,2.76-2.28.1-4.61.18-6.95.26.01-.76-.08-1.5-.39-2.14-1.49-3-7.03-5.11-2.41-11.38,4.64-6.27,14.67-4.66,13.86-8.54-.79-3.88-4.84-3.24-8.52.88s-5.68,3.54-5.59-.31c.09-3.85-3.68-4.87,2.21-8.02,5.89-3.15,6.52-.69,5.52-5.47-1-4.79-3.28-3.45-5.14-.56-1.87,2.9-5.8,7.65-5.45,2.91.34-4.74,4.18-6.03-.5-7.08s-3.92,4.1-4.24,8.34c-.33,4.22,2.81,3.68,4.08,6.93,1.27,3.25,1.4,6.85-.69,10.39-2.1,3.52-3.95,5.39.4,10.54,0,0,1.93,1.11,2.69,3.62-1.72.04-3.44.08-5.19.1,2.34-2.26,6.01-2.47.39-4.26-6.75-2.15-10.49-1.13-11.67,4.35h-2.93c.73-2.7-3.58-1.71-5.24-.03-1.5-.01-3.01-.03-4.53-.05-1-3.95-6.92-6.97-7.85-10.56-1.13-4.38-1.88-6.32-6.46-3.07-4.57,3.26,4.01,6.8,7.74,12.57.23.36.41.68.55.96-1.87-.04-3.73-.08-5.62-.12-1.08-.63-2.07-1.31-2.75-1.87-1.7-1.43-27.63,13.19-32.14,14.95-1.63.64-3.29,1.26-4.9,1.95-2,.86-3.93,1.82-5.59,3.05-6.41,4.73-8.39,13.66-9.01,20.38,18.41,4.05,40.19,2.42,59.31,4.34.17.02.34.03.51.03,5.89.4,11.72.79,17.49,1.18-2.61,4.38,5.63,3.38,13.3.89,101.97,6.75,184.47,10.95,240.04,3.84-.93,3.47.64,5.81,7.26,3.26,0,0,3.86-2.43,8.7-5.76,30.09-5.69,50.19-15.79,58.66-32.19.87-.42,1.82-.88,2.88-1.38,12.94-6.13,13.59-1.43,33.97-1.03,20.37.4,17.05-3.42,8.02-4.71l-.02.02Z"/>
        <path class="cls-14" d="m1146.94,599.83l-.13,2.56c2.94-.89,3.23-1.49.13-2.56Z"/>
      </g>
      <path class="cls-22" d="m126.16,631.6c2.61-6.49,8.1-5.06-.24-7.01-7.43-1.72-11.97-10.88-15.32-18.08-2.09-.49-7.29-2.22-7.07-7.65.26-6.82-4.54-9.99-.4-16.77,4.13-6.76,5.97-7.29,4.88,2.36-.18,1.53-.31,2.74-.41,3.74.74-.66,1.5-.75,2.24-.4,2.51-4.65,9.7.52,3.98,5.25l-.04.04c1.99,4.02,4.02,9.57,6.12,14.5.42,1.01.82,1.86,1.18,2.53.02-.09.02-.17.02-.24.29-3.25,1.59-6.3,2.33-7.82-.05-.18-.09-.36-.14-.55-1.62-1.48-1.82-3.82-1.61-6.26.23-2.71.94-5.79,1.16-8.67.07-.91.1-1.82.07-2.68-.12-2.85-.61-4.32-.99-4.98-.2-.32-.36-.46-.44-.51h-.05l-.4.1-.36-.37c-6.03-6.23-6.61-7.28-6.3-16.86,0-.71.04-1.38.1-1.94.11-1.12.23-1.94.48-2.61.2-.59.72-1.32,1.63-1.33.63.06.99.35,1.33.69.64-5,4.4-5.9,6.4,1.47.96,3.51,1.15,8.32,1.4,12,.78-1.23,1.88-2.79,3.4-4.4,1.16-1.22,2.12-1.99,3.05-2.31.16-.76.29-1.52.39-2.22-1.54-1.2-2.71-1.94-3.64-2.78-1.66-1.53-2.09-3.48-1.7-7.74.15-1.8.36-3.13.65-4.07.27-.88.8-1.86,1.96-1.88,1.37.14,1.95,1.15,3.06,2.58.32.47.66,1.04,1.04,1.63.4-2,1.02-3.41,2.27-4-.92-7.36-2.35-16.53-2.06-20.28.54-5.59,4.69-9.11,7.75-9.17.66,0,1.34.23,1.8.76.43.52.59,1.23.52,2-.26,2.95-2.2,10.94-2.52,14.57,2.74-3.98,5.71-7.87,9.47-7.96.84.02,1.65.27,2.41.75,1.01.6,1.59,1.53,1.49,2.54-.19,1.62-1.47,2.93-3.05,4.69-1.61,1.75-3.63,3.92-5.52,6.63-2.18,3.16-2.95,5.11-3.21,7.16,2.61,2.31,1.98,6.19.3,10.91v.43c0,1.09.13,1.84.27,2.18.05.14.1.19.12.22.14-.03.56-.23,1.05-.73.94-.82,2.09-2.16,3.19-3.29,1.18-1.15,2.12-2.24,3.62-2.32.76,0,1.41.53,1.69,1.2.4.83.53,1.73.45,2.62-.44,4.36-5.27,8.32-7.68,10.25-.25.22-.38.43-.44.94-.09.62.11,1.46.48,2.55,2.79-2.55,3.52.42,2.33,5.96,1.07,2.73,2.25,5.93,3.15,9.62.64,2.73,1.24,4.72,1.72,5.99.19.46.39.84.53,1.09.33-.92.72-3.04.95-5.92.67-8.08,3.79-15.35,4.59-17.16-.86-1.57-1.12-3.31-.95-5.11.69-7.51,7.79-16.73,8.06-21.42.03-.22.05-.44.02-.65-.13-1.89-.74-2.59-1.45-3.32-.66-.68-1.7-1.53-1.56-3.12.15-1.56,1.16-3.47,3.63-6.9,1.52-2.04,2.71-3.55,3.69-4.55.99-1,1.63-1.64,2.72-1.71.77,0,1.24.65,1.36,1.13.14.53.11,1.11.08,1.85-.17,1.9-.87,4.83-1.88,8.51-.48,1.72-.73,3.07-.81,4.04-.09.91.04,1.49.15,1.73.14.22.13.19.3.24.86.15,4.12-2.12,7.39-5.23,2.61-2.37,5.93-3.32,8.52-3.26,2.25.02,4.49.8,4.43,2.95-.25,1.8-2.01,3.35-5.74,5.18-11.92,5.77-13.18,10.15-16.33,14.25-1.32,1.75-2.74,4.43-2.85,5.98.06,1.03.02,1.16,1.04,1.27.77,0,2.22-.33,4.34-1.34,3.95-1.87,6.5-2.73,8.41-2.74,1.28,0,2.33.6,2.78,1.55.45.94.49,2.06.37,3.37-.03.44-.07.87-.16,1.36-.21,1.7-1.48,2.87-2.97,3.45-4.35,1.74-11.97,1.06-14.2,3.38-3.41,3.03-3.47,12.19-6.79,19.77-.41.87-.6,1.54-.65,1.87.68-.22,2.51-1.27,4.47-2.78,2.44-1.76,5.42-4.14,8.43-6.39,2.29-1.71,4.13-2.48,5.7-2.47,2.38.02,3.34,2.14,3.17,4.14-.17,2.02-1.27,4.31-3.25,5.94-2.58,2.11-7.68,4.55-12.39,6.77-2.36,1.11-4.58,2.14-6.29,3-1.67.81-2.96,1.62-2.95,1.71v.02c-.65,1.48-2.17,10.5-3.4,18.87-1.27,8.43-2.35,16.37-2.35,16.41l-.17,1.23-1.15-.51s-1.66-.75-3.36-1.71c-.83-.49-1.68-1.04-2.32-1.62-.63-.58-1.23-1.12-1.22-2.11.07-.76,1.05-5.49,2.22-10.99-2.65,3.22-6.63,5.01-10.03,7.07-5.72,3.47-3.67,1.95-1.05,13.14,2.58,11.2,4.22,7.85,10.35,3.3,6.14-4.53,5.55,1.73.33,7.32-5.21,5.56-1.78,8.5-1.78,8.5,3.07,21.99-8.55.05-11.49-8.14-2.96-8.21-8.47-15.7-5.89-22.19l.02-.03Zm6.47-81.01c-.69,1.88-1.34,3.79-1.85,5.7-3.19,12.14-1.54,12.27,4.09,3.92-.49-3.58-1.03-6.9-2.23-9.62Zm-7.49,50.61c5.39,4.01,6.44-1.73,9-9.81,2.24-6.98,6.63-5.68,7.75,1.2.67-3.09,1.18-5.45,1.35-6.22l-2.65-5.77c-1.86-3.07-3.03-6.25-3.84-9.44-.74.73-1.5,1.35-2.31,1.94.32,0,.63.07.92.18,1.21.31,2.14,1.14,2.06,2.23-.4,2.12-2.86,3.65-5.6,5.59-2.71,1.83-5.81,3.72-7.24,5.07-.8.73-1.43,1.87-1.91,3.19-.68,4.61-.7,9.48,2.46,11.83h0Z"/>
      <path class="cls-22" d="m104.38,652.24c-2.9-6.36,1.92-9.35-5.25-4.66-6.37,4.18-16.14,1.14-23.68-1.4-1.8,1.17-6.64,3.74-10.42-.16-4.76-4.89-10.37-3.62-12.43-11.28-2.05-7.64-1.16-9.34,5.08-1.9.99,1.19,1.77,2.12,2.42,2.88.03-.99.49-1.61,1.26-1.9-1.63-5.02,7.07-6.66,6.55.75v.06c4.29,1.33,9.7,3.7,14.74,5.58,1.02.39,1.91.69,2.65.89-.05-.07-.11-.13-.16-.18-2.15-2.45-3.47-5.5-4.06-7.08-.16-.08-.32-.19-.5-.27-2.19.16-4.03-1.32-5.65-3.16-1.81-2.04-3.54-4.67-5.49-6.82-.61-.68-1.24-1.33-1.9-1.9-2.14-1.88-3.55-2.54-4.3-2.72-.37-.08-.58-.05-.67-.04l-.04.03-.2.37h-.51c-8.68.06-9.83-.24-16.57-7.08-.52-.5-.97-.99-1.34-1.41-.74-.85-1.25-1.51-1.56-2.15-.29-.56-.46-1.44.16-2.1.47-.41.93-.48,1.42-.49-3.18-3.92-1.24-7.25,5.49-3.61,3.2,1.72,6.83,4.9,9.66,7.27-.35-1.41-.72-3.28-.84-5.5-.08-1.68.02-2.9.43-3.8-.44-.64-.9-1.26-1.33-1.81-1.93.28-3.27.62-4.54.72-2.26.15-3.98-.89-6.79-4.11-1.2-1.36-2.02-2.42-2.5-3.27-.45-.8-.79-1.86-.01-2.72,1.05-.9,2.18-.62,3.98-.43.56.09,1.21.24,1.9.37-1.17-1.67-1.76-3.09-1.34-4.4-5.97-4.41-13.61-9.7-16.12-12.5-3.67-4.25-3.36-9.67-1.3-11.93.45-.48,1.09-.81,1.79-.78.67.05,1.3.42,1.81,1,1.95,2.22,6.41,9.14,8.82,11.88-.99-4.73-1.76-9.56.76-12.34.59-.59,1.33-1.01,2.2-1.23,1.13-.32,2.21-.1,2.86.67,1.04,1.25,1.1,3.08,1.29,5.45.16,2.37.34,5.33,1,8.56.78,3.75,1.66,5.67,2.97,7.27,3.47-.29,5.86,2.83,8.12,7.31.1.1.21.18.32.29.79.75,1.42,1.17,1.76,1.31.14.06.21.06.24.06.07-.12.22-.56.19-1.26.06-1.24-.12-3-.18-4.58-.01-1.65-.16-3.08.81-4.22.52-.56,1.35-.66,2.03-.39.88.28,1.62.81,2.21,1.49,2.85,3.33,2.4,9.55,2.12,12.62-.02.33.05.57.38.97.38.49,1.14.93,2.18,1.41.08-3.78,2.73-2.26,5.93,2.43,2.71,1.11,5.85,2.46,9.14,4.36,2.42,1.42,4.29,2.36,5.54,2.89.46.19.88.3,1.15.37-.43-.87-1.71-2.62-3.63-4.78-5.4-6.06-8.52-13.33-9.27-15.15-1.73-.46-3.17-1.47-4.36-2.83-4.97-5.68-6.76-17.18-9.97-20.6-.14-.18-.28-.34-.46-.46-1.46-1.21-2.39-1.26-3.4-1.25-.95,0-2.28.18-3.33-1.03-1.02-1.18-1.71-3.23-2.49-7.39-.43-2.51-.7-4.41-.75-5.81-.04-1.41-.06-2.31.64-3.15.53-.56,1.33-.45,1.76-.21.48.26.88.68,1.4,1.22,1.26,1.43,2.89,3.96,4.87,7.24.91,1.54,1.72,2.64,2.36,3.37.6.7,1.1,1,1.35,1.09.26.05.23.04.38-.05.71-.52,1.3-4.44,1.3-8.95.08-3.53,1.68-6.57,3.51-8.41,1.57-1.62,3.67-2.69,5.2-1.17,1.13,1.42,1.04,3.76-.2,7.72-4.04,12.6-1.73,16.53-.93,21.64.35,2.17,1.32,5.04,2.37,6.19.79.67.85.79,1.63.13.54-.55,1.3-1.84,2.02-4.06,1.36-4.14,2.5-6.58,3.82-7.97.88-.92,2.04-1.28,3.04-.94,1,.32,1.83,1.06,2.7,2.05.29.33.58.65.87,1.05,1.08,1.33,1.06,3.05.45,4.53-1.73,4.34-7.49,9.39-7.34,12.6-.16,4.56,6.45,10.92,9.64,18.55.35.9.7,1.49.91,1.76.31-.64.81-2.69,1.06-5.15.4-2.98.74-6.77,1.19-10.51.35-2.84,1.05-4.69,2.14-5.82,1.66-1.71,3.86-.95,5.2.56,1.34,1.51,2.24,3.89,2.06,6.45-.26,3.32-2,8.7-3.63,13.62-.82,2.47-1.6,4.79-2.16,6.62-.57,1.76-.87,3.26-.8,3.32v.02c.64,1.48,6.13,8.81,11.35,15.47,5.24,6.73,10.24,12.99,10.27,13.02l.77.97-1.16.48s-1.69.68-3.56,1.25c-.92.26-1.91.5-2.77.57-.85.05-1.65.12-2.37-.57-.5-.57-3.25-4.55-6.43-9.19.5,4.14-.95,8.25-1.79,12.13-1.43,6.53-1.12,4,8.8,9.83,9.9,5.86,8.59,2.37,9.53-5.22.95-7.56,5.09-2.81,5.54,4.81.43,7.6,4.93,7.15,4.93,7.15,18.06,12.95-5.87,6.21-13.82,2.69-7.99-3.52-17.23-4.71-20.15-11.05v-.06Zm-37.17-53.34c.88,1.8,1.82,3.58,2.85,5.27,6.6,10.68,7.83,9.58,5.66-.25-2.93-2.12-5.72-4.01-8.51-5.03h0Zm31.52,40.33c6.62-1.13,3.19-5.85-.9-13.28-3.51-6.44.45-8.71,6.22-4.77-1.78-2.62-3.13-4.61-3.57-5.27l-6.01-2.06c-3.5-.77-6.62-2.12-9.48-3.74.01,1.04-.06,2.02-.18,3.01.23-.23.49-.41.76-.54,1.06-.66,2.3-.76,3.04.05,1.26,1.75.67,4.59.19,7.9-.55,3.22-1.31,6.77-1.32,8.73-.02,1.08.37,2.32.99,3.58,2.87,3.67,6.39,7.04,10.27,6.38h-.01Z"/>
      <path class="cls-15" d="m1164.25,581.35c-25.76,3.25-51.68,8.52-77.14,12.2-53.57,7.73-107.74,8.14-161.75,8.54-102.11.76-204.29,1.51-306.24-5.03-73.04-4.68-145.83-13.07-218.61-21.12-128.05-14.16-256.98-27.88-385.73-18.3-6.31.47-12.94.79-19.72,1.11v902.66h1169.18v-880.06h.01Z"/>
      <g class="cls-33">
        <path class="cls-20" d="m691.97,556.68c-1.42,1.41-2.06,3.08-2.44,4.71-.84,3.59-.53,7.2.85,10.49,1.16,2.75,4.33,5.31,1.71,8.46-1.18,1.42-3.02,2.52-4.85,3.54-1.82,1.02-3.71,2.03-5.1,3.35-2.24,2.13-2.89,4.79-3.81,7.3-.91,2.51-2.4,5.19-5.49,6.62-4.21,1.94-10.18.95-13.49,3.64-1.23.99-1.92,2.39-3.52,3-1.58.6-3.38.17-4.8-.42-4.51-1.87-7.55-5.07-10.1-8.35-2.53-3.27-4.7-6.73-8-9.54-.92-.79-1.95-1.53-3.3-1.89-1.33-.36-3.04-.26-4.24.48-1.14.71-1.62,1.87-1.54,2.9s.61,1.97,1.14,2.89c1.96,3.39,3.71,6.93,5.92,10.24.82,1.23,2.22,1.52,3.59,2.39,1.59,1.01,2.96,2.21,4,3.56,3.5,4.57,2.6,10.64,7.5,14.67,2.89,2.37,10.78,4.17,14.17,6.2,8.53,5.12,6.28,16.62,15.64,21.12,5.11,2.46,12.84,2.29,16.38,5.96,2.28,2.36,2.03,5.56,2.83,8.43,1.35,4.77,6.15,8.76,12.32,10.71,2.89.92,6.74,1.77,9.96,1.04,4.52-1.03,8.74-2.74,12.91-4.41,2.91-1.17,5.95-2.42,7.76-4.42,3-3.32,1.71-7.33,2.34-10.93.67-3.88,5.67-5.96,10.53-7.34,4.24-1.21,8.88-2.25,11.9-4.73,2.47-2.03,3.41-4.66,4.79-7.11,1.37-2.45,3.61-5.02,7.2-5.89,1.66-.41,3.5-.4,5.06-1.01,2.29-.89,3.3-2.94,2.84-4.64s-2.13-3.04-4.03-4.09c-1.89-1.04-4.04-1.84-5.94-2.88-4.13-2.24-6.97-5.51-11.47-7.34-5.06-2.06-11.35-1.51-16.03-3.95-3.91-2.04-6.1-5.48-7.19-8.82-1.29-3.99-1.96-8.14-3.89-11.94s-5.32-7.32-10.56-8.81c-3.11-.89-6.68-1-9.71-1.97-4.08-1.31-6.79-4.07-8.23-7.1-1.44-3.03-1.76-6.34-2.05-9.62-.13-1.5-.27-3.04-1.08-4.36-.8-1.32-2.41-2.42-4.5-2.53-2.24-.11-4.57.97-5.99,2.37h0Zm-38.42,56.81c.16.77.17,3.52,0,4.39s-.96,1.84-2.15,1.92c-.95.06-1.68-.49-2.17-1.05-2.45-2.8-2.22-6.72-4.98-9.35-1.42-1.35-3.49-2.21-5.22-3.32-2.71-1.74-3.95-4.38-6.17-6.44-3.46-3.2-5.67-7.41-4.29-7.82,2.09,0,3.56,1.32,4.33,2.69s1.11,2.93,2.22,4.15c.89.99,2.24,1.7,3.4,2.51,4.51,3.16,6.53,7.99,11.27,11.03,1.04.67,2.28,1.27,3.74,1.27h0Zm44.38-54.79c.65,2.61.23,5.38.17,8.09s.31,5.52,2.35,7.63c1.62,1.68,4.3,2.99,4.43,5.14l-6.73,1.11c-.1-2.58-1.13-5-2.19-7.39-1.06-2.37-2.15-4.76-2.39-7.32-.24-2.55.47-5.33,2.7-7.58.18-.18.41-.38.7-.43.56-.09.86.37.95.75Z"/>
        <g class="cls-31">
          <path class="cls-24" d="m666.87,623.5c.87-5.17,2.07-11.41,8.85-14.8,3.33-1.67,7.41-1.91,10.91-3.35,2.72-1.12,4.92-2.79,6.69-4.64,2.15-2.25,3.7-4.72,5.18-7.2.2-.33-.48-.5-.68-.17-2.75,4.56-6.06,9.79-12.76,12.01-3.42,1.13-7.15,1.51-10.24,3.19-2.65,1.45-4.6,3.52-5.86,5.67-1.75,2.97-2.28,6.14-2.8,9.23-.06.34.66.38.72.04h0Z"/>
        </g>
        <g class="cls-31">
          <path class="cls-24" d="m704.26,645.02c10.48-11.66,15.58-25.47,14.47-38.69-.31-3.69-1.12-7.3-2.39-10.8-.12-.32-.83-.07-.71.25,4.5,12.37,2.82,26.2-4.46,38.72-2.06,3.54-4.56,6.96-7.48,10.21-.27.3.31.61.58.31h0Z"/>
        </g>
        <g class="cls-31">
          <path class="cls-24" d="m726.81,631.86c1.78-3.47,4.42-6.75,7.81-9.67.33-.28-.27-.59-.6-.31-3.43,2.95-6.11,6.28-7.91,9.79-.17.34.53.52.7.18h0Z"/>
        </g>
        <g class="cls-31">
          <path class="cls-24" d="m756.45,633.17c-8.75,8.55-21.13,15.09-34.83,18.45-.47.12-.2.61.27.5,13.82-3.39,26.34-10,35.17-18.63.31-.3-.31-.61-.61-.31h0Z"/>
        </g>
      </g>
      <g>
        <path class="cls-22" d="m67.51,1065.34c-.71-2.52-2.77-1.96.35-2.72,2.79-.67,4.79-4.23,6.29-7.02.79-.2,2.75-.87,2.88-2.97.16-2.65,2.04-3.88.78-6.51-1.25-2.62-1.91-2.83-1.87.92,0,.59,0,1.06,0,1.45-.25-.25-.52-.29-.8-.15-.75-1.8-3.57.2-1.66,2.04h.01c-.88,1.58-1.83,3.73-2.79,5.64-.2.39-.37.72-.53.98v-.09c.01-1.26-.35-2.44-.56-3.03.03-.07.04-.14.07-.21.65-.57.81-1.48.83-2.43.02-1.06-.12-2.24-.09-3.36,0-.35.03-.7.08-1.04.15-1.11.38-1.68.55-1.93.09-.12.15-.18.18-.2h.02l.14.04.14-.14c2.45-2.42,2.69-2.83,2.95-6.54.03-.27.04-.53.04-.75,0-.43-.01-.75-.08-1.01-.05-.23-.22-.51-.55-.51-.23.02-.38.14-.51.27-.04-1.94-1.38-2.28-2.4.57-.48,1.36-.74,3.22-.97,4.65-.24-.48-.58-1.08-1.08-1.71-.38-.48-.7-.77-1.03-.9-.03-.3-.05-.59-.06-.86.61-.47,1.06-.75,1.44-1.08.67-.59.9-1.35.92-3.01.01-.7-.01-1.21-.09-1.58-.07-.34-.22-.72-.64-.73-.51.06-.76.45-1.22,1-.14.18-.28.4-.44.63-.07-.77-.25-1.32-.68-1.55.62-2.85,1.49-6.41,1.52-7.87.01-2.17-1.38-3.53-2.49-3.55-.24,0-.5.09-.69.3-.17.2-.26.48-.27.77-.01,1.14.39,4.24.37,5.65-.85-1.54-1.79-3.05-3.16-3.09-.3,0-.62.11-.91.29-.39.23-.64.59-.64.98,0,.63.43,1.13.94,1.81.52.68,1.18,1.52,1.77,2.57.68,1.22.89,1.98.9,2.78-1.04.9-.96,2.4-.52,4.24,0,.06-.01.11-.02.17-.04.43-.12.71-.18.85-.02.05-.04.07-.05.09-.05-.01-.2-.09-.35-.28-.31-.32-.69-.84-1.05-1.27-.39-.44-.69-.87-1.24-.9-.28,0-.54.2-.67.46-.18.33-.26.67-.26,1.02,0,1.69,1.61,3.22,2.42,3.97.09.09.12.17.12.37,0,.24-.09.57-.28.99-.93-.99-1.3.17-1.08,2.31-.49,1.06-1.05,2.3-1.52,3.73-.34,1.06-.64,1.83-.86,2.33-.09.18-.17.33-.23.42-.09-.35-.14-1.18-.12-2.3.06-3.14-.8-5.96-1.03-6.66.38-.61.54-1.29.54-1.98.03-2.91-2.21-6.48-2.14-8.3,0-.09,0-.17.02-.25.12-.73.37-1,.66-1.29.27-.27.68-.59.69-1.21,0-.6-.29-1.34-1.07-2.67-.48-.79-.86-1.37-1.18-1.76-.33-.39-.54-.64-.93-.66-.28,0-.48.25-.54.44-.07.2-.09.43-.1.72,0,.74.14,1.87.37,3.3.12.67.15,1.19.14,1.57,0,.35-.07.58-.12.67-.07.09-.05.07-.12.09-.32.06-1.43-.82-2.5-2.02-.87-.92-2.04-1.29-3-1.26-.83,0-1.67.31-1.73,1.15.02.69.61,1.3,1.9,2,4.15,2.23,4.44,3.93,5.44,5.52.42.68.84,1.72.82,2.32-.06.4-.05.45-.43.49-.28,0-.8-.13-1.53-.51-1.38-.72-2.27-1.06-2.97-1.06-.47,0-.88.23-1.08.61-.2.37-.26.8-.27,1.31v.53c.01.66.43,1.11.96,1.34,1.53.67,4.34.4,5.07,1.31,1.14,1.17.81,4.73,1.74,7.67.12.34.16.59.17.72-.24-.09-.87-.49-1.53-1.08-.83-.69-1.82-1.6-2.84-2.47-.77-.66-1.42-.96-1.99-.95-.88,0-1.3.83-1.32,1.61s.3,1.67.96,2.3c.87.82,2.64,1.76,4.28,2.62.82.43,1.59.83,2.19,1.16.58.31,1.02.63,1.01.67h0c.18.59.39,4.08.53,7.32.14,3.27.24,6.35.24,6.36v.48s.46-.2.46-.2c0,0,.64-.29,1.3-.67.32-.19.66-.4.91-.63.25-.22.49-.43.53-.82,0-.3-.17-2.12-.4-4.26.85,1.25,2.24,1.94,3.4,2.74,1.96,1.34,1.27.75-.12,5.1-1.37,4.34-1.84,3.04-3.92,1.28-2.08-1.76-2.1.67-.4,2.84,1.69,2.15.33,3.3.33,3.3-1.95,8.53,3.13.01,4.51-3.16,1.4-3.19,3.7-6.09,3-8.61v-.02Zm-2.36-24.69c.18.73.35,1.47.46,2.21.71,4.71.1,4.76-1.64,1.53.31-1.39.64-2.67,1.18-3.73h0Zm.83,19.62c-2.12,1.56-2.29-.67-2.92-3.8-.56-2.7-2.21-2.2-2.88.47-.13-1.2-.22-2.11-.26-2.41l1.19-2.24c.8-1.19,1.35-2.42,1.76-3.66.25.28.5.52.77.75-.12,0-.23.03-.35.07-.46.12-.83.44-.84.87.07.82.91,1.42,1.84,2.17.93.71,1.98,1.44,2.45,1.97.27.28.45.72.58,1.24.07,1.79-.1,3.67-1.35,4.59h0Z"/>
        <path class="cls-22" d="m82.96,1054.98c-3.34,1.45-3.05-.25-.04-4.63,3.02-4.37,1.57-4.16.97-7.41s0-1.54,2.25-3.95c2.27-2.41-.71-3.66-1.98-4.81-1.27-1.15-.72,2.23-1.49,5.07-.77,2.85-3.05-.25-4.48-2.07-1.42-1.83-.55-2.22.87-6.29,1.42-4.08-2.12-2.8-2.12-2.8,0,0,.32.61-1.36,6.27-1.67,5.67.42,4.61,3.26,7.5,2.85,2.88,2.91,6.24,1.56,8.91-1.36,2.68-4.35,5.01-3.4,8.75.94,3.74-.96,5.75-2.57,8.48-1.62,2.73-10.34,8.89-10.34,8.89,0,0-1.92,4.06,3.86.1,5.77-3.95,11.67-9.91,12.35-11.64.67-1.73-.1-2.85.34-5.79.43-2.95,2.55-.16,4.26-1.19,1.71-1.04,1.41-4.85-1.93-3.39h-.01Z"/>
        <path class="cls-22" d="m32.69,1051.06c-.2-.18-.42-.2-.68.06-1.44,1.46-.07,4.22.68,5.51v-5.57Z"/>
        <path class="cls-22" d="m32.74,1032.47c.12.9.44,2.12,1.02,3.72.79,2.18,1.57,3.53,2.21,4.57.25.98.96,2.41,1.38,4.32-.06.62-.2,1.37-.45,2.3-1.01,3.88-1.45,4.78-1.65,6.37-1.18,2.28-1.64-1.72-2.51-2.65v5.6h0c.15.25.13.53,0,.87v3.12c.72-1.24,1.44-2.36,2.32-3.22-.1,3.94-.41,5.5-2.32,8.71v4.52c.51-.91,1.16-1.98,1.98-3.21,2.19-3.32,2.68-5.15,2.7-6.32.01-.76-.18-1.24-.17-1.39.02-.07-.02-.04.14-.17,1.2-.87,1.99-2.45,2-2.46l.03-.06v-.06c.14-1.47,3.55-4.38,6.19-6.14,1.02-.7,1.51-1.31,1.52-1.98-.04-1.08-1.02-1.72-1.55-2.75-.13-.27-.39-.46-.69-.45-.54.04-.94.46-1.43,1.04-.84,1-1.87,2.63-2.97,4.2-.5.4-1.09.9-1.76,1.48-.28.23-.47.37-.62.43.2-.51.43-1.08.67-1.68.33-.85.69-1.76,1-2.62,1.56-2.88,3.59-6.37,4.06-7.84.97-3.05-1.56-5.33-2.13-3.57-.35,1.13-.9,4.45-1.37,6.06-.39-1.92-1.27-3.29-1.22-4.16.02-1.42.91-3.85,2.28-6.82.54-1.21.85-1.85.88-2.47-.02-.99-.73-1.37-2.04-2.73-.58-.56-.92-.9-1.4-.93-.43.01-.64.41-.7.75-.25,1.08-.12,3.42-.44,7.14-.09,1.11-.19,1.86-.28,2.32,0,.03-.01.05-.02.07-.35-.92-.85-3.04-1.67-4.39-.67-1.06-1.35-1.78-2.11-1.8-.28-.01-.56.17-.71.43-.08.13-.13.28-.17.45v1.4h0Z"/>
        <path class="cls-22" d="m48.16,1059.37c-.07,0-.14,0-.2.01-.72.1-1.69.82-2.66,1.6,1.4-1.99,2.83-4.63,2.89-6.93,0-.35-.01-.67-.07-1-.13-.64-.25-1.11-.39-1.45-.14-.32-.3-.62-.69-.64-.54.07-.72.51-1.04,1.13-.29.64-.63,1.56-1.05,2.74-.58,1.66-1.2,3.37-1.72,4.68-.05.13-.11.26-.15.39-.04-.82-.21-1.68-.49-2.39-.34-.81-.81-1.51-1.59-1.53-.05,0-.12,0-.17.02-.46.09-.69.51-.81.94-.13.43-.18.99-.2,1.6-.03,1.84.28,4.29.25,5.5.04.74-1.45,2.31-3.24,3.87-1.42,1.26-2.98,2.61-4.07,3.9v5.23c1.35-2.99,3.31-5.29,5.72-6.64,2.69-1.48,3.16-2.53,4.04-4.52.7-1.72,4.36-2.09,6.38-3.48.72-.53,1.1-1.08,1.11-1.64,0-.93-.91-1.41-1.83-1.4h0Z"/>
        <path class="cls-22" d="m32.69,1071.87c-.26.31-.5.61-.69.92-.26.4-.49.72-.68.93.17-.54.6-1.54,1.38-2.93v-4.53c-.22.35-.44.73-.69,1.13-2.72,4.28-6.26,13.35-6.27,13.36v.03s-.01.04-.01.04c-.07.4-.11.76-.12,1.06,0,.51.07.91.25,1.2.18.3.51.45.84.45h.03c.96-.04,2.06-.95,3.17-2.11,1.09-1.16,2.11-2.61,2.61-3.82.07-.15.14-.3.2-.44v-5.28h-.01Z"/>
        <path class="cls-22" d="m32.69,1060.79v-3.09c-.62,1.29-3,3.22-5.19,6.46-2.83,4.17-3.25,3.53-2.06-.22,1.19-3.76,1.01-7.52,1.01-7.52,3.03-2.44.58-9.32,1.74-11.8,1.16-2.48,3.08-.25,1.9-5.21-1.18-4.95-1.82-3.34-2.43,1.35-.61,4.69-2,2.73-3.52-.39-1.51-3.14-6.66-3.1-2.97.67,3.69,3.78,3.52,5.91,4.03,7.85.51,1.94.5,5.53-2.54,2.46-3.03-3.06-3.76-2.39-4.35-.12-.59,2.26,4.56,2.61,5.46,4.54.89,1.93-.64,5.58-.59,8.93.07,3.35-1.94-.57-4.19-4.18-2.24-3.6-3.97-.13-2.76,2.01,1.19,2.15,6.22,6.44,6.47,7.27.23.85-3.55,15.12-3.55,15.12,0,0,3.02-.4,3.24-1.11.22-.71,2.45-12.87,2.45-12.87l2.05-2.09c2.83-2.33,4.3-5.45,5.8-8.06h0Z"/>
        <path class="cls-22" d="m151.6,1066.5c.71,2.99,1.72,6.82,4.6,7.98,3.24,1.3,1.12.39-.54,2.72-1.66,2.32-.09,5.57.36,8.92.09.66.27,1.55.5,2.48h3.35c.2-.49.66-1.08,1.62-1.74,2.64-1.8,3.46-4.17.54-2.83-2.93,1.34-3.9,2.52-3.94-1.97-.04-4.48-1.01-4.03,1.63-4.98,1.59-.58,3.39-.99,4.77-2.05-.98,2.03-1.82,3.79-1.93,4.07-.09.38.11.63.31.9.22.26.51.53.82.77.59.49,1.22.89,1.22.89l.42.27.18-.46s1.17-2.99,2.46-6.16c1.29-3.14,2.74-6.51,3.13-7.03h.01s.61-.27,1.37-.47c.78-.22,1.79-.47,2.85-.74,2.12-.54,4.44-1.14,5.69-1.78.97-.49,1.61-1.3,1.88-2.07.25-.76.06-1.63-.93-1.8-.64-.12-1.45.07-2.55.56-1.45.67-2.89,1.39-4.04,1.9-.95.45-1.79.73-2.08.77.05-.12.19-.37.44-.68,2.05-2.7,2.91-6.22,4.59-7.16,1.11-.74,4.18.03,6.12-.35.65-.13,1.3-.49,1.53-1.13.07-.17.14-.35.19-.51.17-.5.25-.93.16-1.32-.1-.4-.48-.69-1.01-.79-.77-.12-1.9.04-3.69.51-.96.24-1.59.29-1.9.22-.41-.11-.38-.16-.31-.56.2-.59,1.02-1.53,1.72-2.1,1.67-1.37,2.58-2.97,7.99-4.41,1.69-.46,2.56-.93,2.83-1.61.21-.82-.63-1.26-1.55-1.43-1.06-.19-2.5-.04-3.78.7-1.64.97-3.17,1.63-3.5,1.52-.08-.04-.07,0-.11-.12-.02-.09-.01-.33.1-.68.13-.36.35-.87.71-1.5.76-1.35,1.31-2.43,1.55-3.15.09-.27.14-.51.13-.71,0-.2-.13-.48-.45-.52-.45-.05-.77.16-1.27.47-.5.33-1.12.82-1.93,1.52-1.35,1.16-1.93,1.82-2.14,2.41-.2.61.14,1,.36,1.3.22.33.4.64.29,1.38-.01.07-.04.17-.07.25-.54,1.79-4.3,4.86-5.27,7.7-.22.69-.3,1.37-.08,2.03-.49.64-2.43,3.23-3.46,6.3-.35,1.1-.7,1.89-.93,2.22-.03-.1-.07-.26-.11-.46-.09-.51-.15-1.32-.17-2.41-.03-1.47-.22-2.79-.4-3.91.99-2.05.98-3.24-.42-2.44-.04-.45-.04-.79.04-1.02.07-.2.14-.27.27-.33,1.17-.59,3.5-1.79,4.08-3.44.12-.34.14-.69.06-1.04-.05-.27-.26-.52-.58-.56-.62-.07-1.11.28-1.69.64-.56.38-1.15.81-1.61,1.07-.25.15-.44.2-.5.21-.01,0-.02-.04-.03-.1-.02-.14-.02-.43.08-.85.01-.07.02-.12.04-.17,1.12-1.71,1.74-3.15.88-4.21.29-.78.79-1.48,1.98-2.54,1.03-.93,2.04-1.61,2.86-2.18.82-.59,1.46-1,1.69-1.6.13-.39-.03-.77-.38-1.08-.26-.23-.57-.39-.91-.44-1.55-.22-3.13,1.08-4.62,2.43.47-1.39,2-4.33,2.38-5.44.09-.3.09-.58-.04-.8-.14-.22-.4-.37-.67-.41-1.25-.18-3.28.9-4.01,3.01-.46,1.42-.72,5.05-1.01,7.94-.58.14-.97.64-1.3,1.4-.1-.25-.19-.5-.28-.7-.33-.63-.47-1.04-1.01-1.2-.48-.06-.78.27-.98.59-.21.35-.41.84-.64,1.53-.55,1.61-.55,2.39,0,3.09.3.39.72.76,1.24,1.31-.12.27-.24.55-.38.82-.41.07-.87.3-1.46.69-.77.53-1.37,1.05-1.79,1.46.23-1.42.59-3.29.53-4.71-.14-2.97-1.76-2.87-2.48-.98-.1-.17-.23-.3-.48-.36-.37-.05-.66.2-.79.4-.16.23-.3.55-.44.98-.07.22-.14.46-.22.74-1.01,3.66-.87,4.11,1.03,6.9l.11.17h.18s0-.01.02-.01c.03.04.07.09.13.24.09.27.16.87-.05,1.98-.07.33-.16.68-.28,1.03-.36,1.09-.93,2.23-1.27,3.25-.31.93-.45,1.85.08,2.52v.22c-.44.53-1.25,1.63-1.66,2.85-.01.04-.02.07-.03.09-.09-.28-.17-.63-.27-1.05-.41-2.04-.72-4.31-1.16-5.98h.02c2.77-1.45.3-3.92-1.15-2.29-.27-.19-.59-.2-.96,0,.14-.38.3-.83.51-1.42,1.33-3.64.54-3.56-1.77-1.23-2.32,2.33-.64,3.87-1.38,6.48-.59,2.07,1.38,3.08,2.2,3.4h-.02Zm13.96-10.87c.38-.71.82-1.4,1.27-2.07.24,1.13.16,2.44.04,3.85-3.08,2.84-3.74,2.69-1.31-1.78Zm-6.36,12.19c.33-.47.69-.87,1.08-1.1.71-.42,2.15-.95,3.43-1.48,1.29-.56,2.45-.98,2.8-1.77.14-.43-.17-.8-.63-1-.11-.06-.24-.09-.36-.13.38-.17.75-.36,1.12-.6.03,1.28.22,2.59.69,3.89l.56,2.39c-.14.29-.56,1.16-1.12,2.3.17-2.72-1.5-3.51-3.06-.97-1.79,2.94-2.74,5.07-4.59,3.18-1.07-1.11-.62-2.99.08-4.71h0Z"/>
        <path class="cls-22" d="m138.62,1067.26c1.56,1.32,4.9-1.03,4.36,1.93-.53,2.95-1.78,3.9-1.63,5.71.16,1.81,4.7,8.67,9.79,13.57.04.04.08.08.12.12h3.75c-1.67-1.7-7.3-7.55-8.03-10.06-.88-2.95-2.29-5.25.06-8.72,2.35-3.47-.19-6.28-.77-9.14-.6-2.85.64-6.11,4.82-8.41,4.18-2.3,6.15-.9,6.24-6.71.09-5.83.65-6.35.65-6.35,0,0-3.52-1.89-3.34,2.33.17,4.22,1.02,4.76-1.21,6.28-2.23,1.52-5.86,4.13-5.73,1.21.12-2.91,1.91-6.09.09-5.21-1.82.88-5.58,1.57-3.89,4.33,1.71,2.75,2.95,1.19,1.16,4.26-1.79,3.06-3.33,2.58-1.48,7.39,1.87,4.81,1.6,6.52-1.64,4.5-3.24-2.02-4.89,1.63-3.34,2.95h0Z"/>
        <path class="cls-22" d="m73.37,1082.67s10.84,5.36,13.43,5.85c.13.02.25.05.35.07h1.01c.29-.29.28-1.25,3.19-3.35,4.55-3.29,4.23-.3,6.4-1.21,2.17-.9,1.51-1.99,5.83-.98s3.34-2.61,2.19-4.1c-1.17-1.5-1.6,1.45-2.41.44-.8-1-2.42-1.86,1.7-2.58,4.12-.72.48-1.92-1.09-2.11-1.57-.2-1.87-.04-.59-2.1,1.28-2.06,2.71-3.82,2.71-3.82.8-.21,1.49-.75,2.08-1.4.02.09.04.19.08.28,0,0,.19,4.71,3,5.93,0,0,1,1.97,1.72,4.21.72,2.24.44,2.02-1.38,1.94-1.82-.08-6.3.43-1.94,1.86,4.36,1.45,2.26,1.99,1.01,2.83-1.26.83-.72-2.12-2.53-.87-1.82,1.24-4.17,4.59,1.01,4.39,3.02-.12,3.9.14,4.53.65h9.2c-.27-.1-.54-.23-.85-.42-2.82-1.81-4.9-.67-5.36-3.9-.44-3.24-.01-2.54,2.91-4.25,2.93-1.71,3.34-2.46-.7-1.51-4.06.95-2.94,1.34-3.8-1.37-.87-2.7-1.01-4.27-1.01-4.27,0,0-.29-.59,1.8-1.49s3.92.15,3.06-2.67c-.87-2.83-4.62-.09-6.28,1.38-1.67,1.47-.43-.56-1.58-3.86-.31-.9-.73-1.36-1.15-1.51.33-.69.51-1.19.51-1.19,1.39-2.03.04-4.86-1.92-1.84-1.96,3.01-1.53,5.2-2.49,3.5-.97-1.69-3.33-4.94-4.91-2.33s.28,1.89,1.78,3.08c1.5,1.21,1.09,1.73,1.09,1.73,0,0-.59,1.49-2.15,3.99-1.54,2.49-.48,2.29-3.62.73s-3.01-.75-1.05,1.36c1.96,2.11,2.53,1.5,1.17,4.58-1.35,3.06-2.76,1.62-5.7,2.95-2.93,1.32-3.29-1.48-4.76-3.19-1.47-1.71-1.11-.46.54-3.69s-.48-2.83,5.57-3.74c6.06-.93,6.28-1.63,5.89-3.53-.4-1.92-4.28.03-6.95.53-2.67.51.41-2.83,1.91-5.59,1.5-2.76,2-2.36,2-2.36,3.98-1.91,9.81-2.89,12.78-4.33,2.97-1.45,1.69-3.35,1.69-3.35.55-3.3-6.67,2.02-8.98,3.01-2.32.99,7.19-6.87,8.35-10.5.91-2.87.89-3.78,1.56-5.14.72.98,1.53,1.87,1.96,3.11.86,2.47.3,2.88.34,6.64.03,3.75,7.95,13.12,5.7,11.74-2.26-1.38-8.48-7.87-9-4.55,0,0-2.09,1.63.73,3.57,2.82,1.94,9,3.95,12.8,6.53,0,0,.69-.3,1.43,2.66.72,2.96,3,6.77.19,5.8s-6.48-3.57-7.59-1.77c-1.1,1.79-1.09,2.52,5.36,4.51,6.46,1.98,4.21,1.21,4.94,4.66.72,3.45,1.56,2.28-.67,3.69-1.36.85-2.4,2.18-3.66,2.67h11.75c-.17-.51-.07-1,.46-1.47,2.79-2.41,6.11-6.45,2.19-6.24-3.91.22-2.74,7.02-5.48-2.2,0,0-1.54-.59,1.37-2.9,2.92-2.31,3.48-2.48,1.92-4.76,0,0-.43-1.9-3.5.9-3.05,2.8-2.7-4.97-2.86-7.38,0,0,3.34-2.1,5.86-2.81,2.51-.69,2.64-1.19,3.6-3.45s2.61-6.29-.33-6.4c-2.95-.1-2.21,4.31-2.34,5.41-.12,1.1-2.24.92-4.47,1.24-2.24.31-1.69-.34-1.72-4.58-.04-4.23,1.38-1.93,4.86-3.92,3.49-1.99,2.8-1.45,5.13-5.77,2.35-4.32,5.26-7,6.49-10.36,1.23-3.38-.49-8.55-2.44-6.45-1.94,2.1-2.66.95-1.93,4.76.74,3.82-1.19,7.26-2.33,5.54s.67-3.57-1.61-6.53c-2.27-2.95-4.33,1.34-3.48,2.24.85.9,3.97,4.76,2.73,7.88-1.23,3.13-1.08,4.45-4.85,5.62-3.77,1.17-3.5.3-4.78-1.77-1.28-2.07-5.52-6.43-4.7-9.76.81-3.35,2.63-3.5,5.4-6.4,2.77-2.9,2.37-2.02,3.16-6.45.8-4.43,2.87-8.48.49-7.67-2.38.81-4.05,1.19-3.89,3.72s-3,10.3-2.9,5.7c.1-4.62,2.29-10.99.18-11.04-2.09-.06-4.74,1.62-4.85,4.65-.12,3.04,1.17,6.08,2.16,8.05.99,1.97-.11,2.8-2.61,5.44-2.5,2.63-1.08,4.44.06,6.77,1.14,2.33,5.83,10.16,6,13.05.16,2.89.67,12.17-1.32,9.44-1.98-2.74-6.59-2.59-7.39-12.44-.79-9.87-2.29-6.22-3.03-11.25-.09-.57-.22-1.06-.38-1.49.95-.87,1.86-1.81,2.42-3.38,1.09-3.01-2.52-4.32-4.65.43-.12.28-.25.53-.35.75-1.15-.02-2.16.91-2.08,2.43,0,.09.02.18.03.27-.77.83-1.72,2.25-3.54,6.99-3.63,9.44-7.49,8.57-9.99,10.91-2.5,2.35.72-6.58,1.72-9.36,1.01-2.78,7.32-9.66,9-11.73,1.66-2.08,3.41-3.62,2.09-6.56-1.32-2.95-2.02-3.92-.59-5.68s3.45-4.51,4.26-7.48c.82-2.96-.92-5-2.71-5.28-1.8-.27-1.86,6.26-3.16,10.75-1.31,4.49-1.64-3.56-.74-5.98.9-2.43-.41-3.06-2.17-4.22-1.76-1.16-1.24,3.09-1.88,7.52-.66,4.42-.74,3.5.73,6.75,1.48,3.25,2.97,3.69,2.66,7.05-.31,3.38-5.21,6.93-6.91,8.75-1.7,1.81-1.74,2.7-4.57.97s-2.31-2.99-2.42-6.22c-.09-3.23,3.69-6.48,4.68-7.22.99-.74.54-5.23-2.27-2.72-2.81,2.52-1.83,4.6-3.31,6.09-1.48,1.48-2.08-2.15-.31-5.74,1.77-3.58.82-2.57-.19-4.92-1.01-2.35-4.03,2.41-4,5.88.03,3.46,1.69,6.51,2.37,11.07.69,4.55.27,3.92,2.61,6.4,2.35,2.48,4.24.47,2.94,4.58-1.3,4.1-1.03,4.83-2.84,4.17-1.79-.66-3.63-.81-3.39-1.89.21-1.08,2.16-5.25-.36-5.61-2.52-.35-2.33,3.79-2.19,6.15.13,2.34.09,2.85,2,3.92,1.93,1.08,4.12,3.64,4.12,3.64-.86,2.31-2.9,9.92-4.63,6.71-1.75-3.2-2.69-1.42-2.69-1.42-2,1.97-1.59,2.23.18,4.92,1.78,2.7.3,3.04.3,3.04-5.08,8.51-2.05,2.1-5.3,1.27-3.24-.82-1.65,3.61-.02,6.4,1.62,2.78-6.91,4.76-6.91,4.76h.04Z"/>
        <path class="cls-22" d="m189.93,1074.16v.06s0,.06,0,.06c0,0,.34,1.7,1.38,2.77.14.15.11.12.1.2-.03.15-.41.57-.66,1.32-.38,1.13-.47,3.03.83,6.64.47,1.31.83,2.44,1.08,3.4h2.79c-.24-1.11-.5-2.13-.8-3-1.49-4.47-1.4-5.91,0-10.23,2.16,3.14,1.69,8.42,5.21,12.56l.43.67h5.44c2.34-1.34,6.69-3.51,8.24-4.9,2.08-1.87,1.35-5.57-2.41-2.46-3.75,3.12-7.36,6.57-6.13,3.32,1.24-3.25.78-7.1,2.45-8.81s7.56-1.13,7.68-3.45c.12-2.31-.45-3.1-4.9-.67-4.47,2.44-3.24-1.06-1.99-2.86,1.24-1.79,1.79-3.9,7.22-6.92,5.43-3.01-.33-3.96-3.09-1.18-2.77,2.78-5.01,4.42-4.07-.25.95-4.68.79-6.37-2.25-1.75-3.04,4.63-.12,2.8.33,5.42.44,2.63-4.68,8.89-2.14,11.81,0,0-1.51,3.64-1.47,7.51.03,3.87-.66,4.42-2.38-.16-1.72-4.58-4.55-7.12-3.29-8.2,1.24-1.08,3.89-3.61,2.76-5.33-1.09-1.64-3.88,5.02-4.53,1.99.32-1.59.14-2.54.35-6.51.05-.95.15-1.71.3-2.32,1.14-1.79,2.43-3.06,3.03-3.97,1.07-.9,2.42-2.07,4.05-4.05,1.63-1.97,2.48-3.34,2.79-4.26.12-.4.17-.72.09-1-.07-.29-.33-.51-.65-.56-.85-.11-1.86.48-2.98,1.39-1.38,1.18-2.69,3.14-3.39,3.97v-.07c.06-.46.22-1.21.5-2.31.93-3.68,1.89-5.94,1.98-7.03.05-.35-.05-.78-.53-.87-.55-.06-1.04.2-1.89.66-1.93,1.08-2.87,1.32-3.23,2.29-.2.61-.07,1.29.12,2.57.5,3.14.66,5.68.18,7.07-.25.86-1.71,2.03-2.79,3.83.04-1.65.57-4.99.56-6.15-.01-1.82-3.64-.05-3.62,3.09.02,1.53,1.07,5.3,1.83,8.38.04.9.12,1.85.2,2.75.06.61.12,1.21.15,1.74-.14-.09-.32-.26-.53-.53-.56-.69-1.03-1.27-1.45-1.76-.69-1.73-1.27-3.5-1.86-4.63-.36-.64-.64-1.13-1.24-1.26-.32-.07-.69.08-.93.32-.94.91-2.27,1.36-2.67,2.4-.21.66.12,1.34,1.01,2.21,2.33,2.18,5.13,5.63,4.78,7.09h-.01Z"/>
        <path class="cls-22" d="m183.43,1082.23c.3,2.09.47,3.21,2.95,5.13.47.37.9.79,1.3,1.23h3.92c-.74-1.11-1.66-2.27-2.51-3.37-1.47-1.85-2.59-3.64-2.29-4.37.4-1.18,1.59-3.51,2.19-5.31.2-.6.33-1.15.35-1.61,0-.43-.1-.89-.59-1.06-.06-.02-.12-.04-.19-.05-.88-.12-1.65.47-2.3,1.19-.56.64-1.06,1.45-1.38,2.25-.01-.13-.03-.27-.04-.4-.12-1.36-.23-3.14-.3-4.86-.05-1.23-.11-2.18-.22-2.86-.14-.66-.19-1.11-.77-1.29-.46-.05-.74.22-1.01.51-.28.31-.58.75-.93,1.34-.19.3-.33.63-.43.96-.73,2.26-.05,5.09.83,7.28-.82-.93-1.66-1.81-2.42-2.03-.08-.03-.15-.04-.23-.06-1.01-.17-2.19.12-2.53,1.02-.17.56.04,1.16.68,1.8,1.78,1.72,5.74,2.75,5.93,4.54v.02Z"/>
      </g>
      <g>
        <path class="cls-9" d="m68.4,572.75l5.38,3.11c.18.11.45.1.59-.02l8.27-6.53c.14-.12.11-.29-.07-.4l-5.38-3.11c-.18-.11-.45-.1-.59.02l-8.27,6.53c-.14.12-.11.29.07.4Z"/>
        <path class="cls-6" d="m116.77,572.66c3.11,1.48,7.78,7.53,7.78,7.53,2.43-1.8,15.6-4.69,17.93,3.61.61,2.18-18.02,24.24-24.03,23.82-6-.41-21.88-3.9-24.53-5.49-2.65-1.59-5.47-5.36-5.47-5.36,0,0-4.92,1.79-6.81.26-1.89-1.52-1.56-7.05-1.56-7.05,0,0-5.47.94-6.96.31-1.49-.63-1.75-2.67-1.75-2.67l2.39-11.7s9.24-7.78,9.47-7.72,3.11-2.36,5.86-.91c2.73,1.45,2.77,5.89,2.77,5.89,0,0,6.87-5.11,10.49-4.5,3.63.61,3.59,4.95,3.59,4.95,0,0,6.11-3.22,10.82-.98h.02Z"/>
        <path class="cls-29" d="m116.77,572.66c3.11,1.48,7.78,7.53,7.78,7.53,2.43-1.8,15.6-4.69,17.93,3.61.61,2.18-18.02,24.24-24.03,23.82-6-.41-21.88-3.9-24.53-5.49-2.65-1.59-5.47-5.36-5.47-5.36,0,0-4.92,1.79-6.81.26-1.89-1.52-1.56-7.05-1.56-7.05,0,0-5.47.94-6.96.31-1.49-.63-1.75-2.67-1.75-2.67l2.39-11.7s9.24-7.78,9.47-7.72,3.11-2.36,5.86-.91c2.73,1.45,2.77,5.89,2.77,5.89,0,0,6.87-5.11,10.49-4.5,3.63.61,3.59,4.95,3.59,4.95,0,0,6.11-3.22,10.82-.98h.02Z"/>
        <path class="cls-4" d="m95.19,571.03c-.16.39,3.05,7.94-.19,10.72s-15.41,4.74-15.13,4.67,11.88-2.56,12.41-5.06c.52-2.51-.4-8.18-.4-8.18l3.31-2.15h0Z"/>
        <path class="cls-4" d="m128.01,578.83c.72.44,5.26,1.72,4.83,7.02-.11,1.32-7.6,10.48-11.84,11.36-.88.18,8.22-9.02,6.77-11.23s-3.22-5.79-3.22-5.79c.89-.55,2.08-.98,3.45-1.35h0Z"/>
        <path class="cls-5" d="m106.6,577.04c.23,1.98,1.26,3.94,1.34,5.92.07,1.75-.83,3.3-2.46,4.56-3.86,2.98-10.2,3.82-14.16,6.72-.25.18-.75-.08-.5-.26,3.77-2.75,9.66-3.64,13.57-6.28,1.95-1.32,3.08-2.96,2.94-4.91-.13-1.91-1.1-3.8-1.33-5.7-.03-.26.57-.29.6-.02h0v-.02Z"/>
        <path class="cls-5" d="m89.58,597.4c3.35-1.08,6.7-2.17,10.05-3.25.34-.11.59.27.25.39-3.35,1.08-6.7,2.17-10.05,3.25-.34.11-.59-.27-.25-.39h0Z"/>
        <path class="cls-5" d="m80.32,589.88c3.29-.94,6.58-1.89,9.86-2.84.35-.1.6.29.25.39-3.29.94-6.58,1.89-9.86,2.84-.35.1-.6-.29-.25-.39h0Z"/>
      </g>
      <g class="cls-30">
        <path class="cls-13" d="m1166.13,720.86c-8.71,1.32-17.61,2.53-26.92,3.19-47.05,3.32-94.07,6.91-141.01,11.21-23.94,2.19-48.13,4.58-70.78,11.64-22.17,6.91-42.28,18.11-64.41,25.1-25.39,8.03-49.48,7.42-75.9,7.44-28.03.02-55.04,1.7-82.22-5.98-26.69-7.54-51.35-24.02-60.34-47.03-3.15-8.08-4.31-16.64-6.96-24.85-2.65-8.21-7.2-16.43-15.29-21.3s-20.38-5.22-27.07,1.04c-8.85,8.29-4.03,22.63-11.62,31.82-4.72,5.71-13.41,8.11-21.5,7.79-8.09-.31-15.8-2.92-23.34-5.5-18.8-6.42-37.53-15.69-57.6-15.12-19.65.56-40.21.48-58.15,8.45-14.47,6.5-26.19,19.31-25.68,33.41.12,3.52,1.07,7.15,3.64,9.87,4.52,4.79,12.54,5.5,19.67,5.79,25.42,1.05,50.89,1.52,76.34,1.42,3.19-.01,6.45-.03,9.48.83,3.21.91,5.96,2.74,8.63,4.54l20.88,14.05c3.66,2.47,7.43,4.98,11.84,6.23,4.54,1.29,9.42,1.16,14.19,1.03,13.02-.38,26.03-.74,39.05-1.08,31.35-.82,65.76-.68,89.9,16.65-23.89,20.66-70.97,11.82-101.08,9.51-30.39-2.33-62.97-2.74-89.05,10.98-3.98,2.09-8.23,5.63-6.85,9.47,1.31,3.66,6.66,4.63,11.06,4.97,43.58,3.33,87.32,5.22,131.07,5.66,30.8.31,61.65-2.78,92.16-3.25,34.08-.53,67.76,8.88,98.98-8.45,16.28-9.04,27.57-23.45,42.72-33.87,37.21-25.59,89.77-23,137.15-19.72,8.4.58,16.73.83,25.01.78,38.96-.24,74.2-8.86,111.4-17.53,7.49-1.75,15.03-2.98,22.58-4.03v-35.17h0Z"/>
        <path class="cls-13" d="m64.58,663.98c-3.52-.29-7.06-.46-10.58-.45-14.07.04-10.71,11.59-3.15,18.53,19.75,18.15,50.2,16.67,76.65,12.19,7.05-1.19,14.16-2.52,21.3-2.08,12.78.79,24.43,7.13,36.55,11.3,21.38,7.35,45.04,7.73,66.72,1.42,9.27-2.7,17.96-9.07,26.97-11.07,12.5-2.77,22.39-.78,33.71-9.2,1.69-1.26,3.46-3.03,3.13-5.11-.38-2.38-3.19-3.43-5.58-3.78-14.57-2.16-28.85,4.19-43.24,7.33-22.02,4.81-45.65,1.91-65.85-8.08-13-6.43-25.29-15.88-39.77-16.6-12.83-.63-24.84,5.78-37.42,8.38-19.51,4.05-39.47-1.17-59.42-2.78h-.01Z"/>
        <path class="cls-13" d="m1166.13,1108.3v-49.97c-38.13-2.29-76.99.63-113.21,8.94-30.08,6.9-59.03,17.41-90.76,18.72-17.72.73-35.39-1.47-52.9-3.45-65.71-7.41-141.34-9.87-190.38,20.21-18.78,11.52-27.11,30.65,7.84,30.72,8.76.02,17.52-.27,26.29-.74,26.14-1.41,52.19-4.52,78.32-6.09,10.49-.63,62.27-9.5,68.8,1.32,1.65,2.74.46,6.91-1.67,9.09s-4.9,3.02-7.45,4.31c-5.72,2.91-10.54,8.46-13.36,15.33,24.96,6.86,50.23-8.44,75.75-10.02,48.73-3.02,91.6-16.55,138.9-32.16,13-4.29,64.53-26.21,73.83-6.2h0Z"/>
        <g>
          <path class="cls-13" d="m125.97,958.3c-.67-2.44-3.7-3.21-6.22-3.31-15.34-.58-29.4,7.7-43.94,12.64-22.25,7.56-47.06,7.26-69.15-.84-10.65-3.91-21.1-9.64-32.02-11.88v38.48c6.31,1.59,12.6,3.57,18.93,5,23,5.21,47.55,2.87,69.28-6.22,9.29-3.89,17.55-11.55,26.65-14.67,12.63-4.33,23.1-3.4,33.84-13.5,1.6-1.51,3.23-3.56,2.64-5.7Z"/>
          <path class="cls-13" d="m368.12,976.2c-39.27-7.92-80.27,5.17-119.93-.56-22.19-3.21-45.19-12.18-66.23-4.45-10.57,3.89-19.2,11.6-28.88,17.33-4.14,2.45-8.38,4.44-12.71,6.02-42.27,15.43-92.54-7.96-134.95-13.97-10.21-1.45-20.49-2.19-30.78-2.45v35.1c20.58,5.91,40.14,15.31,62.04,16.17,22.38.88,45.13,2.52,67.62.84,20.47-1.53,41.69-1.11,61.81-2.69,20.25-1.59,37.9-13.46,57.74-17.54,10.28-2.11,20.87-2.27,31.36-2.42,23.1-.33,46.19-.66,69.29-.99,15.96-.23,29.01-2.18,42.07-11.04,9.64-6.55,19.49-15.72,1.55-19.34h0Z"/>
        </g>
        <path class="cls-13" d="m241.09,833.23c-11.14-3.5-22.47-6.18-33.85-8.32-25.07-4.72-50.26-5.6-75.45-8.59-21.95-2.61-43.62,6.51-66.23,3.27-6.24-.9-12.57-2.28-18.77-.91-5.32,1.18-10.19,4.32-15.16,6.94-11.24,5.94-23.33,9.37-35.52,10.08-6.98.41-14.04-.06-20.9,1.63-.19.05-.39.11-.58.16v50.32c25.7,0,51.41-1.45,77.01-4.4,17.18-1.98,34.31-4.62,51.43-7.27,3.6-.56,7.32-1.16,10.45-3.43,3.62-2.63,6.13-7.46,6.55-12.6-19.63-3.45-39.59,3.38-59.4,2.03-10.15-.69-11.42-11.83-2.29-18.18,4.34-3.02,9.52-3.34,14.49-3.6,24.87,1.55,50.91-2.57,75.82-3.83,12.67-.64,25.21-2.21,37.74.24,12.8,2.5,25.59,4.93,38.4,7.35,9.28,1.75,23.13,7.32,31.95,1.1,10.94-7.72-11.78-10.79-15.7-12.02v.03Z"/>
      </g>
      <g>
        <path class="cls-17" d="m222.15,585.11c15.83-.39,37.62,5.62,37.62,5.62l3.82-1.12,1.71,6.02,1.71,6.02-3.82,1.12s-15.26,16.86-28.85,25.09c-13.6,8.22-45.68,13.71-46.86,13.72l-19,2.42c-3.82.49-7.42-1.92-8.49-5.67l-3.12-10.96-3.12-10.96c-1.07-3.75.71-7.73,4.2-9.39l17.34-8.22c1-.62,31.03-13.32,46.86-13.72v.02Zm-7.13,3.88c-1.36.69.69,8.46,2.15,9.6,1.46,1.15,24.57-4.48,24.57-4.48,2.14-.43,2.87-2.78,1.96-3.52s-27.32-2.29-28.68-1.61h0Z"/>
        <path class="cls-9" d="m261.26,588.83l4.38,14.57c.15.5.67.79,1.17.63l4.97-1.54c.5-.15.77-.69.62-1.18l-4.38-14.57c-.15-.5-.67-.79-1.17-.63l-4.97,1.54c-.5.15-.77.69-.62,1.18h0Z"/>
        <path class="cls-29" d="m249.06,616.66s-27.24,8.72-39.87,3.64-19.36-27.25-19.36-27.25l-12.14,4.71s3.25,13.41,19.88,20.96c16.61,7.54,38.97,7.77,38.97,7.77l12.53-9.82"/>
      </g>
      <path class="cls-7" d="m23.52,956.76c-2.11.13-4.47.45-5.84,2.4-.92,1.32-1.19,3.11-1.43,4.81-.11.81-.22,1.69.13,2.39.24.49.65.81,1.05,1.11,2.03,1.52,4.13,3.06,6.47,3.55,1.74.36,3.54.12,5.27.59,1.05.29,2.04.84,3.09,1.17,2.85.92,5.93.18,8.61-1.33s5.03-3.74,7.34-5.95c.28-.27.58-.57.65-.99.05-.32-.04-.65-.15-.95-1.71-4.43-7.85-4.7-11.21-6.02-4.45-1.74-9.33-1.08-13.97-.79h-.02Z"/>
      <g>
        <path class="cls-22" d="m1101.24,656.73c2.39,3.65,11.18,13.44,7.79,3.63,0,0-2.35-1.31.57-3.79,2.93-2.49,2.89-5.28-.69-3.26-3.58,2.03-4.4,3.52-6.77-1.47-2.39-4.99-3.58-4.32-.2-5.86,2.01-.92,4.42-1.71,5.88-3.15-.38,2.45-.69,4.56-.69,4.9.06.44.48.68.91.94.44.26,1.02.51,1.57.72,1.14.43,2.24.77,2.24.77l.76.23.03-.55s.16-3.56.41-7.32c.24-3.73.61-7.75.91-8.41h0s.75-.41,1.75-.77c1.03-.38,2.36-.84,3.79-1.33,2.82-.99,5.89-2.07,7.39-3.01,1.15-.73,1.69-1.75,1.67-2.65-.02-.9-.77-1.84-2.27-1.85-.99,0-2.09.34-3.43,1.1-1.76,1-3.48,2.06-4.92,2.85-1.14.67-2.22,1.14-2.64,1.24,0-.15.08-.44.29-.83,1.6-3.38,1.04-7.46,3-8.81,1.25-1.03,6.12-.73,8.75-1.5.9-.26,1.63-.78,1.65-1.54.02-.22.02-.41.01-.6-.01-.59-.11-1.08-.46-1.5-.35-.43-1.05-.69-1.86-.69-1.21,0-2.77.39-5.14,1.22-1.26.45-2.16.6-2.65.59-.65-.05-.63-.11-.74-.57-.03-.69.69-1.89,1.41-2.67,1.72-1.83,2.23-3.78,9.39-6.35,2.23-.81,3.24-1.51,3.28-2.31-.11-.96-1.57-1.31-2.99-1.32-1.65-.02-3.68.39-5.18,1.45-1.86,1.38-3.78,2.4-4.33,2.33-.11-.02-.1,0-.2-.11-.09-.11-.2-.37-.2-.77-.01-.43.05-1.03.25-1.8.4-1.64.65-2.95.63-3.8-.03-.33-.05-.59-.17-.83-.11-.21-.45-.5-.94-.5-.69.03-1.05.31-1.61.76-.55.45-1.21,1.12-2.04,2.03-1.34,1.53-1.85,2.38-1.85,3.08.01.71.73,1.09,1.19,1.39.49.32.92.64,1.13,1.48.03.1.04.19.03.29.14,2.09-3.75,6.2-3.69,9.55,0,.8.29,1.58.93,2.28-.39.81-1.88,4.05-1.78,7.65.04,1.29-.06,2.23-.22,2.64-.1-.11-.26-.28-.4-.49-.39-.57-.9-1.46-1.48-2.67-.81-1.65-1.77-3.07-2.62-4.29.39-2.47-.27-3.8-1.86-2.66-.31-.48-.49-.86-.47-1.14,0-.23.07-.32.22-.42,1.4-.86,4.2-2.62,4.19-4.57,0-.4-.15-.8-.46-1.17-.22-.3-.66-.54-1.14-.53-.94.03-1.46.52-2.13,1.03-.62.5-1.26,1.1-1.8,1.47-.28.22-.53.31-.62.33-.01-.01-.05-.04-.09-.1-.11-.15-.24-.48-.31-.97,0-.07-.03-.13-.03-.19.76-2.1.9-3.83-.9-4.87.03-.91.39-1.79,1.56-3.19,1.01-1.21,2.14-2.17,3.05-2.95.89-.79,1.61-1.37,1.62-2.09,0-.45-.43-.86-1.11-1.13-.51-.21-1.04-.32-1.57-.33-2.37.04-4,1.77-5.47,3.55-.04-1.62.67-5.18.64-6.5-.01-.34-.16-.66-.46-.89-.32-.23-.77-.34-1.18-.34-1.93.02-4.33,1.59-4.3,4.08.06,1.67,1.56,5.77,2.63,9.05-.75.26-1.05.89-1.17,1.78-.28-.26-.53-.52-.77-.73-.79-.64-1.23-1.09-2.1-1.15-.73.01-1,.45-1.11.84-.12.42-.17,1.01-.14,1.81.03,1.9.43,2.77,1.58,3.45.65.38,1.43.71,2.48,1.24-.02.31-.05.65-.1.99-.57.14-1.12.48-1.77,1.03-.86.72-1.45,1.41-1.86,1.96-.4-1.64-.83-3.79-1.67-5.35-1.75-3.29-4.07-2.89-4.15-.66-.24-.15-.49-.28-.89-.31-.57,0-.85.33-.94.59-.11.3-.14.66-.13,1.16,0,.25.02.55.06.87.43,4.27.86,4.74,5.09,7.52l.25.17.25-.05h.03c.05.03.16.09.31.23.28.29.69.95.95,2.22.08.39.12.79.13,1.2.05,1.29-.2,2.66-.17,3.87.02,1.09.3,2.13,1.42,2.79.05.08.08.16.13.24-.37.68-.99,2.04-.96,3.49v.11c-.28-.3-.58-.68-.91-1.13-1.65-2.2-3.29-4.68-4.82-6.47l.02-.02c3.31-2.11-1.57-4.41-2.85-2.34-.49-.16-.97-.12-1.39.18,0-.45,0-.98.02-1.67.06-4.3-1.07-4.07-3.24-1.06-2.17,3.02,1.07,4.44,1.35,7.48.22,2.42,3.61,3.19,4.98,3.42,2.59,3.21,6.06,7.3,10.86,8.07,5.41.87,1.84.23.61,3.12-1.21,2.89,2.76,6.24,5.18,9.9h0Zm.94-33.99c-3.01,3.72-4.07,3.66-2.84-1.75.2-.85.48-1.71.8-2.54.93,1.22,1.49,2.7,2.04,4.29h0Zm-5.8,13c.22-.59.54-1.09,1-1.42.81-.6,2.64-1.44,4.25-2.26,1.6-.86,3.06-1.54,3.17-2.49-.02-.49-.66-.86-1.45-1-.19-.05-.39-.08-.59-.08.47-.27.91-.54,1.33-.87.72,1.42,1.66,2.84,3.04,4.21l2.05,2.57c-.06.34-.23,1.39-.45,2.77-1.16-3.07-4.02-3.65-4.98-.54-1.09,3.61-1.38,6.16-5.05,4.37-2.15-1.05-2.46-3.22-2.33-5.28v.02Z"/>
        <path class="cls-22" d="m1152.22,635.03c.44-1.22,7.58-6.39,12.03-10.53v-9.77c-1.03.31-2.21,1.17-3.45,2.8-5.21,6.8-9.84,14.19-9.69,7.87.12-6.32-3.41-13.21-1.35-16.85,2.07-3.64,14-4.29,12.64-8.56-1.38-4.26-3.05-5.55-10.07.23-7.04,5.78-7.06-.99-5.88-4.64,1.18-3.65.78-7.67,9.33-14.79,8.54-7.1-3.37-7.16-6.87-1.25-3.5,5.9-6.73,9.58-8.14.74-1.41-8.85-2.89-11.88-5.62-2.54-2.74,9.35,1.72,5.15,4.41,9.83,2.68,4.68-2.99,17.64,4.04,22.25,0,0-.42,7.09,2.34,14.18,2.74,7.06,1.76,8.27-4.79.41-6.55-7.87-13.84-11.68-12.14-14.02s5.1-7.73,1.69-10.56c-3.28-2.68-4.12,10.33-7.5,4.98-.46-3.01-1.48-4.69-3.82-12.01-.57-1.75-.9-3.17-1.04-4.33.98-3.61,2.63-6.31,3.19-8.15,1.48-1.95,3.29-4.51,5.12-8.62,1.8-4.09,2.52-6.84,2.5-8.63-.03-.78-.18-1.38-.53-1.86-.33-.49-.99-.82-1.64-.8-1.75.05-3.33,1.4-4.88,3.4-1.89,2.55-3.06,6.54-3.88,8.27-.01-.04-.03-.09-.05-.14-.2-.87-.41-2.28-.63-4.37-.74-7.02-.43-11.42-1.02-13.46-.16-.64-.63-1.39-1.63-1.42-1.11.05-1.89.69-3.23,1.74-3.02,2.56-4.69,3.28-4.73,5.14.05,1.17.78,2.39,2.03,4.66,3.15,5.61,5.22,10.2,5.28,12.87.11,1.65-1.93,4.23-2.83,7.85-1.08-3.03-2.33-9.3-3.16-11.42-1.3-3.32-7.18.99-4.93,6.73,1.08,2.78,5.77,9.37,9.39,14.79.7,1.62,1.52,3.34,2.3,4.94.55,1.12,1.07,2.19,1.54,3.16-.34-.12-.79-.38-1.43-.82-1.56-1.1-2.91-2.03-4.07-2.79-2.54-2.96-4.92-6.04-6.86-7.92-1.14-1.09-2.05-1.9-3.31-1.96-.69-.03-1.29.35-1.59.85-1.22,1.94-3.5,3.16-3.58,5.19.04,1.26,1.16,2.41,3.52,3.73,6.09,3.31,13.97,8.8,14.31,11.56v.11l.07.1c.05.04,1.86,3.01,4.65,4.65.37.24.28.19.32.33.02.28-.43,1.17-.39,2.61.05,2.19,1.19,5.66,6.25,11.91,4.93,6,7.26,10.05,7.89,11.75-.45-.4-.97-1-1.58-1.76-2.34-2.98-7.03-6.2-11.15-9.21-4.16-2.95-7.6-5.9-7.5-7.3-.05-2.27.64-6.9.58-10.37-.02-1.15-.14-2.2-.45-3.02-.27-.82-.81-1.6-1.88-1.77-.13-.03-.28-.04-.4-.04-1.8.03-2.89,1.35-3.66,2.88-.66,1.33-1.05,2.94-1.14,4.5-.11-.24-.24-.48-.35-.73-1.18-2.46-2.63-5.69-3.97-8.81-.97-2.22-1.75-3.95-2.42-5.16-.75-1.16-1.15-1.99-2.41-2.14-.92.04-1.29.61-1.61,1.21-.32.63-.6,1.53-.9,2.73-.14.62-.2,1.24-.18,1.89.12,4.34,3.43,9.33,6.68,13.07-2.23-1.45-4.49-2.82-6.16-3-.16-.01-.33-.01-.48-.03-2.12-.02-4.24.89-4.24,2.63.03,1.05.89,2.09,2.57,3.09,4.69,2.62,13.15,3.32,14.77,6.56,2.04,3.74,3.13,5.72,9.35,8.51,5.93,2.7,10.7,7.4,13.82,13.56,1.17,2.29,3.51,5.01,6.05,7.21,2.58,2.19,5.14,3.89,7.34,3.98h.07c.74,0,1.51-.27,1.93-.84.43-.55.58-1.3.58-2.27-.01-.56-.1-1.23-.27-1.98v-.08l-.04-.06s-8.21-17.12-14.51-25.2c-6-7.72-6.85-10.4-7.11-18.71,6.4,5.1,9.16,14.89,18.92,21.45l4.75,3.94s5.17,22.94,5.68,24.26,7.5,2.08,7.5,2.08c0,0-8.76-26.91-8.23-28.5h-.03Z"/>
      </g>
      <rect class="cls-2" x="1009.36" y="1034.88" width="29.05" height="29.01"/>
      <path class="cls-11" d="m103.39,664.72c-10.07-14.39-44.52-12.45-59.76-14.33-8.24-1.01-16.8-2-24.71.47-7.61,2.38-13.83,7.73-19.29,13.39-1.81,1.88-3.54,3.81-5.25,5.79v25.71c13.08,3.02,25.97,8,39.1,5.89,10.53-1.69,19.92-7.84,30.49-9.3,13.39-1.85,58.07-.97,39.4-27.63h.01Z"/>
      <path class="cls-12" d="m1164.25,625.39c-5.88-1.27-11.24-2.36-15.21-3.51-8.27-2.39-16.87-4.81-25.38-3.47-8.19,1.29-15.44,5.95-21.97,11.05-10.15,7.94-19.23,17.25-26.92,27.59,19.27,2.81,35.92,17.49,55.38,17.32,11.06-.1,21.69-5.08,32.76-4.93.41,0,.86.02,1.32.04v-44.09h0Z"/>
      <path class="cls-7" d="m1012.85,650.25c-6.77.35-14.3,1.18-18.7,6.34-2.95,3.47-3.83,8.19-4.6,12.68-.36,2.13-.69,4.46.4,6.31.76,1.29,2.09,2.13,3.36,2.92,6.49,4,13.19,8.07,20.7,9.36,5.58.95,11.36.31,16.87,1.56,3.37.76,6.55,2.21,9.88,3.09,9.13,2.42,18.98.47,27.55-3.51,8.56-3.98,16.08-9.86,23.5-15.69.89-.7,1.85-1.5,2.07-2.61.17-.85-.12-1.72-.49-2.51-5.47-11.68-25.11-12.41-35.86-15.87-14.24-4.59-29.86-2.84-44.71-2.08h.01Z"/>
      <g>
        <path class="cls-22" d="m147.01,713.55c1.8,3,8.41,11.04,5.87,2.99,0,0-1.77-1.08.43-3.11,2.2-2.04,2.18-4.34-.52-2.68-2.7,1.67-3.31,2.89-5.09-1.21-1.8-4.1-2.69-3.55-.15-4.82,1.51-.75,3.32-1.41,4.43-2.59-.29,2.01-.52,3.75-.52,4.02.05.36.36.56.68.77.33.21.77.42,1.19.59.86.35,1.68.63,1.68.63l.57.19.02-.45s.12-2.92.31-6.01c.18-3.06.46-6.37.69-6.91h0s.57-.34,1.32-.63c.77-.31,1.78-.69,2.84-1.1,2.12-.81,4.44-1.7,5.56-2.48.86-.6,1.27-1.44,1.25-2.17-.02-.74-.58-1.51-1.71-1.52-.75,0-1.58.28-2.58.9-1.32.82-2.62,1.69-3.7,2.34-.85.55-1.67.94-1.99,1.02,0-.12.06-.37.22-.68,1.21-2.78.78-6.13,2.26-7.24.94-.85,4.61-.6,6.59-1.23.68-.21,1.22-.64,1.24-1.26.02-.18.01-.34,0-.5,0-.48-.08-.89-.34-1.24-.26-.35-.79-.57-1.4-.57-.91,0-2.08.32-3.87,1-.95.37-1.63.49-1.99.49-.49-.04-.48-.09-.56-.47-.03-.57.52-1.55,1.06-2.19,1.3-1.5,1.68-3.1,7.07-5.21,1.68-.67,2.44-1.24,2.47-1.89-.08-.79-1.18-1.07-2.25-1.08-1.24-.02-2.77.32-3.9,1.19-1.4,1.14-2.84,1.97-3.25,1.91-.08-.02-.07,0-.15-.09-.06-.09-.15-.3-.15-.63,0-.36.04-.85.19-1.48.3-1.35.49-2.42.48-3.12-.02-.27-.03-.48-.13-.68-.08-.18-.34-.41-.7-.41-.52.03-.79.26-1.21.62-.42.37-.91.92-1.53,1.67-1.01,1.26-1.4,1.96-1.39,2.53,0,.58.55.89.89,1.15.37.27.69.53.85,1.22.03.08.03.16.02.24.1,1.72-2.82,5.09-2.78,7.84,0,.66.22,1.3.7,1.87-.29.66-1.42,3.32-1.34,6.29.03,1.06-.05,1.83-.16,2.17-.08-.09-.19-.23-.3-.4-.29-.47-.68-1.2-1.11-2.2-.61-1.35-1.33-2.52-1.97-3.52.29-2.03-.2-3.12-1.4-2.19-.23-.4-.37-.71-.36-.93,0-.19.05-.27.16-.35,1.05-.7,3.15-2.15,3.15-3.75,0-.33-.11-.66-.34-.96-.17-.25-.5-.44-.86-.44-.71.03-1.1.43-1.61.85-.47.41-.95.91-1.36,1.2-.21.18-.4.25-.46.27,0-.01-.04-.03-.07-.08-.08-.13-.18-.4-.23-.8,0-.06-.02-.11-.03-.16.57-1.73.68-3.15-.68-4,.02-.75.3-1.47,1.18-2.62.76-.99,1.61-1.79,2.29-2.43.67-.65,1.21-1.12,1.22-1.72,0-.37-.32-.71-.83-.93-.38-.17-.78-.27-1.18-.27-1.78.03-3,1.46-4.12,2.91-.03-1.33.5-4.26.48-5.34,0-.28-.12-.54-.35-.73-.24-.19-.58-.28-.89-.28-1.45.02-3.25,1.31-3.23,3.36.04,1.38,1.18,4.74,1.98,7.43-.56.22-.79.73-.88,1.47-.21-.21-.4-.42-.58-.6-.6-.52-.92-.89-1.58-.95-.55,0-.76.37-.84.69-.09.34-.12.83-.11,1.49.02,1.56.32,2.28,1.19,2.84.49.31,1.08.58,1.87,1.02-.01.26-.04.53-.08.81-.43.12-.84.4-1.34.85-.64.59-1.09,1.16-1.4,1.61-.3-1.35-.62-3.11-1.26-4.4-1.32-2.7-3.05-2.37-3.12-.54-.18-.13-.37-.23-.67-.25-.43,0-.64.27-.71.49-.09.24-.1.54-.1.96,0,.2.01.45.05.71.33,3.51.65,3.89,3.83,6.18l.19.14.19-.04h.02s.12.08.23.19c.21.24.52.78.72,1.82.06.32.09.65.1.98.04,1.06-.15,2.18-.12,3.18.02.89.23,1.75,1.07,2.29.04.07.06.14.1.2-.28.56-.75,1.68-.72,2.86v.09c-.21-.25-.44-.56-.69-.93-1.25-1.81-2.48-3.84-3.62-5.31l.02-.02c2.49-1.73-1.18-3.63-2.15-1.93-.37-.13-.73-.1-1.05.14,0-.37,0-.81.01-1.37.04-3.54-.81-3.34-2.44-.87-1.63,2.48.8,3.65,1.01,6.14.17,1.99,2.72,2.62,3.75,2.81,1.95,2.64,4.56,6,8.18,6.63,4.07.72,1.38.19.46,2.57-.91,2.37,2.08,5.12,3.9,8.13h.02Zm.71-27.93c-2.26,3.06-3.06,3.01-2.13-1.44.15-.7.36-1.4.6-2.09.7,1,1.12,2.21,1.53,3.53Zm-4.37,10.68c.17-.48.41-.9.75-1.17.61-.49,1.99-1.19,3.19-1.85,1.2-.71,2.3-1.27,2.38-2.05-.02-.4-.5-.7-1.09-.82-.14-.04-.29-.06-.45-.07.35-.22.68-.45,1-.71.54,1.17,1.25,2.33,2.29,3.46l1.55,2.11c-.04.28-.17,1.14-.34,2.28-.87-2.52-3.02-3-3.75-.44-.82,2.96-1.04,5.06-3.81,3.59-1.62-.86-1.85-2.65-1.75-4.34h.01Z"/>
        <path class="cls-22" d="m66.38,697.3c4.35,1.38,3.98-.24.05-4.37-3.93-4.12-2.04-3.92-1.26-7,.78-3.07.01-1.45-2.93-3.73-2.95-2.28.92-3.46,2.56-4.54,1.65-1.08.93,2.1,1.94,4.79s3.97-.24,5.83-1.96c1.85-1.73.71-2.1-1.13-5.94-1.84-3.85,2.76-2.65,2.76-2.65,0,0-.41.57,1.77,5.92,2.17,5.35-.54,4.36-4.25,7.08-3.7,2.73-3.79,5.89-2.03,8.42,1.76,2.53,5.66,4.73,4.43,8.26s1.24,5.44,3.34,8.01c2.1,2.58,13.45,8.4,13.45,8.4,0,0,2.49,3.83-5.02.1-7.5-3.73-15.18-9.36-16.05-10.99-.87-1.64.13-2.69-.44-5.47-.56-2.79-3.32-.15-5.55-1.13s-1.83-4.58,2.51-3.2h.01Z"/>
        <path class="cls-22" d="m20.93,699.37c.08,0,.18,0,.27.01.94.09,2.2.78,3.45,1.51-1.82-1.87-3.68-4.37-3.76-6.55-.01-.32.02-.63.1-.95.17-.61.32-1.05.5-1.37.18-.3.39-.59.91-.61.71.07.93.49,1.35,1.07.38.61.82,1.47,1.36,2.59.75,1.57,1.56,3.18,2.23,4.42.06.12.14.24.2.37.05-.78.27-1.59.64-2.25.44-.77,1.05-1.43,2.06-1.44.07,0,.15,0,.22.02.6.08.9.48,1.05.89.17.41.24.94.25,1.52.03,1.74-.35,4.06-.32,5.2-.06.7,1.88,2.18,4.22,3.66,2.32,1.51,4.96,3.12,6.27,4.61.34.38.64.68.89.88-.36-.85-1.67-2.88-4.44-5.89-2.83-3.13-3.48-4.87-3.5-5.97-.02-.72.23-1.17.22-1.31-.02-.07.03-.04-.18-.16-1.56-.82-2.58-2.31-2.61-2.33l-.03-.05v-.06c-.19-1.38-4.63-4.14-8.04-5.79-1.33-.66-1.95-1.24-1.98-1.87.04-1.02,1.33-1.63,2.01-2.6.17-.25.51-.44.89-.42.71.03,1.22.44,1.86.98,1.09.94,2.42,2.48,3.86,3.97.65.38,1.41.85,2.28,1.4.36.22.61.35.8.41-.26-.49-.55-1.02-.86-1.58-.44-.8-.9-1.67-1.29-2.48-2.03-2.72-4.67-6.02-5.28-7.41-1.26-2.88,2.03-5.04,2.76-3.37.46,1.06,1.17,4.21,1.78,5.72.51-1.82,1.65-3.11,1.59-3.94-.03-1.34-1.19-3.64-2.96-6.45-.7-1.14-1.11-1.75-1.14-2.34.02-.94.95-1.29,2.65-2.58.76-.53,1.19-.85,1.82-.87.56.01.83.39.91.71.33,1.02.16,3.23.57,6.75.12,1.05.24,1.75.35,2.19.01.03.02.05.03.07.45-.87,1.11-2.87,2.17-4.15.87-1,1.76-1.68,2.74-1.7.37-.01.74.15.92.4.19.24.28.54.3.93.01.9-.39,2.27-1.4,4.32-1.02,2.06-2.04,3.34-2.87,4.32-.32.93-1.24,2.28-1.79,4.09.08.58.26,1.3.58,2.17,1.31,3.67,1.88,4.51,2.14,6.02,1.9,2.68,2.37-3.84,4.22-2.49,1.91,1.42,0,4.12-.95,5.29-.95,1.18,3.13,3.08,6.82,7.03,3.67,3.94,4.23,3.34,2.68-.2-1.55-3.55-1.31-7.11-1.31-7.11-3.95-2.31-.75-8.8-2.26-11.15-1.5-2.35-4.02-.24-2.47-4.93,1.53-4.68,2.36-3.16,3.15,1.28.79,4.43,2.6,2.58,4.58-.37,1.96-2.96,8.66-2.93,3.87.63-4.81,3.57-4.58,5.58-5.25,7.41-.67,1.83-.65,5.22,3.3,2.33,3.95-2.89,4.89-2.25,5.66-.11.76,2.14-5.93,2.47-7.1,4.29-1.15,1.82.83,5.27.76,8.44-.08,3.16,2.52-.54,5.45-3.95,2.91-3.4,5.17-.13,3.59,1.9-1.55,2.02-8.09,6.08-8.41,6.87-.3.8,4.63,14.28,4.63,14.28,0,0-3.93-.38-4.22-1.04-.29-.67-3.18-12.16-3.18-12.16l-2.66-1.98c-5.48-3.29-7.04-8.19-10.62-10.75.14,4.16.62,5.51,4,9.38,3.54,4.04,8.14,12.61,8.15,12.63l.02.03v.04c.09.38.14.71.15.99,0,.48-.08.86-.33,1.14-.24.28-.67.42-1.09.42h-.04c-1.24-.04-2.67-.9-4.13-1.99-1.42-1.1-2.74-2.46-3.4-3.61-1.75-3.08-4.44-5.44-7.77-6.79-3.49-1.4-4.11-2.39-5.26-4.26-.91-1.63-5.67-1.97-8.3-3.29-.94-.5-1.43-1.02-1.44-1.55,0-.87,1.19-1.33,2.38-1.32l.02-.04Z"/>
        <path class="cls-22" d="m91.53,703.65c-1.16-1.32-14.18-8.4-18.24-11.82-4.07-3.43-3.86-8.71,3.4-2.92,7.24,5.79,14.36,12.05,11.36,6.83-3.01-5.23-3.33-10.81-6.64-13.88-3.31-3.07-13.16-4.01-14.02-7.5-.85-3.47-.11-4.48,8.14.52,8.29,5.02,5.2-.57,2.58-3.65-2.61-3.05-4.15-6.36-14.23-12.53-10.06-6.15-.57-5.81,4.93-.81,5.5,4.99,9.75,8.13,6.84.87-2.93-7.27-3.14-9.73,3.33-1.91,6.48,7.83.98,4.2.97,7.97,0,3.78,10.46,14.68,6.97,18.25,0,0,3.6,5.89,4.63,11.65,1.04,5.76,2.36,6.78,4.01.5,1.63-6.29,5.71-9.21,3.27-11.2-2.42-1.99-7.62-6.57-6.18-8.78,1.38-2.1,8.01,8.67,8.26,4.36-.99-2.47-.97-3.83-2.43-9.81-.35-1.43-.74-2.59-1.17-3.55-2.43-3.02-4.99-5.3-6.28-6.84-2.07-1.67-4.71-3.83-8.03-7.29-3.31-3.44-5.16-5.74-5.94-7.22-.32-.63-.48-1.13-.43-1.51.04-.41.42-.65.94-.63,1.41.1,3.29,1.28,5.46,2.99,2.66,2.18,5.45,5.51,6.87,6.95,0-.02,0-.07-.03-.11-.23-.71-.71-1.87-1.49-3.6-2.62-5.77-4.89-9.43-5.35-11.08-.18-.53-.13-1.14.65-1.13.92.08,1.82.62,3.38,1.56,3.57,2.2,5.24,2.84,6.13,4.41.5.96.47,1.95.52,3.79.04,4.52.48,8.26,1.68,10.47.66,1.35,3.47,3.55,5.83,6.57-.52-2.47-2.37-7.6-2.69-9.33-.49-2.71,6.17,1.05,7.02,5.72.39,2.26-.33,7.56-.74,11.91.19,1.32.32,2.72.43,4.03.07.89.14,1.76.23,2.55.21-.1.46-.29.75-.63.75-.85,1.4-1.58,1.97-2.18.68-2.36,1.17-4.82,1.85-6.32.43-.85.77-1.49,1.75-1.51.52,0,1.19.33,1.67.76,1.86,1.65,4.24,2.73,5.22,4.4.55,1.05.18,1.95-1.1,2.98-3.34,2.52-7.13,6.8-6.13,9.08l.04.09v.08s-.1,2.43-1.57,3.7c-.19.19-.14.15-.11.26.1.23.86.98,1.49,2.17.98,1.81,1.65,4.65.46,9.64-1.16,4.8-1.19,8.07-.9,9.46.16-.31.31-.79.43-1.42.51-2.38,2.79-4.88,4.71-7.23,1.98-2.3,3.38-4.63,2.66-5.79-1.01-1.88-3.69-5.72-5.22-8.58-.51-.96-.89-1.82-1.05-2.5-.14-.64-.07-1.29.69-1.39.1-.01.2-.02.31-.01,1.46.08,2.93,1.21,4.25,2.48,1.13,1.13,2.2,2.49,2.97,3.77-.02-.19-.03-.39-.05-.6-.18-1.99-.49-4.61-.85-7.15-.26-1.81-.43-3.21-.42-4.19.06-.93,0-1.6.94-1.69.75.07,1.31.55,1.84,1.06.55.55,1.2,1.29,1.96,2.29.4.51.74,1.04,1.01,1.57,1.88,3.6,1.52,7.6.65,10.59,1.13-1.13,2.3-2.19,3.54-2.27.13-.02.25-.02.37-.01,1.67.06,3.77.86,4.58,2.3.45.88.25,1.71-.65,2.48-2.54,2.02-8.97,2.32-8.78,4.94.07,3.02.11,4.64-3.56,6.74-3.5,2.04-5.18,5.76-4.85,10.74.12,1.85-.52,4.03-1.52,5.77-1.06,1.72-2.33,3.05-4.05,3.05h-.05c-.59-.02-1.32-.28-1.92-.76-.62-.47-1.08-1.09-1.5-1.89-.26-.47-.49-1.03-.71-1.65l-.03-.05v-.03s-1.28-13.89.07-20.36c1.27-6.19.72-8.38-2.88-15.25-2.78,4.02-.5,12.02-5.31,17.11l-1.96,3.12s6.36,18.78,6.56,19.86-5.02,1.48-5.02,1.48c0,0-5.33-21.95-6.49-23.29v-.02Z"/>
      </g>
      <g>
        <path class="cls-19" d="m285.17,672.24l44.69-17.79c.98-.5,3.9,2.88,7.56,9.4,3.65,6.52,4.99,10.74,4.02,11.27l-39.77,26.67-16.5-29.54h0Z"/>
        <path class="cls-19" d="m300.89,701.6c-2.15-1.89-5.85-7.09-9.47-13.54s-6.13-12.3-6.58-15.08c-.02-.17-.06-.36-.07-.5l1.6-.64c2.1,1.66,5.95,7.03,9.72,13.76,3.77,6.72,6.34,12.78,6.62,15.38l-1.4.98c-.14-.13-.27-.23-.43-.36h0Z"/>
        <path class="cls-26" d="m290.91,688.33c-.36-.65-8.85-15.86-6.05-17.33.53-.28,1.29.06,2.14.79,3.63,3.05,9.29,13.08,9.52,13.6s5.9,10.56,6.56,15.16c.17,1.09.03,1.88-.52,2.14-2.68,1.43-11.21-13.75-11.64-14.36h0Zm-5.53-15.9c.07.86.26,1.72.55,2.56h0c1.57,4.43,3.56,8.73,5.95,12.84,2.24,4.18,4.89,8.14,7.88,11.82.55.69,1.19,1.32,1.9,1.84h0c.11.07.23.12.36.14.06-.12.08-.27.07-.42-.02-1.62-1.88-7.11-6.5-15.33-4.62-8.21-8.35-12.73-9.74-13.62-.12-.1-.26-.17-.4-.18-.05.12-.07.24-.07.37"/>
      </g>
      <g>
        <path class="cls-19" d="m947.29,648.18l-72.82,28.06c-1.72.5-1.42,7,1.52,17.47,2.94,10.47,6.07,16.19,7.79,15.71l76.88-13.86-13.39-47.38h0Z"/>
        <path class="cls-19" d="m961.39,694.58c.44-4.15-.98-13.32-3.88-23.7-2.9-10.37-6.46-18.96-9.02-22.27-.17-.21-.32-.42-.48-.59l-2.61,1.01c-.63,3.88.8,13.37,3.83,24.18,3.04,10.8,6.74,19.66,9.32,22.64l2.74-.45c.02-.28.07-.53.11-.81h0Z"/>
        <path class="cls-26" d="m958.44,670.63c-.3-1.04-7.2-25.43-12.15-24.04-.94.26-1.47,1.4-1.66,3.02-.89,6.89,3.58,23.03,3.89,23.8.31.76,4.8,16.93,9.14,22.34,1.03,1.29,2.06,1.96,3,1.65,4.77-1.32-2.06-25.71-2.24-26.78h0Zm-11.17-22.03c.88.96,1.62,2.03,2.19,3.18h0c3.09,6.17,5.52,12.65,7.27,19.32,2,6.61,3.29,13.41,3.83,20.29.12,1.29.05,2.59-.21,3.85h0c-.05.19-.14.36-.26.51-.22-.07-.41-.2-.55-.36-1.78-1.69-5.71-9.25-9.39-22.46-3.69-13.21-4.31-21.69-3.66-24.05.03-.22.12-.43.27-.6.18.07.36.17.51.31"/>
      </g>
      <g class="cls-34">
        <path class="cls-23" d="m171.61,67.45c-1.4-5.57-5.73-7.89-5.06-8.77.58-.76,3.81,1.02,10.94,4.01,2.36.99,4.41,1.8,5.98,2.41.27.02.56.02.87,0,2.07-.21,3.36-1.72,5.36-3.69,1.34-1.33,2.85-2.47,4.17-3.82,2.61-2.68,10.7-8.09,21.08-8.78,11.43-.76,19,4.73,27.43,10.63,2.64,1.85,5.39,4.13,5.22,6.76-.11,1.76-1.51,3.06-2.85,4.04-.79.58-1.7,1.41-2.71,1.28-1.13-.15-2.19-.74-3.35-.7.79.53,1.55,1.11,2.26,1.74-.12-.11-2.34,1.19-2.58,1.31-.95.46-1.91.9-2.89,1.32-1.66.71-3.34,1.35-5.05,1.9-2.02.66-4.09,1.23-6.18,1.58-.19.03-.4.09-.59.09-.95.11-1.9.21-2.86.28-4.26.31-11.97.9-20.22-1.41-2.29-.64-4.5-1.53-6.77-2.21-1.1-.33-2.23-.59-3.37-.75-1.28-.18-2.6-.39-3.9-.32,0,0,0,0-.01,0-.83.05-1.67.23-2.39.65,0-.02,0-.03,0-.05-3.64,2.97-6.7,4.9-8.9,6.13-1.38.77-3.02,1.61-3.75,1.01-.73-.6-.09-2.27.33-4.16,0,0,1.13-5.12-.21-10.47Z"/>
        <path class="cls-27" d="m217.16,46.85c-3.18-1.4-6.89-2-10.39-1.07-1.79.47-3.53,1.3-4.83,2.58-.85.83-1.53,2.11-.93,3.07-.36.43-1.61.44-2.14.59-.63.18-1.25.41-1.88.62-.79.27-1.6.63-2.12,1.26-.37.45-.56,1.01-.73,1.55-.26.8-.74,1.89-.47,2.7.24.74.94,1.58,1.42,2.19-.22-.27,7.21-4.49,7.91-4.82,2.74-1.33,5.5-2.3,8.38-3.27,2.69-.91,5.51-1.33,8.32-1.54s5.59.12,8.46.13c-1.27-1.59-3.34-2.58-5.5-2.61-.7-.01-1.41.07-2.11-.02-1.05-.14-1.96-.68-2.9-1.12-.16-.08-.32-.15-.48-.22Z"/>
        <path class="cls-28" d="m173.98,79.1c.91-.53,1.77-1.18,2.66-1.74,2.54-1.62,5.39-2.69,8.22-3.75,2.99-1.12,7.02-.92,10.21-.61,1.53.15,3.03.5,4.54.79,2.9.55,4.16.6,6.51.94,5.51.8,5.6,1.1,8.24,1.39,3.28.36,5.65.17,9.45-.16,3.85-.33,9.09-1.02,15.34-2.54-.38.21-.69.39-.77.43-.95.46-1.91.9-2.89,1.32-1.66.71-3.34,1.35-5.05,1.9-2.02.66-4.09,1.23-6.18,1.58-.19.03-.4.09-.59.09-.95.11-1.9.21-2.86.28-4.26.31-11.97.9-20.22-1.41-2.29-.64-4.5-1.53-6.77-2.21-1.1-.33-2.23-.59-3.37-.75-1.28-.18-2.6-.39-3.9-.32,0,0,0,0-.01,0-.83.05-1.67.23-2.39.65,0-.02,0-.03,0-.05-3.64,2.97-6.7,4.9-8.9,6.13-1.38.77-3.02,1.61-3.75,1.01-.35-.29-.42-.94-.3-1.35.24-.81.7-.67,1.48-.98.46-.18.89-.4,1.31-.65Z"/>
        <path class="cls-23" d="m226.38,71.67c.27-.62.5-1.25.56-1.87.17-1.66-.84-2.93-1.82-4.07-1,.63-.97,1.92-1.02,2.94-.1,2.09-1.31,4.35-3.15,5.93-.44-.63-1.7,0-2.27.78s-.95,1.73-1.79,2.23c-.92.55-2.1.32-2.9,1.04-.31.28-.49.64-.67,1-.75,1.51-1.5,3.02-2.25,4.53-.13.25-.26.53-.2.77.3,1.35,2.68.48,3.51-.14,1.64-1.21,3.24-2.55,4.75-3.92,2.97-2.67,5.71-5.73,7.24-9.23Z"/>
        <path class="cls-27" d="m168.88,60.03c1.92,1.61,4.06,2.96,6.33,4.03-1.41-.55-2.94-.81-4.46-.76.49.63,1.12,1.15,1.82,1.52-.29.17-.57.34-.86.52,1.1.79,2.31,1.42,3.59,1.87-.42.52-1.06.85-1.72.89.02.43.37.83.8.89-.2.57-.64,1.05-1.2,1.3.36.5.84.9,1.39,1.17-.2.74-.58,1.42-1.09,1.99.18.15.45.19.67.1-.4.45-.65,1.02-.71,1.62.78.14,1.59.09,2.34-.16-.77.74-1.54,1.48-2.31,2.22-.19.19-.4.41-.38.68s.45.44.56.2c-.07.36-.13.72-.2,1.07.59.18,1.28-.05,1.66-.54-.93.45-1.69,1.24-2.11,2.19,1.41-.37,2.46-1.11,3.64-1.92,1.08-.75,2.2-1.35,3.21-2.25.43-.39.84-.92,1.32-1.23s.78-.69,1.08-1.19c-.21.07-.42.15-.62.22-.04.01-.08.03-.12.01-.1-.04-.07-.18-.01-.27.35-.58.9-1.06,1.09-1.71-.33-.03-.67,0-.99.09-.62.17-1.21.55-1.86.48-.17-.02-.38-.12-.36-.3,0-.06.04-.12.08-.17.22-.32.43-.64.65-.96-.72-.11-1.48.24-2.18.02-.18-.06-.37-.17-.41-.35-.04-.15.03-.32.13-.44s.24-.2.37-.29c.25-.17.47-.38.66-.62.07-.08.13-.21.06-.29-.04-.04-.1-.05-.15-.06-.28-.04-.56-.08-.84-.13-.07,0-.14-.02-.18-.07-.09-.11.02-.27.13-.36.38-.34.88-.54,1.35-.75.67-.31,1.36-.57,2.06-.79.06-.02.13-.04.16-.1.03-.07-.02-.15-.08-.19s-.15-.04-.22-.04c-.39,0-.77,0-1.16-.06-.27-.04-.54-.09-.8-.16-.15-.04-.63-.31-.75-.28.25-.05.54-.15.8-.16.21,0,.4.04.62.03.07,0,.15-.02.22-.05s.11-.11.09-.19c-.05-.22-.76-.33-.95-.4-.4-.15-.79-.32-1.17-.53.11.06.42,0,.55,0,.22,0,.45,0,.67,0,.36,0,.71.07,1.07.08.1,0,.23-.03.27-.13.11-.26-1.19-.93-1.41-1.07-.59-.37-1.18-.73-1.79-1.07-2.69-1.47-5.73-1.93-8.46-3.31.06.05.12.1.18.15Z"/>
        <ellipse class="cls-25" cx="234.81" cy="59.12" rx="3.36" ry="3.63"/>
        <ellipse class="cls-8" cx="236.86" cy="59.12" rx="1.31" ry="1.99"/>
      </g>
      <path class="cls-18" d="m144.21,232.32c2.47-2.38,2.84-6.34,1.7-9.57-1.14-3.23-3.52-5.86-6.01-8.21-3.25-3.07-7.1-5.97-11.57-6.22-2.81-.15-5.62.77-8.41.47-3.35-.37-6.23-2.44-8.93-4.45-5.58-4.17-26.13-20.34-35.43-27.57-1.76-1.37-4.31-1-5.61.81h0c-1.3,1.81-.84,4.34,1.02,5.57,9.83,6.49,31.75,20.76,37.48,24.71,2.77,1.91,5.66,3.97,7.08,7.02,1.19,2.55,1.2,5.5,2.25,8.11,1.66,4.15,5.64,6.87,9.6,8.96,3.03,1.6,6.29,3.02,9.71,3.06,3.43.04,7.07-1.58,8.54-4.67"/>
      <path class="cls-21" d="m131.12,301.98c-1.83.16-3.49,1.75-4.32,3.56-.82,1.81-.95,3.81-.94,5.72.02,2.5.33,5.13,1.89,6.83.98,1.07,2.38,1.67,3.29,2.8,1.1,1.35,1.37,3.28,1.59,5.12.46,3.8,1.84,18.17,2.5,24.64.12,1.22,1.21,1.97,2.39,1.65h0c1.18-.32,1.98-1.59,1.77-2.79-1.14-6.33-3.76-20.36-4.36-24.12-.29-1.82-.57-3.75.08-5.58.54-1.53,1.67-2.82,2.29-4.33.98-2.4.56-5-.1-7.32-.5-1.78-1.17-3.56-2.42-4.8-1.25-1.24-3.22-1.84-4.96-1.01"/>
      <path class="cls-16" d="m1011.35,345.72c6.8,5.12,21.7-3.09,33.82-18.41-4.64,12.71-4.47,23.64,1.24,26.97,7.6,4.44,22.14-6.27,32.47-23.91,9.27-15.84,12-31.88,6.97-38.21,8.21.85,19.34-11.96,25.66-30.05,5.88-16.81,5.67-32.63.03-38.35,7.25-3.65,11.11-19.63,8.73-38.02-2.62-20.27-11.82-35.79-20.55-34.67-5.98.77-10.18,9.14-11.4,20.85-3.91-14.85-11.37-25.07-18.51-24.15-8.73,1.12-13.69,18.47-11.07,38.74,2.02,15.67,7.98,28.51,14.62,33-7.57,2.62-16.39,14.17-21.76,29.52-5.23,14.95-5.64,29.12-1.7,36.09-7.99.68-19.48,8.88-28.97,21.45-12.32,16.32-16.6,33.85-9.57,39.14Zm63.56-17.39c-8.88,15.16-20.63,24.79-26.26,21.51-5.63-3.28-2.99-18.24,5.89-33.4,8.88-15.16,20.63-24.79,26.26-21.51,5.63,3.28,2.99,18.24-5.89,33.4Zm32.31-67.46c-5.8,16.58-15.49,28.28-21.64,26.14-6.15-2.15-6.44-17.33-.64-33.91,5.8-16.58,15.49-28.28,21.64-26.14,6.15,2.15,6.44,17.33.64,33.91Zm-7.12-104.35c6.46-.83,13.53,12.61,15.78,30.03,2.25,17.42-1.17,32.22-7.63,33.05-6.46.83-13.53-12.61-15.78-30.03-2.25-17.42,1.16-32.22,7.63-33.05Zm-37.54,29.75c-2.25-17.42,1.16-32.22,7.63-33.05,6.46-.83,13.53,12.61,15.78,30.03,2.25,17.42-1.16,32.22-7.63,33.05-6.46.83-13.53-12.61-15.78-30.03Zm-7.43,64.27c5.8-16.58,15.49-28.28,21.64-26.14,6.15,2.15,6.44,17.33.64,33.91-5.8,16.58-15.49,28.28-21.64,26.14-6.15-2.15-6.44-17.33-.64-33.91Zm-31.29,58.55c10.58-14.03,23.38-22.23,28.59-18.31,5.2,3.92.84,18.46-9.74,32.49-10.58,14.03-23.38,22.23-28.59,18.31-5.2-3.92-.84-18.46,9.74-32.49Z"/>
    </g>
  </g>
</svg>