<?xml version="1.0" encoding="UTF-8"?>
<svg id="Layer_1" data-name="Layer 1" xmlns="http://www.w3.org/2000/svg" xmlns:xlink="http://www.w3.org/1999/xlink" viewBox="0 0 1157.45 1080.31">
  <defs>
    <style>
      .cls-1 {
        clip-path: url(#clippath);
      }

      .cls-2 {
        fill: none;
      }

      .cls-2, .cls-3, .cls-4, .cls-5, .cls-6, .cls-7, .cls-8, .cls-9, .cls-10, .cls-11, .cls-12, .cls-13, .cls-14, .cls-15, .cls-16, .cls-17, .cls-18, .cls-19, .cls-20, .cls-21, .cls-22, .cls-23, .cls-24, .cls-25, .cls-26, .cls-27, .cls-28, .cls-29 {
        stroke-width: 0px;
      }

      .cls-3 {
        fill: url(#linear-gradient);
      }

      .cls-30 {
        opacity: .2;
      }

      .cls-31, .cls-4 {
        opacity: .3;
      }

      .cls-4, .cls-29 {
        isolation: isolate;
      }

      .cls-32 {
        opacity: .9;
      }

      .cls-33 {
        opacity: .85;
      }

      .cls-34 {
        opacity: .72;
      }

      .cls-6 {
        fill: #5273b8;
      }

      .cls-7 {
        fill: #7b7a7a;
      }

      .cls-8 {
        fill: #3b1214;
      }

      .cls-9 {
        fill: #263238;
      }

      .cls-10 {
        fill: #564539;
      }

      .cls-11 {
        fill: #6d6c6c;
      }

      .cls-12 {
        fill: #6f6f70;
      }

      .cls-13 {
        fill: #2e5463;
      }

      .cls-14 {
        fill: #382831;
      }

      .cls-15 {
        fill: #1f454f;
      }

      .cls-16 {
        fill: #c9e0f4;
      }

      .cls-17 {
        fill: #ccb59f;
      }

      .cls-18 {
        fill: #e0e0e0;
      }

      .cls-19 {
        fill: #e26d6d;
      }

      .cls-20 {
        fill: #d3dce9;
      }

      .cls-21 {
        fill: #b1b2b2;
      }

      .cls-22 {
        fill: #8e6578;
      }

      .cls-23 {
        fill: #ff6260;
      }

      .cls-24 {
        fill: #8193af;
      }

      .cls-25 {
        fill: #ffebed;
      }

      .cls-26 {
        fill: #e59595;
      }

      .cls-27 {
        fill: #ff999d;
      }

      .cls-28 {
        fill: #ee4d4e;
      }

      .cls-29 {
        fill: #fff;
        opacity: .5;
      }
    </style>
    <clipPath id="clippath">
      <rect class="cls-2" width="1157.45" height="1080.31"/>
    </clipPath>
    <linearGradient id="linear-gradient" x1="616.52" y1="3405.59" x2="612.05" y2="1402.87" gradientTransform="translate(0 3032.15) scale(1 -1)" gradientUnits="userSpaceOnUse">
      <stop offset=".07" stop-color="#4eabad"/>
      <stop offset=".51" stop-color="#008081"/>
      <stop offset=".99" stop-color="#003e40"/>
    </linearGradient>
  </defs>
  <g class="cls-1">
    <g>
      <g class="cls-32">
        <path class="cls-3" d="m1247.56,0H-5.69c-.11,42.94-.03,85.66-.52,127.53-2.28,193.32-3.53,386.68-5.85,580-1.01,84.45-2.04,168.95-4.25,253.33-1.92,73.51-10.38,145.86-7.55,219.4,2.4,62.31,6.27,136.47,19.01,194.03,12.65,57.15,32.71,40.4,62.08,40.4,65.37,0,130.73,0,196.1,0h809.95c42.77,0,85.53,6.32,128.31,3.41,23.74-1.62,48.67,8.15,55.97-35.81,6.04-36.33,0-99.04,0-137.15V0Z"/>
      </g>
      <path class="cls-18" d="m303.24,536.29c1.06,2.19,3.49,3.15,5.73,2.9,2.24-.25,4.33-1.5,6.26-2.87,2.52-1.79,5.04-4.05,5.99-7.21.6-1.99.52-4.16,1.21-6.12.83-2.34,2.65-4.04,4.41-5.62,3.63-3.28,17.51-15.18,23.74-20.59,1.18-1.02,1.4-2.92.5-4.16h0c-.91-1.26-2.59-1.36-3.7-.25-5.85,5.92-18.78,19.14-22.3,22.56-1.7,1.65-3.52,3.36-5.69,3.85-1.82.4-3.69-.1-5.51.19-2.91.46-5.34,2.84-7.37,5.32-1.55,1.89-3.03,3.98-3.67,6.44-.64,2.45-.27,5.35,1.42,6.94"/>
      <path class="cls-10" d="m998.97,583.48c4.92-31.74-6.24-63.44-11.22-95.17-4.98-31.73-1.48-69.05,24.23-88.33-4.18,16.18-7.18,32.66-8.98,49.28-1.2,11.07-1.86,22.42.85,33.23,2.08,8.29,6.08,15.97,8.83,24.07,14.2,41.81-6.22,87.84.08,131.54,18.18-12.11,26.64-34.94,27.6-56.74.95-21.81-4.39-43.32-8.13-64.82-3.75-21.5-5.83-44.13,1.36-64.74,1.11-3.19,4.27-6.95,7.09-5.09-3.19,18.37-.96,37.64,6.36,54.79,3.8,8.89,8.91,17.21,12.15,26.31,8.31,23.42,3.38,49.2-1.62,73.54-4.09,19.86-8.49,40.45-20.73,56.64-5.93,7.84-14.44,14.73-24.27,14.91-11.2.2-21.01-8.65-25.15-19.04-10.66-26.75,7.63-45.03,11.56-70.36v-.02Z"/>
      <path class="cls-10" d="m136.55,509.27c.34,20.64,2.79,40.64,9.88,59.08,7.11-21.44,11.52-44.46,12.99-67.81.82-13.01.82-26.57,5.1-38.32,4.93-13.57,14.73-22.56,22.54-33.46,8.63-12.06,15.03-26.95,18.46-42.98,8.07,19.96.37,44.64-9.12,63.45-7.13,14.12-17,28.99-19.99,45.96-2.27,12.94-.42,25.79-2.49,39.23-3.32,21.58-6.91,43.95-16.87,61.53-4.83,8.52-11.75,16-19.76,16.2-15.33.37-19.53-22.37-32.12-29.71-4.49-2.61-9.69-4.22-12.64-9.44-2.62-4.65-2.7-10.93-2.68-16.75.07-16.68.15-33.36.22-50.04,6.73,2.68,10.06,13,10.45,22.35s-1.23,18.76-.35,28.05c.88,9.29,5.49,19.13,12.49,19.88,6.62-63.09,13.24-126.18,19.85-189.26,7.81,9.26,8.44,25.03,7.9,38.95-1.07,27.38-4.31,55.8-3.86,83.11v-.02Z"/>
      <path class="cls-10" d="m831.57,556.11c-.18-6.35-.34-12.86,1.72-18.88,2.06-6.01,6.84-11.51,13.12-12.57-.29,24.52.75,49.06,3.09,73.47.23,2.42.53,4.98,2,6.91,2.35,3.08,6.72,3.5,10.38,4.77,11.34,3.94,16.73,17.05,17.66,29,.48,6.18.04,12.76-3.38,17.93s-10.6,8.24-16.11,5.39c-1.93-7.16-8.05-13.03-15.29-14.66-13.76-3.1-29.84,7.8-41.33-.38-4.05-2.88-6.38-7.58-7.92-12.3-7.72-23.61.73-50.64-8.89-73.55-1.32-3.14-3-6.39-2.53-9.77s4.43-6.41,7.28-4.54c4.54,9.35,7.2,19.6,7.78,29.97.54,9.62-.4,20.23,5.51,27.84,7.09,9.13,20.49,9.56,32.05,9.18,3.63-.12,7.39-.27,10.65-1.87,6.43-3.16,9.02-10.8,10.98-17.68,3.4-11.9,6.82-23.79,10.22-35.69,1.6-5.6,4.33-12.23,10.11-13.01-.41,20.07-10.16,39.65-7.29,59.52,1.34,9.3,5.26,19.49.36,27.52-2.24,3.68-6.02,6.15-9.83,8.17-5.07,2.7-20.23,11.06-25.76,7.33-4.98-3.36-2.57-21.12-2.71-25.92-.63-22.06-1.26-44.12-1.89-66.18h.01Z"/>
      <path class="cls-14" d="m392.4,595.82c-1.58-.98-3.39-1.74-5.28-2.42-1.51-.54-3.06-1.02-4.61-1.52-4.24-1.38-28.76-12.98-30.3-11.78-.61.48-1.51,1.05-2.49,1.58-1.74.07-3.47.13-5.21.19.12-.23.28-.5.48-.8,3.29-4.8,11.15-7.85,6.81-10.46-4.36-2.6-4.99-.99-5.91,2.63-.75,2.96-6.16,5.54-6.97,8.8-1.4.04-2.8.08-4.2.11-1.58-1.36-5.63-2.1-4.86.11-.91.02-1.82.04-2.72.05-1.26-4.48-4.77-5.27-10.96-3.39-5.16,1.56-1.75,1.68.49,3.5h-4.82c.63-2.07,2.39-3.02,2.39-3.02,3.88-4.3,2.11-5.81.05-8.67-2.04-2.87-2.04-5.83-.95-8.52,1.07-2.69,4.01-2.3,3.57-5.76-.43-3.47.13-7.72-4.19-6.79-4.31.94-.7,1.93-.24,5.83.47,3.88-3.31.04-5.15-2.31-1.81-2.35-3.97-3.41-4.76.54-.78,3.94-.28,1.91,5.29,4.4,5.57,2.49,2.09,3.39,2.29,6.56.2,3.16-1.63,3.66-5.18.34-3.54-3.33-7.32-3.79-7.94-.59-.63,3.2,8.63,1.72,13.13,6.8,4.48,5.08-.6,6.9-1.89,9.39-.27.53-.34,1.14-.3,1.76-2.17-.02-4.34-.05-6.46-.1.42-.43,1.07-1.23,1.39-2.29,1.09-.68,2.01-1.49,2.45-2.51,1.63-3.78-.1-4.86-5.06-4.21-.56.07-.98.15-1.31.22-3.05-1.38-6.39-.82-4.95,1.29,1.07,1.58,1.85,4.4,1.18,5.76-.76-.07-1.48-.56-2.03-1.66-1.66-3.31-3.42-4.71-3.42-4.71,0,0,3.43-1.53,3.04-4.26-.38-2.74-4.59-3.39-4.46-1.39.13,2-1.87,6.53-4.22,2.52-2.33-4.02.31-8.05-5.34-8.64-5.66-.59-4.55.63-1.67,3.25.94.86,1.29,1.86,1.53,2.92-.99-.33-2.16-.51-3.58-.5-.31-.42-.63-.86-.96-1.32-2.86-3.99-2.85-8.11-1.34-11.86,1.48-3.74,5.58-3.2,4.97-8.02-.61-4.83.17-10.75-5.82-9.45-6,1.3-.99,2.69-.35,8.11.64,5.41-4.63.07-7.17-3.2-2.52-3.27-5.52-4.75-6.61.75-1.09,5.5-.4,2.66,7.35,6.14,7.76,3.47,2.91,4.72,3.19,9.13.15,2.32-.49,3.61-1.84,3.64.14-.74.26-1.53.32-2.4.79-10.49-5.16-9.11-7.23-4.56-.29.64-.46,1.35-.56,2.07-3.05-2.15-5.97-2.71-7.64-1.42-4.75-6.35-5.14-8.64-8.75-4.81-4.21,4.46-5.23,3.98,1.19,7.33s11.1,6.19,12.54,8.31c.6.89.36,2.13.23,3.6-.61.04-1.25.1-1.96.19-6.88.9.4,1.6-1.37,5.51-.29.64-.66,1.26-1.08,1.83-2.52-.31-5.08-.52-7.66-.66,1.6-2.11-.18-4.6-3.31-4.17-.76-.85-1.25-1.25-1.25-1.25,0,0,4.8-2.13,4.26-5.93-.46-3.26-4.83-4.39-5.94-2.88-.02-.05-.03-.09-.06-.14-1.35-2.4-2.89-3.38-7.74-1.19-.42-3.2-.71-5.71-5.77-6.23-.75-.08-1.41-.13-1.99-.17,1.36-1.53,3.6-3.35,7.54-5.62,9.66-5.56-4-4.87-7.9-.47-3.34,3.77-6.47,6.35-8.42,3.14.74-.86,1.5-1.84,2.26-2.98,6.07-9.1.31-8.69-3.81-4.98-.41.38-.79.8-1.15,1.24-1.27-1.97-2.71-1.39-4.7,3.16-.13.3-.24.57-.34.84-.19-.6-.38-1.39-.58-2.41-1.72-8.75.38-12.09-5.49-8.73-5.86,3.36-6.48,2.8-2.75,6.6,3.73,3.81,6.25,6.93,6.38,8.98.13,2.05-4.87,5.23-3.12,9.86.07.18.16.38.26.58-1.86.08-2.92,3-4.35,4.35-2.83-1.92-5.35-3.65-7.21-4.31-.87-.86-1.56-1.58-1.99-2.32.15-.07.29-.14.42-.21,3.09-1.65,2.96-4.5-.32-4.43,1.88-4.81,6.44-7.61,1.7-8.02-.09,0-.17,0-.26,0,.88-.33,1.43-.76,1.45-1.34.12-2.8-1.1-3.77-10.19-.86-1.72.55-3.03.85-4.02.95-.17-.33-.33-.62-.48-.84-.39-.58-1.11-.79-1.92-.72.27-.92,1.19-2.05,2.13-2.88,2.46-2.17,3.46-4.72,14.53-8.31,11.05-3.6-.89-4.82-6.47-1.47s-10.08,5.32-8.42-.35c1.65-5.67,1.23-7.71-4.78-2.14s-.06,3.39,1.01,6.58c1.07,3.18-9.15,10.72-3.71,14.29,0,0-.12.19-.31.52-1.08-.69-2.4-.89-4.16-.3-5.07,1.69-.78,2.58,1.94,6.81-.08.67-.11,1.36-.06,2.06.03.48.04.91.04,1.3-.69-.17-1.61-.63-2.62-1.22.36-2.77-.82-4.04-3.4-2.27-.51-.38-1-.75-1.45-1.1-1.35-1.46-2.69-2.68-3.7-3.69,1-1.87,1.87-3.58,1.99-4.99,2.12-1.43,3.93-3.24,2.29-4.64-1.08-.92-2.81.3-4.51,1.52-.01,0-.03.02-.04.03-.74-.28-1.68-.49-2.88-.63-.87-.1-1.61-.14-2.25-.13-1.2-4.25-2.75-5.19,1.06-8.93,4.08-4.01,9.46-5.88,5.63-6.88-3.83-1-7.13,1.65-9.85,4.42-2.71,2.77-.38-5.87-.52-8.07s-7.54-.09-7.29,3.72,10.23,19.25,4.17,14.96c-6.07-4.28-8.18-5.66-7.9-1.25.28,4.4,2.21,2.98,10.25,6.3.28.12.55.24.8.37.11,1.67.3,3.67-.16,5.85-.54.21-1.18.55-1.91,1.05-1.68,1.17-2.58,2.22-3.2,2.92-.73-1.92-1.49-4.82-2.99-6.81-3.03-3.99-6.96-2.88-6.32.28-1.65-1.04-2.56-.68-2.06,2.08.88,4.92,1.2,5.09,7.62,7.97.63.43,1.38.83,2.27,1.19.35.46.69,1.09.97,1.98.76,2.45-.43,5.42.43,7.31.13.39.37.83.76,1.34-3.25-.97-6.49-2.12-9.71-3.47,4.76-2.69-2.69-4.92-4.59-2.41-.34-.07-.68-.09-1-.05-.38-.17-.76-.33-1.15-.49,0-.33,0-.68-.01-1.08-.04-5-1.76-4.64-5.02-.93-1.36-.52-2.73-1.02-4.12-1.5,1.62-1.44,3.66-3.26,5.74-6.21,4.89-2.02,7.52-2.58,3.89-8.32-4.64-7.32-3.84-8.17-3.84-8.17,0,0-.78-.1-1.8-.11,2.11-.64,4.13-1.56,5.62-3.02,4.92-4.79,4.99-7.88-2.54-3.56-7.54,4.32-9.55,4.56-4.43-1.27,5.13-5.82,15.8-10.88,7.53-13.29-8.27-2.42-5.51,4.51-12.92,10.73-7.42,6.23-2.41-1.65-2.99-6.04-.57-4.39-5.44-3.29-5.76.56-.32,3.84-3.52,8.11,3.61,11.17,0,0,1.98-.83.14,2.2-1.83,3.03-6.82,2.08-6.27,6.03.23,1.62-.03,3.31-.56,4.37-.23.21-.37.42-.41.63-.77.88-1.85.61-2.88-2.03-2.03-5.19-3.32-11.67-7.51-9.97.98-1.97,1.71-3.84,1.69-5.77-.01-1.15-.52-2.38-1.33-3.52,6.85-1.77,10.19-1.03,10.04-7.36-.17-7.06.95-7.7.95-7.7,0,0-7.4-2.31-6.78,2.81.63,5.12,2.41,5.78-2.11,7.6-1.43.58-3.14,1.28-4.81,1.87-2.47-1.87-5.42-2.72-6.79-.98-.05.07-.11.13-.16.2.26-3.44,3.45-7.01-.13-5.99-3.7,1.05-11.47,1.85-7.77,5.21,3.69,3.36,6.18,1.48,2.65,5.18-1.17,1.23-2.3,1.98-3.15,2.65-.42-.2-.88-.4-1.38-.6-1.61-.63-2.91-.85-3.97-.8,1.86-2.75,4.79-7.43-1.19-7.59-6.08-.16-4.3,5.2-4.51,6.54-.14,1-2.63,1.11-5.83,1.26-1.05.05-2.19.1-3.34.19-2.16.17-3.06.08-3.45-.58,2.51-2.93,2.17-2.59.5-7.7-.03-.08-.05-.16-.07-.24,1.33-.88,4.29-.16,9.02-1.75,7.09-2.38,5.68-1.73,10.26-6.94s10.45-8.43,12.8-12.5c2.34-4.08-1.54-10.38-5.43-7.85-3.9,2.53-5.43,1.13-3.68,5.75,1.75,4.64-2.03,8.78-4.49,6.68-2.45-2.09,1.17-4.32-3.69-7.93-4.88-3.59-8.88,1.59-7.07,2.68,1.81,1.1,8.48,5.8,6.12,9.58-2.36,3.79-1.97,5.38-9.69,6.76-2.41.43-4.03.63-5.18.61-.56-3.51-.95-5.89-4.17-4.64-.69.27-1.34.52-1.96.76-3.57-2.77-10.3-7.28-9.01-10.81,1.47-4.04,5.23-4.22,10.79-7.7,5.57-3.49,4.76-2.43,6.16-7.79,1.38-5.36,5.42-10.25.55-9.29-4.87.95-8.31,1.41-7.81,4.48.48,3.07-5.58,12.47-5.64,6.88-.07-5.59,4.06-13.28-.29-13.38-4.36-.09-9.72,1.92-9.77,5.6-.05,3.68,2.79,7.38,4.98,9.78,2.18,2.41-.07,3.39-5.08,6.56-5.01,3.18-1.96,5.4.53,8.22,1.68,1.9,6.8,6.8,10.14,10.89.03.51.27,1.09.8,1.77,2.47,3.12,1.88,13.91-1.72,8.1-3.6-5.81-4.01-14.51-8.76-13.89-2.34.3-4.63,1.18-6.07,2.46-2.12-8.42-4.68-5.28-6.37-10.83-1.83-6.1-11.05-5.38-10.51-1.58s5.55,5.19,7.48,8.19c1.93,3,.8,3.49,1.09,8.04.29,4.55,17.25,15.99,12.51,14.29-4.75-1.7-18-9.63-18.9-5.61,0,0-4.22,1.96,1.72,4.33,4.76,1.9,13.95,3.88,21.55,6.21-1.85,3.41,2.38,5.12,6.48,7.44,1.07.61,2.87,1.55,5.03,2.68.87,1.62.79,2.62-2.33,1.98-5.26-1.08-12.03-3.75-14.93-2.72-.5-.42-1.04-.92-1.64-1.55-.22-.23-.45-.44-.68-.65,1.73-.2,2.56-.6,1.42-2.6-1.28-2.24-4.95-1.63-8.28-.43-3.03-.29-5.45.77-5.38,2.41-2.22.97-.4-1.39-2.75-5.05-2.57-4.01-7.59-.98-5.69,1.73,0,0,.66,5.71,6.56,7.2,0,0,2.18,2.4,3.81,5.12s1.03,2.46-2.74,2.33c-3.78-.12-13.01.45-3.92,2.24,9.09,1.79,4.8,2.43,2.25,3.43-1.2.48-1.63-.08-2.14-.64-.56-.62-1.22-1.23-3.14-.45-.62.25-1.26.58-1.85.94-4.77-2.88-4.49-2.43-11.84-.35v3.24c3,.63,7.47,1.48,13.07,2.85,15.25,3.73.62,1.82-7.72,3.02-2.31.33-4.22.82-5.35,1.33v1.81c1.79.54,5.81.84,12.95.59,9.92-.34,14.76-1.56,18.89-1.96-1.07,7.11-.59,13.39,1.35,18.9-7.37-1.95-14.51-.28-18.02-.97-3.68-.72-8.4-3.14-13.89-6.47-.47-.28-.89-.54-1.27-.77v5.71c.64.15,1.29.3,1.97.47,12.06,2.95,5.45,2.37-1.97,2.59v4.22c.59,0,1.2-.03,1.85-.05,18.91-.65,19.38-4.52,31.57.31,1,.4,1.9.76,2.72,1.09,8.37,13.34,27.34,21.32,55.45,25.53,4.61,2.66,8.25,4.59,8.25,4.59,6.22,1.99,7.61.04,6.64-2.79,51.82,4.97,128.29.21,222.77-6.95,7.2,1.92,14.88,2.62,12.32-.94,5.35-.41,10.75-.83,16.2-1.25.16,0,.32-.02.47-.04,17.69-1.89,37.96-.89,54.93-4.5-.78-5.52-2.89-12.82-8.99-16.61l.02-.03Z"/>
      <g>
        <path class="cls-14" d="m672.55,667.17c16,5.89.49,2.26-8.59,2.96-9.08.7-12.58,4.29,7.78,5.21,10.68.48,16-.56,20.47-.67-.7,3.24-1.16,6.36-1.36,9.35,1.1-.64,2.26-1.22,3.55-1.64.56-.18,1.15-.29,1.73-.42,1.22-.27,2.43-.54,3.65-.81,2.73-.61,5.48-1.22,8.21-1.83.54-.12,1.26-.17,1.7-.46,1.1-.71,2.01-1.7,2.8-2.65,1.59-1.92,2.71-4.08,3.82-6.23.91-1.77,1.77-3.64,3.15-5.19,1.06-1.19,2.52-2.05,4.38-1.97,2.86.12,5.54,1.87,7.66,3.33.89.61,1.75,1.26,2.59,1.92.29.23.57.45.86.68.07.06.62.6.72.59.21-.02.12-1.31.13-1.52l.54-21.83s.05-.04.08-.02c4.47,3.16,9.67,5.97,15.46,6.98,1.31.23,2.64.36,3.98.36.36,0,.73,0,1.09-.02.15,0,.35.02.47-.07.18-.12.13-.07,0-.24-.29-.35-.57-.7-.85-1.06-1.06-1.36-2.05-2.75-2.89-4.2-1.29-2.21-2.32-4.66-2.17-7.14.37-5.91,7.74-8.88,13.56-10.63.02,0,.05,0,.05.03,1.46,4.63,2.88,9.27,4.86,13.78,1.74,3.98,3.93,7.86,6.92,11.31,3.14,3.63,7.16,6.68,11.84,8.88.37.18.79.43,1.19.54.37.11.35-.02.47-.31.16-.41.32-.81.49-1.21.38-.88.8-1.74,1.27-2.59.92-1.65,2.04-3.23,3.5-4.58,1.37-1.26,3.06-2.29,5.04-2.82,1.48-.4,3.04-.48,4.59-.35-2.42-5.95-1.74-6.65-1.74-6.65,0,0-.83-.19-1.93-.3,2.33-.59,4.59-1.52,6.33-3.15,5.75-5.36,6.14-9.1-2.37-4.55-8.53,4.55-10.71,4.66-4.63-1.94,6.08-6.59,18.04-11.75,9.41-15.42-8.63-3.68-6.36,4.97-14.93,11.84-8.58,6.88-2.43-2.22-2.61-7.59s-5.51-4.47-6.24.16c-.73,4.62-4.6,9.51,2.77,13.86,0,0,2.2-.82-.07,2.68s-7.53,1.91-7.33,6.74c.08,1.98-.36,4.01-1.03,5.25-.27.24-.44.47-.5.73-.91.99-2.05.57-2.89-2.73-1.67-6.48-2.4-14.44-7.07-12.75,1.25-2.3,2.22-4.5,2.39-6.83.1-1.39-.33-2.93-1.07-4.39,7.52-1.53,11.04-.33,11.52-8.01.52-8.57,1.79-9.24,1.79-9.24,0,0-7.72-3.47-7.56,2.8.16,6.26,2.01,7.22-3.02,9.02-1.59.57-3.5,1.27-5.35,1.83-2.46-2.49-5.54-3.78-7.19-1.8-.07.08-.13.15-.19.22.62-4.14,4.41-8.18.45-7.27-4.09.94-12.49,1.2-8.86,5.61,3.63,4.41,6.49,2.35,2.34,6.51-1.37,1.38-2.67,2.19-3.64,2.93-.43-.28-.9-.56-1.43-.85-1.66-.91-3.04-1.29-4.18-1.32,2.27-3.17,5.89-8.57-.52-9.3-6.51-.75-5.13,5.92-5.49,7.51-.25,1.2-2.94,1.11-6.38,1-1.14-.04-2.36-.08-3.61-.07-2.33,0-3.29-.18-3.64-1.02,2.99-3.32,2.59-2.94,1.3-9.29-.02-.1-.04-.2-.06-.3,1.52-.95,4.62.19,9.86-1.31,7.85-2.25,6.26-1.58,11.71-7.48,5.45-5.9,12.07-9.27,14.99-13.99,2.91-4.74-.62-12.72-5.05-10-4.44,2.71-5.95.88-4.53,6.64,1.42,5.78-3.05,10.45-5.49,7.69-2.42-2.76,1.68-5.13-3.17-9.94-4.88-4.79-9.69,1.12-7.86,2.61s8.52,7.79,5.62,12.16c-2.91,4.37-2.65,6.34-11.08,7.32-2.63.31-4.39.4-5.63.28-.25-4.3-.43-7.22-4.01-6-.76.26-1.49.5-2.18.74-3.56-3.68-10.34-9.75-8.6-13.91,1.98-4.77,6.03-4.64,12.36-8.36,6.33-3.73,5.35-2.51,7.39-8.89,2.02-6.37,6.83-11.93,1.51-11.21-5.32.72-9.06.96-8.83,4.72.21,3.76-7.22,14.6-6.74,7.82.48-6.78,5.68-15.73,1.02-16.23-4.67-.5-10.63,1.45-11.05,5.9-.42,4.46,2.27,9.19,4.37,12.3,2.1,3.11-.42,4.1-6.11,7.49-5.69,3.4-2.64,6.36-.25,10.01,1.61,2.45,6.62,8.86,9.81,14.11-.02.62.18,1.34.69,2.21,2.34,4,.63,17.02-2.66,9.65-3.29-7.37-2.85-17.94-8.02-17.62-2.54.16-5.09,1.02-6.76,2.43-1.44-10.4-4.5-6.81-5.76-13.69-1.35-7.55-11.34-7.51-11.13-2.86.2,4.66,5.44,6.79,7.21,10.6,1.78,3.81.51,4.3.38,9.84-.14,5.54,16.93,20.93,12.01,18.45-4.93-2.48-18.36-13.29-19.73-8.5,0,0-4.72,1.99,1.42,5.41,4.92,2.73,14.59,5.96,22.51,9.47-2.32,3.96,2.04,6.42,6.21,9.6,1.09.83,2.93,2.14,5.14,3.7.77,2.04.59,3.25-2.69,2.19-5.54-1.78-12.54-5.62-15.76-4.65-.5-.55-1.03-1.21-1.61-2.02-.21-.3-.44-.58-.66-.85,1.88-.08,2.81-.49,1.79-3.02-1.15-2.83-5.16-2.42-8.85-1.27-3.22-.62-5.92.44-6.01,2.43-2.48.98-.29-1.72-2.45-6.36-2.37-5.09-8.05-1.87-6.28,1.59,0,0,.14,6.97,6.32,9.32,0,0,2.1,3.11,3.57,6.55,1.47,3.45.86,3.07-3.17,2.57-4.04-.48-14.01-.63-4.43,2.36,9.58,2.99,4.91,3.38,2.07,4.36-1.34.47-1.74-.25-2.23-.97-.53-.8-1.18-1.6-3.33-.83-.69.25-1.41.59-2.09.97-4.99-4.04-4.55-3.31-13.45-1.31-9.2,2.06-1.82,2.48,14.2,8.38l.02.02Z"/>
        <path class="cls-14" d="m1010.12,565.59c-.21,1.44-.45,3.17-.8,4.79-3.8.43-6.67,1.92-5.47,4.16.05.09.09.17.13.26-3.95-2.66-6.2-7.51-7.25-4.21-1.08,3.41-5.04,9.53,1.31,9.31,6.36-.23,5.68-3.36,7.87,1.81.72,1.72.91,3.07,1.18,4.16-.5.16-1.03.34-1.59.56-1.77.7-2.86,1.48-3.45,2.27-2.11-3.31-5.86-8.77-9.82-4.6-4.04,4.24,3.5,6.81,4.97,7.91.67.49.41,1.37-.3,2.5,1.59-.9,3.2-1.79,4.89-2.58,3.8-1.78,7.7-3.39,11.68-4.87-1.29-3.34-.77-7.34-.04-10.61,0-.02.03-.03.06-.02,5.49,1.43,10.98,2.9,16.6,3.9.89.16,1.79.3,2.69.43,2.48-.73,4.97-1.44,7.45-2.15-7.04-2.26-14.43-5.17-14.99-1.26-1.73-2.12-3.5-3.98-5.83-5.35-1.38-.82-3.17-1.33-5.05-1.58,2.21-6.17,5.22-8.04-2.45-12.47-8.55-4.94-8.6-6.21-8.6-6.21,0,0-7.44,3.64-.92,6.87,6.52,3.23,8.43,2.43,7.75,6.97h0Z"/>
        <path class="cls-14" d="m1110.12,636.08c-.17.17-.33.33-.5.47-.35.15-.6.32-.78.54-1.27.67-2.17-.05-1.62-3.36.07-.44.15-.89.23-1.34-1.36-1.89-2.73-3.77-4.12-5.64.18,3.4.71,6.8,1.85,10.09,1.49,4.28,4.06,8.26,7.58,11.64.28.27.57.62.91.84.31.2.34.08.57-.16.31-.33.63-.66.96-.99.72-.71,1.46-1.4,2.25-2.06.02-.02.04-.03.06-.04-2.53-3.3-4.99-6.64-7.42-9.99h.02Z"/>
        <path class="cls-14" d="m1088.63,608.6c-2.33-2.5-4.73-5.02-7.43-7.25-.66-.54-1.32-1.08-1.98-1.62-.94-.25-2.04-.62-3.24-1.02-1.06-.36-2.21-.74-3.39-1.09-2.21-.65-3.05-1.1-3.04-1.98,1.33-.72,2.18-1.19,2.77-1.69-1.44-1.3-2.83-2.65-4.11-4.07-1.36-1.53-2.59-3.15-3.57-4.87-1.89,4.05-4.87,7.24-4.94,2.15-.11-7.81,4.62-17.57-.41-18.74-2.47-.57-5.23-.49-7.39.36,2.87-10.12-1.48-7.64.14-14.42,1.8-7.44-7.67-10.22-9.37-5.81-1.71,4.41,2.37,7.88,2.5,11.94.13,4.06-1.27,4.17-3.65,9.3s7.49,24.33,3.85,20.63c-3.64-3.71-11.97-17.6-15.21-13.52,0,0-5.28.53-.86,5.45,3.53,3.94,11.39,9.69,17.45,15.21-3.82,3.05-.68,6.58,1.96,10.72.69,1.09,1.9,2.83,3.35,4.9-.1,2.12-.77,3.2-3.44,1.28-4.52-3.23-9.58-8.8-13.03-8.79-.24-.66-.48-1.42-.7-2.34-.08-.34-.18-.66-.28-.98,1.81.45,2.86.33,2.92-2.32.07-2.97-3.9-3.71-7.86-3.69-2.8-1.49-5.79-1.26-6.69.58-2.75.21.43-1.69.28-6.64-.17-5.42-6.86-4.02-6.59-.29,0,0-2.7,6.56,2.18,10.49,0,0,.72,3.5.71,7.13-.01,3.64-.44,3.11-4.06,1.51-3.62-1.59-13.01-4.55-5.16.96,7.86,5.5,3.26,4.54.19,4.66-1.46.06-1.55-.73-1.72-1.54-.18-.9-.47-1.83-2.81-1.71-.75.04-1.57.15-2.37.32-3.07-5.18-2.96-4.37-12.21-5.03-9.55-.67-2.73,1.8,10.03,11.84,12.75,10.02-.46,2.25-9.34.34s-13.66.46,5.25,7.07c9.91,3.47,15.38,3.99,19.66,5.16-1.99,2.83-3.68,5.61-5.11,8.35,1.3-.29,2.64-.5,4.04-.53.6-.01,1.2.06,1.8.1,1.26.09,2.53.18,3.8.27,2.84.2,5.68.41,8.52.61.56.04,1.26.2,1.8.06,1.33-.35,2.6-1.02,3.72-1.68,2.29-1.35,4.24-3.05,6.16-4.74,1.58-1.4,3.16-2.9,5.11-3.96,1.49-.81,3.22-1.21,4.96-.61,2.66.92,4.48,3.31,5.89,5.27.59.83,1.15,1.67,1.67,2.52.18.29.36.59.53.88.04.07.34.74.44.76.2.04.65-1.18.74-1.38l9.41-20.24s.06-.03.08,0c2.94,4.21,6.72,8.31,11.79,10.89,1.15.58,2.36,1.08,3.62,1.46.34.1.69.2,1.04.28.15.04.32.11.48.07.22-.07.15-.03.09-.23-.13-.41-.25-.82-.37-1.23-.45-1.56-.82-3.15-1.03-4.74-.32-2.43-.3-5.01.86-7.28.97-1.9,2.61-3.21,4.61-4.12-1-1.14-2-2.28-3.04-3.39v.02Z"/>
        <path class="cls-14" d="m1085.99,598.99c8.44-4.44,21.89-5.88,15.2-11.75-6.68-5.88-8.05,2.85-18.98,6.85-10.93,4.01-1.4-2.76.62-7.83s-3.38-5.73-5.97-1.61c-2.58,4.11-8.23,7.59-3.02,13.73,0,0,2.42-.14-1.15,2.48-3.58,2.63-7.91-.35-9.69,4.22-.61,1.57-1.59,3.06-2.56,4.07,2.42,3.36,4.88,6.71,7.42,10.01,1.51-1.24,3.18-2.37,5.07-3.2,1.81-.79,3.84-1.27,5.92-1.21,1.57.04,3.07.41,4.49.96.13-6.25,1.06-6.7,1.06-6.7,0,0-.71-.41-1.7-.83,2.44.11,4.96-.13,7.28-1.16,7.63-3.38,9.52-6.77-.4-4.92-9.93,1.84-12.05,1.33-3.58-3.12h0Z"/>
        <path class="cls-14" d="m1139.06,626.92c-9.02-1.29-24.69,1.34-8.42-3.51,7.49-2.23,13.1-3.42,16.08-4.31l.13-2.61c-.47-.16-1.01-.33-1.63-.51-9.1-2.66-8.27-3.32-14.05.84-5.77,4.17-10.75,7.21-14.69,8.16-3.76.91-11.51-.97-19.36,1.55,1.15-4.15,1.69-8.65,1.6-13.51-1.48-.98-3.08-1.78-4.89-2.31-4.19-1.21-8.37-2.43-12.56-3.64-.32-.09-.73-.15-1.02-.3-.44-.22-.84-.71-1.16-1.03-.37-.36-.71-.73-1.03-1.12-1.33-1.59-2.31-3.37-3.17-5.16-.81-1.7-1.51-3.43-2.37-5.11-.68-1.32-1.48-2.74-2.83-3.69-1.36-.97-3.08-1.09-4.75-.72-2.93.66-5.54,2.32-7.85,3.87-.85.57-1.69,1.17-2.51,1.78-.03.02-.08,0-.07-.03l.54-22.01c0-.37.06-.75.03-1.12-.04-.42-.27-.12-.56.05-.61.37-1.23.73-1.86,1.07-2.66,1.46-5.52,2.73-8.56,3.58-3.4.96-7.03,1.37-10.62.84-.03,0-.04-.04-.03-.05,1.72-1.87,3.35-3.81,4.65-5.91,1.05-1.71,1.9-3.56,2.08-5.49.17-1.73-.26-3.45-1.3-4.98-1.25-1.83-3.2-3.27-5.28-4.45-1.32-.75-2.71-1.4-4.15-2-.4-.17-.8-.33-1.2-.48-.16-.06-.58-.3-.77-.29-.26,0-.26.21-.32.38-.22.59-.44,1.18-.66,1.78-.89,2.38-1.79,4.76-2.8,7.11-1.97,4.61-4.35,9.15-7.73,13.16-3.42,4.05-7.9,7.4-13.23,9.64-.74.31-1.49.6-2.25.87-.03,0-.06,0-.06-.02-1.52-4.81-4.27-10.79-10.53-12.5-1.26-.34-2.56-.47-3.87-.44-.46.99-1.02,2.12-1.7,3.42-3.68,7.06-.83,7.68,4.52,10.04,2.34,3.55,4.63,5.73,6.42,7.44-1.46.62-2.92,1.25-4.38,1.91-3.64-4.43-5.52-4.85-5.36,1.24.01.48.02.92.03,1.32-.41.21-.81.42-1.21.63-.35-.03-.71,0-1.07.08-2.13-3-10.07-.14-4.84,3.03-3.41,1.71-6.86,3.18-10.31,4.42.4-.63.64-1.17.77-1.65.85-2.31-.55-5.9.17-8.9.27-1.08.6-1.86.96-2.42.94-.45,1.73-.95,2.4-1.49,6.79-3.63,7.13-3.84,7.88-9.85.43-3.37-.56-3.79-2.3-2.49.57-3.85-3.7-5.13-6.81-.21-1.54,2.46-2.24,6-2.95,8.35-.7-.83-1.7-2.09-3.56-3.48-.81-.6-1.5-1-2.09-1.24-.59-2.63-.46-5.08-.41-7.11.27-.16.55-.31.85-.46,8.51-4.2,10.65-2.52,10.78-7.88.13-5.36-2.09-3.64-8.45,1.69-6.36,5.34,3.78-13.64,3.89-18.28.11-4.64-7.93-7.05-8-4.37-.07,2.68,2.79,13.14-.24,9.83-3.03-3.32-6.71-6.48-10.77-5.18-4.09,1.3,1.78,3.45,6.34,8.25,4.26,4.48,2.61,5.65,1.49,10.84-.69,0-1.48.06-2.42.2-1.29.19-2.29.47-3.08.82-.02,0-.03-.02-.05-.04-1.87-1.45-3.79-2.9-4.91-1.76-1.7,1.73.31,3.89,2.65,5.59.18,1.72,1.18,3.78,2.34,6.03-1.05,1.25-2.44,2.76-3.85,4.56-.46.44-.97.9-1.51,1.37-2.85-2.1-4.08-.53-3.57,2.83-1.06.74-2.04,1.31-2.77,1.54-.02-.47-.02-1-.01-1.58.02-.85-.04-1.69-.15-2.51,2.75-5.21,7.34-6.37,1.82-8.32-1.91-.68-3.33-.41-4.47.45-.22-.4-.36-.63-.36-.63,5.72-4.46-5.59-13.41-4.57-17.3,1.03-3.9,7.52-1.37.83-8.02-6.69-6.65-7.06-4.16-5.06,2.7,2.02,6.86-2.91,4.55-9.05.6-6.14-3.95-18.95-2.22-6.9,1.93,12.06,4.15,13.23,7.22,15.97,9.81,1.05.99,2.08,2.35,2.41,3.46-.87-.07-1.64.2-2.04.91-.15.27-.31.62-.48,1.03-1.06-.1-2.48-.44-4.36-1.07-9.89-3.36-11.17-2.15-10.93,1.25.04.71.65,1.22,1.61,1.6-.09,0-.18,0-.28.02-5.08.6-.07,3.91,2.15,9.72-3.53-.03-3.56,3.44-.17,5.39.14.08.3.17.46.25-.43.92-1.14,1.8-2.04,2.87-1.97.84-4.62,3-7.59,5.39-1.58-1.62-2.84-5.14-4.86-5.2.1-.24.19-.48.25-.71,1.69-5.67-3.82-9.42-3.76-11.92s2.64-6.35,6.51-11.06c3.85-4.69,3.21-4-3.23-7.97-6.45-3.96-4.06.05-5.56,10.73-.18,1.25-.35,2.21-.53,2.95-.12-.32-.25-.65-.4-1.01-2.32-5.49-3.9-6.16-5.18-3.74-.4-.53-.82-1.03-1.29-1.48-4.58-4.43-10.78-4.81-3.9,6.13.86,1.37,1.72,2.55,2.55,3.58-1.98,3.95-5.45.87-9.19-3.64-4.38-5.27-19.1-5.83-8.48.73,4.34,2.68,6.82,4.84,8.34,6.68-.63.05-1.33.13-2.13.24-5.42.74-5.63,3.78-5.96,7.69-5.31-2.56-6.93-1.34-8.28,1.61-.03.06-.04.12-.06.17-1.26-1.82-5.92-.36-6.28,3.62-.43,4.63,4.82,7.13,4.82,7.13,0,0-.52.5-1.3,1.55-3.39-.47-5.22,2.6-3.4,5.14-2.77.22-5.52.54-8.22.97-.47-.68-.89-1.42-1.23-2.2-2.06-4.72,5.75-5.72-1.7-6.67-.76-.1-1.46-.16-2.12-.2-.2-1.79-.51-3.29.1-4.38,1.46-2.6,6.4-6.15,13.17-10.37,6.78-4.21,5.7-3.6.99-8.94-4.05-4.59-4.38-1.79-9.23,6.02-1.84-1.54-4.96-.8-8.16,1.88-.14-.88-.35-1.74-.69-2.51-2.41-5.49-8.87-7.04-7.6,5.7.11,1.06.26,2.02.44,2.91-1.46,0-2.2-1.56-2.13-4.38.13-5.36-5.14-6.78,3.07-11.16,8.21-4.38,9.06-.95,7.67-7.61-1.4-6.67-4.56-4.8-7.15-.78-2.6,4.03-8.06,10.64-7.59,4.04.48-6.59,5.81-8.39-.7-9.85-6.5-1.46-5.43,5.72-5.89,11.61-.46,5.88,3.93,5.13,5.67,9.65,1.78,4.53,1.95,9.54-.97,14.45-.34.57-.67,1.1-.98,1.62-1.53.02-2.77.27-3.84.69.22-1.29.56-2.52,1.54-3.58,2.99-3.24,4.14-4.75-1.92-3.92s-3.05,5.68-5.41,10.61c-2.36,4.93-4.7-.54-4.64-2.98s-4.44-1.55-4.74,1.78c-.3,3.32,3.45,5.11,3.45,5.11,0,0-1.84,1.74-3.49,5.8-.55,1.34-1.31,1.96-2.12,2.06-.78-1.64-.05-5.08,1.04-7.03,1.46-2.6-2.14-3.21-5.38-1.47-.35-.08-.81-.16-1.42-.24-5.37-.68-7.19.67-5.28,5.22.51,1.23,1.53,2.21,2.74,3.01.38,1.28,1.11,2.24,1.59,2.76-2.28.1-4.61.18-6.95.26.01-.76-.08-1.5-.39-2.14-1.49-3-7.03-5.11-2.41-11.38,4.64-6.27,14.67-4.66,13.86-8.54-.79-3.88-4.84-3.24-8.52.88s-5.68,3.54-5.59-.31c.09-3.85-3.68-4.87,2.21-8.02,5.89-3.15,6.52-.69,5.52-5.47-1-4.79-3.28-3.45-5.14-.56-1.87,2.9-5.8,7.65-5.45,2.91.34-4.74,4.18-6.03-.5-7.08s-3.92,4.1-4.24,8.34c-.33,4.22,2.81,3.68,4.08,6.93,1.27,3.25,1.4,6.85-.69,10.39-2.1,3.52-3.95,5.39.4,10.54,0,0,1.93,1.11,2.69,3.62-1.72.04-3.44.08-5.19.1,2.34-2.26,6.01-2.47.39-4.26-6.75-2.15-10.49-1.13-11.67,4.35h-2.93c.73-2.7-3.58-1.71-5.24-.03-1.5-.01-3.01-.03-4.53-.05-1-3.95-6.92-6.97-7.85-10.56-1.13-4.38-1.88-6.32-6.46-3.07-4.57,3.26,4.01,6.8,7.74,12.57.23.36.41.68.55.96-1.87-.04-3.73-.08-5.62-.12-1.08-.63-2.07-1.31-2.75-1.87-1.7-1.43-27.63,13.19-32.14,14.95-1.63.64-3.29,1.26-4.9,1.95-2,.86-3.93,1.82-5.59,3.05-6.41,4.73-8.39,13.66-9.01,20.38,18.41,4.05,40.19,2.42,59.31,4.34.17.02.34.03.51.03,5.89.4,11.72.79,17.49,1.18-2.61,4.38,5.63,3.38,13.3.89,101.97,6.75,184.47,10.95,240.04,3.84-.93,3.47.64,5.81,7.26,3.26,0,0,3.86-2.43,8.7-5.76,30.09-5.69,50.19-15.79,58.66-32.19.87-.42,1.82-.88,2.88-1.38,12.94-6.13,13.59-1.43,33.97-1.03,20.37.4,17.05-3.42,8.02-4.71l-.02.02Z"/>
        <path class="cls-14" d="m1146.94,616.51l-.13,2.56c2.94-.89,3.23-1.49.13-2.56Z"/>
      </g>
      <path class="cls-22" d="m126.16,648.28c2.61-6.49,8.1-5.06-.24-7.01-7.43-1.72-11.97-10.88-15.32-18.08-2.09-.49-7.29-2.22-7.07-7.65.26-6.82-4.54-9.99-.4-16.77,4.13-6.76,5.97-7.29,4.88,2.36-.18,1.53-.31,2.74-.41,3.74.74-.66,1.5-.75,2.24-.4,2.51-4.65,9.7.52,3.98,5.25l-.04.04c1.99,4.02,4.02,9.57,6.12,14.5.42,1.01.82,1.86,1.18,2.53.02-.09.02-.17.02-.24.29-3.25,1.59-6.3,2.33-7.82-.05-.18-.09-.36-.14-.55-1.62-1.48-1.82-3.82-1.61-6.26.23-2.71.94-5.79,1.16-8.67.07-.91.1-1.82.07-2.68-.12-2.85-.61-4.32-.99-4.98-.2-.32-.36-.46-.44-.51h-.05l-.4.1-.36-.37c-6.03-6.23-6.61-7.28-6.3-16.86,0-.71.04-1.38.1-1.94.11-1.12.23-1.94.48-2.61.2-.59.72-1.32,1.63-1.33.63.06.99.35,1.33.69.64-5,4.4-5.9,6.4,1.47.96,3.51,1.15,8.32,1.4,12,.78-1.23,1.88-2.79,3.4-4.4,1.16-1.22,2.12-1.99,3.05-2.31.16-.76.29-1.52.39-2.22-1.54-1.2-2.71-1.94-3.64-2.78-1.66-1.53-2.09-3.48-1.7-7.74.15-1.8.36-3.13.65-4.07.27-.88.8-1.86,1.96-1.88,1.37.14,1.95,1.15,3.06,2.58.32.47.66,1.04,1.04,1.63.4-2,1.02-3.41,2.27-4-.92-7.36-2.35-16.53-2.06-20.28.54-5.59,4.69-9.11,7.75-9.17.66,0,1.34.23,1.8.76.43.52.59,1.23.52,2-.26,2.95-2.2,10.94-2.52,14.57,2.74-3.98,5.71-7.87,9.47-7.96.84.02,1.65.27,2.41.75,1.01.6,1.59,1.53,1.49,2.54-.19,1.62-1.47,2.93-3.05,4.69-1.61,1.75-3.63,3.92-5.52,6.63-2.18,3.16-2.95,5.11-3.21,7.16,2.61,2.31,1.98,6.19.3,10.91v.43c0,1.09.13,1.84.27,2.18.05.14.1.19.12.22.14-.03.56-.23,1.05-.73.94-.82,2.09-2.16,3.19-3.29,1.18-1.15,2.12-2.24,3.62-2.32.76,0,1.41.53,1.69,1.2.4.83.53,1.73.45,2.62-.44,4.36-5.27,8.32-7.68,10.25-.25.22-.38.43-.44.94-.09.62.11,1.46.48,2.55,2.79-2.55,3.52.42,2.33,5.96,1.07,2.73,2.25,5.93,3.15,9.62.64,2.73,1.24,4.72,1.72,5.99.19.46.39.84.53,1.09.33-.92.72-3.04.95-5.92.67-8.08,3.79-15.35,4.59-17.16-.86-1.57-1.12-3.31-.95-5.11.69-7.51,7.79-16.73,8.06-21.42.03-.22.05-.44.02-.65-.13-1.89-.74-2.59-1.45-3.32-.66-.68-1.7-1.53-1.56-3.12.15-1.56,1.16-3.47,3.63-6.9,1.52-2.04,2.71-3.55,3.69-4.55.99-1,1.63-1.64,2.72-1.71.77,0,1.24.65,1.36,1.13.14.53.11,1.11.08,1.85-.17,1.9-.87,4.83-1.88,8.51-.48,1.72-.73,3.07-.81,4.04-.09.91.04,1.49.15,1.73.14.22.13.19.3.24.86.15,4.12-2.12,7.39-5.23,2.61-2.37,5.93-3.32,8.52-3.26,2.25.02,4.49.8,4.43,2.95-.25,1.8-2.01,3.35-5.74,5.18-11.92,5.77-13.18,10.15-16.33,14.25-1.32,1.75-2.74,4.43-2.85,5.98.06,1.03.02,1.16,1.04,1.27.77,0,2.22-.33,4.34-1.34,3.95-1.87,6.5-2.73,8.41-2.74,1.28,0,2.33.6,2.78,1.55.45.94.49,2.06.37,3.37-.03.44-.07.87-.16,1.36-.21,1.7-1.48,2.87-2.97,3.45-4.35,1.74-11.97,1.06-14.2,3.38-3.41,3.03-3.47,12.19-6.79,19.77-.41.87-.6,1.54-.65,1.87.68-.22,2.51-1.27,4.47-2.78,2.44-1.76,5.42-4.14,8.43-6.39,2.29-1.71,4.13-2.48,5.7-2.47,2.38.02,3.34,2.14,3.17,4.14-.17,2.02-1.27,4.31-3.25,5.94-2.58,2.11-7.68,4.55-12.39,6.77-2.36,1.11-4.58,2.14-6.29,3-1.67.81-2.96,1.62-2.95,1.71v.02c-.65,1.48-2.17,10.5-3.4,18.87-1.27,8.43-2.35,16.37-2.35,16.41l-.17,1.23-1.15-.51s-1.66-.75-3.36-1.71c-.83-.49-1.68-1.04-2.32-1.62-.63-.58-1.23-1.12-1.22-2.11.07-.76,1.05-5.49,2.22-10.99-2.65,3.22-6.63,5.01-10.03,7.07-5.72,3.47-3.67,1.95-1.05,13.14,2.58,11.2,4.22,7.85,10.35,3.3,6.14-4.53,5.55,1.73.33,7.32-5.21,5.56-1.78,8.5-1.78,8.5,3.07,21.99-8.55.05-11.49-8.14-2.96-8.21-8.47-15.7-5.89-22.19l.02-.03Zm6.47-81.01c-.69,1.88-1.34,3.79-1.85,5.7-3.19,12.14-1.54,12.27,4.09,3.92-.49-3.58-1.03-6.9-2.23-9.62Zm-7.49,50.61c5.39,4.01,6.44-1.73,9-9.81,2.24-6.98,6.63-5.68,7.75,1.2.67-3.09,1.18-5.45,1.35-6.22l-2.65-5.77c-1.86-3.07-3.03-6.25-3.84-9.44-.74.73-1.5,1.35-2.31,1.94.32,0,.63.07.92.18,1.21.31,2.14,1.14,2.06,2.23-.4,2.12-2.86,3.65-5.6,5.59-2.71,1.83-5.81,3.72-7.24,5.07-.8.73-1.43,1.87-1.91,3.19-.68,4.61-.7,9.48,2.46,11.83h0Z"/>
      <path class="cls-22" d="m104.38,668.92c-2.9-6.36,1.92-9.35-5.25-4.66-6.37,4.18-16.14,1.14-23.68-1.4-1.8,1.17-6.64,3.74-10.42-.16-4.76-4.89-10.37-3.62-12.43-11.28-2.05-7.64-1.16-9.34,5.08-1.9.99,1.19,1.77,2.12,2.42,2.88.03-.99.49-1.61,1.26-1.9-1.63-5.02,7.07-6.66,6.55.75v.06c4.29,1.33,9.7,3.7,14.74,5.58,1.02.39,1.91.69,2.65.89-.05-.07-.11-.13-.16-.18-2.15-2.45-3.47-5.5-4.06-7.08-.16-.08-.32-.19-.5-.27-2.19.16-4.03-1.32-5.65-3.16-1.81-2.04-3.54-4.67-5.49-6.82-.61-.68-1.24-1.33-1.9-1.9-2.14-1.88-3.55-2.54-4.3-2.72-.37-.08-.58-.05-.67-.04l-.04.03-.2.37h-.51c-8.68.06-9.83-.24-16.57-7.08-.52-.5-.97-.99-1.34-1.41-.74-.85-1.25-1.51-1.56-2.15-.29-.56-.46-1.44.16-2.1.47-.41.93-.48,1.42-.49-3.18-3.92-1.24-7.25,5.49-3.61,3.2,1.72,6.83,4.9,9.66,7.27-.35-1.41-.72-3.28-.84-5.5-.08-1.68.02-2.9.43-3.8-.44-.64-.9-1.26-1.33-1.81-1.93.28-3.27.62-4.54.72-2.26.15-3.98-.89-6.79-4.11-1.2-1.36-2.02-2.42-2.5-3.27-.45-.8-.79-1.86-.01-2.72,1.05-.9,2.18-.62,3.98-.43.56.09,1.21.24,1.9.37-1.17-1.67-1.76-3.09-1.34-4.4-5.97-4.41-13.61-9.7-16.12-12.5-3.67-4.25-3.36-9.67-1.3-11.93.45-.48,1.09-.81,1.79-.78.67.05,1.3.42,1.81,1,1.95,2.22,6.41,9.14,8.82,11.88-.99-4.73-1.76-9.56.76-12.34.59-.59,1.33-1.01,2.2-1.23,1.13-.32,2.21-.1,2.86.67,1.04,1.25,1.1,3.08,1.29,5.45.16,2.37.34,5.33,1,8.56.78,3.75,1.66,5.67,2.97,7.27,3.47-.29,5.86,2.83,8.12,7.31.1.1.21.18.32.29.79.75,1.42,1.17,1.76,1.31.14.06.21.06.24.06.07-.12.22-.56.19-1.26.06-1.24-.12-3-.18-4.58-.01-1.65-.16-3.08.81-4.22.52-.56,1.35-.66,2.03-.39.88.28,1.62.81,2.21,1.49,2.85,3.33,2.4,9.55,2.12,12.62-.02.33.05.57.38.97.38.49,1.14.93,2.18,1.41.08-3.78,2.73-2.26,5.93,2.43,2.71,1.11,5.85,2.46,9.14,4.36,2.42,1.42,4.29,2.36,5.54,2.89.46.19.88.3,1.15.37-.43-.87-1.71-2.62-3.63-4.78-5.4-6.06-8.52-13.33-9.27-15.15-1.73-.46-3.17-1.47-4.36-2.83-4.97-5.68-6.76-17.18-9.97-20.6-.14-.18-.28-.34-.46-.46-1.46-1.21-2.39-1.26-3.4-1.25-.95,0-2.28.18-3.33-1.03-1.02-1.18-1.71-3.23-2.49-7.39-.43-2.51-.7-4.41-.75-5.81-.04-1.41-.06-2.31.64-3.15.53-.56,1.33-.45,1.76-.21.48.26.88.68,1.4,1.22,1.26,1.43,2.89,3.96,4.87,7.24.91,1.54,1.72,2.64,2.36,3.37.6.7,1.1,1,1.35,1.09.26.05.23.04.38-.05.71-.52,1.3-4.44,1.3-8.95.08-3.53,1.68-6.57,3.51-8.41,1.57-1.62,3.67-2.69,5.2-1.17,1.13,1.42,1.04,3.76-.2,7.72-4.04,12.6-1.73,16.53-.93,21.64.35,2.17,1.32,5.04,2.37,6.19.79.67.85.79,1.63.13.54-.55,1.3-1.84,2.02-4.06,1.36-4.14,2.5-6.58,3.82-7.97.88-.92,2.04-1.28,3.04-.94,1,.32,1.83,1.06,2.7,2.05.29.33.58.65.87,1.05,1.08,1.33,1.06,3.05.45,4.53-1.73,4.34-7.49,9.39-7.34,12.6-.16,4.56,6.45,10.92,9.64,18.55.35.9.7,1.49.91,1.76.31-.64.81-2.69,1.06-5.15.4-2.98.74-6.77,1.19-10.51.35-2.84,1.05-4.69,2.14-5.82,1.66-1.71,3.86-.95,5.2.56,1.34,1.51,2.24,3.89,2.06,6.45-.26,3.32-2,8.7-3.63,13.62-.82,2.47-1.6,4.79-2.16,6.62-.57,1.76-.87,3.26-.8,3.32v.02c.64,1.48,6.13,8.81,11.35,15.47,5.24,6.73,10.24,12.99,10.27,13.02l.77.97-1.16.48s-1.69.68-3.56,1.25c-.92.26-1.91.5-2.77.57-.85.05-1.65.12-2.37-.57-.5-.57-3.25-4.55-6.43-9.19.5,4.14-.95,8.25-1.79,12.13-1.43,6.53-1.12,4,8.8,9.83,9.9,5.86,8.59,2.37,9.53-5.22.95-7.56,5.09-2.81,5.54,4.81.43,7.6,4.93,7.15,4.93,7.15,18.06,12.95-5.87,6.21-13.82,2.69-7.99-3.52-17.23-4.71-20.15-11.05v-.06Zm-37.17-53.34c.88,1.8,1.82,3.58,2.85,5.27,6.6,10.68,7.83,9.58,5.66-.25-2.93-2.12-5.72-4.01-8.51-5.03h0Zm31.52,40.33c6.62-1.13,3.19-5.85-.9-13.28-3.51-6.44.45-8.71,6.22-4.77-1.78-2.62-3.13-4.61-3.57-5.27l-6.01-2.06c-3.5-.77-6.62-2.12-9.48-3.74.01,1.04-.06,2.02-.18,3.01.23-.23.49-.41.76-.54,1.06-.66,2.3-.76,3.04.05,1.26,1.75.67,4.59.19,7.9-.55,3.22-1.31,6.77-1.32,8.73-.02,1.08.37,2.32.99,3.58,2.87,3.67,6.39,7.04,10.27,6.38h-.01Z"/>
      <path class="cls-15" d="m1164.25,598.03c-25.76,3.25-51.68,8.52-77.14,12.2-53.57,7.73-107.74,8.14-161.75,8.54-102.11.76-204.29,1.51-306.24-5.03-73.04-4.68-145.83-13.07-218.61-21.12-128.05-14.16-256.98-27.88-385.73-18.3-6.31.47-12.94.79-19.72,1.11v902.66h1169.18v-880.06h.01Z"/>
      <g class="cls-33">
        <path class="cls-20" d="m638.72,594.36c-1.42,1.41-2.06,3.08-2.44,4.71-.84,3.59-.53,7.2.85,10.49,1.16,2.75,4.33,5.31,1.71,8.46-1.18,1.42-3.02,2.52-4.85,3.54-1.82,1.02-3.71,2.03-5.1,3.35-2.24,2.13-2.89,4.79-3.81,7.3-.91,2.51-2.4,5.19-5.49,6.62-4.21,1.94-10.18.95-13.49,3.64-1.23.99-1.92,2.39-3.52,3-1.58.6-3.38.17-4.8-.42-4.51-1.87-7.55-5.07-10.1-8.35-2.53-3.27-4.7-6.73-8-9.54-.92-.79-1.95-1.53-3.3-1.89-1.33-.36-3.04-.26-4.24.48-1.14.71-1.62,1.87-1.54,2.9s.61,1.97,1.14,2.89c1.96,3.39,3.71,6.93,5.92,10.24.82,1.23,2.22,1.52,3.59,2.39,1.59,1.01,2.96,2.21,4,3.56,3.5,4.57,2.6,10.64,7.5,14.67,2.89,2.37,10.78,4.17,14.17,6.2,8.53,5.12,6.28,16.62,15.64,21.12,5.11,2.46,12.84,2.29,16.38,5.96,2.28,2.36,2.03,5.56,2.83,8.43,1.35,4.77,6.15,8.76,12.32,10.71,2.89.92,6.74,1.77,9.96,1.04,4.52-1.03,8.74-2.74,12.91-4.41,2.91-1.17,5.95-2.42,7.76-4.42,3-3.32,1.71-7.33,2.34-10.93.67-3.88,5.67-5.96,10.53-7.34,4.24-1.21,8.88-2.25,11.9-4.73,2.47-2.03,3.41-4.66,4.79-7.11,1.37-2.45,3.61-5.02,7.2-5.89,1.66-.41,3.5-.4,5.06-1.01,2.29-.89,3.3-2.94,2.84-4.64s-2.13-3.04-4.03-4.09c-1.89-1.04-4.04-1.84-5.94-2.88-4.13-2.24-6.97-5.51-11.47-7.34-5.06-2.06-11.35-1.51-16.03-3.95-3.91-2.04-6.1-5.48-7.19-8.82-1.29-3.99-1.96-8.14-3.89-11.94s-5.32-7.32-10.56-8.81c-3.11-.89-6.68-1-9.71-1.97-4.08-1.31-6.79-4.07-8.23-7.1-1.44-3.03-1.76-6.34-2.05-9.62-.13-1.5-.27-3.04-1.08-4.36-.8-1.32-2.41-2.42-4.5-2.53-2.24-.11-4.57.97-5.99,2.37h0Zm-38.42,56.81c.16.77.17,3.52,0,4.39s-.96,1.84-2.15,1.92c-.95.06-1.68-.49-2.17-1.05-2.45-2.8-2.22-6.72-4.98-9.35-1.42-1.35-3.49-2.21-5.22-3.32-2.71-1.74-3.95-4.38-6.17-6.44-3.46-3.2-5.67-7.41-4.29-7.82,2.09,0,3.56,1.32,4.33,2.69s1.11,2.93,2.22,4.15c.89.99,2.24,1.7,3.4,2.51,4.51,3.16,6.53,7.99,11.27,11.03,1.04.67,2.28,1.27,3.74,1.27h0Zm44.38-54.79c.65,2.61.23,5.38.17,8.09s.31,5.52,2.35,7.63c1.62,1.68,4.3,2.99,4.43,5.14l-6.73,1.11c-.1-2.58-1.13-5-2.19-7.39-1.06-2.37-2.15-4.76-2.39-7.32-.24-2.55.47-5.33,2.7-7.58.18-.18.41-.38.7-.43.56-.09.86.37.95.75Z"/>
        <g class="cls-31">
          <path class="cls-24" d="m613.63,661.18c.87-5.17,2.07-11.41,8.85-14.8,3.33-1.67,7.41-1.91,10.91-3.35,2.72-1.12,4.92-2.79,6.69-4.64,2.15-2.25,3.7-4.72,5.18-7.2.2-.33-.48-.5-.68-.17-2.75,4.56-6.06,9.79-12.76,12.01-3.42,1.13-7.15,1.51-10.24,3.19-2.65,1.45-4.6,3.52-5.86,5.67-1.75,2.97-2.28,6.14-2.8,9.23-.06.34.66.38.72.04h0Z"/>
        </g>
        <g class="cls-31">
          <path class="cls-24" d="m651.02,682.7c10.48-11.66,15.58-25.47,14.47-38.69-.31-3.69-1.12-7.3-2.39-10.8-.12-.32-.83-.07-.71.25,4.5,12.37,2.82,26.2-4.46,38.72-2.06,3.54-4.56,6.96-7.48,10.21-.27.3.31.61.58.31h0Z"/>
        </g>
        <g class="cls-31">
          <path class="cls-24" d="m673.57,669.54c1.78-3.47,4.42-6.75,7.81-9.67.33-.28-.27-.59-.6-.31-3.43,2.95-6.11,6.28-7.91,9.79-.17.34.53.52.7.18h0Z"/>
        </g>
        <g class="cls-31">
          <path class="cls-24" d="m703.21,670.85c-8.75,8.55-21.13,15.09-34.83,18.45-.47.12-.2.61.27.5,13.82-3.39,26.34-10,35.17-18.63.31-.3-.31-.61-.61-.31h0Z"/>
        </g>
      </g>
      <g>
        <path class="cls-22" d="m55.56,1058.59c-.98-3.48-3.84-2.71.49-3.76,3.86-.93,6.63-5.85,8.7-9.71,1.09-.27,3.81-1.2,3.99-4.11.22-3.66,2.82-5.37,1.08-9-1.73-3.62-2.64-3.91-2.59,1.27.01.82.01,1.47.01,2.01-.34-.35-.72-.4-1.11-.21-1.03-2.49-4.94.28-2.29,2.82l.02.02c-1.22,2.16-2.53,5.14-3.86,7.78-.27.54-.51,1-.73,1.36v-.13c.02-1.74-.48-3.38-.77-4.19.04-.1.06-.19.1-.29.9-.79,1.12-2.05,1.14-3.36.03-1.46-.17-3.1-.13-4.65.01-.49.04-.97.11-1.44.21-1.53.53-2.32.76-2.67.12-.17.21-.25.25-.28h.03l.2.05.2-.2c3.38-3.35,3.73-3.91,4.08-9.05.04-.38.05-.74.05-1.04,0-.6-.02-1.04-.11-1.4-.07-.32-.3-.71-.76-.71-.32.03-.52.19-.71.37-.06-2.68-1.91-3.16-3.31.79-.67,1.88-1.02,4.46-1.34,6.44-.33-.66-.8-1.49-1.49-2.36-.52-.66-.97-1.07-1.42-1.24-.04-.41-.07-.81-.08-1.19.84-.65,1.47-1.04,1.99-1.5.92-.82,1.24-1.87,1.27-4.16.02-.97-.02-1.68-.12-2.18-.09-.47-.31-1-.89-1.01-.7.08-1.05.62-1.68,1.38-.19.25-.39.56-.61.87-.1-1.07-.34-1.83-.94-2.15.85-3.95,2.06-8.87,2.1-10.89.02-3-1.9-4.88-3.44-4.91-.33,0-.69.13-.95.41-.24.28-.36.66-.37,1.07-.02,1.58.54,5.87.51,7.82-1.18-2.13-2.48-4.22-4.38-4.27-.42.01-.85.15-1.26.4-.54.32-.89.82-.89,1.36.01.87.59,1.57,1.3,2.51.72.94,1.63,2.1,2.44,3.55.94,1.69,1.23,2.74,1.25,3.84-1.44,1.24-1.33,3.32-.72,5.86,0,.08-.02.15-.03.23-.06.59-.16.98-.25,1.17-.03.07-.06.1-.07.12-.07-.02-.27-.12-.49-.39-.43-.44-.95-1.16-1.45-1.76-.54-.61-.96-1.2-1.71-1.24-.39,0-.74.28-.92.64-.25.45-.36.93-.36,1.41,0,2.34,2.23,4.46,3.35,5.49.12.12.17.23.17.51.01.33-.13.79-.38,1.37-1.28-1.37-1.8.23-1.49,3.2-.68,1.46-1.45,3.18-2.1,5.16-.47,1.46-.88,2.53-1.19,3.22-.12.25-.24.45-.32.58-.12-.49-.2-1.63-.17-3.18.08-4.34-1.11-8.24-1.42-9.21.52-.84.74-1.78.75-2.74.04-4.03-3.06-8.97-2.95-11.49,0-.12,0-.23.03-.35.17-1.01.51-1.39.91-1.78.37-.37.94-.82.95-1.68,0-.83-.4-1.86-1.48-3.7-.66-1.09-1.19-1.9-1.63-2.44-.45-.54-.74-.88-1.29-.91-.39,0-.66.35-.75.61-.1.28-.12.6-.14.99-.01,1.02.19,2.59.51,4.57.16.92.21,1.64.2,2.17,0,.49-.1.8-.16.93-.09.12-.07.1-.16.13-.44.08-1.97-1.14-3.46-2.8-1.2-1.27-2.82-1.78-4.15-1.75-1.14.01-2.31.43-2.39,1.59.03.96.84,1.8,2.63,2.77,5.74,3.09,6.14,5.44,7.52,7.64.58.94,1.16,2.38,1.13,3.21-.08.55-.07.62-.59.68-.39,0-1.11-.18-2.12-.71-1.9-1-3.14-1.46-4.12-1.47-.65,0-1.21.32-1.49.84-.28.51-.36,1.1-.37,1.81v.73c.02.91.6,1.54,1.32,1.85,2.11.93,6.01.56,7.01,1.81,1.57,1.62,1.12,6.54,2.4,10.61.16.47.22.82.23,1-.33-.12-1.2-.68-2.11-1.49-1.14-.95-2.52-2.22-3.94-3.42-1.07-.91-1.96-1.33-2.75-1.32-1.21.01-1.8,1.15-1.82,2.23s.42,2.31,1.33,3.18c1.2,1.13,3.65,2.44,5.92,3.63,1.13.6,2.2,1.15,3.02,1.61.8.43,1.41.87,1.4.92h0c.25.81.54,5.65.73,10.13.2,4.52.33,8.78.33,8.8l.02.66.61-.27s.88-.4,1.79-.92c.44-.26.91-.56,1.26-.87.35-.31.68-.6.73-1.13,0-.41-.24-2.94-.55-5.89,1.17,1.73,3.09,2.68,4.71,3.79,2.71,1.86,1.76,1.04-.16,7.05-1.89,6.01-2.54,4.21-5.42,1.77-2.87-2.43-2.9.93-.55,3.93,2.34,2.98.46,4.56.46,4.56-2.7,11.8,4.33.02,6.24-4.37,1.93-4.41,5.12-8.43,4.15-11.91v-.03Zm-3.26-34.16c.25,1.01.48,2.03.64,3.06.98,6.51.14,6.58-2.27,2.11.43-1.92.88-3.7,1.63-5.16h0Zm1.14,27.15c-2.93,2.16-3.17-.92-4.05-5.26-.77-3.74-3.05-3.04-3.99.65-.18-1.66-.31-2.92-.36-3.34l1.64-3.1c1.1-1.65,1.86-3.35,2.43-5.07.34.39.69.72,1.07,1.04-.16,0-.32.04-.48.1-.63.17-1.14.61-1.16,1.2.09,1.14,1.26,1.96,2.54,3,1.28.98,2.74,1.99,3.39,2.72.37.39.62,1,.8,1.71.1,2.47-.14,5.08-1.86,6.35h.01Z"/>
        <path class="cls-22" d="m76.93,1044.26c-4.63,2.01-4.23-.35-.05-6.4,4.18-6.04,2.17-5.75,1.34-10.25s-.01-2.13,3.11-5.47c3.14-3.34-.98-5.07-2.73-6.65-1.76-1.59-.99,3.08-2.06,7.02-1.07,3.94-4.23-.35-6.2-2.87-1.96-2.53-.76-3.07,1.2-8.7,1.96-5.64-2.93-3.88-2.93-3.88,0,0,.44.84-1.88,8.67-2.31,7.84.58,6.38,4.52,10.37,3.95,3.99,4.03,8.63,2.16,12.33-1.88,3.71-6.02,6.93-4.71,12.1,1.3,5.17-1.32,7.96-3.55,11.73-2.24,3.78-14.31,12.3-14.31,12.3,0,0-2.65,5.62,5.34.14,7.98-5.47,16.15-13.71,17.08-16.1.93-2.4-.14-3.94.47-8.01.6-4.08,3.53-.22,5.9-1.65,2.36-1.44,1.95-6.71-2.67-4.69h-.02Z"/>
        <path class="cls-22" d="m7.39,1038.83c-.28-.25-.58-.27-.94.08-1.99,2.02-.1,5.84.94,7.62v-7.7Z"/>
        <path class="cls-22" d="m7.46,1013.11c.17,1.25.61,2.93,1.41,5.15,1.09,3.01,2.17,4.89,3.05,6.32.34,1.36,1.32,3.34,1.9,5.98-.08.86-.28,1.9-.62,3.18-1.39,5.37-2,6.61-2.28,8.81-1.63,3.16-2.27-2.38-3.47-3.66v7.75h0c.21.35.18.74,0,1.2v4.31c.99-1.71,1.99-3.26,3.21-4.46-.14,5.45-.56,7.61-3.21,12.05v6.26c.71-1.26,1.6-2.74,2.74-4.44,3.02-4.59,3.7-7.13,3.74-8.74.02-1.05-.25-1.71-.23-1.92.03-.1-.03-.06.19-.24,1.66-1.21,2.75-3.39,2.77-3.41l.04-.08v-.08c.2-2.03,4.92-6.06,8.56-8.49,1.41-.97,2.08-1.81,2.1-2.74-.05-1.49-1.41-2.38-2.14-3.81-.18-.37-.54-.64-.95-.62-.75.05-1.3.64-1.98,1.44-1.16,1.38-2.58,3.64-4.11,5.81-.69.56-1.5,1.24-2.43,2.05-.38.32-.65.51-.85.6.28-.71.59-1.5.92-2.32.46-1.18.96-2.44,1.38-3.63,2.16-3.98,4.97-8.81,5.62-10.85,1.34-4.22-2.16-7.38-2.94-4.94-.49,1.56-1.24,6.16-1.89,8.38-.54-2.66-1.76-4.55-1.69-5.76.03-1.96,1.26-5.33,3.15-9.44.75-1.67,1.18-2.56,1.21-3.42-.03-1.37-1.01-1.89-2.82-3.78-.8-.77-1.27-1.24-1.93-1.28-.6.02-.88.57-.97,1.04-.35,1.5-.17,4.73-.61,9.88-.13,1.53-.26,2.57-.38,3.21-.01.04-.02.07-.03.1-.48-1.27-1.18-4.2-2.31-6.07-.92-1.47-1.87-2.46-2.91-2.49-.39-.02-.78.23-.98.59-.11.18-.18.39-.23.62v1.93h-.01Z"/>
        <path class="cls-22" d="m28.8,1050.33c-.09.01-.19.01-.28.02-1,.14-2.34,1.14-3.68,2.21,1.94-2.75,3.92-6.4,4-9.59.01-.48-.02-.93-.1-1.39-.18-.89-.34-1.54-.54-2.01-.2-.44-.41-.86-.96-.89-.75.1-.99.71-1.44,1.57-.4.89-.87,2.16-1.45,3.79-.8,2.29-1.66,4.66-2.37,6.47-.07.18-.15.36-.21.54-.05-1.14-.29-2.33-.68-3.3-.47-1.12-1.12-2.09-2.19-2.12-.07,0-.16,0-.24.03-.64.12-.96.7-1.12,1.3-.18.6-.25,1.37-.27,2.22-.04,2.55.38,5.94.35,7.61.06,1.03-2,3.19-4.49,5.36-1.96,1.75-4.13,3.61-5.64,5.39v7.24c1.86-4.13,4.58-7.32,7.91-9.18,3.71-2.05,4.37-3.5,5.59-6.25.97-2.38,6.03-2.89,8.83-4.82,1-.73,1.52-1.5,1.54-2.27,0-1.28-1.26-1.95-2.53-1.93h-.01Z"/>
        <path class="cls-22" d="m7.39,1067.62c-.36.43-.69.85-.96,1.27-.36.56-.68,1-.94,1.29.23-.75.83-2.13,1.9-4.05v-6.27c-.3.49-.61,1.01-.96,1.57-3.77,5.92-8.66,18.47-8.67,18.49l-.02.04v.06c-.1.55-.15,1.05-.16,1.46,0,.71.09,1.26.35,1.66.25.42.71.62,1.16.62h.04c1.32-.06,2.84-1.31,4.39-2.92,1.51-1.61,2.91-3.61,3.61-5.29.09-.21.19-.41.28-.61v-7.31h-.02Z"/>
        <path class="cls-22" d="m7.39,1052.29v-4.28c-.86,1.78-4.15,4.46-7.18,8.94-3.92,5.77-4.5,4.89-2.85-.3,1.65-5.2,1.4-10.41,1.4-10.41,4.2-3.38.8-12.89,2.41-16.33,1.6-3.43,4.27-.35,2.63-7.21-1.63-6.85-2.51-4.62-3.36,1.87-.84,6.49-2.77,3.78-4.87-.54-2.09-4.34-9.21-4.29-4.11.92,5.11,5.23,4.87,8.18,5.58,10.86.71,2.68.69,7.65-3.51,3.41-4.2-4.24-5.2-3.3-6.02-.17-.81,3.13,6.31,3.61,7.55,6.28,1.23,2.67-.88,7.72-.81,12.36.09,4.63-2.68-.79-5.8-5.78-3.1-4.98-5.5-.18-3.83,2.78,1.65,2.97,8.61,8.91,8.95,10.06.32,1.17-4.92,20.92-4.92,20.92,0,0,4.18-.56,4.49-1.53.3-.98,3.39-17.81,3.39-17.81l2.83-2.89c3.92-3.23,5.95-7.54,8.02-11.15h-.01Z"/>
        <path class="cls-22" d="m171.9,1060.19c.98,4.14,2.38,9.43,6.37,11.04,4.49,1.8,1.55.54-.74,3.76-2.3,3.21-.13,7.7.5,12.34.12.91.37,2.14.69,3.43h4.64c.28-.68.91-1.5,2.24-2.41,3.65-2.49,4.79-5.77.74-3.91-4.06,1.85-5.4,3.48-5.46-2.72-.05-6.2-1.4-5.58,2.25-6.89,2.2-.8,4.69-1.37,6.6-2.84-1.36,2.81-2.52,5.25-2.66,5.63-.13.53.15.87.43,1.24.3.36.71.73,1.13,1.06.82.68,1.68,1.23,1.68,1.23l.58.38.25-.64s1.62-4.14,3.4-8.52c1.78-4.34,3.79-9.01,4.33-9.72l.02-.02s.84-.36,1.89-.63c1.08-.3,2.47-.65,3.95-1.03,2.93-.75,6.15-1.58,7.87-2.46,1.34-.68,2.23-1.8,2.6-2.87.34-1.05.08-2.26-1.28-2.49-.88-.16-2.01.1-3.52.78-2,.93-4,1.92-5.59,2.63-1.31.62-2.47,1.01-2.88,1.07.07-.17.26-.51.61-.94,2.83-3.73,4.03-8.6,6.35-9.91,1.54-1.02,5.78.04,8.46-.49.9-.18,1.8-.68,2.12-1.57.1-.24.19-.48.26-.7.23-.69.35-1.29.22-1.83-.14-.56-.67-.96-1.39-1.09-1.07-.16-2.63.06-5.11.7-1.32.33-2.19.4-2.62.3-.56-.15-.52-.22-.43-.77.27-.81,1.41-2.12,2.38-2.91,2.31-1.89,3.57-4.11,11.05-6.1,2.33-.63,3.54-1.29,3.92-2.23.29-1.13-.87-1.75-2.14-1.98-1.47-.26-3.46-.06-5.23.97-2.27,1.34-4.39,2.26-4.85,2.1-.11-.05-.1-.01-.15-.16-.03-.13-.02-.46.14-.94.18-.5.49-1.21.98-2.07,1.05-1.87,1.81-3.36,2.14-4.36.12-.38.19-.7.18-.98.01-.27-.18-.66-.62-.72-.62-.07-1.07.22-1.75.65-.69.45-1.55,1.13-2.66,2.1-1.86,1.6-2.67,2.52-2.95,3.34-.28.84.2,1.38.5,1.8.3.45.55.89.4,1.91-.02.1-.05.23-.09.34-.75,2.47-5.95,6.73-7.29,10.65-.31.95-.41,1.9-.11,2.81-.68.88-3.36,4.47-4.79,8.71-.49,1.52-.97,2.62-1.29,3.07-.04-.14-.1-.36-.15-.63-.12-.71-.21-1.82-.23-3.34-.04-2.04-.3-3.86-.55-5.41,1.37-2.84,1.35-4.48-.58-3.38-.06-.62-.06-1.09.06-1.41.09-.27.19-.38.37-.46,1.61-.81,4.85-2.47,5.65-4.76.16-.47.2-.96.08-1.44-.07-.38-.36-.72-.8-.78-.86-.1-1.53.39-2.34.88-.77.52-1.59,1.12-2.22,1.48-.34.21-.61.28-.69.29-.02,0-.03-.05-.04-.14-.03-.19-.03-.59.11-1.18.02-.09.03-.16.06-.24,1.55-2.36,2.4-4.36,1.22-5.83.4-1.08,1.09-2.05,2.73-3.51,1.42-1.28,2.82-2.23,3.96-3.02,1.13-.81,2.02-1.38,2.34-2.22.18-.54-.04-1.07-.53-1.49-.36-.32-.79-.54-1.26-.61-2.14-.31-4.33,1.5-6.4,3.36.65-1.92,2.77-5.99,3.29-7.53.13-.41.13-.8-.05-1.11-.2-.31-.55-.51-.92-.57-1.73-.25-4.54,1.24-5.55,4.17-.64,1.97-1,6.99-1.4,10.99-.8.2-1.34.89-1.8,1.93-.14-.35-.26-.69-.39-.97-.45-.87-.65-1.44-1.4-1.66-.66-.08-1.08.38-1.35.82-.29.49-.57,1.16-.89,2.11-.76,2.23-.76,3.31-.01,4.28.42.54.99,1.05,1.72,1.81-.16.38-.33.76-.52,1.14-.56.1-1.2.42-2.02.96-1.06.73-1.89,1.45-2.48,2.02.32-1.97.81-4.55.73-6.51-.19-4.11-2.43-3.97-3.43-1.36-.14-.23-.32-.41-.67-.5-.51-.07-.91.27-1.09.56-.22.32-.41.76-.61,1.35-.1.3-.2.64-.3,1.03-1.4,5.07-1.2,5.68,1.42,9.55l.15.23.25-.02h.03c.04.05.1.12.18.33.13.38.22,1.21-.07,2.74-.09.46-.22.94-.38,1.42-.5,1.51-1.29,3.08-1.75,4.5-.43,1.28-.62,2.56.11,3.49v.31c-.61.74-1.73,2.25-2.3,3.94-.02.05-.03.09-.04.13-.12-.39-.24-.87-.37-1.45-.56-2.82-.99-5.96-1.6-8.28h.03c3.84-2,.42-5.42-1.59-3.17-.37-.26-.82-.28-1.32,0,.19-.52.42-1.15.71-1.96,1.84-5.04.75-4.92-2.45-1.7-3.2,3.22-.89,5.36-1.91,8.97-.81,2.87,1.91,4.26,3.04,4.71h-.03Zm19.32-15.04c.52-.98,1.13-1.94,1.76-2.87.33,1.56.22,3.38.05,5.33-4.26,3.93-5.18,3.72-1.81-2.46Zm-8.8,16.86c.45-.65.95-1.21,1.49-1.52.98-.58,2.97-1.32,4.75-2.05,1.78-.78,3.38-1.36,3.88-2.45.19-.59-.23-1.1-.87-1.38-.15-.08-.33-.13-.5-.18.52-.24,1.04-.5,1.55-.83.04,1.77.3,3.58.96,5.38l.77,3.31c-.19.4-.78,1.61-1.55,3.18.24-3.76-2.07-4.86-4.24-1.34-2.48,4.07-3.8,7.02-6.35,4.4-1.48-1.54-.85-4.13.11-6.52h0Z"/>
        <path class="cls-22" d="m153.94,1061.25c2.15,1.83,6.78-1.42,6.03,2.67-.73,4.08-2.46,5.4-2.25,7.9.22,2.5,6.51,12,13.54,18.78.06.06.11.11.17.16h5.19c-2.31-2.35-10.09-10.44-11.1-13.92-1.21-4.08-3.16-7.26.08-12.07,3.25-4.8-.26-8.69-1.07-12.64-.83-3.95.88-8.45,6.67-11.63,5.78-3.18,8.51-1.24,8.63-9.29.13-8.06.9-8.78.9-8.78,0,0-4.87-2.61-4.62,3.23.24,5.84,1.41,6.58-1.67,8.69-3.08,2.1-8.1,5.71-7.93,1.68.16-4.03,2.64-8.42.13-7.21-2.51,1.22-7.72,2.17-5.38,5.99,2.36,3.81,4.09,1.65,1.6,5.89-2.48,4.23-4.61,3.57-2.04,10.23,2.59,6.65,2.21,9.02-2.26,6.23-4.48-2.8-6.77,2.25-4.62,4.08h0Z"/>
        <path class="cls-22" d="m63.66,1082.56s15,7.41,18.58,8.1c.18.03.34.07.48.09h1.4c.4-.4.39-1.73,4.42-4.63,6.3-4.55,5.86-.41,8.85-1.67,3-1.24,2.09-2.76,8.07-1.36s4.62-3.61,3.02-5.67c-1.61-2.07-2.21,2.01-3.33.61-1.11-1.39-3.34-2.57,2.35-3.57,5.7-.99.66-2.65-1.51-2.92-2.17-.27-2.58-.05-.81-2.9,1.77-2.85,3.76-5.28,3.76-5.28,1.1-.29,2.06-1.04,2.87-1.94.03.13.06.26.11.39,0,0,.26,6.52,4.15,8.2,0,0,1.38,2.72,2.37,5.83,1,3.1.61,2.8-1.91,2.68-2.51-.11-8.71.59-2.68,2.58,6.03,2,3.12,2.75,1.39,3.91-1.74,1.15-1-2.94-3.5-1.2-2.51,1.71-5.77,6.35,1.4,6.07,4.18-.17,5.4.2,6.27.9h12.73c-.37-.14-.75-.32-1.17-.58-3.9-2.51-6.78-.93-7.41-5.39-.61-4.48-.02-3.52,4.03-5.88,4.06-2.36,4.63-3.41-.97-2.09-5.62,1.32-4.07,1.85-5.26-1.9-1.2-3.74-1.4-5.91-1.4-5.91,0,0-.4-.81,2.49-2.06s5.43.21,4.24-3.7c-1.2-3.92-6.39-.12-8.69,1.91-2.31,2.04-.6-.78-2.18-5.34-.43-1.25-1.01-1.88-1.59-2.09.45-.96.7-1.65.7-1.65,1.92-2.81.05-6.72-2.65-2.55-2.71,4.17-2.11,7.19-3.44,4.84-1.34-2.34-4.61-6.84-6.79-3.23s.39,2.61,2.46,4.26c2.07,1.68,1.5,2.39,1.5,2.39,0,0-.82,2.06-2.97,5.52-2.13,3.45-.66,3.17-5.01,1.01s-4.17-1.04-1.45,1.88c2.71,2.92,3.49,2.08,1.62,6.33-1.86,4.24-3.83,2.24-7.88,4.08-4.06,1.83-4.56-2.05-6.58-4.41-2.03-2.36-1.53-.63.75-5.1s-.67-3.92,7.71-5.18c8.38-1.28,8.69-2.25,8.15-4.89-.55-2.65-5.92.04-9.61.73-3.69.7.57-3.91,2.64-7.74,2.07-3.82,2.77-3.26,2.77-3.26,5.51-2.64,13.58-4,17.68-5.99,4.12-2,2.34-4.63,2.34-4.63.76-4.57-9.22,2.79-12.43,4.16-3.2,1.37,9.94-9.5,11.56-14.53,1.26-3.97,1.23-5.23,2.15-7.11,1,1.35,2.12,2.59,2.71,4.3,1.19,3.42.42,3.99.47,9.18.04,5.19,11,18.15,7.89,16.24-3.12-1.91-11.74-10.89-12.46-6.3,0,0-2.89,2.26,1.01,4.94,3.91,2.69,12.45,5.47,17.7,9.03,0,0,.96-.42,1.97,3.68.99,4.1,4.15,9.36.26,8.02s-8.96-4.94-10.49-2.45c-1.52,2.48-1.51,3.48,7.42,6.24,8.94,2.74,5.83,1.67,6.84,6.45,1,4.78,2.16,3.16-.92,5.1-1.88,1.18-3.32,3.02-5.06,3.69h16.25c-.24-.7-.1-1.39.63-2.03,3.86-3.34,8.45-8.93,3.02-8.64-5.41.3-3.79,9.71-7.58-3.04,0,0-2.13-.81,1.89-4.01,4.05-3.2,4.82-3.43,2.65-6.59,0,0-.6-2.63-4.84,1.25-4.23,3.88-3.74-6.88-3.96-10.21,0,0,4.62-2.91,8.1-3.89,3.47-.96,3.65-1.65,4.99-4.78s3.6-8.7-.46-8.85c-4.08-.14-3.05,5.96-3.23,7.49-.17,1.52-3.09,1.27-6.18,1.71-3.09.43-2.33-.47-2.38-6.34-.05-5.85,1.91-2.67,6.73-5.43,4.83-2.76,3.88-2.01,7.1-7.98,3.25-5.97,7.28-9.68,8.98-14.34,1.7-4.68-.68-11.83-3.37-8.93-2.68,2.91-3.67,1.32-2.66,6.58,1.02,5.29-1.65,10.04-3.22,7.66s.92-4.94-2.22-9.03c-3.13-4.08-5.99,1.86-4.82,3.1,1.18,1.24,5.49,6.58,3.78,10.9-1.7,4.33-1.49,6.16-6.71,7.78-5.22,1.62-4.85.41-6.61-2.45-1.77-2.87-7.63-8.9-6.5-13.51,1.12-4.63,3.64-4.84,7.47-8.86,3.84-4.01,3.28-2.79,4.38-8.93,1.11-6.13,3.98-11.73.68-10.61-3.29,1.12-5.6,1.65-5.38,5.15.22,3.5-4.15,14.25-4.01,7.89.14-6.39,3.16-15.2.25-15.28-2.89-.08-6.56,2.24-6.71,6.44-.17,4.2,1.61,8.41,2.99,11.14,1.37,2.73-.15,3.87-3.61,7.53-3.46,3.64-1.49,6.14.08,9.36,1.58,3.23,8.06,14.06,8.3,18.06.22,4,.92,16.84-1.83,13.06-2.73-3.79-9.12-3.58-10.22-17.21-1.09-13.65-3.17-8.61-4.2-15.56-.12-.79-.3-1.47-.53-2.06,1.31-1.2,2.57-2.5,3.35-4.68,1.5-4.17-3.48-5.98-6.44.59-.17.39-.34.73-.49,1.04-1.59-.03-2.99,1.26-2.88,3.36,0,.13.03.25.04.38-1.06,1.15-2.38,3.11-4.9,9.67-5.03,13.06-10.36,11.86-13.82,15.1-3.46,3.25.99-9.1,2.38-12.95,1.4-3.85,10.13-13.36,12.45-16.23,2.3-2.88,4.72-5.01,2.89-9.08-1.83-4.08-2.79-5.42-.81-7.86s4.77-6.24,5.89-10.35c1.13-4.1-1.27-6.92-3.76-7.31-2.49-.37-2.57,8.66-4.37,14.87-1.81,6.21-2.26-4.92-1.02-8.28,1.24-3.36-.56-4.24-3-5.84-2.43-1.6-1.71,4.28-2.6,10.41-.91,6.11-1.02,4.84,1.01,9.34,2.05,4.5,4.11,5.11,3.67,9.76-.43,4.67-7.21,9.59-9.56,12.1-2.35,2.5-2.4,3.73-6.33,1.34s-3.19-4.13-3.34-8.6c-.13-4.47,5.11-8.97,6.47-9.99,1.37-1.02.74-7.23-3.14-3.77-3.89,3.48-2.53,6.36-4.59,8.42-2.04,2.05-2.87-2.97-.43-7.94,2.45-4.95,1.13-3.56-.26-6.81-1.4-3.25-5.58,3.34-5.54,8.14.04,4.79,2.33,9.01,3.28,15.32.95,6.3.37,5.43,3.6,8.86,3.25,3.43,5.87.65,4.07,6.33-1.8,5.67-1.43,6.68-3.93,5.77-2.47-.91-5.02-1.12-4.7-2.62.29-1.5,2.99-7.27-.5-7.76-3.48-.49-3.22,5.25-3.03,8.51.18,3.24.13,3.94,2.77,5.42,2.66,1.49,5.7,5.04,5.7,5.04-1.19,3.19-4.01,13.72-6.41,9.29-2.42-4.43-3.71-1.97-3.71-1.97-2.77,2.72-2.19,3.08.25,6.81,2.46,3.74.41,4.2.41,4.2-7.03,11.77-2.83,2.9-7.33,1.76-4.49-1.13-2.28,5-.03,8.86,2.24,3.84-9.56,6.59-9.56,6.59l.06-.02Z"/>
        <path class="cls-22" d="m224.93,1070.79l-.02.08.02.08s.47,2.35,1.91,3.83c.19.21.15.17.14.27-.04.21-.57.79-.91,1.82-.53,1.57-.65,4.19,1.15,9.19.65,1.81,1.14,3.38,1.49,4.7h3.87c-.33-1.53-.69-2.95-1.1-4.15-2.06-6.18-1.94-8.18,0-14.16,2.99,4.35,2.34,11.65,7.21,17.38l.6.93h7.52c3.24-1.85,9.25-4.86,11.4-6.78,2.88-2.59,1.86-7.7-3.33-3.41-5.19,4.31-10.18,9.09-8.48,4.59,1.71-4.5,1.08-9.82,3.38-12.19s10.45-1.56,10.62-4.77c.17-3.19-.62-4.29-6.78-.92-6.19,3.38-4.48-1.46-2.75-3.96,1.72-2.48,2.48-5.39,9.99-9.57,7.51-4.16-.45-5.48-4.28-1.63-3.84,3.84-6.93,6.11-5.63-.35,1.31-6.48,1.09-8.81-3.11-2.42-4.21,6.4-.16,3.87.46,7.5.61,3.64-6.48,12.3-2.96,16.34,0,0-2.09,5.04-2.03,10.39.04,5.36-.91,6.11-3.29-.22-2.38-6.33-6.29-9.85-4.56-11.34,1.72-1.49,5.38-4.99,3.82-7.37-1.5-2.27-5.37,6.94-6.27,2.76.44-2.2.2-3.52.49-9.01.07-1.31.21-2.36.42-3.21,1.57-2.48,3.36-4.23,4.2-5.49,1.48-1.24,3.35-2.87,5.61-5.61,2.25-2.73,3.43-4.62,3.86-5.9.17-.55.23-1,.12-1.38-.1-.4-.46-.7-.9-.77-1.17-.15-2.57.66-4.13,1.92-1.9,1.63-3.71,4.34-4.69,5.49v-.1c.08-.64.3-1.68.69-3.2,1.29-5.09,2.61-8.22,2.74-9.73.07-.48-.07-1.08-.73-1.2-.76-.08-1.44.28-2.61.91-2.66,1.5-3.97,1.82-4.47,3.17-.27.84-.09,1.79.17,3.55.69,4.34.91,7.86.25,9.78-.34,1.19-2.36,2.81-3.87,5.3.05-2.28.79-6.9.78-8.51-.02-2.52-5.04-.07-5.01,4.28.03,2.11,1.48,7.33,2.53,11.59.05,1.24.16,2.56.28,3.8.08.84.16,1.67.21,2.41-.19-.13-.44-.36-.73-.74-.77-.95-1.43-1.76-2.01-2.44-.95-2.39-1.76-4.84-2.57-6.41-.5-.89-.88-1.56-1.72-1.75-.44-.1-.95.11-1.29.44-1.3,1.26-3.13,1.88-3.69,3.32-.29.91.16,1.85,1.4,3.06,3.22,3.01,7.1,7.79,6.62,9.81h-.02Z"/>
        <path class="cls-22" d="m215.94,1081.95c.42,2.89.65,4.44,4.09,7.1.65.51,1.24,1.09,1.79,1.7h5.43c-1.02-1.54-2.3-3.14-3.47-4.66-2.03-2.56-3.58-5.04-3.17-6.04.55-1.63,2.2-4.86,3.02-7.34.28-.83.46-1.59.48-2.23.01-.6-.14-1.23-.81-1.46-.08-.03-.17-.06-.26-.07-1.22-.17-2.28.65-3.18,1.65-.77.89-1.46,2.01-1.91,3.11-.02-.18-.04-.37-.05-.56-.17-1.88-.32-4.35-.42-6.73-.07-1.7-.15-3.01-.31-3.96-.2-.91-.26-1.54-1.06-1.79-.63-.07-1.02.3-1.39.7-.38.43-.8,1.04-1.29,1.86-.26.42-.46.87-.6,1.33-1.01,3.13-.07,7.04,1.15,10.07-1.13-1.28-2.29-2.51-3.35-2.81-.11-.04-.21-.06-.32-.08-1.4-.24-3.03.17-3.49,1.41-.24.77.06,1.6.94,2.49,2.46,2.38,7.94,3.8,8.2,6.28v.03Z"/>
      </g>
      <g>
        <path class="cls-9" d="m120.2,596.27l5.38,3.11c.18.11.45.1.59-.02l8.27-6.53c.14-.12.11-.29-.07-.4l-5.38-3.11c-.18-.11-.45-.1-.59.02l-8.27,6.53c-.14.12-.11.29.07.4Z"/>
        <path class="cls-6" d="m168.58,596.18c3.11,1.48,7.78,7.53,7.78,7.53,2.43-1.8,15.6-4.69,17.93,3.61.61,2.18-18.02,24.24-24.03,23.82-6-.41-21.88-3.9-24.53-5.49-2.65-1.59-5.47-5.36-5.47-5.36,0,0-4.92,1.79-6.81.26-1.89-1.52-1.56-7.05-1.56-7.05,0,0-5.47.94-6.96.31-1.49-.63-1.75-2.67-1.75-2.67l2.39-11.7s9.24-7.78,9.47-7.72,3.11-2.36,5.86-.91c2.73,1.45,2.77,5.89,2.77,5.89,0,0,6.87-5.11,10.49-4.5,3.63.61,3.59,4.95,3.59,4.95,0,0,6.11-3.22,10.82-.98h.02Z"/>
        <path class="cls-29" d="m168.58,596.18c3.11,1.48,7.78,7.53,7.78,7.53,2.43-1.8,15.6-4.69,17.93,3.61.61,2.18-18.02,24.24-24.03,23.82-6-.41-21.88-3.9-24.53-5.49-2.65-1.59-5.47-5.36-5.47-5.36,0,0-4.92,1.79-6.81.26-1.89-1.52-1.56-7.05-1.56-7.05,0,0-5.47.94-6.96.31-1.49-.63-1.75-2.67-1.75-2.67l2.39-11.7s9.24-7.78,9.47-7.72,3.11-2.36,5.86-.91c2.73,1.45,2.77,5.89,2.77,5.89,0,0,6.87-5.11,10.49-4.5,3.63.61,3.59,4.95,3.59,4.95,0,0,6.11-3.22,10.82-.98h.02Z"/>
        <path class="cls-4" d="m146.99,594.56c-.16.39,3.05,7.94-.19,10.72s-15.41,4.74-15.13,4.67,11.88-2.56,12.41-5.06c.52-2.51-.4-8.18-.4-8.18l3.31-2.15h0Z"/>
        <path class="cls-4" d="m179.81,602.36c.72.44,5.26,1.72,4.83,7.02-.11,1.32-7.6,10.48-11.84,11.36-.88.18,8.22-9.02,6.77-11.23s-3.22-5.79-3.22-5.79c.89-.55,2.08-.98,3.45-1.35h0Z"/>
        <path class="cls-5" d="m158.4,600.57c.23,1.98,1.26,3.94,1.34,5.92.07,1.75-.83,3.3-2.46,4.56-3.86,2.98-10.2,3.82-14.16,6.72-.25.18-.75-.08-.5-.26,3.77-2.75,9.66-3.64,13.57-6.28,1.95-1.32,3.08-2.96,2.94-4.91-.13-1.91-1.1-3.8-1.33-5.7-.03-.26.57-.29.6-.02h0v-.02Z"/>
        <path class="cls-5" d="m141.38,620.93c3.35-1.08,6.7-2.17,10.05-3.25.34-.11.59.27.25.39-3.35,1.08-6.7,2.17-10.05,3.25-.34.11-.59-.27-.25-.39h0Z"/>
        <path class="cls-5" d="m132.12,613.4c3.29-.94,6.58-1.89,9.86-2.84.35-.1.6.29.25.39-3.29.94-6.58,1.89-9.86,2.84-.35.1-.6-.29-.25-.39h0Z"/>
      </g>
      <g class="cls-30">
        <path class="cls-13" d="m1166.13,720.86c-8.71,1.32-17.61,2.53-26.92,3.19-47.05,3.32-94.07,6.91-141.01,11.21-23.94,2.19-48.13,4.58-70.78,11.64-22.17,6.91-42.28,18.11-64.41,25.1-25.39,8.03-49.48,7.42-75.9,7.44-28.03.02-55.04,1.7-82.22-5.98-26.69-7.54-51.35-24.02-60.34-47.03-3.15-8.08-4.31-16.64-6.96-24.85-2.65-8.21-7.2-16.43-15.29-21.3s-20.38-5.22-27.07,1.04c-8.85,8.29-4.03,22.63-11.62,31.82-4.72,5.71-13.41,8.11-21.5,7.79-8.09-.31-15.8-2.92-23.34-5.5-18.8-6.42-37.53-15.69-57.6-15.12-19.65.56-40.21.48-58.15,8.45-14.47,6.5-26.19,19.31-25.68,33.41.12,3.52,1.07,7.15,3.64,9.87,4.52,4.79,12.54,5.5,19.67,5.79,25.42,1.05,50.89,1.52,76.34,1.42,3.19-.01,6.45-.03,9.48.83,3.21.91,5.96,2.74,8.63,4.54l20.88,14.05c3.66,2.47,7.43,4.98,11.84,6.23,4.54,1.29,9.42,1.16,14.19,1.03,13.02-.38,26.03-.74,39.05-1.08,31.35-.82,65.76-.68,89.9,16.65-23.89,20.66-70.97,11.82-101.08,9.51-30.39-2.33-62.97-2.74-89.05,10.98-3.98,2.09-8.23,5.63-6.85,9.47,1.31,3.66,6.66,4.63,11.06,4.97,43.58,3.33,87.32,5.22,131.07,5.66,30.8.31,61.65-2.78,92.16-3.25,34.08-.53,67.76,8.88,98.98-8.45,16.28-9.04,27.57-23.45,42.72-33.87,37.21-25.59,89.77-23,137.15-19.72,8.4.58,16.73.83,25.01.78,38.96-.24,74.2-8.86,111.4-17.53,7.49-1.75,15.03-2.98,22.58-4.03v-35.17h0Z"/>
        <path class="cls-13" d="m64.58,663.98c-3.52-.29-7.06-.46-10.58-.45-14.07.04-10.71,11.59-3.15,18.53,19.75,18.15,50.2,16.67,76.65,12.19,7.05-1.19,14.16-2.52,21.3-2.08,12.78.79,24.43,7.13,36.55,11.3,21.38,7.35,45.04,7.73,66.72,1.42,9.27-2.7,17.96-9.07,26.97-11.07,12.5-2.77,22.39-.78,33.71-9.2,1.69-1.26,3.46-3.03,3.13-5.11-.38-2.38-3.19-3.43-5.58-3.78-14.57-2.16-28.85,4.19-43.24,7.33-22.02,4.81-45.65,1.91-65.85-8.08-13-6.43-25.29-15.88-39.77-16.6-12.83-.63-24.84,5.78-37.42,8.38-19.51,4.05-39.47-1.17-59.42-2.78h-.01Z"/>
        <path class="cls-13" d="m1166.13,1108.3v-49.97c-38.13-2.29-76.99.63-113.21,8.94-30.08,6.9-59.03,17.41-90.76,18.72-17.72.73-35.39-1.47-52.9-3.45-65.71-7.41-141.34-9.87-190.38,20.21-18.78,11.52-27.11,30.65,7.84,30.72,8.76.02,17.52-.27,26.29-.74,26.14-1.41,52.19-4.52,78.32-6.09,10.49-.63,62.27-9.5,68.8,1.32,1.65,2.74.46,6.91-1.67,9.09s-4.9,3.02-7.45,4.31c-5.72,2.91-10.54,8.46-13.36,15.33,24.96,6.86,50.23-8.44,75.75-10.02,48.73-3.02,91.6-16.55,138.9-32.16,13-4.29,64.53-26.21,73.83-6.2h0Z"/>
        <g>
          <path class="cls-13" d="m125.97,958.3c-.67-2.44-3.7-3.21-6.22-3.31-15.34-.58-29.4,7.7-43.94,12.64-22.25,7.56-47.06,7.26-69.15-.84-10.65-3.91-21.1-9.64-32.02-11.88v38.48c6.31,1.59,12.6,3.57,18.93,5,23,5.21,47.55,2.87,69.28-6.22,9.29-3.89,17.55-11.55,26.65-14.67,12.63-4.33,23.1-3.4,33.84-13.5,1.6-1.51,3.23-3.56,2.64-5.7Z"/>
          <path class="cls-13" d="m368.12,976.2c-39.27-7.92-80.27,5.17-119.93-.56-22.19-3.21-45.19-12.18-66.23-4.45-10.57,3.89-19.2,11.6-28.88,17.33-4.14,2.45-8.38,4.44-12.71,6.02-42.27,15.43-92.54-7.96-134.95-13.97-10.21-1.45-20.49-2.19-30.78-2.45v35.1c20.58,5.91,40.14,15.31,62.04,16.17,22.38.88,45.13,2.52,67.62.84,20.47-1.53,41.69-1.11,61.81-2.69,20.25-1.59,37.9-13.46,57.74-17.54,10.28-2.11,20.87-2.27,31.36-2.42,23.1-.33,46.19-.66,69.29-.99,15.96-.23,29.01-2.18,42.07-11.04,9.64-6.55,19.49-15.72,1.55-19.34h0Z"/>
        </g>
        <path class="cls-13" d="m241.09,833.23c-11.14-3.5-22.47-6.18-33.85-8.32-25.07-4.72-50.26-5.6-75.45-8.59-21.95-2.61-43.62,6.51-66.23,3.27-6.24-.9-12.57-2.28-18.77-.91-5.32,1.18-10.19,4.32-15.16,6.94-11.24,5.94-23.33,9.37-35.52,10.08-6.98.41-14.04-.06-20.9,1.63-.19.05-.39.11-.58.16v50.32c25.7,0,51.41-1.45,77.01-4.4,17.18-1.98,34.31-4.62,51.43-7.27,3.6-.56,7.32-1.16,10.45-3.43,3.62-2.63,6.13-7.46,6.55-12.6-19.63-3.45-39.59,3.38-59.4,2.03-10.15-.69-11.42-11.83-2.29-18.18,4.34-3.02,9.52-3.34,14.49-3.6,24.87,1.55,50.91-2.57,75.82-3.83,12.67-.64,25.21-2.21,37.74.24,12.8,2.5,25.59,4.93,38.4,7.35,9.28,1.75,23.13,7.32,31.95,1.1,10.94-7.72-11.78-10.79-15.7-12.02v.03Z"/>
      </g>
      <g>
        <path class="cls-17" d="m273.95,608.64c15.83-.39,37.62,5.62,37.62,5.62l3.82-1.12,1.71,6.02,1.71,6.02-3.82,1.12s-15.26,16.86-28.85,25.09c-13.6,8.22-45.68,13.71-46.86,13.72l-19,2.42c-3.82.49-7.42-1.92-8.49-5.67l-3.12-10.96-3.12-10.96c-1.07-3.75.71-7.73,4.2-9.39l17.34-8.22c1-.62,31.03-13.32,46.86-13.72v.02Zm-7.13,3.88c-1.36.69.69,8.46,2.15,9.6,1.46,1.15,24.57-4.48,24.57-4.48,2.14-.43,2.87-2.78,1.96-3.52s-27.32-2.29-28.68-1.61h0Z"/>
        <path class="cls-9" d="m313.06,612.36l4.38,14.57c.15.5.67.79,1.17.63l4.97-1.54c.5-.15.77-.69.62-1.18l-4.38-14.57c-.15-.5-.67-.79-1.17-.63l-4.97,1.54c-.5.15-.77.69-.62,1.18h0Z"/>
        <path class="cls-29" d="m300.87,640.18s-27.24,8.72-39.87,3.64-19.36-27.25-19.36-27.25l-12.14,4.71s3.25,13.41,19.88,20.96c16.61,7.54,38.97,7.77,38.97,7.77l12.53-9.82"/>
      </g>
      <path class="cls-7" d="m23.52,956.76c-2.11.13-4.47.45-5.84,2.4-.92,1.32-1.19,3.11-1.43,4.81-.11.81-.22,1.69.13,2.39.24.49.65.81,1.05,1.11,2.03,1.52,4.13,3.06,6.47,3.55,1.74.36,3.54.12,5.27.59,1.05.29,2.04.84,3.09,1.17,2.85.92,5.93.18,8.61-1.33s5.03-3.74,7.34-5.95c.28-.27.58-.57.65-.99.05-.32-.04-.65-.15-.95-1.71-4.43-7.85-4.7-11.21-6.02-4.45-1.74-9.33-1.08-13.97-.79h-.02Z"/>
      <g>
        <path class="cls-22" d="m1101.24,673.41c2.39,3.65,11.18,13.44,7.79,3.63,0,0-2.35-1.31.57-3.79,2.93-2.49,2.89-5.28-.69-3.26-3.58,2.03-4.4,3.52-6.77-1.47-2.39-4.99-3.58-4.32-.2-5.86,2.01-.92,4.42-1.71,5.88-3.15-.38,2.45-.69,4.56-.69,4.9.06.44.48.68.91.94.44.26,1.02.51,1.57.72,1.14.43,2.24.77,2.24.77l.76.23.03-.55s.16-3.56.41-7.32c.24-3.73.61-7.75.91-8.41h0s.75-.41,1.75-.77c1.03-.38,2.36-.84,3.79-1.33,2.82-.99,5.89-2.07,7.39-3.01,1.15-.73,1.69-1.75,1.67-2.65-.02-.9-.77-1.84-2.27-1.85-.99,0-2.09.34-3.43,1.1-1.76,1-3.48,2.06-4.92,2.85-1.14.67-2.22,1.14-2.64,1.24,0-.15.08-.44.29-.83,1.6-3.38,1.04-7.46,3-8.81,1.25-1.03,6.12-.73,8.75-1.5.9-.26,1.63-.78,1.65-1.54.02-.22.02-.41.01-.6-.01-.59-.11-1.08-.46-1.5-.35-.43-1.05-.69-1.86-.69-1.21,0-2.77.39-5.14,1.22-1.26.45-2.16.6-2.65.59-.65-.05-.63-.11-.74-.57-.03-.69.69-1.89,1.41-2.67,1.72-1.83,2.23-3.78,9.39-6.35,2.23-.81,3.24-1.51,3.28-2.31-.11-.96-1.57-1.31-2.99-1.32-1.65-.02-3.68.39-5.18,1.45-1.86,1.38-3.78,2.4-4.33,2.33-.11-.02-.1,0-.2-.11-.09-.11-.2-.37-.2-.77-.01-.43.05-1.03.25-1.8.4-1.64.65-2.95.63-3.8-.03-.33-.05-.59-.17-.83-.11-.21-.45-.5-.94-.5-.69.03-1.05.31-1.61.76-.55.45-1.21,1.12-2.04,2.03-1.34,1.53-1.85,2.38-1.85,3.08.01.71.73,1.09,1.19,1.39.49.32.92.64,1.13,1.48.03.1.04.19.03.29.14,2.09-3.75,6.2-3.69,9.55,0,.8.29,1.58.93,2.28-.39.81-1.88,4.05-1.78,7.65.04,1.29-.06,2.23-.22,2.64-.1-.11-.26-.28-.4-.49-.39-.57-.9-1.46-1.48-2.67-.81-1.65-1.77-3.07-2.62-4.29.39-2.47-.27-3.8-1.86-2.66-.31-.48-.49-.86-.47-1.14,0-.23.07-.32.22-.42,1.4-.86,4.2-2.62,4.19-4.57,0-.4-.15-.8-.46-1.17-.22-.3-.66-.54-1.14-.53-.94.03-1.46.52-2.13,1.03-.62.5-1.26,1.1-1.8,1.47-.28.22-.53.31-.62.33-.01-.01-.05-.04-.09-.1-.11-.15-.24-.48-.31-.97,0-.07-.03-.13-.03-.19.76-2.1.9-3.83-.9-4.87.03-.91.39-1.79,1.56-3.19,1.01-1.21,2.14-2.17,3.05-2.95.89-.79,1.61-1.37,1.62-2.09,0-.45-.43-.86-1.11-1.13-.51-.21-1.04-.32-1.57-.33-2.37.04-4,1.77-5.47,3.55-.04-1.62.67-5.18.64-6.5-.01-.34-.16-.66-.46-.89-.32-.23-.77-.34-1.18-.34-1.93.02-4.33,1.59-4.3,4.08.06,1.67,1.56,5.77,2.63,9.05-.75.26-1.05.89-1.17,1.78-.28-.26-.53-.52-.77-.73-.79-.64-1.23-1.09-2.1-1.15-.73.01-1,.45-1.11.84-.12.42-.17,1.01-.14,1.81.03,1.9.43,2.77,1.58,3.45.65.38,1.43.71,2.48,1.24-.02.31-.05.65-.1.99-.57.14-1.12.48-1.77,1.03-.86.72-1.45,1.41-1.86,1.96-.4-1.64-.83-3.79-1.67-5.35-1.75-3.29-4.07-2.89-4.15-.66-.24-.15-.49-.28-.89-.31-.57,0-.85.33-.94.59-.11.3-.14.66-.13,1.16,0,.25.02.55.06.87.43,4.27.86,4.74,5.09,7.52l.25.17.25-.05h.03c.05.03.16.09.31.23.28.29.69.95.95,2.22.08.39.12.79.13,1.2.05,1.29-.2,2.66-.17,3.87.02,1.09.3,2.13,1.42,2.79.05.08.08.16.13.24-.37.68-.99,2.04-.96,3.49v.11c-.28-.3-.58-.68-.91-1.13-1.65-2.2-3.29-4.68-4.82-6.47l.02-.02c3.31-2.11-1.57-4.41-2.85-2.34-.49-.16-.97-.12-1.39.18,0-.45,0-.98.02-1.67.06-4.3-1.07-4.07-3.24-1.06-2.17,3.02,1.07,4.44,1.35,7.48.22,2.42,3.61,3.19,4.98,3.42,2.59,3.21,6.06,7.3,10.86,8.07,5.41.87,1.84.23.61,3.12-1.21,2.89,2.76,6.24,5.18,9.9h0Zm.94-33.99c-3.01,3.72-4.07,3.66-2.84-1.75.2-.85.48-1.71.8-2.54.93,1.22,1.49,2.7,2.04,4.29h0Zm-5.8,13c.22-.59.54-1.09,1-1.42.81-.6,2.64-1.44,4.25-2.26,1.6-.86,3.06-1.54,3.17-2.49-.02-.49-.66-.86-1.45-1-.19-.05-.39-.08-.59-.08.47-.27.91-.54,1.33-.87.72,1.42,1.66,2.84,3.04,4.21l2.05,2.57c-.06.34-.23,1.39-.45,2.77-1.16-3.07-4.02-3.65-4.98-.54-1.09,3.61-1.38,6.16-5.05,4.37-2.15-1.05-2.46-3.22-2.33-5.28v.02Z"/>
        <path class="cls-22" d="m1152.22,651.71c.44-1.22,7.58-6.39,12.03-10.53v-9.77c-1.03.31-2.21,1.17-3.45,2.8-5.21,6.8-9.84,14.19-9.69,7.87.12-6.32-3.41-13.21-1.35-16.85,2.07-3.64,14-4.29,12.64-8.56-1.38-4.26-3.05-5.55-10.07.23-7.04,5.78-7.06-.99-5.88-4.64,1.18-3.65.78-7.67,9.33-14.79,8.54-7.1-3.37-7.16-6.87-1.25-3.5,5.9-6.73,9.58-8.14.74-1.41-8.85-2.89-11.88-5.62-2.54-2.74,9.35,1.72,5.15,4.41,9.83,2.68,4.68-2.99,17.64,4.04,22.25,0,0-.42,7.09,2.34,14.18,2.74,7.06,1.76,8.27-4.79.41-6.55-7.87-13.84-11.68-12.14-14.02s5.1-7.73,1.69-10.56c-3.28-2.68-4.12,10.33-7.5,4.98-.46-3.01-1.48-4.69-3.82-12.01-.57-1.75-.9-3.17-1.04-4.33.98-3.61,2.63-6.31,3.19-8.15,1.48-1.95,3.29-4.51,5.12-8.62,1.8-4.09,2.52-6.84,2.5-8.63-.03-.78-.18-1.38-.53-1.86-.33-.49-.99-.82-1.64-.8-1.75.05-3.33,1.4-4.88,3.4-1.89,2.55-3.06,6.54-3.88,8.27-.01-.04-.03-.09-.05-.14-.2-.87-.41-2.28-.63-4.37-.74-7.02-.43-11.42-1.02-13.46-.16-.64-.63-1.39-1.63-1.42-1.11.05-1.89.69-3.23,1.74-3.02,2.56-4.69,3.28-4.73,5.14.05,1.17.78,2.39,2.03,4.66,3.15,5.61,5.22,10.2,5.28,12.87.11,1.65-1.93,4.23-2.83,7.85-1.08-3.03-2.33-9.3-3.16-11.42-1.3-3.32-7.18.99-4.93,6.73,1.08,2.78,5.77,9.37,9.39,14.79.7,1.62,1.52,3.34,2.3,4.94.55,1.12,1.07,2.19,1.54,3.16-.34-.12-.79-.38-1.43-.82-1.56-1.1-2.91-2.03-4.07-2.79-2.54-2.96-4.92-6.04-6.86-7.92-1.14-1.09-2.05-1.9-3.31-1.96-.69-.03-1.29.35-1.59.85-1.22,1.94-3.5,3.16-3.58,5.19.04,1.26,1.16,2.41,3.52,3.73,6.09,3.31,13.97,8.8,14.31,11.56v.11l.07.1c.05.04,1.86,3.01,4.65,4.65.37.24.28.19.32.33.02.28-.43,1.17-.39,2.61.05,2.19,1.19,5.66,6.25,11.91,4.93,6,7.26,10.05,7.89,11.75-.45-.4-.97-1-1.58-1.76-2.34-2.98-7.03-6.2-11.15-9.21-4.16-2.95-7.6-5.9-7.5-7.3-.05-2.27.64-6.9.58-10.37-.02-1.15-.14-2.2-.45-3.02-.27-.82-.81-1.6-1.88-1.77-.13-.03-.28-.04-.4-.04-1.8.03-2.89,1.35-3.66,2.88-.66,1.33-1.05,2.94-1.14,4.5-.11-.24-.24-.48-.35-.73-1.18-2.46-2.63-5.69-3.97-8.81-.97-2.22-1.75-3.95-2.42-5.16-.75-1.16-1.15-1.99-2.41-2.14-.92.04-1.29.61-1.61,1.21-.32.63-.6,1.53-.9,2.73-.14.62-.2,1.24-.18,1.89.12,4.34,3.43,9.33,6.68,13.07-2.23-1.45-4.49-2.82-6.16-3-.16-.01-.33-.01-.48-.03-2.12-.02-4.24.89-4.24,2.63.03,1.05.89,2.09,2.57,3.09,4.69,2.62,13.15,3.32,14.77,6.56,2.04,3.74,3.13,5.72,9.35,8.51,5.93,2.7,10.7,7.4,13.82,13.56,1.17,2.29,3.51,5.01,6.05,7.21,2.58,2.19,5.14,3.89,7.34,3.98h.07c.74,0,1.51-.27,1.93-.84.43-.55.58-1.3.58-2.27-.01-.56-.1-1.23-.27-1.98v-.08l-.04-.06s-8.21-17.12-14.51-25.2c-6-7.72-6.85-10.4-7.11-18.71,6.4,5.1,9.16,14.89,18.92,21.45l4.75,3.94s5.17,22.94,5.68,24.26,7.5,2.08,7.5,2.08c0,0-8.76-26.91-8.23-28.5h-.03Z"/>
      </g>
      <rect class="cls-2" x="1009.36" y="1034.88" width="29.05" height="29.01"/>
      <path class="cls-11" d="m103.39,704.99c-10.07-14.39-44.52-12.45-59.76-14.33-8.24-1.01-16.8-2-24.71.47-7.61,2.38-13.83,7.73-19.29,13.39-1.81,1.88-3.54,3.81-5.25,5.79v25.71c13.08,3.02,25.97,8,39.1,5.89,10.53-1.69,19.92-7.84,30.49-9.3,13.39-1.85,58.07-.97,39.4-27.63h.01Z"/>
      <path class="cls-12" d="m1164.25,642.07c-5.88-1.27-11.24-2.36-15.21-3.51-8.27-2.39-16.87-4.81-25.38-3.47-8.19,1.29-15.44,5.95-21.97,11.05-10.15,7.94-19.23,17.25-26.92,27.59,19.27,2.81,35.92,17.49,55.38,17.32,11.06-.1,21.69-5.08,32.76-4.93.41,0,.86.02,1.32.04v-44.09h0Z"/>
      <path class="cls-7" d="m1012.85,666.93c-6.77.35-14.3,1.18-18.7,6.34-2.95,3.47-3.83,8.19-4.6,12.68-.36,2.13-.69,4.46.4,6.31.76,1.29,2.09,2.13,3.36,2.92,6.49,4,13.19,8.07,20.7,9.36,5.58.95,11.36.31,16.87,1.56,3.37.76,6.55,2.21,9.88,3.09,9.13,2.42,18.98.47,27.55-3.51,8.56-3.98,16.08-9.86,23.5-15.69.89-.7,1.85-1.5,2.07-2.61.17-.85-.12-1.72-.49-2.51-5.47-11.68-25.11-12.41-35.86-15.87-14.24-4.59-29.86-2.84-44.71-2.08h.01Z"/>
      <g>
        <path class="cls-22" d="m147.01,753.83c1.8,3,8.41,11.04,5.87,2.99,0,0-1.77-1.08.43-3.11,2.2-2.04,2.18-4.34-.52-2.68-2.7,1.67-3.31,2.89-5.09-1.21-1.8-4.1-2.69-3.55-.15-4.82,1.51-.75,3.32-1.41,4.43-2.59-.29,2.01-.52,3.75-.52,4.02.05.36.36.56.68.77.33.21.77.42,1.19.59.86.35,1.68.63,1.68.63l.57.19.02-.45s.12-2.92.31-6.01c.18-3.06.46-6.37.69-6.91h0s.57-.34,1.32-.63c.77-.31,1.78-.69,2.84-1.1,2.12-.81,4.44-1.7,5.56-2.48.86-.6,1.27-1.44,1.25-2.17-.02-.74-.58-1.51-1.71-1.52-.75,0-1.58.28-2.58.9-1.32.82-2.62,1.69-3.7,2.34-.85.55-1.67.94-1.99,1.02,0-.12.06-.37.22-.68,1.21-2.78.78-6.13,2.26-7.24.94-.85,4.61-.6,6.59-1.23.68-.21,1.22-.64,1.24-1.26.02-.18.01-.34,0-.5,0-.48-.08-.89-.34-1.24-.26-.35-.79-.57-1.4-.57-.91,0-2.08.32-3.87,1-.95.37-1.63.49-1.99.49-.49-.04-.48-.09-.56-.47-.03-.57.52-1.55,1.06-2.19,1.3-1.5,1.68-3.1,7.07-5.21,1.68-.67,2.44-1.24,2.47-1.89-.08-.79-1.18-1.07-2.25-1.08-1.24-.02-2.77.32-3.9,1.19-1.4,1.14-2.84,1.97-3.25,1.91-.08-.02-.07,0-.15-.09-.06-.09-.15-.3-.15-.63,0-.36.04-.85.19-1.48.3-1.35.49-2.42.48-3.12-.02-.27-.03-.48-.13-.68-.08-.18-.34-.41-.7-.41-.52.03-.79.26-1.21.62-.42.37-.91.92-1.53,1.67-1.01,1.26-1.4,1.96-1.39,2.53,0,.58.55.89.89,1.15.37.27.69.53.85,1.22.03.08.03.16.02.24.1,1.72-2.82,5.09-2.78,7.84,0,.66.22,1.3.7,1.87-.29.66-1.42,3.32-1.34,6.29.03,1.06-.05,1.83-.16,2.17-.08-.09-.19-.23-.3-.4-.29-.47-.68-1.2-1.11-2.2-.61-1.35-1.33-2.52-1.97-3.52.29-2.03-.2-3.12-1.4-2.19-.23-.4-.37-.71-.36-.93,0-.19.05-.27.16-.35,1.05-.7,3.15-2.15,3.15-3.75,0-.33-.11-.66-.34-.96-.17-.25-.5-.44-.86-.44-.71.03-1.1.43-1.61.85-.47.41-.95.91-1.36,1.2-.21.18-.4.25-.46.27,0-.01-.04-.03-.07-.08-.08-.13-.18-.4-.23-.8,0-.06-.02-.11-.03-.16.57-1.73.68-3.15-.68-4,.02-.75.3-1.47,1.18-2.62.76-.99,1.61-1.79,2.29-2.43.67-.65,1.21-1.12,1.22-1.72,0-.37-.32-.71-.83-.93-.38-.17-.78-.27-1.18-.27-1.78.03-3,1.46-4.12,2.91-.03-1.33.5-4.26.48-5.34,0-.28-.12-.54-.35-.73-.24-.19-.58-.28-.89-.28-1.45.02-3.25,1.31-3.23,3.36.04,1.38,1.18,4.74,1.98,7.43-.56.22-.79.73-.88,1.47-.21-.21-.4-.42-.58-.6-.6-.52-.92-.89-1.58-.95-.55,0-.76.37-.84.69-.09.34-.12.83-.11,1.49.02,1.56.32,2.28,1.19,2.84.49.31,1.08.58,1.87,1.02-.01.26-.04.53-.08.81-.43.12-.84.4-1.34.85-.64.59-1.09,1.16-1.4,1.61-.3-1.35-.62-3.11-1.26-4.4-1.32-2.7-3.05-2.37-3.12-.54-.18-.13-.37-.23-.67-.25-.43,0-.64.27-.71.49-.09.24-.1.54-.1.96,0,.2.01.45.05.71.33,3.51.65,3.89,3.83,6.18l.19.14.19-.04h.02s.12.08.23.19c.21.24.52.78.72,1.82.06.32.09.65.1.98.04,1.06-.15,2.18-.12,3.18.02.89.23,1.75,1.07,2.29.04.07.06.14.1.2-.28.56-.75,1.68-.72,2.86v.09c-.21-.25-.44-.56-.69-.93-1.25-1.81-2.48-3.84-3.62-5.31l.02-.02c2.49-1.73-1.18-3.63-2.15-1.93-.37-.13-.73-.1-1.05.14,0-.37,0-.81.01-1.37.04-3.54-.81-3.34-2.44-.87-1.63,2.48.8,3.65,1.01,6.14.17,1.99,2.72,2.62,3.75,2.81,1.95,2.64,4.56,6,8.18,6.63,4.07.72,1.38.19.46,2.57-.91,2.37,2.08,5.12,3.9,8.13h.02Zm.71-27.93c-2.26,3.06-3.06,3.01-2.13-1.44.15-.7.36-1.4.6-2.09.7,1,1.12,2.21,1.53,3.53Zm-4.37,10.68c.17-.48.41-.9.75-1.17.61-.49,1.99-1.19,3.19-1.85,1.2-.71,2.3-1.27,2.38-2.05-.02-.4-.5-.7-1.09-.82-.14-.04-.29-.06-.45-.07.35-.22.68-.45,1-.71.54,1.17,1.25,2.33,2.29,3.46l1.55,2.11c-.04.28-.17,1.14-.34,2.28-.87-2.52-3.02-3-3.75-.44-.82,2.96-1.04,5.06-3.81,3.59-1.62-.86-1.85-2.65-1.75-4.34h.01Z"/>
        <path class="cls-22" d="m66.38,737.58c4.35,1.38,3.98-.24.05-4.37-3.93-4.12-2.04-3.92-1.26-7,.78-3.07.01-1.45-2.93-3.73-2.95-2.28.92-3.46,2.56-4.54,1.65-1.08.93,2.1,1.94,4.79s3.97-.24,5.83-1.96c1.85-1.73.71-2.1-1.13-5.94-1.84-3.85,2.76-2.65,2.76-2.65,0,0-.41.57,1.77,5.92,2.17,5.35-.54,4.36-4.25,7.08-3.7,2.73-3.79,5.89-2.03,8.42,1.76,2.53,5.66,4.73,4.43,8.26s1.24,5.44,3.34,8.01c2.1,2.58,13.45,8.4,13.45,8.4,0,0,2.49,3.83-5.02.1-7.5-3.73-15.18-9.36-16.05-10.99-.87-1.64.13-2.69-.44-5.47-.56-2.79-3.32-.15-5.55-1.13s-1.83-4.58,2.51-3.2h.01Z"/>
        <path class="cls-22" d="m20.93,739.65c.08,0,.18,0,.27.01.94.09,2.2.78,3.45,1.51-1.82-1.87-3.68-4.37-3.76-6.55-.01-.32.02-.63.1-.95.17-.61.32-1.05.5-1.37.18-.3.39-.59.91-.61.71.07.93.49,1.35,1.07.38.61.82,1.47,1.36,2.59.75,1.57,1.56,3.18,2.23,4.42.06.12.14.24.2.37.05-.78.27-1.59.64-2.25.44-.77,1.05-1.43,2.06-1.44.07,0,.15,0,.22.02.6.08.9.48,1.05.89.17.41.24.94.25,1.52.03,1.74-.35,4.06-.32,5.2-.06.7,1.88,2.18,4.22,3.66,2.32,1.51,4.96,3.12,6.27,4.61.34.38.64.68.89.88-.36-.85-1.67-2.88-4.44-5.89-2.83-3.13-3.48-4.87-3.5-5.97-.02-.72.23-1.17.22-1.31-.02-.07.03-.04-.18-.16-1.56-.82-2.58-2.31-2.61-2.33l-.03-.05v-.06c-.19-1.38-4.63-4.14-8.04-5.79-1.33-.66-1.95-1.24-1.98-1.87.04-1.02,1.33-1.63,2.01-2.6.17-.25.51-.44.89-.42.71.03,1.22.44,1.86.98,1.09.94,2.42,2.48,3.86,3.97.65.38,1.41.85,2.28,1.4.36.22.61.35.8.41-.26-.49-.55-1.02-.86-1.58-.44-.8-.9-1.67-1.29-2.48-2.03-2.72-4.67-6.02-5.28-7.41-1.26-2.88,2.03-5.04,2.76-3.37.46,1.06,1.17,4.21,1.78,5.72.51-1.82,1.65-3.11,1.59-3.94-.03-1.34-1.19-3.64-2.96-6.45-.7-1.14-1.11-1.75-1.14-2.34.02-.94.95-1.29,2.65-2.58.76-.53,1.19-.85,1.82-.87.56.01.83.39.91.71.33,1.02.16,3.23.57,6.75.12,1.05.24,1.75.35,2.19.01.03.02.05.03.07.45-.87,1.11-2.87,2.17-4.15.87-1,1.76-1.68,2.74-1.7.37-.01.74.15.92.4.19.24.28.54.3.93.01.9-.39,2.27-1.4,4.32-1.02,2.06-2.04,3.34-2.87,4.32-.32.93-1.24,2.28-1.79,4.09.08.58.26,1.3.58,2.17,1.31,3.67,1.88,4.51,2.14,6.02,1.9,2.68,2.37-3.84,4.22-2.49,1.91,1.42,0,4.12-.95,5.29-.95,1.18,3.13,3.08,6.82,7.03,3.67,3.94,4.23,3.34,2.68-.2-1.55-3.55-1.31-7.11-1.31-7.11-3.95-2.31-.75-8.8-2.26-11.15-1.5-2.35-4.02-.24-2.47-4.93,1.53-4.68,2.36-3.16,3.15,1.28.79,4.43,2.6,2.58,4.58-.37,1.96-2.96,8.66-2.93,3.87.63-4.81,3.57-4.58,5.58-5.25,7.41-.67,1.83-.65,5.22,3.3,2.33,3.95-2.89,4.89-2.25,5.66-.11.76,2.14-5.93,2.47-7.1,4.29-1.15,1.82.83,5.27.76,8.44-.08,3.16,2.52-.54,5.45-3.95,2.91-3.4,5.17-.13,3.59,1.9-1.55,2.02-8.09,6.08-8.41,6.87-.3.8,4.63,14.28,4.63,14.28,0,0-3.93-.38-4.22-1.04-.29-.67-3.18-12.16-3.18-12.16l-2.66-1.98c-5.48-3.29-7.04-8.19-10.62-10.75.14,4.16.62,5.51,4,9.38,3.54,4.04,8.14,12.61,8.15,12.63l.02.03v.04c.09.38.14.71.15.99,0,.48-.08.86-.33,1.14-.24.28-.67.42-1.09.42h-.04c-1.24-.04-2.67-.9-4.13-1.99-1.42-1.1-2.74-2.46-3.4-3.61-1.75-3.08-4.44-5.44-7.77-6.79-3.49-1.4-4.11-2.39-5.26-4.26-.91-1.63-5.67-1.97-8.3-3.29-.94-.5-1.43-1.02-1.44-1.55,0-.87,1.19-1.33,2.38-1.32l.02-.04Z"/>
        <path class="cls-22" d="m91.53,743.93c-1.16-1.32-14.18-8.4-18.24-11.82-4.07-3.43-3.86-8.71,3.4-2.92,7.24,5.79,14.36,12.05,11.36,6.83-3.01-5.23-3.33-10.81-6.64-13.88-3.31-3.07-13.16-4.01-14.02-7.5-.85-3.47-.11-4.48,8.14.52,8.29,5.02,5.2-.57,2.58-3.65-2.61-3.05-4.15-6.36-14.23-12.53-10.06-6.15-.57-5.81,4.93-.81,5.5,4.99,9.75,8.13,6.84.87-2.93-7.27-3.14-9.73,3.33-1.91,6.48,7.83.98,4.2.97,7.97,0,3.78,10.46,14.68,6.97,18.25,0,0,3.6,5.89,4.63,11.65,1.04,5.76,2.36,6.78,4.01.5,1.63-6.29,5.71-9.21,3.27-11.2-2.42-1.99-7.62-6.57-6.18-8.78,1.38-2.1,8.01,8.67,8.26,4.36-.99-2.47-.97-3.83-2.43-9.81-.35-1.43-.74-2.59-1.17-3.55-2.43-3.02-4.99-5.3-6.28-6.84-2.07-1.67-4.71-3.83-8.03-7.29-3.31-3.44-5.16-5.74-5.94-7.22-.32-.63-.48-1.13-.43-1.51.04-.41.42-.65.94-.63,1.41.1,3.29,1.28,5.46,2.99,2.66,2.18,5.45,5.51,6.87,6.95,0-.02,0-.07-.03-.11-.23-.71-.71-1.87-1.49-3.6-2.62-5.77-4.89-9.43-5.35-11.08-.18-.53-.13-1.14.65-1.13.92.08,1.82.62,3.38,1.56,3.57,2.2,5.24,2.84,6.13,4.41.5.96.47,1.95.52,3.79.04,4.52.48,8.26,1.68,10.47.66,1.35,3.47,3.55,5.83,6.57-.52-2.47-2.37-7.6-2.69-9.33-.49-2.71,6.17,1.05,7.02,5.72.39,2.26-.33,7.56-.74,11.91.19,1.32.32,2.72.43,4.03.07.89.14,1.76.23,2.55.21-.1.46-.29.75-.63.75-.85,1.4-1.58,1.97-2.18.68-2.36,1.17-4.82,1.85-6.32.43-.85.77-1.49,1.75-1.51.52,0,1.19.33,1.67.76,1.86,1.65,4.24,2.73,5.22,4.4.55,1.05.18,1.95-1.1,2.98-3.34,2.52-7.13,6.8-6.13,9.08l.04.09v.08s-.1,2.43-1.57,3.7c-.19.19-.14.15-.11.26.1.23.86.98,1.49,2.17.98,1.81,1.65,4.65.46,9.64-1.16,4.8-1.19,8.07-.9,9.46.16-.31.31-.79.43-1.42.51-2.38,2.79-4.88,4.71-7.23,1.98-2.3,3.38-4.63,2.66-5.79-1.01-1.88-3.69-5.72-5.22-8.58-.51-.96-.89-1.82-1.05-2.5-.14-.64-.07-1.29.69-1.39.1-.01.2-.02.31-.01,1.46.08,2.93,1.21,4.25,2.48,1.13,1.13,2.2,2.49,2.97,3.77-.02-.19-.03-.39-.05-.6-.18-1.99-.49-4.61-.85-7.15-.26-1.81-.43-3.21-.42-4.19.06-.93,0-1.6.94-1.69.75.07,1.31.55,1.84,1.06.55.55,1.2,1.29,1.96,2.29.4.51.74,1.04,1.01,1.57,1.88,3.6,1.52,7.6.65,10.59,1.13-1.13,2.3-2.19,3.54-2.27.13-.02.25-.02.37-.01,1.67.06,3.77.86,4.58,2.3.45.88.25,1.71-.65,2.48-2.54,2.02-8.97,2.32-8.78,4.94.07,3.02.11,4.64-3.56,6.74-3.5,2.04-5.18,5.76-4.85,10.74.12,1.85-.52,4.03-1.52,5.77-1.06,1.72-2.33,3.05-4.05,3.05h-.05c-.59-.02-1.32-.28-1.92-.76-.62-.47-1.08-1.09-1.5-1.89-.26-.47-.49-1.03-.71-1.65l-.03-.05v-.03s-1.28-13.89.07-20.36c1.27-6.19.72-8.38-2.88-15.25-2.78,4.02-.5,12.02-5.31,17.11l-1.96,3.12s6.36,18.78,6.56,19.86-5.02,1.48-5.02,1.48c0,0-5.33-21.95-6.49-23.29v-.02Z"/>
      </g>
      <g>
        <path class="cls-19" d="m285.17,712.51l44.69-17.79c.98-.5,3.9,2.88,7.56,9.4,3.65,6.52,4.99,10.74,4.02,11.27l-39.77,26.67-16.5-29.54h0Z"/>
        <path class="cls-19" d="m300.89,741.87c-2.15-1.89-5.85-7.09-9.47-13.54s-6.13-12.3-6.58-15.08c-.02-.17-.06-.36-.07-.5l1.6-.64c2.1,1.66,5.95,7.03,9.72,13.76,3.77,6.72,6.34,12.78,6.62,15.38l-1.4.98c-.14-.13-.27-.23-.43-.36h0Z"/>
        <path class="cls-26" d="m290.91,728.61c-.36-.65-8.85-15.86-6.05-17.33.53-.28,1.29.06,2.14.79,3.63,3.05,9.29,13.08,9.52,13.6s5.9,10.56,6.56,15.16c.17,1.09.03,1.88-.52,2.14-2.68,1.43-11.21-13.75-11.64-14.36h0Zm-5.53-15.9c.07.86.26,1.72.55,2.56h0c1.57,4.43,3.56,8.73,5.95,12.84,2.24,4.18,4.89,8.14,7.88,11.82.55.69,1.19,1.32,1.9,1.84h0c.11.07.23.12.36.14.06-.12.08-.27.07-.42-.02-1.62-1.88-7.11-6.5-15.33-4.62-8.21-8.35-12.73-9.74-13.62-.12-.1-.26-.17-.4-.18-.05.12-.07.24-.07.37"/>
      </g>
      <g>
        <path class="cls-19" d="m940.69,685.37l-72.82,28.06c-1.72.5-1.42,7,1.52,17.47,2.94,10.47,6.07,16.19,7.79,15.71l76.88-13.86-13.39-47.38h0Z"/>
        <path class="cls-19" d="m954.8,731.77c.44-4.15-.98-13.32-3.88-23.7-2.9-10.37-6.46-18.96-9.02-22.27-.17-.21-.32-.42-.48-.59l-2.61,1.01c-.63,3.88.8,13.37,3.83,24.18,3.04,10.8,6.74,19.66,9.32,22.64l2.74-.45c.02-.28.07-.53.11-.81h0Z"/>
        <path class="cls-26" d="m951.85,707.82c-.3-1.04-7.2-25.43-12.15-24.04-.94.26-1.47,1.4-1.66,3.02-.89,6.89,3.58,23.03,3.89,23.8.31.76,4.8,16.93,9.14,22.34,1.03,1.29,2.06,1.96,3,1.65,4.77-1.32-2.06-25.71-2.24-26.78h0Zm-11.17-22.03c.88.96,1.62,2.03,2.19,3.18h0c3.09,6.17,5.52,12.65,7.27,19.32,2,6.61,3.29,13.41,3.83,20.29.12,1.29.05,2.59-.21,3.85h0c-.05.19-.14.36-.26.51-.22-.07-.41-.2-.55-.36-1.78-1.69-5.71-9.25-9.39-22.46-3.69-13.21-4.31-21.69-3.66-24.05.03-.22.12-.43.27-.6.18.07.36.17.51.31"/>
      </g>
      <g class="cls-34">
        <path class="cls-23" d="m171.61,67.45c-1.4-5.57-5.73-7.89-5.06-8.77.58-.76,3.81,1.02,10.94,4.01,2.36.99,4.41,1.8,5.98,2.41.27.02.56.02.87,0,2.07-.21,3.36-1.72,5.36-3.69,1.34-1.33,2.85-2.47,4.17-3.82,2.61-2.68,10.7-8.09,21.08-8.78,11.43-.76,19,4.73,27.43,10.63,2.64,1.85,5.39,4.13,5.22,6.76-.11,1.76-1.51,3.06-2.85,4.04-.79.58-1.7,1.41-2.71,1.28-1.13-.15-2.19-.74-3.35-.7.79.53,1.55,1.11,2.26,1.74-.12-.11-2.34,1.19-2.58,1.31-.95.46-1.91.9-2.89,1.32-1.66.71-3.34,1.35-5.05,1.9-2.02.66-4.09,1.23-6.18,1.58-.19.03-.4.09-.59.09-.95.11-1.9.21-2.86.28-4.26.31-11.97.9-20.22-1.41-2.29-.64-4.5-1.53-6.77-2.21-1.1-.33-2.23-.59-3.37-.75-1.28-.18-2.6-.39-3.9-.32,0,0,0,0-.01,0-.83.05-1.67.23-2.39.65,0-.02,0-.03,0-.05-3.64,2.97-6.7,4.9-8.9,6.13-1.38.77-3.02,1.61-3.75,1.01-.73-.6-.09-2.27.33-4.16,0,0,1.13-5.12-.21-10.47Z"/>
        <path class="cls-27" d="m217.16,46.85c-3.18-1.4-6.89-2-10.39-1.07-1.79.47-3.53,1.3-4.83,2.58-.85.83-1.53,2.11-.93,3.07-.36.43-1.61.44-2.14.59-.63.18-1.25.41-1.88.62-.79.27-1.6.63-2.12,1.26-.37.45-.56,1.01-.73,1.55-.26.8-.74,1.89-.47,2.7.24.74.94,1.58,1.42,2.19-.22-.27,7.21-4.49,7.91-4.82,2.74-1.33,5.5-2.3,8.38-3.27,2.69-.91,5.51-1.33,8.32-1.54s5.59.12,8.46.13c-1.27-1.59-3.34-2.58-5.5-2.61-.7-.01-1.41.07-2.11-.02-1.05-.14-1.96-.68-2.9-1.12-.16-.08-.32-.15-.48-.22Z"/>
        <path class="cls-28" d="m173.98,79.1c.91-.53,1.77-1.18,2.66-1.74,2.54-1.62,5.39-2.69,8.22-3.75,2.99-1.12,7.02-.92,10.21-.61,1.53.15,3.03.5,4.54.79,2.9.55,4.16.6,6.51.94,5.51.8,5.6,1.1,8.24,1.39,3.28.36,5.65.17,9.45-.16,3.85-.33,9.09-1.02,15.34-2.54-.38.21-.69.39-.77.43-.95.46-1.91.9-2.89,1.32-1.66.71-3.34,1.35-5.05,1.9-2.02.66-4.09,1.23-6.18,1.58-.19.03-.4.09-.59.09-.95.11-1.9.21-2.86.28-4.26.31-11.97.9-20.22-1.41-2.29-.64-4.5-1.53-6.77-2.21-1.1-.33-2.23-.59-3.37-.75-1.28-.18-2.6-.39-3.9-.32,0,0,0,0-.01,0-.83.05-1.67.23-2.39.65,0-.02,0-.03,0-.05-3.64,2.97-6.7,4.9-8.9,6.13-1.38.77-3.02,1.61-3.75,1.01-.35-.29-.42-.94-.3-1.35.24-.81.7-.67,1.48-.98.46-.18.89-.4,1.31-.65Z"/>
        <path class="cls-23" d="m226.38,71.67c.27-.62.5-1.25.56-1.87.17-1.66-.84-2.93-1.82-4.07-1,.63-.97,1.92-1.02,2.94-.1,2.09-1.31,4.35-3.15,5.93-.44-.63-1.7,0-2.27.78s-.95,1.73-1.79,2.23c-.92.55-2.1.32-2.9,1.04-.31.28-.49.64-.67,1-.75,1.51-1.5,3.02-2.25,4.53-.13.25-.26.53-.2.77.3,1.35,2.68.48,3.51-.14,1.64-1.21,3.24-2.55,4.75-3.92,2.97-2.67,5.71-5.73,7.24-9.23Z"/>
        <path class="cls-27" d="m168.88,60.03c1.92,1.61,4.06,2.96,6.33,4.03-1.41-.55-2.94-.81-4.46-.76.49.63,1.12,1.15,1.82,1.52-.29.17-.57.34-.86.52,1.1.79,2.31,1.42,3.59,1.87-.42.52-1.06.85-1.72.89.02.43.37.83.8.89-.2.57-.64,1.05-1.2,1.3.36.5.84.9,1.39,1.17-.2.74-.58,1.42-1.09,1.99.18.15.45.19.67.1-.4.45-.65,1.02-.71,1.62.78.14,1.59.09,2.34-.16-.77.74-1.54,1.48-2.31,2.22-.19.19-.4.41-.38.68s.45.44.56.2c-.07.36-.13.72-.2,1.07.59.18,1.28-.05,1.66-.54-.93.45-1.69,1.24-2.11,2.19,1.41-.37,2.46-1.11,3.64-1.92,1.08-.75,2.2-1.35,3.21-2.25.43-.39.84-.92,1.32-1.23s.78-.69,1.08-1.19c-.21.07-.42.15-.62.22-.04.01-.08.03-.12.01-.1-.04-.07-.18-.01-.27.35-.58.9-1.06,1.09-1.71-.33-.03-.67,0-.99.09-.62.17-1.21.55-1.86.48-.17-.02-.38-.12-.36-.3,0-.06.04-.12.08-.17.22-.32.43-.64.65-.96-.72-.11-1.48.24-2.18.02-.18-.06-.37-.17-.41-.35-.04-.15.03-.32.13-.44s.24-.2.37-.29c.25-.17.47-.38.66-.62.07-.08.13-.21.06-.29-.04-.04-.1-.05-.15-.06-.28-.04-.56-.08-.84-.13-.07,0-.14-.02-.18-.07-.09-.11.02-.27.13-.36.38-.34.88-.54,1.35-.75.67-.31,1.36-.57,2.06-.79.06-.02.13-.04.16-.1.03-.07-.02-.15-.08-.19s-.15-.04-.22-.04c-.39,0-.77,0-1.16-.06-.27-.04-.54-.09-.8-.16-.15-.04-.63-.31-.75-.28.25-.05.54-.15.8-.16.21,0,.4.04.62.03.07,0,.15-.02.22-.05s.11-.11.09-.19c-.05-.22-.76-.33-.95-.4-.4-.15-.79-.32-1.17-.53.11.06.42,0,.55,0,.22,0,.45,0,.67,0,.36,0,.71.07,1.07.08.1,0,.23-.03.27-.13.11-.26-1.19-.93-1.41-1.07-.59-.37-1.18-.73-1.79-1.07-2.69-1.47-5.73-1.93-8.46-3.31.06.05.12.1.18.15Z"/>
        <ellipse class="cls-25" cx="234.81" cy="59.12" rx="3.36" ry="3.63"/>
        <ellipse class="cls-8" cx="236.86" cy="59.12" rx="1.31" ry="1.99"/>
      </g>
      <path class="cls-18" d="m144.21,232.32c2.47-2.38,2.84-6.34,1.7-9.57-1.14-3.23-3.52-5.86-6.01-8.21-3.25-3.07-7.1-5.97-11.57-6.22-2.81-.15-5.62.77-8.41.47-3.35-.37-6.23-2.44-8.93-4.45-5.58-4.17-26.13-20.34-35.43-27.57-1.76-1.37-4.31-1-5.61.81h0c-1.3,1.81-.84,4.34,1.02,5.57,9.83,6.49,31.75,20.76,37.48,24.71,2.77,1.91,5.66,3.97,7.08,7.02,1.19,2.55,1.2,5.5,2.25,8.11,1.66,4.15,5.64,6.87,9.6,8.96,3.03,1.6,6.29,3.02,9.71,3.06,3.43.04,7.07-1.58,8.54-4.67"/>
      <path class="cls-21" d="m131.12,301.98c-1.83.16-3.49,1.75-4.32,3.56-.82,1.81-.95,3.81-.94,5.72.02,2.5.33,5.13,1.89,6.83.98,1.07,2.38,1.67,3.29,2.8,1.1,1.35,1.37,3.28,1.59,5.12.46,3.8,1.84,18.17,2.5,24.64.12,1.22,1.21,1.97,2.39,1.65h0c1.18-.32,1.98-1.59,1.77-2.79-1.14-6.33-3.76-20.36-4.36-24.12-.29-1.82-.57-3.75.08-5.58.54-1.53,1.67-2.82,2.29-4.33.98-2.4.56-5-.1-7.32-.5-1.78-1.17-3.56-2.42-4.8-1.25-1.24-3.22-1.84-4.96-1.01"/>
      <path class="cls-16" d="m1011.35,345.72c6.8,5.12,21.7-3.09,33.82-18.41-4.64,12.71-4.47,23.64,1.24,26.97,7.6,4.44,22.14-6.27,32.47-23.91,9.27-15.84,12-31.88,6.97-38.21,8.21.85,19.34-11.96,25.66-30.05,5.88-16.81,5.67-32.63.03-38.35,7.25-3.65,11.11-19.63,8.73-38.02-2.62-20.27-11.82-35.79-20.55-34.67-5.98.77-10.18,9.14-11.4,20.85-3.91-14.85-11.37-25.07-18.51-24.15-8.73,1.12-13.69,18.47-11.07,38.74,2.02,15.67,7.98,28.51,14.62,33-7.57,2.62-16.39,14.17-21.76,29.52-5.23,14.95-5.64,29.12-1.7,36.09-7.99.68-19.48,8.88-28.97,21.45-12.32,16.32-16.6,33.85-9.57,39.14Zm63.56-17.39c-8.88,15.16-20.63,24.79-26.26,21.51-5.63-3.28-2.99-18.24,5.89-33.4,8.88-15.16,20.63-24.79,26.26-21.51,5.63,3.28,2.99,18.24-5.89,33.4Zm32.31-67.46c-5.8,16.58-15.49,28.28-21.64,26.14-6.15-2.15-6.44-17.33-.64-33.91,5.8-16.58,15.49-28.28,21.64-26.14,6.15,2.15,6.44,17.33.64,33.91Zm-7.12-104.35c6.46-.83,13.53,12.61,15.78,30.03,2.25,17.42-1.17,32.22-7.63,33.05-6.46.83-13.53-12.61-15.78-30.03-2.25-17.42,1.16-32.22,7.63-33.05Zm-37.54,29.75c-2.25-17.42,1.16-32.22,7.63-33.05,6.46-.83,13.53,12.61,15.78,30.03,2.25,17.42-1.16,32.22-7.63,33.05-6.46.83-13.53-12.61-15.78-30.03Zm-7.43,64.27c5.8-16.58,15.49-28.28,21.64-26.14,6.15,2.15,6.44,17.33.64,33.91-5.8,16.58-15.49,28.28-21.64,26.14-6.15-2.15-6.44-17.33-.64-33.91Zm-31.29,58.55c10.58-14.03,23.38-22.23,28.59-18.31,5.2,3.92.84,18.46-9.74,32.49-10.58,14.03-23.38,22.23-28.59,18.31-5.2-3.92-.84-18.46,9.74-32.49Z"/>
    </g>
  </g>
</svg>