<?xml version="1.0" encoding="UTF-8"?>
<svg xmlns="http://www.w3.org/2000/svg" xmlns:xlink="http://www.w3.org/1999/xlink" viewBox="0 0 1728 1541.14">
  <defs>
    <style>
      .cls-1 {
        fill: #545352;
        mix-blend-mode: multiply;
      }

      .cls-1, .cls-2, .cls-3, .cls-4, .cls-5, .cls-6, .cls-7, .cls-8, .cls-9, .cls-10, .cls-11, .cls-12, .cls-13, .cls-14, .cls-15, .cls-16, .cls-17, .cls-18, .cls-19, .cls-20, .cls-21, .cls-22, .cls-23, .cls-24, .cls-25, .cls-26, .cls-27 {
        stroke-width: 0px;
      }

      .cls-2 {
        fill: url(#linear-gradient);
      }

      .cls-28 {
        opacity: .3;
      }

      .cls-29 {
        opacity: .9;
      }

      .cls-30 {
        opacity: .72;
      }

      .cls-3 {
        fill: url(#linear-gradient-2);
      }

      .cls-4 {
        fill: url(#linear-gradient-3);
      }

      .cls-31 {
        isolation: isolate;
      }

      .cls-5 {
        fill: #565953;
      }

      .cls-6 {
        fill: #585a5c;
      }

      .cls-7 {
        fill: #361515;
      }

      .cls-8 {
        fill: #404240;
      }

      .cls-9 {
        fill: #0d0d0d;
      }

      .cls-10 {
        fill: #1f1f1d;
      }

      .cls-11 {
        fill: #d35454;
      }

      .cls-12 {
        fill: #e0e0e0;
      }

      .cls-13 {
        fill: #dd5954;
      }

      .cls-14 {
        fill: #e26d6d;
      }

      .cls-15 {
        fill: #e27979;
      }

      .cls-16 {
        fill: #d3dce9;
      }

      .cls-17 {
        fill: #b2b3b2;
      }

      .cls-18 {
        fill: #b2b3b3;
      }

      .cls-19 {
        fill: #8c9291;
      }

      .cls-20 {
        fill: #fdedee;
      }

      .cls-21 {
        fill: #7d7f80;
      }

      .cls-22 {
        fill: #8193af;
      }

      .cls-23 {
        fill: #747879;
      }

      .cls-24 {
        fill: #686864;
      }

      .cls-25 {
        fill: #f29fa0;
      }

      .cls-26 {
        fill: #e59595;
      }

      .cls-27 {
        fill: #f16d66;
      }
    </style>
    <linearGradient id="linear-gradient" x1="922.31" y1="1428.49" x2="926.32" y2="796.83" gradientTransform="translate(0 1471.89) scale(1 -1)" gradientUnits="userSpaceOnUse">
      <stop offset="0" stop-color="#cdf2f0"/>
      <stop offset=".43" stop-color="#52807e"/>
    </linearGradient>
    <linearGradient id="linear-gradient-2" x1="939.64" y1="1384.08" x2="942.89" y2="970.3" gradientTransform="translate(0 1471.89) scale(1 -1)" gradientUnits="userSpaceOnUse">
      <stop offset="0" stop-color="#ade5e1"/>
      <stop offset="1" stop-color="#6a7b7a"/>
    </linearGradient>
    <linearGradient id="linear-gradient-3" x1="1096.79" y1="1367.53" x2="1093.28" y2="-204.28" gradientTransform="translate(0 1471.89) scale(1 -1)" gradientUnits="userSpaceOnUse">
      <stop offset="0" stop-color="#cbf7f7"/>
      <stop offset=".25" stop-color="#6cadb0"/>
      <stop offset=".52" stop-color="#3c8b90"/>
      <stop offset="1" stop-color="#1f7378"/>
    </linearGradient>
  </defs>
  <g class="cls-31">
    <g id="Layer_1" data-name="Layer 1">
      <g class="cls-29">
        <path class="cls-2" d="m-7.01,93.67c85.98-33.15,150.06-36.37,193.57-32.7,35.72,3.02,71.98,1.17,107.25,8.18,36.45,7.25,65.38,17.84,88.75,0,12.68-9.68,15.76-21.62,29.59-24.52,17.62-3.7,32.18,11.61,44.38,20.44,32.84,23.74,68.95,15.17,107.25,12.26,96.72-7.34,118.57,28.21,258.87,28.6,74.49.21,64.44-9.82,192.31-16.34,113.32-5.79,111.26,2.6,177.51-4.08,90.79-9.17,99.67-8.19,222.98-24.53,123.32-16.34,143.17-16.34,219.46-16.34,58.51,0,104.26,11.88,142.65,32.7,22.61,12.26,33.96,28.6,103.46,28.6v396.21c-1881.04,13.99-210.58-3.86-1914,10.13C-14.93,395.1-25.07,210.83-7.01,93.67Z"/>
        <path class="cls-3" d="m-54.19,172.96c92-33.08,160.57-36.3,207.12-32.63,38.22,3.02,41.34-2.9,79.07,4.09,39,7.23,76,8.15,99,4.07s22.7-5.27,37.5-8.16c18.86-3.69,60.24-4.72,73.29,4.09,35.13,23.69,73.78,15.14,114.75,12.24,103.48-7.33,126.87,28.15,276.99,28.54,79.7.21,68.95-9.8,205.77-16.31,121.25-5.78,119.04,2.59,189.94-4.07,97.14-9.15,106.64-8.18,238.59-24.48,131.95-16.31,153.19-16.31,234.82-16.31,62.6,0,111.55,11.85,152.64,32.63,24.19,12.24,36.34,28.54,110.7,28.54v395.4c-2012.74,13.97-225.32-3.85-2048,10.11,19.34-116.94,8.48-300.82,27.81-417.74Z"/>
        <g>
          <path class="cls-1" d="m1337.59,214.29c-.16-1.1-.64-2.7-.94-3.83q-5.34-.4-10.68-.8-.6.54-1.2,1.09c-16.82-9.95-5.67-9.61-6.77-12.35q-6.66-5.23-13.33-10.46c-4.12-6.46-11.57-20.07-17.4-24.41-3.31-2.46-8.71-1.65-9.51-6.89-.41-2.68,3.53-7.83,3.41-11.06q-10.2-11.21-20.39-22.41c-2.89-1.67-1.34-3.25-2.61-5.13-.76-.43-4.58-3.09-4.71-3.35-.54-1.12,1.86-20.59.33-25.04-2.18-6.31-9.38-9.68-14.37-13.51-3.42-2.62-6.83-5.19-10.39-7.64-3.62-2.49-7.13-5.01-10.49-7.83-4.29-2.13-8.66-4.17-13.09-6.03-5.04-2.12-13.84-4.82-19.51-6.84-3.77-1.34-7.62-2.54-11.43-3.76-.8-.26-1.58-.47-2.37-.71-5.52-1.73-10.42-3.81-16.17-5.19-9.08-2.18-18.47-3.1-27.87-3.55q-11.51-1.45-23.03-2.9c-1.98-5.89-2.09-7.96-8.71-7.3q-4.15-12.12-8.29-24.25c-2.35.26-3.86,2.54-5.88,3.22-1.24.42-1.94-.21-3.16-.31-2.61.65-10.64,4.99-9.4,7.16-1.31,1.57-6.46,1.23-8.75,3.01-.24.19-3.17,4.89-3.14,5.18.34,3.06,6.15.46-1.47,6,10.36,3.86,20.89,7.55,32.06,8.84,1.45,3.77,1.17,9.74,3.24,9.35-.47.54-.69,1.4-.92,2.04-.44,1.19-.83,2.4-1.22,3.61-.9,2.8-2.08,4.88-4.15,7.09-1.77,1.89-3.81,3.64-5.54,5.49-5.17,5.55-10.14,11.09-13.79,17.72-1.26,2.28-2.11,5.64-2.26,5.93-4.1,8.02-17.71,35.44-19.46,41.68-1.57,5.6-4.15,31.6-3.96,37.64.09,2.76,1.92,18.58,2.4,20.54,2.95,12.01,16.48,28.67,27.45,35.33-.83,1.26-1.96,5.57-2.76,6.42q1.48.45,2.96.89c3.3,18.54,8.83,18.2,20.28,31.08-2.13,8.41,1.55,15.93,3.95,23.58,1.43,4.58,4.83,11.67,5.08,12.97.12.66-1.37,11.02-.67,13.49.79,2.8,5.1,2.01,7.58,3.09.78.98.34,1.69.47,1.91-1.18,2.56-2.22,5.1-3.07,7.78-1.4,4.4-2.95,4.97,5.56-.91,1.14-.11-.32,1.83-.82,2.33-3.25,3.25-10.93,5.39-8.35,10.22-5.56,9.14.51,6.82.7,7.3-6.56,6.96,6.82-.23,16.98-4.07,6.46-2.44,12.98-4.74,19.5-7.02,3.97-1.39,7.98-2.73,11.93-4.14,5.27-1.88,10.73-3.27,16.1-4.82,9.89-3.44,19.69-7.22,29.26-11.5,26.63-11.89,73.54-36.23,97.7-51.96,11.87-10.99,47.16-30,52.53-34.3.81-.65,2.35-.65,1.7-1.58q-4.15-.28-8.31-.57c-.82-1.76-.56-3.73-.82-5.56Z"/>
          <g>
            <path class="cls-21" d="m1127.48,81.77c7.88-3.44-.83-10.62-4.72-17.21-5.62-9.51-10.55-19.37-18.05-27.67,1.61.6,3.37,1.04,4.93,1.8,8.32,4.07,21.25,13.57,22.59,13.41,2.33-.29.28-1.64-1.25-2.95-3.65-3.14-10.64-6.7-15.02-9.84-.51-.37-1.56-2.18-4.42-2.78-.06-.43,1.24-.55,1.49-.52,3.16.38,23.01,7.66,27.99,9.23,13.19,8.84,25.36,36.1,27.12,37.65.54.47,2.38-.06,2.57.13-2.35,8.24,5.1,6.76,6.23,8.32.9,1.24-2.3,4.9,2.24,10.34-1.59,2.98,1.93,8.84,1.85,9.58-.09.95-2.3.41-2.2,1.59.06.78,4.9,8.87-2.66,14.02-.48,8.71-15.61,29.91-16.26,32.16-.72,2.49.81,6.02.88,8.64-2.97,2.28-4.08,5.93-6.06,8.81-.2.29-1.32-.11-2.6,1.8-4.74,7.09-8.78,16.16-9.53,16.79-4.44,3.74-2.26-3.62-7.3,12.79-2.85,2.69-7.48,5.68-9.62,8.71-3.56,5.03,1.82,6.93,4.11,11.07-12.11,20.62,8.91,17.3-4.67,46.61-.42.91-1.81-2.18-.95,4.55l-2.21,2.56-4.93,28.81c-.79,1.78-.66,3.46-1.92,3.13-.23-.27-5.28-4.07-5.69-4.29-3.39-1.78-6.75-.81-10.48-.9-.7-2.47.8-12.83.67-13.49-.24-1.29-3.64-8.39-5.08-12.97-2.4-7.66-6.08-15.17-3.95-23.58-11.45-12.88-16.98-12.54-20.28-31.08-.2-1.15-.95-4.12-.33-5.09.83-1.3,2.31,4.95,5.65-.23-5.57-11.37-22.68-19.19-20.54-33.57,1.26-8.45,14.4-31.14,15-33.67,2.3-1.4,4.39-7.28,5.68-10.54,2.19-5.53,7.66-19.58,3.98-23.78,6.36-13.77,12.18-42.87,14.13-58.1,2.29-.32.21,2.69,1.94,2.84.06,3.56.67,7.04.85,10.57.89,17.77-1.26,19.66,8.63,35.79,5.03,8.21,7.81,11.8,15.81,17.33,1.26.87,1.56,1.09,2.95,1.85,11.23,6.2,25.72,5.7,26.19,3.21-3.93-4.73-10.98-6.93-15.69-11.17-5.74-5.16-14.9-18.48-18.87-25.34-1.98-3.42-2.61-7.42-5.51-9.88-.13-1.4-.02-4.82-1.54-3.04.09-15.13-3-32.67-8.59-46.57l.91-1.18c10.3,14.18,17.22,30.5,26.53,45.37Z"/>
            <path class="cls-21" d="m1128.1,34.58c9.4.46,18.8,1.38,27.87,3.55q-1.01,1.47-2.02,2.94l-3.36-.21c-1,.44-.24.81.48,1.43,1.85,1.61,16.6,7.52,20.17,9.13,8.24,3.73,15.34,6.93,24.03,9.81,5.13,1.7,10.33,3.2,15.38,5.11.5-.62-10.77-9.15-11.75-9.82-6.49-4.44-12.5-5.05-12.95-8.73,5.67,2.01,14.47,4.71,19.51,6.84,4.43,1.86,8.79,3.9,13.09,6.03,3.36,2.82,6.86,5.34,10.49,7.83q-3.53,1.43-7.07,2.87c5.48,2.38,11.3,4.58,17.46,4.77,5,3.83,12.2,7.2,14.37,13.51,1.53,4.44-.87,23.92-.33,25.04.12.26,3.95,2.92,4.71,3.35,1.27,1.89-.28,3.46,2.61,5.13q10.2,11.21,20.39,22.41c.11,3.23-3.82,8.38-3.41,11.06-10.89,5.72-18.77-3.03-27.31-8.38,1.76-11.23-.78-9.25-12.41-12.6-1.79-1.52-2.9-3.66-4.28-5.48-.11-3.46,8.69-21.56,8.52-22.73-.59-3.91-7.62-3.65-14.77-6.38-7.59-2.9-16.23-6.72-22.51-11.77-.23-.43.38-1.13.31-1.36-.58-2.14-29.18-13.83-34.12-24.77-3.95-1.55-28.34-19.85-30.14-19.38-.15.04-.43,1.07-.02,1.44-4.98-1.57-24.83-8.85-27.99-9.23-.25-.03-1.55.08-1.49.52,2.86.6,3.91,2.41,4.42,2.78-2.19.02-4.66-2.89-6.33-.62-1.55-.76-3.31-1.21-4.93-1.8-.13-.05-1.55.41-1.76-1.5.28-.16.39-.98,1.6-1.29,1.16-.3,13.97,2.71,23.55.48Z"/>
            <path class="cls-21" d="m1076.32,72.81c-5.99,10.28-13.08,20.99-12.81,33.04,5.03-10.64,10.54-21.24,15.37-31.95,2.33,4.63,2.3-4.77,6.17-2.65-9.48,29.38-13.54,41.18-15.52,73.15,0,.06.92.1.88.75-.13,2.22.08,7.55-.32,9.25-.6,2.53-13.74,25.22-15,33.67-2.14,14.38,14.97,22.2,20.54,33.57-3.33,5.18-4.82-1.07-5.65.23-.62.97.12,3.95.33,5.09l-2.96-.89c.8-.85,1.93-5.16,2.76-6.42-10.97-6.67-24.5-23.32-27.45-35.33-.48-1.96-2.32-17.78-2.4-20.54-.19-6.04,2.39-32.04,3.96-37.64,1.75-6.24,15.36-33.65,19.46-41.68,1.01-1.31,2.01-2.62,3.02-3.92,4.22-.96,11.8-16.17,9.61-7.74Z"/>
            <path class="cls-23" d="m1277.76,156.64c.8,5.24,6.21,4.43,9.51,6.89,5.82,4.34,13.28,17.95,17.4,24.41-14.13.47-28.04-4.42-38.84-12.82-1.77.86-4.26,1.82-6.17,2.17-5.39,1-5.07,1.79-12.13-3.17l-5.41-17.58q-3.68-2.8-7.35-5.6c5.73-5.8-7.38-9.66,3.27-15.29,11.62,3.35,14.16,1.36,12.41,12.6,8.54,5.35,16.42,14.1,27.31,8.38Z"/>
            <path class="cls-6" d="m1304.67,187.94q6.66,5.23,13.33,10.46-4.06,3.85-8.12,7.71c1.5,1.56,6.83,8.19,7.31,8.48-11.44,11.19-8.17,2.18-12.44-9.71-17.86,1.15-18.98.53-30.74-11.19-5.08-5.06-9.67-10.95-14.34-16.4,1.91-.35,4.39-1.31,6.17-2.17,10.8,8.39,24.7,13.28,38.84,12.82Z"/>
            <path class="cls-8" d="m1116.13,326.17c.58,3.97,3.5,2.99,2.57.61,3.39-1,3.86-5.33,9.99-6.98,1.37-.37,8.56,1.4,10.67,1.76,1.71.29,8.78,1.22,9.29,1.51.08.04-.27.65.77,1.52-3.95,1.41-7.97,2.75-11.93,4.14-6.52,2.29-13.03,4.58-19.5,7.02-10.16,3.84-23.54,11.03-16.98,4.07-.19-.48-6.25,1.84-.7-7.3-2.58-4.83,5.1-6.96,8.35-10.22,2.81-.19,3.85-3.08,4.6-3.29,3.99-1.11-1.74,12.41-4.74,14.36-.08.05-1.51-.72-1.98.05-.06.1,1.15,1.94,1.26,1.99,2.19.97,5.89-9.74,8.34-9.25Z"/>
            <path class="cls-10" d="m1318,198.4c1.1,2.73-10.05,2.39,6.77,12.35-1.26,1.61-2.88,3-4.22,4.53-.32-1.07-3.06-.51-3.36-.69-.48-.29-5.81-6.92-7.31-8.48q4.06-3.85,8.12-7.71Z"/>
            <path class="cls-10" d="m1087.66,53.67c-.08.21-.14,1.35-.22,1.55-2.6,6.27-5.76,12.48-8.56,18.69-4.83,10.71-10.34,21.31-15.37,31.95-.27-12.05,6.83-22.76,12.81-33.04,3.72-6.38,8.38-12.33,11.34-19.14Z"/>
            <path class="cls-10" d="m1066.71,80.56c-1.01,1.31-2.01,2.62-3.02,3.92.15-.28,1-3.64,2.26-5.93,5.17-9.41,10.57-13.98,17.51-21.8.79-.49.82-.07.39.76-1.64,3.12-13.69,18.57-17.13,23.04Z"/>
            <path class="cls-23" d="m1091.05,51.47c-.84,1.65-1.45,3.73-3.61,3.75.08-.2.13-1.34.22-1.55.61-1.52,3.08-10.13,3.91-11.07,3.58-4.06,1.7,4.54-.51,8.87Z"/>
            <path class="cls-6" d="m1229.03,68.5c3.56,2.45,6.97,5.01,10.39,7.64-6.16-.19-11.98-2.4-17.46-4.77q3.53-1.43,7.07-2.87Z"/>
            <path class="cls-6" d="m1205,89.3c-4.7,1.43,4.97,9.31,2.28,14.38.12.82,11.97,9.94,12.73,10.28.56.25,4.92.07,5.34.64.59.81-1.28,3.06-.85,4.26.25.69,7.92,9.57,9.26,11.33,1.39,1.82,2.49,3.95,4.28,5.48-10.66,5.63,2.46,9.49-3.27,15.29q3.68,2.8,7.35,5.6c-.86.97-1.51,1.11-2.78.93-.81-.11-1.48-3.44-9.71.62-3.97-3.55-7.05,3.24-10.93,3.16,4.04,4.16-.52,4.25-.77,5.89-.07.5,3.1,7.91,3.24,9.35.36,4.57-15.89,43.77-18.54,54.36-4.03,16.09-.92,32.99-17.34,46.34-3.85,8.41-10.21,11.49-14.32,20.18-5.17,5.56-10.52,11.21-15.47,16.94-.78.9-3.56,4.55-3.33,4.8.23.25.51-.32,1.49-.04.35.1.87.55.98.94-1.97,1.09-4.14,1.67-5.98,3.03-.51-.29-7.58-1.21-9.29-1.51-2.94-1.55,1.68-5.2,3.68-9.04,5.13-9.8,23.16-54.69,22.12-63.59-4.57-16.62-17.17-29.78-29.85-41.05,5.04-16.41,2.85-9.04,7.3-12.79.75-.63,4.78-9.7,9.53-16.79,1.28-1.91,2.4-1.51,2.6-1.8,1.98-2.88,3.08-6.53,6.06-8.81-.06-2.62-1.59-6.15-.88-8.64.65-2.25,15.79-23.46,16.26-32.16,7.56-5.15,2.72-13.25,2.66-14.02-.1-1.18,2.1-.65,2.2-1.59.07-.74-3.45-6.6-1.85-9.58-4.54-5.44-1.34-9.1-2.24-10.34-1.13-1.55-8.58-.08-6.23-8.32-.19-.19-2.04.34-2.57-.13-1.76-1.55-13.93-28.81-27.12-37.65-.42-.37-.13-1.41.02-1.44,1.79-.47,26.19,17.83,30.14,19.38,4.94,10.94,33.54,22.63,34.12,24.77.06.23-.54.93-.31,1.36Z"/>
            <path class="cls-23" d="m1125.7,216.58c7.71,7.91,23.04,34.55,23.47,44.28.35,7.91-9.81,37.71-15.75,45.53,1.17,7.27-8.02,11.8-10.48,13.93-1.6,1.39-2.97,4.47-6.81,5.85-2.45-.48-6.15,10.22-8.34,9.25-.11-.05-1.32-1.89-1.26-1.99.47-.76,1.9,0,1.98-.05,3-1.95,8.73-15.47,4.74-14.36-.74.21-1.79,3.1-4.6,3.29.5-.5,1.96-2.44.82-2.33,2.18-1.51,4.35-3,6.4-4.68.88-1.21-.35-1.18-.38-1.24-.11-.25-.23-.58-.39-.76,1.27.33,1.13-1.35,1.92-3.13l4.93-28.81,2.21-2.56c-.86-6.73.53-3.63.95-4.55,13.59-29.31-7.44-25.99,4.67-46.61-2.29-4.13-7.67-6.04-4.11-11.07Z"/>
            <path class="cls-23" d="m1135.32,207.87c12.68,11.27,25.28,24.42,29.85,41.05,1.03,8.9-17,53.79-22.12,63.59-2.01,3.84-6.62,7.49-3.68,9.04-2.11-.36-9.3-2.13-10.67-1.76-6.13,1.65-6.6,5.98-9.99,6.98.93,2.38-1.99,3.35-2.57-.61,3.84-1.37,5.21-4.46,6.81-5.85,2.46-2.13,11.65-6.66,10.48-13.93,5.93-7.83,16.1-37.62,15.75-45.53-.43-9.73-15.77-36.37-23.47-44.28,2.14-3.03,6.77-6.02,9.62-8.71Z"/>
            <g>
              <path class="cls-23" d="m1124.07,130.37c.91-.01.38-1.99.13-2.7-4.11-11.78-12.16-24.33-14.18-35.85-.24-1.39.29-3.22.16-4.62,2.9,2.46,3.53,6.46,5.51,9.88,3.97,6.86,13.13,20.18,18.87,25.34,4.71,4.23,11.77,6.43,15.69,11.17-.47,2.49-14.96,2.99-26.19-3.21Z"/>
              <path class="cls-6" d="m1109.54,105.69c.06.12.57-.9,1.16,1.8,2.19-3.12,2.11,1.14,2.65,1.76.08.09,1.76.59,1.97.91,2.56,3.95,5.74,13.5,5.8,18.34-8-5.52-10.77-9.12-15.81-17.33,5.91-2.26,3.66-4.34,3.53-4.9-.07-.32.43-.46.7-.59Z"/>
              <path class="cls-23" d="m1110.18,87.19c.13,1.4-.4,3.24-.16,4.62,2.02,11.52,10.07,24.07,14.18,35.85.25.71.78,2.69-.13,2.7-1.39-.77-1.68-.98-2.95-1.85-.05-4.84-3.23-14.39-5.8-18.34-.21-.32-1.89-.82-1.97-.91-.54-.63-.46-4.88-2.65-1.76-.59-2.7-1.1-1.68-1.16-1.8-4.47-8.14-.95-13.29-.9-21.54,1.52-1.78,1.41,1.65,1.54,3.04Z"/>
            </g>
            <path class="cls-8" d="m1109.43,309c-2.08,3.71.28,4.36,1.77,8.43l4.3-3.38c.03.06,1.26.03.38,1.24-2.05,1.68-4.22,3.17-6.4,4.68-8.51,5.88-6.96,5.31-5.56.91.42,1.75,4.42-1.36,4.78-1.95.91-1.5-.95-4.58-1.7-5.83-.13-.22.31-.93-.47-1.91-2.48-1.08-6.79-.29-7.58-3.09,3.73.08,7.09-.88,10.48.9Z"/>
            <path class="cls-23" d="m1115.96,39.31c4.37,3.14,11.37,6.7,15.02,9.84,1.53,1.31,3.58,2.66,1.25,2.95-1.34.17-14.28-9.33-22.59-13.41,1.67-2.27,4.14.64,6.33.62Z"/>
            <g>
              <path class="cls-10" d="m1102.95,35.39c.21,1.9,1.63,1.45,1.76,1.5,7.5,8.3,12.43,18.16,18.05,27.67.51,3.69,3.24,8.38,3.72,10.31.17.7-1.28,3.82,1,6.91-9.31-14.86-16.23-31.19-26.53-45.37.65-.36,1.36-.64,1.99-1.01Z"/>
              <path class="cls-23" d="m1127.48,81.77c-2.27-3.09-.82-6.21-1-6.91-.48-1.93-3.22-6.62-3.72-10.31,3.9,6.59,12.6,13.78,4.72,17.21Z"/>
            </g>
            <g>
              <path class="cls-10" d="m1096.68,75.4c-.18-3.53-.79-7-.85-10.57-.1-5.75,1.55-20.23.52-24.66,2.91-2.63,1.76,3.21,1.83,3.61.03.17.96.62,1.15,3.24.1,1.42-1.08,27.21-1.86,28.44-.03.04-.59-.31-.79-.08Z"/>
              <path class="cls-17" d="m1096.35,40.17c1.02,4.43-.63,18.91-.52,24.66-1.73-.15.35-3.16-1.94-2.84.87-6.81.57-13.9,1.56-20.64.34-2.3.42-3.27.91-1.18Z"/>
            </g>
            <path class="cls-6" d="m1115.12,313.29c.15.18.27.51.39.76l-4.3,3.38c-1.49-4.07-3.85-4.72-1.77-8.43.41.21,5.45,4.02,5.69,4.29Z"/>
            <g>
              <path class="cls-9" d="m1096.36,24.38c6.63-.66,6.73,1.41,8.71,7.3l23.03,2.9c-9.58,2.23-22.4-.79-23.55-.48-1.21.32-1.33,1.13-1.6,1.29-.64.38-1.35.65-1.99,1.01l-.91,1.18c5.59,13.9,8.68,31.44,8.59,46.57-.05,8.25-3.57,13.41.9,21.54-.27.13-.77.28-.7.59.13.56,2.38,2.64-3.53,4.9-9.89-16.13-7.74-18.02-8.63-35.79.2-.23.77.12.79.08.79-1.23,1.96-27.03,1.86-28.44-.19-2.62-1.12-3.07-1.15-3.24-.07-.4,1.07-6.25-1.83-3.61-.48-2.1-.57-1.12-.91,1.18-.99,6.74-.69,13.82-1.56,20.64-1.95,15.23-7.78,44.34-14.13,58.1,3.68,4.2-1.79,18.25-3.98,23.78-2.08-2.35-.55,4.03-5.36,1.29.04-.65-.88-.69-.88-.75,1.98-31.97,6.03-43.77,15.52-73.15,2.11-6.55,4.32-13.13,6-19.78,2.21-4.33,4.1-12.93.51-8.87-2.07.39-1.79-5.58-3.24-9.35-.7-.77.42-2.02.42-2.13l2.71-2.57-2.49,1.02c0-.07-.36-.27-.18-1.34.31-1.86,2.16-.63-.43-4.8l.73-2.52c1.05,1.44,2.12,2.89,2.81,4.55,4.05.87,3.77-1,4.47-1.07Z"/>
              <path class="cls-6" d="m1075.78,143.87c-1.29,3.26-3.38,9.13-5.68,10.54.4-1.7.19-7.03.32-9.25,4.81,2.74,3.28-3.63,5.36-1.29Z"/>
            </g>
            <path class="cls-5" d="m1103.93,320.88c.85-2.68,1.89-5.22,3.07-7.78.75,1.25,2.62,4.33,1.7,5.83-.36.59-4.36,3.69-4.78,1.95Z"/>
            <path class="cls-24" d="m1205,89.3c6.28,5.05,14.92,8.88,22.51,11.77,7.15,2.73,14.18,2.47,14.77,6.38.18,1.18-8.62,19.27-8.52,22.73-1.34-1.75-9.01-10.64-9.26-11.33-.43-1.2,1.44-3.44.85-4.26-.41-.57-4.78-.39-5.34-.64-.76-.34-12.61-9.46-12.73-10.28,2.68-5.08-6.99-12.95-2.28-14.38Z"/>
            <g>
              <g>
                <path class="cls-10" d="m1153.96,41.07c2.9,1.17,6.06,1.01,9.09,1.61,5.27,1.04,8.08,4.03,9.1.64.78.25,1.57.46,2.37.71-3.35.67,1.97,1.17,1.34,3.14q-2.31,2.13-4.61,4.25c-3.58-1.62-18.33-7.52-20.17-9.13-.72-.62-1.48-.99-.48-1.43l3.36.21Z"/>
                <path class="cls-24" d="m1155.97,38.14c5.74,1.38,10.65,3.46,16.17,5.19-1.02,3.38-3.83.4-9.1-.64-3.03-.6-6.19-.43-9.09-1.61q1.01-1.47,2.02-2.94Z"/>
              </g>
              <g>
                <path class="cls-6" d="m1174.51,44.04c3.82,1.22,7.66,2.42,11.43,3.76.45,3.69,6.46,4.29,12.95,8.73l-3.63,4.71c-8.69-2.88-15.78-6.08-24.03-9.81q2.31-2.13,4.61-4.25c.63-1.97-4.7-2.47-1.34-3.14Z"/>
                <path class="cls-10" d="m1198.89,56.53c.98.67,12.25,9.2,11.75,9.82-5.05-1.91-10.25-3.41-15.38-5.11l3.63-4.71Z"/>
              </g>
            </g>
            <path class="cls-19" d="m1085.05,71.25c-3.87-2.12-3.84,7.28-6.17,2.65,2.8-6.21,5.96-12.43,8.56-18.69,2.17-.02,2.77-2.1,3.61-3.75-1.69,6.66-3.89,13.23-6,19.78Z"/>
            <path class="cls-8" d="m1242.12,156.55l5.41,17.58c7.06,4.96,6.75,4.17,12.13,3.17,4.66,5.45,9.25,11.34,14.34,16.4,11.76,11.72,12.88,12.34,30.74,11.19,4.28,11.89,1.01,20.89,12.44,9.71.3.18,3.04-.39,3.36.69-.39.44-.43.91-.81,1.37-.86,1.03-6.64,8.3-6.55,8.82.4,2.41,4.33,2.54,6,2.93-5.58,1.87-6.26-2.46-6.9-2.24-1.22.43-9.41,11.4-11.06,13.27-.75.85-1.46,1.72-2.21,2.56-.55-1.59-.99-1.53-2.55-1.57-26.77,7.01-49.65,11.87-75.35,23.4-30.09,13.51-30.17,21.49-51.44,41.88-3.35,3.21-10.08,7.39-8.23,8.48q-3.89,2.45-7.79,4.91c-.97-.28-1.26.29-1.49.04-.23-.25,2.55-3.9,3.33-4.8,4.95-5.73,10.3-11.38,15.47-16.94,4.11-8.69,10.48-11.77,14.32-20.18,16.43-13.35,13.32-30.26,17.34-46.34,2.65-10.59,18.89-49.79,18.54-54.36-.14-1.45-3.32-8.86-3.24-9.35.25-1.64,4.81-1.73.77-5.89,3.88.09,6.96-6.7,10.93-3.16,8.23-4.07,8.9-.74,9.71-.62,1.28.18,1.92.04,2.78-.93Z"/>
            <path class="cls-8" d="m1299.01,241.99c-3.86,4.29-6.56,8.2-11.83,11.26q-2.47-.18-4.95-.36c-38.61,14.33-79.09,30.84-111.63,56.64-.18.14.94.96-3.2,2.58l2.18-.15c-4.98,2.72-9.99,5.32-14.96,8.07-.11-.39-.63-.84-.98-.94q3.89-2.45,7.79-4.91c-1.85-1.09,4.88-5.27,8.23-8.48,21.26-20.39,21.35-28.37,51.44-41.88,25.7-11.54,48.58-16.39,75.35-23.4,1.56.05,2.01-.01,2.55,1.57Z"/>
            <path class="cls-10" d="m1287.18,253.25c-4.83,1.67-11.92,7-12.57,7.33-.15.08-1.03-.43-1.18-.36-10.46,5.32-20.99,10.07-32.06,13.88-24.45,11.67-48.02,24.88-71.78,37.85l-2.18.15c4.14-1.62,3.02-2.44,3.2-2.58,32.53-25.79,73.01-42.3,111.63-56.64q2.47.18,4.95.36Z"/>
            <g>
              <g>
                <path class="cls-8" d="m1320.15,230.31c2.3-2.42,1.13-1.41-.96-1.9-1.67-.39-5.6-.53-6-2.93-.09-.52,5.69-7.79,6.55-8.82,4.58-2.78,3.03,5.05,3.4,12.14-.96.56-2.05.94-2.99,1.52Z"/>
                <path class="cls-10" d="m1319.18,228.4c2.1.49,3.26-.52.96,1.9-5.92,3.64-12.72,6.03-18.93,9.13,1.65-1.86,9.85-12.84,11.06-13.27.64-.23,1.32,4.11,6.9,2.24Z"/>
              </g>
              <g>
                <path class="cls-9" d="m1336.65,210.46c.3,1.12.78,2.72.94,3.83.26,1.83,0,3.81.82,5.56q4.15.28,8.31.57c.64.93-.89.93-1.7,1.58-5.36,4.3-40.65,23.31-52.53,34.3-24.16,15.74-71.08,40.07-97.7,51.96-9.57,4.27-19.37,8.06-29.26,11.5-5.37,1.55-10.83,2.94-16.1,4.82-1.04-.87-.7-1.48-.77-1.52,1.84-1.37,4.01-1.94,5.98-3.03,4.97-2.74,9.97-5.35,14.96-8.07,23.76-12.98,47.33-26.18,71.78-37.85,11.07-3.81,21.6-8.56,32.06-13.88.15-.08,1.04.43,1.18.36.65-.34,7.74-5.66,12.57-7.33,5.27-3.06,7.97-6.97,11.83-11.26.75-.83,1.46-1.71,2.21-2.56,6.21-3.09,13.01-5.49,18.93-9.13.94-.58,2.03-.96,2.99-1.52-.37-7.09,1.18-14.92-3.4-12.14.38-.45.42-.92.81-1.37,1.34-1.53,2.96-2.92,4.22-4.53l1.2-1.09,10.68.8Z"/>
                <path class="cls-8" d="m1327.84,217.32c11.84,1.91,13.55,4.8.18,8.76q-.09-4.38-.18-8.76Z"/>
              </g>
            </g>
            <g>
              <path class="cls-10" d="m1079.02,3.05c1.23.1,1.92.73,3.16.31,2.02-.68,3.53-2.97,5.88-3.22q4.15,12.12,8.29,24.25c-.7.07-.42,1.94-4.47,1.07-.69-1.66-1.76-3.11-2.81-4.55.17-2.01-1.8-4.2-2.89-5.7.43-1.02-1.32-7.95-2.75-9.37-7.76-4.2-.63,5.25,1.18,8.25,1.13,1.87,3.2,5.08,4.46,6.82l-.73,2.52c2.59,4.17.74,2.94.43,4.8-3.39-2.52-5.32-6.67-7.7-9.25-.3-.33-2.98-1.02-3.15-1.27-.33-.49,1-3.81-1.96-1.88-.65-1.55-4.04-3.89-6.36-5.62-1.24-2.17,6.79-6.51,9.4-7.16Z"/>
              <path class="cls-10" d="m1069.62,10.21c2.32,1.73,5.71,4.07,6.36,5.62,2.96-1.93,1.63,1.39,1.96,1.88.17.25,2.85.94,3.15,1.27,2.38,2.58,4.31,6.73,7.7,9.25-.18,1.08.19,1.27.18,1.34-.07.53-.21,1.02-.22,1.55,0,.11-1.12,1.36-.42,2.13-11.17-1.29-21.7-4.98-32.06-8.84,7.61-5.54,1.81-2.94,1.47-6-.03-.29,2.9-4.99,3.14-5.18,2.29-1.78,7.44-1.44,8.75-3.01Z"/>
              <path class="cls-8" d="m1086.19,15.2c-.79-1.08-.71-2.6-1.57-1.12-1.81-3-8.93-12.45-1.18-8.25,1.42,1.42,3.18,8.35,2.75,9.37Z"/>
              <path class="cls-6" d="m1086.19,15.2c1.09,1.51,3.06,3.69,2.89,5.7-1.26-1.74-3.34-4.95-4.46-6.82.86-1.48.78.03,1.57,1.12Z"/>
              <path class="cls-10" d="m1088.75,31.12c0-.53.15-1.02.22-1.55l2.49-1.02-2.71,2.57Z"/>
            </g>
          </g>
          <path class="cls-1" d="m1337.59,214.29c-.16-1.1-.64-2.7-.94-3.83q-5.34-.4-10.68-.8-.6.54-1.2,1.09c-16.82-9.95-5.67-9.61-6.77-12.35q-6.66-5.23-13.33-10.46c-4.12-6.46-11.57-20.07-17.4-24.41-3.31-2.46-8.71-1.65-9.51-6.89-.41-2.68,3.53-7.83,3.41-11.06q-10.2-11.21-20.39-22.41c-2.89-1.67-1.34-3.25-2.61-5.13-.76-.43-4.58-3.09-4.71-3.35-.54-1.12,1.86-20.59.33-25.04-2.18-6.31-9.38-9.68-14.37-13.51-3.42-2.62-6.83-5.19-10.39-7.64-3.62-2.49-7.13-5.01-10.49-7.83-4.29-2.13-8.66-4.17-13.09-6.03-5.04-2.12-13.84-4.82-19.51-6.84-3.77-1.34-7.62-2.54-11.43-3.76-.8-.26-1.58-.47-2.37-.71-5.52-1.73-10.42-3.81-16.17-5.19-9.08-2.18-18.47-3.1-27.87-3.55q-11.51-1.45-23.03-2.9c-1.98-5.89-2.09-7.96-8.71-7.3q-4.15-12.12-8.29-24.25c-2.35.26-3.86,2.54-5.88,3.22-1.24.42-1.94-.21-3.16-.31-2.61.65-10.64,4.99-9.4,7.16-1.31,1.57-6.46,1.23-8.75,3.01-.24.19-3.17,4.89-3.14,5.18.34,3.06,6.15.46-1.47,6,10.36,3.86,20.89,7.55,32.06,8.84,1.45,3.77,1.17,9.74,3.24,9.35-.47.54-.69,1.4-.92,2.04-.44,1.19-.83,2.4-1.22,3.61-.9,2.8-2.08,4.88-4.15,7.09-1.77,1.89-3.81,3.64-5.54,5.49-5.17,5.55-10.14,11.09-13.79,17.72-1.26,2.28-2.11,5.64-2.26,5.93-4.1,8.02-17.71,35.44-19.46,41.68-1.57,5.6-4.15,31.6-3.96,37.64.09,2.76,1.92,18.58,2.4,20.54,2.95,12.01,16.48,28.67,27.45,35.33-.83,1.26-1.96,5.57-2.76,6.42q1.48.45,2.96.89c3.3,18.54,8.83,18.2,20.28,31.08-2.13,8.41,1.55,15.93,3.95,23.58,1.43,4.58,4.83,11.67,5.08,12.97.12.66-1.37,11.02-.67,13.49.79,2.8,5.1,2.01,7.58,3.09.78.98.34,1.69.47,1.91-1.18,2.56-2.22,5.1-3.07,7.78-1.4,4.4-2.95,4.97,5.56-.91,1.14-.11-.32,1.83-.82,2.33-3.25,3.25-10.93,5.39-8.35,10.22-5.56,9.14.51,6.82.7,7.3-6.56,6.96,6.82-.23,16.98-4.07,6.46-2.44,12.98-4.74,19.5-7.02,3.97-1.39,7.98-2.73,11.93-4.14,5.27-1.88,10.73-3.27,16.1-4.82,9.89-3.44,19.69-7.22,29.26-11.5,26.63-11.89,73.54-36.23,97.7-51.96,11.87-10.99,47.16-30,52.53-34.3.81-.65,2.35-.65,1.7-1.58q-4.15-.28-8.31-.57c-.82-1.76-.56-3.73-.82-5.56Z"/>
        </g>
        <path class="cls-4" d="m-42.01,255.52c105.38-39.52,183.92-43.35,237.24-38.98,43.78,3.6,47.35-3.47,90.57,4.88,44.68,8.64,87.05,9.73,113.4,4.87,26.34-4.87,26-6.3,42.95-9.75,21.6-4.41,69.01-5.64,83.95,4.88,40.24,28.3,84.51,18.08,131.44,14.61,118.54-8.76,145.32,33.62,317.28,34.09,91.29.25,78.98-11.7,235.7-19.48,138.88-6.9,136.35,3.1,217.57-4.87,111.27-10.93,122.15-9.77,273.28-29.25,151.14-19.48,175.48-19.48,268.99-19.48,71.7,0,127.78,14.16,174.84,38.98,27.7,14.61,41.63,34.09,126.8,34.09l-531.25,1271H-82c22.15-139.68,17.86-1145.96,39.99-1285.62Z"/>
      </g>
      <g>
        <path class="cls-14" d="m471.2,378.5l-178.16,68.74c-4.22,1.22-3.46,17.14,3.73,42.79,7.19,25.65,14.85,39.66,19.08,38.5l188.1-33.96-32.76-116.07Z"/>
        <path class="cls-14" d="m505.72,492.17c1.07-10.17-2.39-32.65-9.49-58.06-7.1-25.41-15.8-46.45-22.07-54.58-.4-.51-.8-1.03-1.18-1.44l-6.38,2.46c-1.55,9.51,1.94,32.77,9.37,59.23,7.43,26.46,16.5,48.18,22.8,55.46l6.71-1.1c.04-.69.16-1.29.25-1.99Z"/>
        <path class="cls-26" d="m498.5,433.49c-.73-2.56-17.6-62.31-29.73-58.9-2.32.64-3.6,3.43-4.05,7.4-2.19,16.88,8.75,56.44,9.53,58.31.78,1.87,11.73,41.49,22.36,54.74,2.52,3.17,5.05,4.8,7.35,4.06,11.68-3.22-5.04-62.99-5.46-65.61Zm-27.34-53.98c2.14,2.34,3.95,4.97,5.38,7.8h0c7.56,15.11,13.52,30.98,17.79,47.33,4.89,16.19,8.04,32.85,9.39,49.71.29,3.16.12,6.34-.51,9.45h0c-.13.46-.35.88-.64,1.26-.52-.17-.99-.48-1.35-.88-4.36-4.13-13.96-22.65-22.99-55.01-9.02-32.35-10.53-53.15-8.95-58.93.07-.54.3-1.06.65-1.47.45.17.87.43,1.23.75"/>
      </g>
      <g>
        <path class="cls-11" d="m215.73,786.31l-82.81,130.73c-2.16,2.83,6.02,12.83,23.08,26.06,17.06,13.23,28.81,18.65,31,15.86l106.07-112.89-77.34-59.76Z"/>
        <path class="cls-11" d="m293.07,843.65c-4.21-7.14-17.31-20.1-34.2-33.22-16.88-13.11-32.7-22.62-40.71-24.88-.51-.14-1.02-.28-1.46-.37l-2.97,4.68c3.58,6.94,17.08,20.4,34.68,34.04,17.61,13.64,33.99,23.4,41.61,25.1l3.84-3.95c-.3-.47-.52-.91-.79-1.42Z"/>
        <path class="cls-15" d="m260.04,808.93c-1.71-1.31-41.53-32.07-47.78-24-1.2,1.54-.69,3.97.93,6.77,6.72,12.04,32.94,32.52,34.35,33.36,1.41.84,27.66,21.35,40.98,24.85,3.17.85,5.6.69,6.74-.9,6.05-7.73-33.68-38.58-35.22-40.07Zm-43.85-21.95c2.52.49,4.97,1.33,7.27,2.48h0c12.22,6.19,23.76,13.64,34.42,22.23,11,8.18,21.09,17.51,30.1,27.83,1.71,1.92,3.14,4.07,4.23,6.4h0c.14.36.2.74.19,1.13-.42.14-.87.17-1.31.08-4.83-.58-20.02-8.01-41.51-24.72-21.49-16.71-32.51-29.52-34.27-34.05-.22-.39-.32-.83-.29-1.28.38-.11.77-.14,1.16-.11"/>
      </g>
      <g>
        <path class="cls-16" d="m1681.42,486.68c-5.3-1.77-11.08-1.35-16.57-.34-12.08,2.22-23.62,7.26-33.52,14.51-8.26,6.04-14.79,16.72-26.42,14.12-5.26-1.17-9.85-4.31-14.19-7.5-4.34-3.2-8.68-6.57-13.77-8.37-8.2-2.89-17.2-1.32-25.87-.56-8.67.76-18.28.35-24.75-5.47-8.84-7.94-9.26-23.76-20.07-28.68-4-1.82-9.01-1.85-12-5.07-2.95-3.18-2.64-8.16-1.6-12.38,3.33-13.47,11.97-24.97,21.22-35.31,9.24-10.34,19.37-20.06,26.68-31.85,2.04-3.29,3.88-6.83,4.27-10.68.39-3.85-.95-8.08-4.17-10.23-3.06-2.05-7.21-1.83-10.6-.37-3.39,1.46-6.18,3.99-8.9,6.47-10.06,9.17-20.72,17.96-30.31,27.61-3.56,3.58-3.64,7.47-5.63,11.99-2.32,5.24-5.42,10.12-9.24,14.39-12.8,14.32-33.39,19.44-43.43,36.52-5.88,10.01-6.6,31.59-11.02,42.33-11.04,26.84-49.82,35.09-58.05,62.92-4.46,15.07,1.27,33.2-8.08,45.83-5.99,8.09-16.39,11.25-24.99,16.49-14.29,8.71-23.65,24.5-25.58,41.01-.9,7.72-.96,17.52,3.55,24.04,6.32,9.12,14.56,16.74,22.63,24.27,5.61,5.23,11.57,10.66,19.03,12.44,12.35,2.96,24.05-4.48,35.72-7.17,12.56-2.89,22.25,5.96,29.61,15.26,6.4,8.08,12.55,17.21,22.1,21.1,7.8,3.18,16.56,2.3,24.97,2.59,8.42.28,17.71,2.33,22.52,9.25,2.23,3.21,3.3,7.23,6.1,9.96,4.1,4,11.02,3.94,15.96,1.04s8.16-8.05,10.3-13.37c2.14-5.31,3.39-10.95,5.48-16.29,4.58-11.65,13.13-21.63,16.28-33.74,3.55-13.66-1.79-27.22,3.18-40.58,4.17-11.23,13.77-20.18,23.68-26.48,11.88-7.54,24.6-13.85,35.57-22.66,10.97-8.81,20.3-20.76,22.2-34.7,1.13-8.31-.44-16.83,1.01-25.09,1.96-11.19,9.35-20.84,18.31-27.82,8.96-6.98,19.47-11.64,29.87-16.19,4.77-2.09,9.63-4.23,13.48-7.72,3.85-3.5,6.59-8.66,5.83-13.81-.81-5.53-5.52-9.9-10.82-11.67Zm-207.25-26.1c-2.43,1.32-11.44,4.65-14.36,5.31s-6.65-.15-7.66-2.98c-.81-2.28.53-4.76,2.05-6.64,7.64-9.46,20.65-13.63,27.52-23.67,3.53-5.16,5.08-11.39,7.66-17.1,4.03-8.91,12-15.27,17.43-23.41,8.47-12.7,21.08-23.5,23.28-20.46,1.25,5.32-2.17,10.66-6.26,14.3-4.08,3.64-9.01,6.39-12.38,10.69-2.72,3.47-4.23,7.71-6.21,11.65-7.62,15.18-22.23,26.07-29.26,41.53-1.54,3.38-2.7,7.17-1.81,10.78Zm203.83,42.89c-8.06,4.65-17.24,6.9-26.03,9.97-8.79,3.07-17.63,7.26-23.33,14.62-4.51,5.83-7.28,13.76-14.09,16.59l-7.29-14.75c8.26-3.28,15.51-8.61,22.61-13.96s14.23-10.81,22.35-14.4c8.13-3.59,17.49-5.17,25.95-2.46.7.22,1.45.53,1.77,1.19.59,1.24-.74,2.5-1.93,3.19Z"/>
        <g class="cls-28">
          <path class="cls-22" d="m1449.98,505.24c17.34-4.05,38.38-8.56,53.56,3.84,7.44,6.08,10.69,15.63,17.43,22.33,5.22,5.19,11.92,8.5,18.94,10.54,8.5,2.47,17.38,3.27,26.16,3.91,1.17.09,1.32-1.73.15-1.82-16.25-1.19-35.06-2.94-46.21-16.39-5.71-6.9-9.18-15.45-16.54-20.92-6.33-4.71-14.25-6.96-22.05-7.48-10.75-.71-21.38,1.77-31.76,4.2-1.14.27-.82,2.06.32,1.8h0Z"/>
        </g>
        <g class="cls-28">
          <path class="cls-22" d="m1404.8,619.64c43.75,10.83,90.71,6.69,132.05-11.19,11.55-4.99,22.59-11.08,33.02-18.12.97-.65-.23-2.03-1.2-1.38-36.79,24.84-81.72,36.95-126.01,34.54-12.57-.68-25.05-2.55-37.27-5.57-1.13-.28-1.75,1.44-.61,1.72h0Z"/>
        </g>
        <g class="cls-28">
          <path class="cls-22" d="m1460.74,656.59c12.06.08,24,2.38,35.23,6.79,1.09.43,1.7-1.29.61-1.72-11.36-4.46-23.48-6.8-35.69-6.89-1.17,0-1.33,1.81-.15,1.82h0Z"/>
        </g>
        <g class="cls-28">
          <path class="cls-22" d="m1474.64,725.15c-32.02-9.91-60.21-30.38-79.57-57.74-.68-.96-2.05.24-1.38,1.2,19.52,27.6,48.04,48.27,80.34,58.27,1.12.35,1.73-1.37.61-1.72h0Z"/>
        </g>
      </g>
      <g class="cls-30">
        <path class="cls-27" d="m1545.09,1409.78c4.56-18.21,18.71-25.8,16.52-28.67-1.91-2.48-12.44,3.33-35.71,13.11-7.71,3.24-14.39,5.89-19.53,7.89-.87.07-1.82.08-2.84-.02-6.76-.68-10.98-5.61-17.49-12.06-4.37-4.33-9.31-8.08-13.6-12.49-8.53-8.76-34.95-26.46-68.81-28.71-37.33-2.48-62.03,15.48-89.56,34.74-8.62,6.03-17.59,13.49-17.06,22.11.35,5.76,4.93,10.02,9.3,13.21,2.58,1.89,5.54,4.61,8.86,4.18,3.7-.48,7.15-2.42,10.93-2.29-2.59,1.72-5.06,3.62-7.39,5.68.4-.36,7.65,3.9,8.43,4.27,3.11,1.51,6.25,2.95,9.43,4.31,5.41,2.31,10.91,4.4,16.5,6.22,6.59,2.15,13.34,4.03,20.19,5.17.62.1,1.3.3,1.94.3,3.1.38,6.21.68,9.33.9,13.9,1.02,39.1,2.93,66.01-4.62,7.48-2.1,14.68-5.01,22.12-7.23,3.6-1.07,7.27-1.93,10.99-2.45,4.18-.58,8.5-1.28,12.73-1.05.01,0,.03,0,.04,0,2.72.15,5.45.77,7.8,2.14,0-.05,0-.1,0-.15,11.88,9.72,21.88,16.02,29.05,20.04,4.51,2.53,9.85,5.26,12.23,3.3,2.39-1.97.28-7.43-1.09-13.59,0,0-3.71-16.73.68-34.24Z"/>
        <path class="cls-25" d="m1396.37,1342.44c10.38-4.58,22.5-6.52,33.92-3.51,5.85,1.54,11.51,4.26,15.78,8.44,2.79,2.73,4.98,6.91,3.03,10.03,1.17,1.39,5.27,1.43,6.99,1.91,2.07.59,4.09,1.34,6.13,2.04,2.58.9,5.23,2.06,6.92,4.13,1.21,1.49,1.81,3.3,2.4,5.08.86,2.63,2.4,6.17,1.54,8.84-.78,2.41-3.05,5.18-4.65,7.16.72-.9-23.55-14.67-25.81-15.76-8.94-4.33-17.97-7.51-27.35-10.7-8.78-2.99-18-4.36-27.17-5.05-9.38-.7-18.25.39-27.61.41,4.15-5.2,10.92-8.42,17.96-8.54,2.29-.04,4.62.23,6.88-.08,3.43-.47,6.41-2.22,9.47-3.67.52-.25,1.05-.49,1.58-.72Z"/>
        <path class="cls-13" d="m1537.35,1447.89c-2.99-1.74-5.78-3.85-8.68-5.7-8.3-5.31-17.61-8.8-26.84-12.25-9.76-3.65-22.93-3.02-33.32-1.98-5,.5-9.9,1.64-14.83,2.58-9.47,1.81-13.57,1.96-21.25,3.07-17.99,2.61-18.3,3.61-26.9,4.56-10.7,1.18-18.45.55-30.85-.52-12.56-1.09-29.69-3.33-50.07-8.3,1.24.69,2.25,1.27,2.52,1.4,3.11,1.51,6.25,2.95,9.43,4.31,5.41,2.31,10.91,4.4,16.5,6.22,6.59,2.15,13.34,4.03,20.19,5.17.62.1,1.3.3,1.94.3,3.1.38,6.21.68,9.33.9,13.9,1.02,39.1,2.93,66.01-4.62,7.48-2.1,14.68-5.01,22.12-7.23,3.6-1.07,7.27-1.93,10.99-2.45,4.18-.58,8.5-1.28,12.73-1.05.01,0,.03,0,.04,0,2.72.15,5.45.77,7.8,2.14,0-.05,0-.1,0-.15,11.88,9.72,21.88,16.02,29.05,20.04,4.51,2.53,9.85,5.26,12.23,3.3,1.14-.94,1.38-3.06.99-4.41-.77-2.66-2.29-2.19-4.84-3.2-1.49-.59-2.91-1.32-4.29-2.12Z"/>
        <path class="cls-27" d="m1366.24,1423.58c-.88-2.01-1.63-4.08-1.84-6.1-.56-5.43,2.75-9.6,5.93-13.32,3.27,2.07,3.16,6.26,3.32,9.62.34,6.83,4.26,14.24,10.28,19.38,1.44-2.06,5.54.02,7.42,2.55s3.11,5.67,5.84,7.29c3.01,1.79,6.84,1.06,9.45,3.42,1,.91,1.61,2.11,2.19,3.26,2.45,4.94,4.9,9.88,7.35,14.81.41.83.84,1.74.67,2.51-.97,4.42-8.76,1.56-11.47-.45-5.36-3.97-10.56-8.34-15.52-12.8-9.71-8.74-18.65-18.74-23.63-30.18Z"/>
        <path class="cls-25" d="m1554,1385.51c-6.28,5.25-13.25,9.69-20.66,13.17,4.61-1.81,9.6-2.65,14.55-2.47-1.61,2.05-3.64,3.76-5.94,4.98.93.56,1.86,1.13,2.79,1.69-3.6,2.57-7.56,4.64-11.73,6.11,1.36,1.69,3.45,2.77,5.62,2.9-.07,1.41-1.22,2.7-2.62,2.92.66,1.87,2.11,3.44,3.91,4.26-1.17,1.62-2.74,2.95-4.53,3.83.66,2.4,1.89,4.65,3.56,6.5-.6.5-1.48.63-2.2.33,1.3,1.46,2.13,3.35,2.32,5.3-2.53.47-5.19.29-7.63-.54,2.51,2.42,5.02,4.84,7.54,7.26.63.61,1.32,1.34,1.25,2.22s-1.46,1.45-1.82.65c.22,1.17.44,2.34.65,3.51-1.94.57-4.19-.17-5.41-1.78,3.04,1.47,5.53,4.06,6.88,7.16-4.61-1.21-8.04-3.62-11.87-6.29-3.53-2.46-7.18-4.4-10.47-7.35-1.41-1.26-2.74-3.01-4.32-4.03s-2.53-2.24-3.51-3.91c.68.24,1.36.48,2.03.72.13.05.27.09.4.05.32-.12.22-.6.05-.89-1.13-1.91-2.95-3.45-3.55-5.59,1.08-.1,2.18,0,3.23.28,2.03.55,3.96,1.81,6.06,1.58.56-.06,1.24-.4,1.19-.97-.02-.21-.14-.39-.25-.56-.7-1.05-1.4-2.1-2.11-3.15,2.36-.36,4.85.77,7.12.05.59-.19,1.19-.56,1.35-1.16.13-.5-.09-1.03-.43-1.42s-.79-.66-1.21-.96c-.8-.57-1.52-1.25-2.15-2.01-.22-.27-.43-.68-.2-.94.12-.14.32-.18.5-.2.92-.14,1.84-.27,2.75-.41.22-.03.45-.07.59-.24.3-.35-.07-.87-.41-1.18-1.23-1.11-2.88-1.77-4.39-2.46-2.19-1.01-4.44-1.88-6.73-2.6-.2-.06-.42-.14-.51-.33-.1-.22.05-.5.27-.62s.48-.12.72-.12c1.28,0,2.53.03,3.79-.18.88-.15,1.76-.29,2.62-.51.48-.12,2.06-1.01,2.45-.91-.83-.17-1.76-.49-2.6-.51-.67-.01-1.32.14-2.01.08-.24-.02-.49-.05-.7-.18s-.36-.38-.3-.61c.18-.71,2.49-1.07,3.09-1.29,1.31-.48,2.59-1.06,3.82-1.72-.35.19-1.38-.02-1.79-.02-.73,0-1.46,0-2.19.02-1.17.03-2.32.23-3.48.27-.34.01-.74-.1-.87-.41-.35-.85,3.88-3.03,4.6-3.49,1.92-1.22,3.86-2.4,5.86-3.5,8.77-4.82,18.7-6.32,27.62-10.83-.19.16-.39.33-.58.49Z"/>
        <ellipse class="cls-20" cx="1338.74" cy="1382.56" rx="10.96" ry="11.86"/>
        <ellipse class="cls-7" cx="1332.05" cy="1382.56" rx="4.26" ry="6.52"/>
      </g>
      <path class="cls-12" d="m1218.9,1353.74c4.68-1.72,7.51-6.79,7.9-11.76.39-4.98-1.24-9.88-3.17-14.48-2.52-6.01-5.94-12.14-11.75-15.09-3.65-1.85-7.93-2.27-11.48-4.32-4.24-2.46-6.86-6.91-9.26-11.18-4.98-8.83-22.83-42.48-30.96-57.58-1.54-2.86-5.14-3.87-7.94-2.22h0c-2.8,1.65-3.67,5.29-1.91,8.03,9.28,14.43,30.06,46.33,35.38,54.96,2.57,4.17,5.2,8.62,5.3,13.52.08,4.09-1.63,8.04-1.78,12.13-.23,6.51,3.48,12.47,7.51,17.58,3.09,3.92,6.6,7.72,11.14,9.79,4.54,2.07,10.34,2.05,14.11-1.21"/>
      <path class="cls-18" d="m1038.71,1463.79c-2.46,1.67-3.37,5-2.88,7.93.49,2.93,2.13,5.54,3.91,7.92,2.32,3.11,5.17,6.17,8.95,7.04,2.38.55,4.91.17,7.26.85,2.8.81,4.96,3.01,6.96,5.14,4.15,4.39,19.29,21.29,26.15,28.86,1.3,1.43,3.53,1.5,4.91.15h0c1.38-1.35,1.36-3.59-.04-4.92-7.43-7.02-24.02-22.48-28.33-26.71-2.08-2.05-4.24-4.24-5-7.06-.63-2.36-.21-4.88-.71-7.27-.8-3.8-3.8-6.71-6.86-9.09-2.35-1.82-4.92-3.52-7.84-4.06-2.92-.55-6.27.3-7.99,2.72"/>
      <path class="cls-18" d="m1044.87,1422.65c-.4-2.95-2.99-5.24-5.84-6.1-2.85-.86-5.91-.54-8.83,0-3.82.7-7.82,1.91-10.28,4.91-1.54,1.89-2.33,4.33-3.98,6.13-1.97,2.15-4.9,3.11-7.69,3.97-5.78,1.77-27.63,7.87-37.45,10.67-1.86.53-2.91,2.5-2.3,4.34h0c.6,1.84,2.61,2.81,4.43,2.14,9.58-3.56,30.79-11.59,36.49-13.58,2.76-.96,5.68-1.93,8.54-1.36,2.39.47,4.47,1.97,6.83,2.58,3.76.96,7.7-.43,11.19-2.13,2.67-1.3,5.33-2.85,7.12-5.23s2.51-5.76,1.09-8.37"/>
    </g>
  </g>
</svg>