<?xml version="1.0" encoding="UTF-8"?>
<svg xmlns="http://www.w3.org/2000/svg" xmlns:xlink="http://www.w3.org/1999/xlink" viewBox="0 0 2526.77 2690.82">
  <defs>
    <style>
      .cls-1 {
        fill: #545352;
        mix-blend-mode: multiply;
      }

      .cls-1, .cls-2, .cls-3, .cls-4, .cls-5, .cls-6, .cls-7, .cls-8, .cls-9, .cls-10, .cls-11, .cls-12, .cls-13, .cls-14, .cls-15, .cls-16, .cls-17, .cls-18, .cls-19, .cls-20, .cls-21, .cls-22, .cls-23, .cls-24, .cls-25, .cls-26, .cls-27 {
        stroke-width: 0px;
      }

      .cls-2 {
        fill: url(#linear-gradient);
      }

      .cls-28 {
        opacity: .3;
      }

      .cls-29 {
        opacity: .9;
      }

      .cls-30 {
        opacity: .85;
      }

      .cls-31 {
        opacity: .72;
      }

      .cls-3 {
        fill: url(#linear-gradient-2);
      }

      .cls-4 {
        fill: url(#linear-gradient-3);
      }

      .cls-32 {
        isolation: isolate;
      }

      .cls-5 {
        fill: #565953;
      }

      .cls-6 {
        fill: #585a5c;
      }

      .cls-7 {
        fill: #361515;
      }

      .cls-8 {
        fill: #404240;
      }

      .cls-9 {
        fill: #0d0d0d;
      }

      .cls-10 {
        fill: #1f1f1d;
      }

      .cls-11 {
        fill: #d35454;
      }

      .cls-12 {
        fill: #e0e0e0;
      }

      .cls-13 {
        fill: #dd5954;
      }

      .cls-14 {
        fill: #e26d6d;
      }

      .cls-15 {
        fill: #e27979;
      }

      .cls-16 {
        fill: #d3dce9;
      }

      .cls-17 {
        fill: #b2b3b2;
      }

      .cls-18 {
        fill: #b2b3b3;
      }

      .cls-19 {
        fill: #8c9291;
      }

      .cls-20 {
        fill: #fdedee;
      }

      .cls-21 {
        fill: #7d7f80;
      }

      .cls-22 {
        fill: #8193af;
      }

      .cls-23 {
        fill: #747879;
      }

      .cls-24 {
        fill: #686864;
      }

      .cls-25 {
        fill: #f29fa0;
      }

      .cls-26 {
        fill: #e59595;
      }

      .cls-27 {
        fill: #f16d66;
      }
    </style>
    <linearGradient id="linear-gradient" x1="1267.08" y1="1361.56" x2="1271.39" y2="683.88" gradientTransform="translate(0 1471.89) scale(1 -1)" gradientUnits="userSpaceOnUse">
      <stop offset=".03" stop-color="#cdf2f0"/>
      <stop offset=".34" stop-color="#52807e"/>
    </linearGradient>
    <linearGradient id="linear-gradient-2" x1="913.98" y1="1286.78" x2="917.45" y2="845.44" gradientTransform="translate(2185.47 1471.89) rotate(-180)" gradientUnits="userSpaceOnUse">
      <stop offset="0" stop-color="#ade5e1"/>
      <stop offset=".75" stop-color="#6a7b7a"/>
    </linearGradient>
    <linearGradient id="linear-gradient-3" x1="1272.12" y1="1329.76" x2="1265.52" y2="-1625.22" gradientTransform="translate(0 1471.89) scale(1 -1)" gradientUnits="userSpaceOnUse">
      <stop offset="0" stop-color="#cbf7f7"/>
      <stop offset=".25" stop-color="#6cadb0"/>
      <stop offset=".52" stop-color="#3c8b90"/>
      <stop offset="1" stop-color="#1f7378"/>
    </linearGradient>
  </defs>
  <g class="cls-32">
    <g id="Layer_1" data-name="Layer 1">
      <g class="cls-29">
        <path class="cls-2" d="m2556.17,173.95c-47.06-12.82-101.33-19.89-166.18-19.89-113.17,0-142.61,0-325.55,17.41-182.92,17.41-196.09,16.37-330.77,26.14-98.27,7.12-95.22-1.82-263.32,4.35-189.67,6.95-174.77,17.64-285.27,17.41-208.12-.42-240.54-38.3-384-30.47-56.8,3.1-110.38,12.23-159.09-13.06-18.09-9.41-39.68-25.72-65.83-21.77-20.51,3.08-25.08,15.82-43.89,26.12-34.68,19.01-77.58,7.72-131.65,0-52.31-7.46-106.1-5.49-159.09-8.71-59.82-3.63-145.89-.92-259.71,27.61v452.82c2356.58-13.83,125.73,3.46,2574.34-9.36V173.95Z"/>
        <path class="cls-3" d="m2556.17,640.1c-10.37-118.43-5.13-265.29-25.34-365.76-119.3-35.25-208.22-38.67-268.59-34.77-49.57,3.21-53.61-3.09-102.54,4.35-50.58,7.7-98.56,8.68-128.38,4.34-29.83-4.34-29.44-5.62-48.63-8.7-24.46-3.93-78.12-5.03-95.04,4.35-45.56,25.24-95.68,16.13-148.81,13.04-134.2-7.81-164.52,29.99-359.2,30.41-103.36.22-89.42-10.44-266.84-17.38-157.23-6.16-154.37,2.76-246.31-4.34-125.97-9.75-138.29-8.71-309.4-26.09-171.11-17.38-198.65-17.38-304.51-17.38-81.18,0-144.66,12.63-197.94,34.76-21.37,8.88-35.5,19.77-72.81,25.81v426.25c2493.27,14.11,250.09-4.31,2574.34,10.3v-79.24Z"/>
        <g>
          <path class="cls-1" d="m1701.85,282.87c-.21-1.09-.77-2.67-1.13-3.78q-5.35-.14-10.71-.27-.57.57-1.15,1.15c-17.29-9.12-6.13-9.33-7.36-12q-6.91-4.9-13.82-9.79c-4.43-6.25-12.54-19.48-18.57-23.53-3.42-2.3-8.78-1.22-9.84-6.42-.54-2.66,3.14-7.99,2.87-11.21q-10.73-10.69-21.47-21.39c-2.97-1.53-1.49-3.18-2.85-5-.78-.4-4.73-2.86-4.87-3.12-.59-1.09.85-20.66-.9-25.02-2.48-6.2-9.84-9.21-15.02-12.79-3.55-2.45-7.07-4.85-10.75-7.12-3.74-2.31-7.37-4.66-10.86-7.31-4.39-1.92-8.85-3.74-13.37-5.39-5.14-1.88-14.06-4.14-19.82-5.88-3.83-1.15-7.73-2.17-11.6-3.2-.81-.22-1.6-.39-2.4-.6-5.6-1.46-10.6-3.29-16.4-4.39-9.17-1.73-18.6-2.19-28.01-2.19q-11.57-.89-23.14-1.77c-2.27-5.79-2.48-7.84-9.06-6.86q-4.73-11.91-9.47-23.81c-2.34.37-3.73,2.73-5.72,3.51-1.22.48-1.95-.12-3.18-.15-2.57.77-10.38,5.51-9.04,7.61-1.23,1.63-6.39,1.54-8.59,3.43-.23.2-2.93,5.04-2.88,5.33.49,3.04,6.16.16-1.17,6.07,10.53,3.35,21.24,6.52,32.45,7.26,1.63,3.7,1.64,9.68,3.7,9.18-.45.56-.62,1.43-.82,2.09-.38,1.21-.71,2.44-1.04,3.66-.76,2.84-1.84,4.97-3.8,7.28-1.67,1.97-3.63,3.82-5.26,5.76-4.89,5.8-9.59,11.57-12.91,18.38-1.14,2.34-1.83,5.74-1.96,6.03-3.7,8.21-15.95,36.26-17.4,42.58-1.3,5.67-2.6,31.76-2.11,37.79.22,2.75,2.83,18.47,3.4,20.4,3.53,11.85,17.86,27.82,29.15,33.94-.77,1.3-1.68,5.66-2.44,6.55q1.5.37,3,.74c4.2,18.36,9.71,17.75,21.78,30.05-1.72,8.51,2.33,15.83,5.1,23.36,1.65,4.5,5.4,11.42,5.7,12.7.16.65-.83,11.07-.01,13.51.92,2.76,5.19,1.76,7.72,2.71.83.94.42,1.67.56,1.89-1.05,2.62-1.97,5.2-2.69,7.92-1.19,4.46-2.71,5.11,5.5-1.18,1.13-.17-.23,1.84-.71,2.37-3.09,3.41-10.65,5.91-7.84,10.61-5.1,9.4.84,6.79,1.05,7.26-6.21,7.27,6.8-.57,16.76-4.9,6.34-2.76,12.73-5.37,19.13-7.97,3.9-1.58,7.84-3.12,11.72-4.72,5.17-2.13,10.56-3.8,15.85-5.6,9.71-3.92,19.31-8.18,28.66-12.92,26.01-13.18,71.68-39.78,95.04-56.68,11.32-11.56,45.64-32.27,50.78-36.83.78-.69,2.31-.77,1.62-1.66q-4.16-.08-8.33-.16c-.9-1.71-.74-3.7-1.09-5.52Z"/>
          <g>
            <path class="cls-21" d="m1485.51,160.8c7.7-3.82-1.35-10.57-5.56-16.96-6.08-9.22-11.49-18.83-19.38-26.75,1.64.52,3.42.88,5.01,1.56,8.51,3.66,21.89,12.52,23.22,12.28,2.32-.41.2-1.65-1.39-2.89-3.8-2.95-10.96-6.17-15.48-9.09-.53-.34-1.67-2.1-4.55-2.56-.08-.43,1.21-.61,1.46-.59,3.17.23,23.36,6.53,28.41,7.85,13.61,8.18,27.1,34.81,28.93,36.28.56.45,2.37-.18,2.58,0-1.95,8.35,5.43,6.51,6.63,8,.96,1.19-2.06,5.01,2.74,10.22-1.45,3.06,2.36,8.73,2.32,9.48-.05.95-2.27.52-2.12,1.7.1.77,5.33,8.62-1.97,14.14-.05,8.72-14.13,30.64-14.67,32.92-.6,2.52,1.11,5.97,1.3,8.59-2.86,2.42-3.78,6.13-5.62,9.1-.18.3-1.32-.05-2.51,1.92-4.39,7.32-7.98,16.57-8.69,17.24-4.26,3.96-2.43-3.5-6.66,13.13-2.71,2.82-7.19,6.04-9.18,9.17-3.31,5.2,2.16,6.84,4.65,10.85-11.09,21.19,9.75,16.84-2.39,46.78-.38.93-1.92-2.09-.73,4.59l-2.08,2.66q-1.76,14.51-3.52,29.01c-.7,1.82-.49,3.49-1.77,3.22-.25-.25-5.47-3.81-5.89-4.01-3.47-1.61-6.78-.48-10.51-.38-.82-2.44.17-12.86.01-13.51-.3-1.28-4.05-8.2-5.7-12.7-2.77-7.53-6.81-14.86-5.1-23.36-12.06-12.3-17.57-11.69-21.78-30.05-.26-1.14-1.15-4.07-.58-5.07.76-1.34,2.55,4.83,5.63-.51-6.12-11.09-23.59-18.06-22.16-32.53.84-8.5,12.86-31.81,13.33-34.37,2.23-1.51,4.03-7.48,5.16-10.8,1.92-5.63,6.69-19.93,2.81-23.94,5.67-14.06,10.07-43.42,11.27-58.73,2.27-.43.34,2.67,2.08,2.74.24,3.56,1.02,7,1.37,10.51,1.76,17.71-.3,19.7,10.38,35.33,5.43,7.95,8.38,11.41,16.64,16.53,1.3.81,1.61,1.01,3.03,1.71,11.52,5.64,25.97,4.44,26.32,1.92-4.15-4.54-11.31-6.39-16.22-10.39-5.99-4.87-15.78-17.73-20.09-24.38-2.14-3.32-2.97-7.28-5.99-9.59-.2-1.39-.26-4.81-1.69-2.96-.65-15.12-4.6-32.49-10.86-46.1l.85-1.22c10.98,13.66,18.69,29.62,28.72,44.01Z"/>
            <path class="cls-21" d="m1483.83,113.64c9.41,0,18.84.45,28.01,2.19q-.94,1.52-1.87,3.03l-3.37-.04c-.98.49-.2.82.55,1.41,1.92,1.52,16.94,6.69,20.6,8.13,8.42,3.32,15.66,6.17,24.48,8.62,5.21,1.45,10.47,2.69,15.61,4.35.47-.64-11.21-8.61-12.22-9.23-6.7-4.12-12.73-4.43-13.36-8.09,5.76,1.73,14.68,4,19.82,5.88,4.51,1.65,8.98,3.47,13.37,5.39,3.49,2.65,7.12,5,10.86,7.31l-6.92,3.21c5.59,2.1,11.51,4.02,17.67,3.91,5.18,3.58,12.53,6.59,15.02,12.79,1.75,4.36.3,23.93.9,25.02.14.25,4.09,2.72,4.87,3.12,1.36,1.82-.11,3.47,2.85,5q10.73,10.69,21.47,21.39c.27,3.22-3.41,8.55-2.87,11.21-10.6,6.25-18.9-2.11-27.69-7.03,1.2-11.3-1.23-9.2-13.01-11.97-1.87-1.43-3.07-3.51-4.55-5.26-.28-3.45,7.63-21.96,7.39-23.12-.78-3.87-7.79-3.27-15.06-5.65-7.73-2.52-16.54-5.92-23.06-10.65-.25-.42.32-1.14.25-1.37-.68-2.11-29.83-12.39-35.3-23.07-4.02-1.35-29.28-18.44-31.05-17.88-.15.05-.38,1.09.05,1.44-5.05-1.32-25.24-7.62-28.41-7.85-.25-.02-1.54.16-1.46.59,2.88.46,4.02,2.22,4.55,2.56-2.19.13-4.79-2.66-6.35-.3-1.59-.68-3.37-1.04-5.01-1.56-.14-.04-1.53.48-1.83-1.41.27-.18.35-.99,1.54-1.37,1.14-.36,14.09,2.02,23.55-.67Z"/>
            <path class="cls-21" d="m1433.98,154.36c-5.47,10.56-12.04,21.61-11.18,33.63,4.51-10.87,9.49-21.73,13.79-32.66,2.56,4.51,2.06-4.88,6.04-2.95-8.03,29.81-11.51,41.79-11.92,73.83,0,.06.92.05.92.7-.03,2.23.45,7.53.13,9.25-.47,2.56-12.49,25.87-13.33,34.37-1.43,14.47,16.04,21.44,22.16,32.53-3.08,5.34-4.86-.83-5.63.51-.57,1,.32,3.94.58,5.07l-3-.74c.76-.89,1.67-5.25,2.44-6.55-11.28-6.12-25.61-22.09-29.15-33.94-.58-1.93-3.18-17.65-3.4-20.4-.48-6.03.82-32.12,2.11-37.79,1.45-6.32,13.69-34.37,17.4-42.58.94-1.36,1.88-2.71,2.83-4.07,4.17-1.16,10.99-16.73,9.22-8.2Z"/>
            <path class="cls-23" d="m1639.28,228.23c1.05,5.2,6.42,4.12,9.84,6.42,6.03,4.05,14.14,17.28,18.57,23.53-14.09,1.16-28.22-3.04-39.42-10.9-1.73.94-4.17,2.02-6.05,2.47-5.33,1.27-4.98,2.04-12.28-2.57l-6.26-17.29-7.62-5.23c5.44-6.07-7.85-9.29,2.52-15.43,11.77,2.78,14.21.67,13.01,11.97,8.79,4.92,17.09,13.28,27.69,7.03Z"/>
            <path class="cls-6" d="m1667.69,258.17q6.91,4.9,13.82,9.79-3.87,4.05-7.73,8.1c1.57,1.49,7.22,7.85,7.72,8.12-10.88,11.73-8.05,2.58-12.9-9.09-17.78,2.03-18.93,1.46-31.25-9.67-5.32-4.81-10.2-10.47-15.12-15.68,1.89-.45,4.32-1.53,6.05-2.47,11.19,7.86,25.33,12.06,39.42,10.9Z"/>
            <path class="cls-8" d="m1486.15,405.46c.77,3.93,3.64,2.82,2.59.48,3.34-1.16,3.6-5.51,9.64-7.46,1.35-.43,8.62.98,10.74,1.24,1.72.21,8.83.79,9.35,1.05.08.04-.24.66.85,1.48-3.88,1.6-7.82,3.14-11.72,4.72-6.4,2.6-12.79,5.21-19.13,7.97-9.96,4.33-22.97,12.17-16.76,4.9-.21-.47-6.15,2.15-1.05-7.26-2.81-4.7,4.75-7.2,7.84-10.61,2.8-.33,3.7-3.27,4.43-3.51,3.93-1.31-1.13,12.48-4.03,14.58-.08.06-1.54-.64-1.98.15-.06.11,1.24,1.88,1.36,1.93,2.24.86,5.41-10.01,7.88-9.65Z"/>
            <path class="cls-10" d="m1681.51,267.97c1.23,2.68-9.92,2.88,7.36,12-1.18,1.67-2.73,3.14-3.99,4.73-.37-1.06-3.08-.36-3.39-.52-.5-.27-6.14-6.63-7.72-8.12q3.87-4.05,7.73-8.1Z"/>
            <path class="cls-10" d="m1444.37,134.68c-.07.21-.07,1.35-.14,1.55-2.29,6.39-5.14,12.75-7.64,19.09-4.3,10.93-9.28,21.79-13.79,32.66-.86-12.02,5.7-23.07,11.18-33.63,3.4-6.56,7.76-12.72,10.39-19.68Z"/>
            <path class="cls-10" d="m1424.76,162.57c-.94,1.36-1.88,2.71-2.83,4.07.13-.29.82-3.69,1.96-6.03,4.71-9.65,9.87-14.48,16.43-22.63.76-.53.82-.11.42.74-1.49,3.2-12.77,19.22-15.99,23.85Z"/>
            <path class="cls-23" d="m1447.65,132.32c-.76,1.69-1.26,3.8-3.43,3.92.07-.2.07-1.34.14-1.55.54-1.55,2.58-10.27,3.36-11.25,3.38-4.23,1.92,4.45-.08,8.88Z"/>
            <path class="cls-6" d="m1586.29,142.58c3.68,2.27,7.21,4.67,10.75,7.12-6.16.11-12.08-1.81-17.67-3.91l6.92-3.21Z"/>
            <path class="cls-6" d="m1563.31,164.53c-4.63,1.66,5.42,9.05,2.99,14.25.16.81,12.44,9.34,13.22,9.64.57.22,4.92-.17,5.36.38.63.79-1.13,3.12-.64,4.29.28.67,8.38,9.17,9.8,10.86,1.47,1.75,2.68,3.83,4.55,5.26-10.37,6.15,2.92,9.36-2.52,15.43l7.62,5.23c-.81,1.02-1.45,1.19-2.74,1.07-.81-.07-1.65-3.37-9.67,1.1-4.14-3.35-6.88,3.58-10.76,3.69,4.24,3.95-.32,4.27-.48,5.92-.05.5,3.49,7.75,3.7,9.18.58,4.55-13.72,44.49-15.85,55.2-3.23,16.26.7,33-15.05,47.13-3.43,8.59-9.64,11.97-13.32,20.86-4.89,5.81-9.95,11.71-14.62,17.67-.74.94-3.33,4.72-3.09,4.96.24.24.5-.34,1.48-.11.35.08.89.5,1.02.89-1.92,1.19-4.05,1.87-5.82,3.32-.52-.26-7.63-.84-9.35-1.05-3.01-1.41,1.42-5.28,3.24-9.21,4.64-10.04,20.45-55.76,18.98-64.6-5.38-16.38-18.61-28.9-31.82-39.54,4.23-16.63,2.41-9.17,6.66-13.13.72-.67,4.3-9.92,8.69-17.24,1.18-1.97,2.32-1.62,2.51-1.92,1.84-2.97,2.76-6.68,5.62-9.1-.19-2.62-1.89-6.07-1.3-8.59.54-2.28,14.62-24.2,14.67-32.92,7.3-5.52,2.07-13.36,1.97-14.14-.16-1.18,2.07-.75,2.12-1.7.04-.74-3.77-6.42-2.32-9.48-4.8-5.21-1.79-9.03-2.74-10.22-1.2-1.5-8.57.34-6.63-8-.2-.18-2.02.44-2.58,0-1.84-1.46-15.33-28.09-28.93-36.28-.43-.35-.2-1.4-.05-1.44,1.77-.56,27.03,16.53,31.05,17.88,5.47,10.68,34.61,20.96,35.3,23.07.07.22-.5.95-.25,1.37Z"/>
            <path class="cls-23" d="m1490.34,295.54c8.08,7.52,24.71,33.38,25.61,43.08.74,7.89-7.96,38.14-13.5,46.25,1.53,7.2-7.43,12.18-9.79,14.42-1.53,1.46-2.75,4.61-6.51,6.17-2.47-.36-5.64,10.51-7.88,9.65-.11-.04-1.42-1.82-1.36-1.93.44-.79,1.89-.09,1.98-.15,2.91-2.1,7.96-15.88,4.03-14.58-.73.24-1.63,3.18-4.43,3.51.48-.53,1.84-2.54.71-2.37,2.1-1.61,4.2-3.21,6.16-4.99.82-1.25-.41-1.16-.44-1.22-.13-.24-.26-.57-.42-.74,1.28.27,1.06-1.4,1.77-3.22q1.76-14.51,3.52-29.01l2.08-2.66c-1.19-6.68.35-3.65.73-4.59,12.14-29.94-8.7-25.59,2.39-46.78-2.49-4.02-7.95-5.65-4.65-10.85Z"/>
            <path class="cls-23" d="m1499.52,286.37c13.21,10.63,26.44,23.16,31.82,39.54,1.47,8.84-14.34,54.56-18.98,64.6-1.82,3.93-6.25,7.81-3.24,9.21-2.12-.26-9.39-1.67-10.74-1.24-6.04,1.95-6.3,6.3-9.64,7.46,1.05,2.33-1.82,3.45-2.59-.48,3.76-1.56,4.98-4.71,6.51-6.17,2.35-2.25,11.31-7.22,9.79-14.42,5.54-8.11,14.24-38.36,13.5-46.25-.9-9.7-17.53-35.56-25.61-43.08,1.99-3.13,6.47-6.34,9.18-9.17Z"/>
            <g>
              <path class="cls-23" d="m1484.48,209.51c.91-.06.29-2,0-2.7-4.68-11.57-13.33-23.7-15.92-35.11-.31-1.38.13-3.23-.07-4.63,3.02,2.31,3.85,6.28,5.99,9.59,4.3,6.66,14.1,19.51,20.09,24.38,4.91,4,12.07,5.85,16.22,10.39-.35,2.51-14.8,3.72-26.32-1.92Z"/>
              <path class="cls-6" d="m1468.77,185.58c.07.11.53-.93,1.25,1.74,2.04-3.22,2.17,1.03,2.73,1.63.08.09,1.79.51,2.01.82,2.76,3.82,6.4,13.21,6.69,18.03-8.26-5.12-11.21-8.58-16.64-16.53,5.8-2.54,3.44-4.52,3.29-5.07-.09-.31.41-.48.67-.63Z"/>
              <path class="cls-23" d="m1468.5,167.07c.2,1.4-.24,3.25.07,4.63,2.58,11.41,11.24,23.54,15.92,35.11.28.7.91,2.65,0,2.7-1.43-.7-1.73-.9-3.03-1.71-.29-4.83-3.93-14.21-6.69-18.03-.22-.31-1.93-.73-2.01-.82-.57-.6-.7-4.85-2.73-1.63-.72-2.67-1.18-1.63-1.25-1.74-4.86-7.91-1.6-13.23-1.96-21.47,1.43-1.85,1.49,1.57,1.69,2.96Z"/>
            </g>
            <path class="cls-8" d="m1478.61,388.65c-1.9,3.8.5,4.34,2.18,8.33l4.13-3.58c.03.06,1.26-.03.44,1.22-1.96,1.78-4.06,3.38-6.16,4.99-8.21,6.29-6.69,5.64-5.5,1.18.5,1.72,4.35-1.57,4.68-2.18.84-1.55-1.18-4.52-1.99-5.74-.15-.22.26-.94-.56-1.89-2.53-.96-6.8.05-7.72-2.71,3.73-.1,7.04-1.23,10.51.38Z"/>
            <path class="cls-23" d="m1471.93,118.96c4.52,2.92,11.68,6.13,15.48,9.09,1.59,1.24,3.71,2.48,1.39,2.89-1.33.23-14.72-8.62-23.22-12.28,1.56-2.35,4.16.44,6.35.3Z"/>
            <g>
              <path class="cls-10" d="m1458.74,115.68c.3,1.89,1.7,1.37,1.83,1.41,7.89,7.93,13.3,17.53,19.38,26.75.69,3.66,3.65,8.21,4.22,10.11.21.69-1.09,3.88,1.33,6.85-10.02-14.39-17.74-30.36-28.72-44.01.63-.39,1.32-.7,1.94-1.11Z"/>
              <path class="cls-23" d="m1485.51,160.8c-2.42-2.97-1.13-6.16-1.33-6.85-.58-1.9-3.54-6.45-4.22-10.11,4.21,6.39,13.26,13.14,5.56,16.96Z"/>
            </g>
            <g>
              <path class="cls-10" d="m1454.44,155.94c-.35-3.51-1.13-6.96-1.37-10.51-.38-5.74.55-20.28-.68-24.65,2.77-2.77,1.92,3.12,2.01,3.52.04.17.99.58,1.3,3.18.17,1.41.26,27.23-.47,28.5-.02.04-.61-.28-.79-.04Z"/>
              <path class="cls-17" d="m1452.39,120.78c1.24,4.37.3,18.92.68,24.65-1.74-.07.19-3.17-2.08-2.74.54-6.85-.11-13.91.55-20.69.22-2.32.26-3.29.85-1.22Z"/>
            </g>
            <path class="cls-6" d="m1484.5,392.65c.16.17.3.5.42.74l-4.13,3.58c-1.68-3.99-4.08-4.53-2.18-8.33.42.19,5.64,3.75,5.89,4.01Z"/>
            <g>
              <path class="cls-9" d="m1451.62,105.01c6.59-.98,6.8,1.07,9.06,6.86q11.57.89,23.14,1.77c-9.46,2.69-22.41.31-23.55.67-1.19.37-1.27,1.19-1.54,1.37-.62.41-1.31.71-1.94,1.11l-.85,1.22c6.26,13.61,10.21,30.98,10.86,46.1.35,8.24-2.9,13.56,1.96,21.47-.26.15-.76.31-.67.63.15.55,2.51,2.52-3.29,5.07-10.67-15.63-8.61-17.62-10.38-35.33.19-.24.77.08.79.04.72-1.27.64-27.09.47-28.5-.31-2.61-1.26-3.02-1.3-3.18-.09-.4.77-6.29-2.01-3.52-.59-2.07-.62-1.09-.85,1.22-.65,6.78,0,13.84-.55,20.69-1.2,15.31-5.6,44.66-11.27,58.73,3.88,4.02-.89,18.31-2.81,23.94-2.2-2.24-.36,4.05-5.29,1.55,0-.65-.92-.65-.92-.7.41-32.03,3.88-44.02,11.92-73.83,1.79-6.65,3.67-13.32,5.03-20.05,2-4.43,3.46-13.11.08-8.88-2.05.49-2.06-5.49-3.7-9.18-.73-.73.32-2.04.32-2.15l2.58-2.7-2.44,1.14c0-.07-.37-.25-.25-1.33.22-1.88,2.12-.74-.67-4.78l.6-2.55c1.12,1.39,2.25,2.78,3.03,4.41,4.08.67,3.72-1.19,4.41-1.29Z"/>
              <path class="cls-6" d="m1436.91,225.36c-1.13,3.32-2.93,9.29-5.16,10.8.32-1.72-.16-7.03-.13-9.25,4.94,2.5,3.1-3.79,5.29-1.55Z"/>
            </g>
            <path class="cls-5" d="m1473.7,400.78c.72-2.72,1.63-5.3,2.69-7.92.81,1.22,2.83,4.19,1.99,5.74-.33.6-4.17,3.9-4.68,2.18Z"/>
            <path class="cls-24" d="m1563.31,164.53c6.52,4.74,15.34,8.13,23.06,10.65,7.27,2.37,14.28,1.78,15.06,5.65.23,1.17-7.67,19.67-7.39,23.12-1.42-1.69-9.52-10.18-9.8-10.86-.49-1.17,1.27-3.51.64-4.29-.44-.55-4.79-.16-5.36-.38-.78-.3-13.06-8.83-13.22-9.64,2.43-5.2-7.61-12.59-2.99-14.25Z"/>
            <g>
              <g>
                <path class="cls-10" d="m1509.97,118.86c2.95,1.03,6.1.71,9.15,1.16,5.31.78,8.26,3.62,9.12.2.8.21,1.59.38,2.4.6-3.31.84,2.03,1.08,1.5,3.07l-4.4,4.47c-3.65-1.44-18.67-6.62-20.6-8.13-.75-.59-1.53-.92-.55-1.41l3.37.04Z"/>
                <path class="cls-24" d="m1511.84,115.83c5.8,1.1,10.81,2.93,16.4,4.39-.85,3.43-3.81.58-9.12-.2-3.05-.45-6.2-.13-9.15-1.16q.94-1.52,1.87-3.03Z"/>
              </g>
              <g>
                <path class="cls-6" d="m1530.64,120.81c3.87,1.03,7.77,2.05,11.6,3.2.63,3.66,6.67,3.97,13.36,8.09l-3.39,4.88c-8.82-2.45-16.06-5.3-24.48-8.62l4.4-4.47c.53-2-4.81-2.24-1.5-3.07Z"/>
                <path class="cls-10" d="m1555.61,132.1c1.01.62,12.68,8.59,12.22,9.23-5.14-1.66-10.4-2.9-15.61-4.35l3.39-4.88Z"/>
              </g>
            </g>
            <path class="cls-19" d="m1442.62,152.37c-3.97-1.92-3.48,7.46-6.04,2.95,2.5-6.34,5.34-12.7,7.64-19.09,2.16-.12,2.66-2.23,3.43-3.92-1.36,6.73-3.24,13.41-5.03,20.05Z"/>
            <path class="cls-8" d="m1603.68,229.88l6.26,17.29c7.3,4.61,6.94,3.84,12.28,2.57,4.92,5.21,9.8,10.87,15.12,15.68,12.32,11.13,13.47,11.69,31.25,9.67,4.85,11.67,2.03,20.82,12.9,9.09.3.17,3.02-.53,3.39.52-.37.46-.39.93-.74,1.41-.81,1.07-6.22,8.61-6.11,9.13.52,2.39,4.45,2.33,6.14,2.64-5.48,2.14-6.37-2.15-7-1.9-1.2.48-8.84,11.85-10.4,13.79-.71.88-1.38,1.79-2.08,2.66-.62-1.56-1.06-1.48-2.63-1.45-26.39,8.31-49.01,14.29-74.11,27.07-29.39,14.97-29.09,22.94-49.33,44.35-3.19,3.37-9.71,7.87-7.8,8.87q-3.77,2.64-7.54,5.28c-.99-.24-1.24.35-1.48.11-.24-.24,2.36-4.02,3.09-4.96,4.67-5.96,9.73-11.87,14.62-17.67,3.68-8.88,9.89-12.27,13.32-20.86,15.75-14.14,11.82-30.87,15.05-47.13,2.13-10.71,16.43-50.65,15.85-55.2-.21-1.44-3.75-8.68-3.7-9.18.17-1.65,4.72-1.97.48-5.92,3.88-.1,6.63-7.04,10.76-3.69,8.02-4.46,8.85-1.17,9.67-1.1,1.28.12,1.92-.05,2.74-1.07Z"/>
            <path class="cls-8" d="m1664.68,312.43c-3.64,4.48-6.15,8.52-11.26,11.83l-4.96-.12c-37.86,16.2-77.49,34.68-108.72,62.03-.17.15.99.91-3.07,2.73l2.17-.26c-4.84,2.96-9.71,5.8-14.54,8.79-.13-.39-.67-.81-1.02-.89q3.77-2.64,7.54-5.28c-1.91-1,4.62-5.5,7.8-8.87,20.24-21.41,19.93-29.38,49.33-44.35,25.1-12.78,47.72-18.75,74.11-27.07,1.57-.03,2-.11,2.63,1.45Z"/>
            <path class="cls-10" d="m1653.41,324.26c-4.74,1.91-11.56,7.57-12.2,7.94-.14.08-1.05-.38-1.2-.3-10.19,5.82-20.47,11.08-31.34,15.43-23.84,12.85-46.74,27.2-69.84,41.32l-2.17.26c4.06-1.82,2.9-2.58,3.07-2.73,31.23-27.35,70.86-45.83,108.72-62.03l4.96.12Z"/>
            <g>
              <g>
                <path class="cls-8" d="m1685.22,299.73c2.18-2.53,1.06-1.47-1.06-1.85-1.69-.31-5.62-.25-6.14-2.64-.11-.52,5.31-8.06,6.11-9.13,4.44-3,3.28,4.9,3.99,11.96-.93.6-2,1.04-2.91,1.66Z"/>
                <path class="cls-10" d="m1684.17,297.88c2.12.39,3.23-.68,1.06,1.85-5.73,3.93-12.41,6.65-18.46,10.04,1.56-1.94,9.21-13.31,10.4-13.79.63-.26,1.52,4.04,7,1.9Z"/>
              </g>
              <g>
                <path class="cls-9" d="m1700.73,279.1c.36,1.11.91,2.68,1.13,3.78.35,1.82.19,3.8,1.09,5.52q4.16.08,8.33.16c.69.9-.84.97-1.62,1.66-5.15,4.56-39.46,25.27-50.78,36.83-23.36,16.9-69.03,43.5-95.04,56.68-9.34,4.74-18.95,8.99-28.66,12.92-5.29,1.81-10.67,3.47-15.85,5.6-1.08-.82-.77-1.44-.85-1.48,1.78-1.46,3.91-2.14,5.82-3.32,4.83-2.98,9.7-5.83,14.54-8.79,23.1-14.12,45.99-28.47,69.84-41.32,10.87-4.35,21.15-9.61,31.34-15.43.15-.08,1.06.38,1.2.3.64-.37,7.46-6.04,12.2-7.94,5.11-3.31,7.62-7.35,11.26-11.83.71-.87,1.37-1.78,2.08-2.66,6.05-3.39,12.73-6.12,18.46-10.04.91-.63,1.98-1.06,2.91-1.66-.72-7.06.45-14.96-3.99-11.96.36-.47.38-.94.74-1.41,1.27-1.6,2.82-3.06,3.99-4.73l1.15-1.15,10.71.27Z"/>
                <path class="cls-8" d="m1692.27,286.38c11.92,1.33,13.77,4.13.61,8.74q-.3-4.37-.61-8.74Z"/>
              </g>
            </g>
            <g>
              <path class="cls-10" d="m1433.26,84.55c1.23.04,1.96.63,3.18.15,1.99-.78,3.38-3.14,5.72-3.51q4.73,11.91,9.47,23.81c-.69.1-.33,1.96-4.41,1.29-.78-1.63-1.91-3.02-3.03-4.41.07-2.02-2.01-4.11-3.17-5.56.38-1.04-1.71-7.88-3.2-9.22-7.95-3.82-.37,5.28,1.58,8.18,1.22,1.82,3.45,4.92,4.79,6.6l-.6,2.55c2.79,4.04.88,2.9.67,4.78-3.51-2.35-5.64-6.4-8.14-8.86-.32-.31-3.03-.88-3.21-1.11-.35-.47.81-3.85-2.04-1.78-.72-1.52-4.23-3.69-6.63-5.3-1.34-2.11,6.46-6.84,9.04-7.61Z"/>
              <path class="cls-10" d="m1424.22,92.17c2.4,1.62,5.9,3.78,6.63,5.3,2.86-2.07,1.69,1.31,2.04,1.78.18.24,2.89.8,3.21,1.11,2.5,2.46,4.63,6.51,8.14,8.86-.13,1.08.25,1.26.25,1.33-.05.53-.16,1.03-.14,1.55,0,.11-1.05,1.41-.32,2.15-11.22-.74-21.92-3.92-32.45-7.26,7.33-5.91,1.66-3.03,1.17-6.07-.05-.29,2.65-5.13,2.88-5.33,2.2-1.89,7.36-1.8,8.59-3.43Z"/>
              <path class="cls-8" d="m1441.01,96.33c-.84-1.04-.84-2.56-1.62-1.04-1.95-2.91-9.53-12-1.58-8.18,1.49,1.34,3.58,8.19,3.2,9.22Z"/>
              <path class="cls-6" d="m1441.01,96.33c1.16,1.45,3.24,3.54,3.17,5.56-1.35-1.67-3.57-4.78-4.79-6.6.78-1.52.78,0,1.62,1.04Z"/>
              <path class="cls-10" d="m1444.35,112.11c-.02-.53.1-1.03.14-1.55l2.44-1.14-2.58,2.7Z"/>
            </g>
          </g>
          <path class="cls-1" d="m1701.85,282.87c-.21-1.09-.77-2.67-1.13-3.78q-5.35-.14-10.71-.27-.57.57-1.15,1.15c-17.29-9.12-6.13-9.33-7.36-12q-6.91-4.9-13.82-9.79c-4.43-6.25-12.54-19.48-18.57-23.53-3.42-2.3-8.78-1.22-9.84-6.42-.54-2.66,3.14-7.99,2.87-11.21q-10.73-10.69-21.47-21.39c-2.97-1.53-1.49-3.18-2.85-5-.78-.4-4.73-2.86-4.87-3.12-.59-1.09.85-20.66-.9-25.02-2.48-6.2-9.84-9.21-15.02-12.79-3.55-2.45-7.07-4.85-10.75-7.12-3.74-2.31-7.37-4.66-10.86-7.31-4.39-1.92-8.85-3.74-13.37-5.39-5.14-1.88-14.06-4.14-19.82-5.88-3.83-1.15-7.73-2.17-11.6-3.2-.81-.22-1.6-.39-2.4-.6-5.6-1.46-10.6-3.29-16.4-4.39-9.17-1.73-18.6-2.19-28.01-2.19q-11.57-.89-23.14-1.77c-2.27-5.79-2.48-7.84-9.06-6.86q-4.73-11.91-9.47-23.81c-2.34.37-3.73,2.73-5.72,3.51-1.22.48-1.95-.12-3.18-.15-2.57.77-10.38,5.51-9.04,7.61-1.23,1.63-6.39,1.54-8.59,3.43-.23.2-2.93,5.04-2.88,5.33.49,3.04,6.16.16-1.17,6.07,10.53,3.35,21.24,6.52,32.45,7.26,1.63,3.7,1.64,9.68,3.7,9.18-.45.56-.62,1.43-.82,2.09-.38,1.21-.71,2.44-1.04,3.66-.76,2.84-1.84,4.97-3.8,7.28-1.67,1.97-3.63,3.82-5.26,5.76-4.89,5.8-9.59,11.57-12.91,18.38-1.14,2.34-1.83,5.74-1.96,6.03-3.7,8.21-15.95,36.26-17.4,42.58-1.3,5.67-2.6,31.76-2.11,37.79.22,2.75,2.83,18.47,3.4,20.4,3.53,11.85,17.86,27.82,29.15,33.94-.77,1.3-1.68,5.66-2.44,6.55q1.5.37,3,.74c4.2,18.36,9.71,17.75,21.78,30.05-1.72,8.51,2.33,15.83,5.1,23.36,1.65,4.5,5.4,11.42,5.7,12.7.16.65-.83,11.07-.01,13.51.92,2.76,5.19,1.76,7.72,2.71.83.94.42,1.67.56,1.89-1.05,2.62-1.97,5.2-2.69,7.92-1.19,4.46-2.71,5.11,5.5-1.18,1.13-.17-.23,1.84-.71,2.37-3.09,3.41-10.65,5.91-7.84,10.61-5.1,9.4.84,6.79,1.05,7.26-6.21,7.27,6.8-.57,16.76-4.9,6.34-2.76,12.73-5.37,19.13-7.97,3.9-1.58,7.84-3.12,11.72-4.72,5.17-2.13,10.56-3.8,15.85-5.6,9.71-3.92,19.31-8.18,28.66-12.92,26.01-13.18,71.68-39.78,95.04-56.68,11.32-11.56,45.64-32.27,50.78-36.83.78-.69,2.31-.77,1.62-1.66q-4.16-.08-8.33-.16c-.9-1.71-.74-3.7-1.09-5.52Z"/>
        </g>
        <path class="cls-4" d="m2556.17,340.91c-28.84-23.29-80.54-20.84-113.78-18.68-34.55,2.24-67.84,12.09-101.96,17.4-47.43,7.38-95.97,5.95-144.1,4.5-39.49-1.19-76.99,6.89-115.41,7.61-43.08.8-85.15-15.41-127.4-23.19-97.6-18-199.27-22.42-295.72,4.43-122.91,34.2-247.41,45.2-376.21,44.9-222.99-.5-257.72-45.65-411.44-36.32-60.86,3.69-118.27,14.58-170.45-15.57-19.38-11.21-80.85-9.9-108.87-5.2-21.98,3.68-21.54,5.2-55.7,10.39-34.16,5.18-89.12,4.02-147.05-5.18-56.05-8.9-60.67-1.36-117.45-5.2-65.92-4.45-161.59-.91-288.78,35.9v2363.66h2574.34V340.91Z"/>
      </g>
      <g>
        <path class="cls-14" d="m474.6,379.02l-151.61,58.5c-3.59,1.03-2.94,14.58,3.18,36.42,6.12,21.83,12.64,33.75,16.23,32.76l160.08-28.9-27.88-98.77Z"/>
        <path class="cls-14" d="m503.98,475.76c.91-8.66-2.03-27.78-8.08-49.41-6.04-21.62-13.45-39.53-18.79-46.45-.34-.44-.68-.87-1.01-1.22l-5.43,2.1c-1.32,8.09,1.65,27.89,7.97,50.41,6.32,22.52,14.04,41,19.4,47.2l5.71-.93c.04-.59.13-1.1.22-1.69Z"/>
        <path class="cls-26" d="m497.83,425.81c-.62-2.18-14.98-53.02-25.3-50.13-1.97.55-3.06,2.92-3.45,6.29-1.86,14.36,7.45,48.03,8.11,49.62.66,1.59,9.98,35.3,19.03,46.58,2.14,2.69,4.29,4.09,6.25,3.46,9.94-2.74-4.29-53.61-4.65-55.83Zm-23.27-45.94c1.82,1.99,3.36,4.23,4.58,6.64h0c6.44,12.86,11.51,26.36,15.14,40.28,4.16,13.78,6.84,27.96,7.99,42.3.25,2.69.1,5.4-.43,8.04h0c-.11.39-.3.75-.54,1.07-.44-.15-.84-.41-1.15-.75-3.71-3.51-11.88-19.28-19.56-46.81-7.68-27.53-8.96-45.23-7.62-50.15.06-.46.25-.9.56-1.26.38.15.74.36,1.04.64"/>
      </g>
      <g>
        <path class="cls-11" d="m252.58,1170.45l-70.48,111.25c-1.84,2.41,5.12,10.92,19.64,22.18,14.52,11.26,24.51,15.88,26.38,13.49l90.27-96.07-65.82-50.85Z"/>
        <path class="cls-11" d="m318.39,1219.26c-3.58-6.08-14.73-17.11-29.1-28.27-14.37-11.16-27.83-19.25-34.64-21.17-.43-.12-.86-.24-1.25-.31l-2.52,3.99c3.05,5.91,14.53,17.36,29.52,28.97,14.98,11.61,28.93,19.91,35.41,21.36l3.27-3.36c-.26-.4-.44-.78-.68-1.21Z"/>
        <path class="cls-15" d="m290.29,1189.71c-1.46-1.12-35.34-27.29-40.66-20.43-1.02,1.31-.58,3.38.79,5.76,5.72,10.25,28.03,27.68,29.23,28.39,1.2.72,23.53,18.17,34.87,21.14,2.69.72,4.77.59,5.74-.77,5.15-6.58-28.66-32.83-29.97-34.1Zm-37.32-18.68c2.15.42,4.23,1.13,6.18,2.11h0c10.4,5.27,20.22,11.61,29.29,18.92,9.36,6.96,17.95,14.9,25.62,23.68,1.46,1.63,2.67,3.46,3.6,5.44h0c.11.31.17.63.17.96-.36.12-.74.14-1.11.07-4.11-.5-17.04-6.82-35.33-21.04-18.29-14.22-27.66-25.12-29.16-28.98-.18-.33-.27-.71-.24-1.09.32-.09.65-.12.99-.09"/>
      </g>
      <g class="cls-30">
        <path class="cls-16" d="m2252.11,580.46c-5.3-1.77-11.08-1.35-16.57-.34-12.08,2.22-23.62,7.26-33.52,14.51-8.26,6.04-14.79,16.72-26.42,14.12-5.26-1.17-9.85-4.31-14.19-7.5-4.34-3.2-8.68-6.57-13.77-8.37-8.2-2.89-17.2-1.32-25.87-.56-8.67.76-18.28.35-24.75-5.47-8.84-7.94-9.26-23.76-20.07-28.68-4-1.82-9.01-1.85-12-5.07-2.95-3.18-2.64-8.16-1.6-12.38,3.33-13.47,11.97-24.97,21.22-35.31,9.24-10.34,19.37-20.06,26.68-31.85,2.04-3.29,3.88-6.83,4.27-10.68.39-3.85-.95-8.08-4.17-10.23-3.06-2.05-7.21-1.83-10.6-.37-3.39,1.46-6.18,3.99-8.9,6.47-10.06,9.17-20.72,17.96-30.31,27.61-3.56,3.58-3.64,7.47-5.63,11.99-2.32,5.24-5.42,10.12-9.24,14.39-12.8,14.32-33.39,19.44-43.43,36.52-5.88,10.01-6.6,31.59-11.02,42.33-11.04,26.84-49.82,35.09-58.05,62.92-4.46,15.07,1.27,33.2-8.08,45.83-5.99,8.09-16.39,11.25-24.99,16.49-14.29,8.71-23.65,24.5-25.58,41.01-.9,7.72-.96,17.52,3.55,24.04,6.32,9.12,14.56,16.74,22.63,24.27,5.61,5.23,11.57,10.66,19.03,12.44,12.35,2.96,24.05-4.48,35.72-7.17,12.56-2.89,22.25,5.96,29.61,15.26,6.4,8.08,12.55,17.21,22.1,21.1,7.8,3.18,16.56,2.3,24.97,2.59,8.42.28,17.71,2.33,22.52,9.25,2.23,3.21,3.3,7.23,6.1,9.96,4.1,4,11.02,3.94,15.96,1.04s8.16-8.05,10.3-13.37c2.14-5.31,3.39-10.95,5.48-16.29,4.58-11.65,13.13-21.63,16.28-33.74,3.55-13.66-1.79-27.22,3.18-40.58,4.17-11.23,13.77-20.18,23.68-26.48,11.88-7.54,24.6-13.85,35.57-22.66,10.97-8.81,20.3-20.76,22.2-34.7,1.13-8.31-.44-16.83,1.01-25.09,1.96-11.19,9.35-20.84,18.31-27.82,8.96-6.98,19.47-11.64,29.87-16.19,4.77-2.09,9.63-4.23,13.48-7.72,3.85-3.5,6.59-8.66,5.83-13.81-.81-5.53-5.52-9.9-10.82-11.67Zm-207.25-26.1c-2.43,1.32-11.44,4.65-14.36,5.31-2.93.66-6.65-.15-7.66-2.98-.81-2.28.53-4.76,2.05-6.64,7.64-9.46,20.65-13.63,27.52-23.67,3.53-5.16,5.08-11.39,7.66-17.1,4.03-8.91,12-15.27,17.43-23.41,8.47-12.7,21.08-23.5,23.28-20.46,1.25,5.32-2.17,10.66-6.26,14.3-4.08,3.64-9.01,6.39-12.38,10.69-2.72,3.47-4.23,7.71-6.21,11.65-7.62,15.18-22.23,26.07-29.26,41.53-1.54,3.38-2.7,7.17-1.81,10.78Zm203.83,42.89c-8.06,4.65-17.24,6.9-26.03,9.97-8.79,3.07-17.63,7.26-23.33,14.62-4.51,5.83-7.28,13.76-14.09,16.59l-7.29-14.75c8.26-3.28,15.51-8.61,22.61-13.96s14.23-10.81,22.35-14.4c8.13-3.59,17.49-5.17,25.95-2.46.7.22,1.45.53,1.77,1.19.59,1.24-.74,2.5-1.93,3.19Z"/>
        <g class="cls-28">
          <path class="cls-22" d="m2020.67,599.02c17.34-4.05,38.38-8.56,53.56,3.84,7.44,6.08,10.69,15.63,17.43,22.33,5.22,5.19,11.92,8.5,18.94,10.54,8.5,2.47,17.38,3.27,26.16,3.91,1.17.09,1.32-1.73.15-1.82-16.25-1.19-35.06-2.94-46.21-16.39-5.71-6.9-9.18-15.45-16.54-20.92-6.33-4.71-14.25-6.96-22.05-7.48-10.75-.71-21.38,1.77-31.76,4.2-1.14.27-.82,2.06.32,1.8h0Z"/>
        </g>
        <g class="cls-28">
          <path class="cls-22" d="m1975.5,713.42c43.75,10.83,90.71,6.69,132.05-11.19,11.55-4.99,22.59-11.08,33.02-18.12.97-.65-.23-2.03-1.2-1.38-36.79,24.84-81.72,36.95-126.01,34.54-12.57-.68-25.05-2.55-37.27-5.57-1.13-.28-1.75,1.44-.61,1.72h0Z"/>
        </g>
        <g class="cls-28">
          <path class="cls-22" d="m2031.43,750.37c12.06.08,24,2.38,35.23,6.79,1.09.43,1.7-1.29.61-1.72-11.36-4.46-23.48-6.8-35.69-6.89-1.17,0-1.33,1.81-.15,1.82h0Z"/>
        </g>
        <g class="cls-28">
          <path class="cls-22" d="m2045.34,818.93c-32.02-9.91-60.21-30.38-79.57-57.74-.68-.96-2.05.24-1.38,1.2,19.52,27.6,48.04,48.27,80.34,58.27,1.12.35,1.73-1.37.61-1.72h0Z"/>
        </g>
      </g>
      <g class="cls-31">
        <path class="cls-27" d="m2423.47,2329.28c4.56-18.21,18.71-25.8,16.52-28.67-1.91-2.48-12.44,3.33-35.71,13.11-7.71,3.24-14.39,5.89-19.53,7.89-.87.07-1.82.08-2.84-.02-6.76-.68-10.98-5.61-17.49-12.06-4.37-4.33-9.31-8.08-13.6-12.49-8.53-8.76-34.95-26.46-68.81-28.71-37.33-2.48-62.03,15.48-89.56,34.74-8.62,6.03-17.59,13.49-17.06,22.11.35,5.76,4.93,10.02,9.3,13.21,2.58,1.89,5.54,4.61,8.86,4.18,3.7-.48,7.15-2.42,10.93-2.29-2.59,1.72-5.06,3.62-7.39,5.68.4-.36,7.65,3.9,8.43,4.27,3.11,1.51,6.25,2.95,9.43,4.31,5.41,2.31,10.91,4.4,16.5,6.22,6.59,2.15,13.34,4.03,20.19,5.17.62.1,1.3.3,1.94.3,3.1.38,6.21.68,9.33.9,13.9,1.02,39.1,2.93,66.01-4.62,7.48-2.1,14.68-5.01,22.12-7.23,3.6-1.07,7.27-1.93,10.99-2.45,4.18-.58,8.5-1.28,12.73-1.05.01,0,.03,0,.04,0,2.72.15,5.45.77,7.8,2.14,0-.05,0-.1,0-.15,11.88,9.72,21.88,16.02,29.05,20.04,4.51,2.53,9.85,5.26,12.23,3.3,2.39-1.97.28-7.43-1.09-13.59,0,0-3.71-16.73.68-34.24Z"/>
        <path class="cls-25" d="m2274.75,2261.94c10.38-4.58,22.5-6.52,33.92-3.51,5.85,1.54,11.51,4.26,15.78,8.44,2.79,2.73,4.98,6.91,3.03,10.03,1.17,1.39,5.27,1.43,6.99,1.91,2.07.59,4.09,1.34,6.13,2.04,2.58.9,5.23,2.06,6.92,4.13,1.21,1.49,1.81,3.3,2.4,5.08.86,2.63,2.4,6.17,1.54,8.84-.78,2.41-3.05,5.18-4.65,7.16.72-.9-23.55-14.67-25.81-15.76-8.94-4.33-17.97-7.51-27.35-10.7-8.78-2.99-18-4.36-27.17-5.05-9.38-.7-18.25.39-27.61.41,4.15-5.2,10.92-8.42,17.96-8.54,2.29-.04,4.62.23,6.88-.08,3.43-.47,6.41-2.22,9.47-3.67.52-.25,1.05-.49,1.58-.72Z"/>
        <path class="cls-13" d="m2415.72,2367.38c-2.99-1.74-5.78-3.85-8.68-5.7-8.3-5.31-17.61-8.8-26.84-12.25-9.76-3.65-22.93-3.02-33.32-1.98-5,.5-9.9,1.64-14.83,2.58-9.47,1.81-13.57,1.96-21.25,3.07-17.99,2.61-18.3,3.61-26.9,4.56-10.7,1.18-18.45.55-30.85-.52-12.56-1.09-29.69-3.33-50.07-8.3,1.24.69,2.25,1.27,2.52,1.4,3.11,1.51,6.25,2.95,9.43,4.31,5.41,2.31,10.91,4.4,16.5,6.22,6.59,2.15,13.34,4.03,20.19,5.17.62.1,1.3.3,1.94.3,3.1.38,6.21.68,9.33.9,13.9,1.02,39.1,2.93,66.01-4.62,7.48-2.1,14.68-5.01,22.12-7.23,3.6-1.07,7.27-1.93,10.99-2.45,4.18-.58,8.5-1.28,12.73-1.05.01,0,.03,0,.04,0,2.72.15,5.45.77,7.8,2.14,0-.05,0-.1,0-.15,11.88,9.72,21.88,16.02,29.05,20.04,4.51,2.53,9.85,5.26,12.23,3.3,1.14-.94,1.38-3.06.99-4.41-.77-2.66-2.29-2.19-4.84-3.2-1.49-.59-2.91-1.32-4.29-2.12Z"/>
        <path class="cls-27" d="m2244.62,2343.07c-.88-2.01-1.63-4.08-1.84-6.1-.56-5.43,2.75-9.6,5.93-13.32,3.27,2.07,3.16,6.26,3.32,9.62.34,6.83,4.26,14.24,10.28,19.38,1.44-2.06,5.54.02,7.42,2.55s3.11,5.67,5.84,7.29c3.01,1.79,6.84,1.06,9.45,3.42,1,.91,1.61,2.11,2.19,3.26,2.45,4.94,4.9,9.88,7.35,14.81.41.83.84,1.74.67,2.51-.97,4.42-8.76,1.56-11.47-.45-5.36-3.97-10.56-8.34-15.52-12.8-9.71-8.74-18.65-18.74-23.63-30.18Z"/>
        <path class="cls-25" d="m2432.37,2305c-6.28,5.25-13.25,9.69-20.66,13.17,4.61-1.81,9.6-2.65,14.55-2.47-1.61,2.05-3.64,3.76-5.94,4.98.93.56,1.86,1.13,2.79,1.69-3.6,2.57-7.56,4.64-11.73,6.11,1.36,1.69,3.45,2.77,5.62,2.9-.07,1.41-1.22,2.7-2.62,2.92.66,1.87,2.11,3.44,3.91,4.26-1.17,1.62-2.74,2.95-4.53,3.83.66,2.4,1.89,4.65,3.56,6.5-.6.5-1.48.63-2.2.33,1.3,1.46,2.13,3.35,2.32,5.3-2.53.47-5.19.29-7.63-.54,2.51,2.42,5.02,4.84,7.54,7.26.63.61,1.32,1.34,1.25,2.22s-1.46,1.45-1.82.65c.22,1.17.44,2.34.65,3.51-1.94.57-4.19-.17-5.41-1.78,3.04,1.47,5.53,4.06,6.88,7.16-4.61-1.21-8.04-3.62-11.87-6.29-3.53-2.46-7.18-4.4-10.47-7.35-1.41-1.26-2.74-3.01-4.32-4.03-1.6-1.03-2.53-2.24-3.51-3.91.68.24,1.36.48,2.03.72.13.05.27.09.4.05.32-.12.22-.6.05-.89-1.13-1.91-2.95-3.45-3.55-5.59,1.08-.1,2.18,0,3.23.28,2.03.55,3.96,1.81,6.06,1.58.56-.06,1.24-.4,1.19-.97-.02-.21-.14-.39-.25-.56-.7-1.05-1.4-2.1-2.11-3.15,2.36-.36,4.85.77,7.12.05.59-.19,1.19-.56,1.35-1.16.13-.5-.09-1.03-.43-1.42s-.79-.66-1.21-.96c-.8-.57-1.52-1.25-2.15-2.01-.22-.27-.43-.68-.2-.94.12-.14.32-.18.5-.2.92-.14,1.84-.27,2.75-.41.22-.03.45-.07.59-.24.3-.35-.07-.87-.41-1.18-1.23-1.11-2.88-1.77-4.39-2.46-2.19-1.01-4.44-1.88-6.73-2.6-.2-.06-.42-.14-.51-.33-.1-.22.05-.5.27-.62s.48-.12.72-.12c1.28,0,2.53.03,3.79-.18.88-.15,1.76-.29,2.62-.51.48-.12,2.06-1.01,2.45-.91-.83-.17-1.76-.49-2.6-.51-.67-.01-1.32.14-2.01.08-.24-.02-.49-.05-.7-.18s-.36-.38-.3-.61c.18-.71,2.49-1.07,3.09-1.29,1.31-.48,2.59-1.06,3.82-1.72-.35.19-1.38-.02-1.79-.02-.73,0-1.46,0-2.19.02-1.17.03-2.32.23-3.48.27-.34.01-.74-.1-.87-.41-.35-.85,3.88-3.03,4.6-3.49,1.92-1.22,3.86-2.4,5.86-3.5,8.77-4.82,18.7-6.32,27.62-10.83-.19.16-.39.33-.58.49Z"/>
        <ellipse class="cls-20" cx="2217.12" cy="2302.05" rx="10.96" ry="11.86"/>
        <ellipse class="cls-7" cx="2210.42" cy="2302.05" rx="4.26" ry="6.52"/>
      </g>
      <path class="cls-12" d="m2097.28,2273.24c4.68-1.72,7.51-6.79,7.9-11.76.39-4.98-1.24-9.88-3.17-14.48-2.52-6.01-5.94-12.14-11.75-15.09-3.65-1.85-7.93-2.27-11.48-4.32-4.24-2.46-6.86-6.91-9.26-11.18-4.98-8.83-22.83-42.48-30.96-57.58-1.54-2.86-5.14-3.87-7.94-2.22h0c-2.8,1.65-3.67,5.29-1.91,8.03,9.28,14.43,30.06,46.33,35.38,54.96,2.57,4.17,5.2,8.62,5.3,13.52.08,4.09-1.63,8.04-1.78,12.13-.23,6.51,3.48,12.47,7.51,17.58,3.09,3.92,6.6,7.72,11.14,9.79,4.54,2.07,10.34,2.05,14.11-1.21"/>
      <path class="cls-18" d="m1859.5,2387.51c-2.46,1.67-3.37,5-2.88,7.93.49,2.93,2.13,5.54,3.91,7.92,2.32,3.11,5.17,6.17,8.95,7.04,2.38.55,4.91.17,7.26.85,2.8.81,4.96,3.01,6.96,5.14,4.15,4.39,19.29,21.29,26.15,28.86,1.3,1.43,3.53,1.5,4.91.15h0c1.38-1.35,1.36-3.59-.04-4.92-7.43-7.02-24.02-22.48-28.33-26.71-2.08-2.05-4.24-4.24-5-7.06-.63-2.36-.21-4.88-.71-7.27-.8-3.8-3.8-6.71-6.86-9.09-2.35-1.82-4.92-3.52-7.84-4.06-2.92-.55-6.27.3-7.99,2.72"/>
      <path class="cls-18" d="m1865.65,2346.38c-.4-2.95-2.99-5.24-5.84-6.1-2.85-.86-5.91-.54-8.83,0-3.82.7-7.82,1.91-10.28,4.91-1.54,1.89-2.33,4.33-3.98,6.13-1.97,2.15-4.9,3.11-7.69,3.97-5.78,1.77-27.63,7.87-37.45,10.67-1.86.53-2.91,2.5-2.3,4.34h0c.6,1.84,2.61,2.81,4.43,2.14,9.58-3.56,30.79-11.59,36.49-13.58,2.76-.96,5.68-1.93,8.54-1.36,2.39.47,4.47,1.97,6.83,2.58,3.76.96,7.7-.43,11.19-2.13,2.67-1.3,5.33-2.85,7.12-5.23s2.51-5.76,1.09-8.37"/>
    </g>
  </g>
</svg>