<?xml version="1.0" encoding="UTF-8"?>
<svg id="Layer_1" data-name="Layer 1" xmlns="http://www.w3.org/2000/svg" xmlns:xlink="http://www.w3.org/1999/xlink" viewBox="0 0 2526.77 2425.22">
  <defs>
    <style>
      .cls-1 {
        fill: url(#linear-gradient);
      }

      .cls-1, .cls-2, .cls-3, .cls-4, .cls-5, .cls-6, .cls-7, .cls-8, .cls-9 {
        stroke-width: 0px;
      }

      .cls-10 {
        opacity: .9;
      }

      .cls-11 {
        opacity: .72;
      }

      .cls-2 {
        fill: #361515;
      }

      .cls-3 {
        fill: #cee0f3;
      }

      .cls-4 {
        fill: #e0e0e0;
      }

      .cls-5 {
        fill: #dd5954;
      }

      .cls-6 {
        fill: #b2b3b3;
      }

      .cls-7 {
        fill: #fdedee;
      }

      .cls-8 {
        fill: #f29fa0;
      }

      .cls-9 {
        fill: #f16d66;
      }
    </style>
    <linearGradient id="linear-gradient" x1="1250.78" y1="-2444.1" x2="1242.58" y2="-6114.47" gradientTransform="translate(0 -3285.06) scale(1 -1)" gradientUnits="userSpaceOnUse">
      <stop offset=".07" stop-color="#67aaad"/>
      <stop offset=".51" stop-color="#007f81"/>
      <stop offset=".99" stop-color="#003d3f"/>
    </linearGradient>
  </defs>
  <g class="cls-10">
    <path class="cls-1" d="m2577.9-156.17H-55.84c-.23,78.68-.05,156.94-1.09,233.66-4.78,354.2-7.43,708.46-12.28,1062.66-2.12,154.73-4.29,309.54-8.92,464.15-4.04,134.69-21.81,267.24-15.86,401.98,5.04,114.15,13.17,250.03,39.95,355.5,26.58,104.71,68.74,74.03,130.46,74.03,137.37,0,274.73,0,412.1,0h1702.13c89.88,0,179.75,11.59,269.64,6.25,49.89-2.96,102.28,14.94,117.63-65.61,12.69-66.57,0-181.46,0-251.28V-156.17Z"/>
  </g>
  <g class="cls-11">
    <path class="cls-9" d="m165.73,330.93c-4.56-18.21-18.71-25.8-16.52-28.67,1.91-2.48,12.44,3.33,35.71,13.11,7.71,3.24,14.39,5.89,19.53,7.89.87.07,1.82.08,2.84-.02,6.76-.68,10.98-5.61,17.49-12.06,4.37-4.33,9.31-8.08,13.6-12.49,8.53-8.76,34.95-26.46,68.81-28.71,37.33-2.48,62.03,15.48,89.56,34.74,8.62,6.03,17.59,13.49,17.06,22.11-.35,5.76-4.93,10.02-9.3,13.21-2.58,1.89-5.54,4.61-8.86,4.18-3.7-.48-7.15-2.42-10.93-2.29,2.59,1.72,5.06,3.62,7.39,5.68-.4-.36-7.65,3.9-8.43,4.27-3.11,1.51-6.25,2.95-9.43,4.31-5.41,2.31-10.91,4.4-16.5,6.22-6.59,2.15-13.34,4.03-20.19,5.17-.62.1-1.3.3-1.94.3-3.1.38-6.21.68-9.33.9-13.9,1.02-39.1,2.93-66.01-4.62-7.48-2.1-14.68-5.01-22.12-7.23-3.6-1.07-7.27-1.93-10.99-2.45-4.18-.58-8.5-1.28-12.73-1.05-.01,0-.03,0-.04,0-2.72.15-5.45.77-7.8,2.14,0-.05,0-.1,0-.15-11.88,9.72-21.88,16.02-29.05,20.04-4.51,2.53-9.85,5.26-12.23,3.3-2.39-1.97-.28-7.43,1.09-13.59,0,0,3.71-16.73-.68-34.24Z"/>
    <path class="cls-8" d="m314.45,263.6c-10.38-4.58-22.5-6.52-33.92-3.51-5.85,1.54-11.51,4.26-15.78,8.44-2.79,2.73-4.98,6.91-3.03,10.03-1.17,1.39-5.27,1.43-6.99,1.91-2.07.59-4.09,1.34-6.13,2.04-2.58.9-5.23,2.06-6.92,4.13-1.21,1.49-1.81,3.3-2.4,5.08-.86,2.63-2.4,6.17-1.54,8.84.78,2.41,3.05,5.18,4.65,7.16-.72-.9,23.55-14.67,25.81-15.76,8.94-4.33,17.97-7.51,27.35-10.7,8.78-2.99,18-4.36,27.17-5.05,9.38-.7,18.25.39,27.61.41-4.15-5.2-10.92-8.42-17.96-8.54-2.29-.04-4.62.23-6.88-.08-3.43-.47-6.41-2.22-9.47-3.67-.52-.25-1.05-.49-1.58-.72Z"/>
    <path class="cls-5" d="m173.47,369.04c2.99-1.74,5.78-3.85,8.68-5.7,8.3-5.31,17.61-8.8,26.84-12.25,9.76-3.65,22.93-3.02,33.32-1.98,5,.5,9.9,1.64,14.83,2.58,9.47,1.81,13.57,1.96,21.25,3.07,17.99,2.61,18.3,3.61,26.9,4.56,10.7,1.18,18.45.55,30.85-.52,12.56-1.09,29.69-3.33,50.07-8.3-1.24.69-2.25,1.27-2.52,1.4-3.11,1.51-6.25,2.95-9.43,4.31-5.41,2.31-10.91,4.4-16.5,6.22-6.59,2.15-13.34,4.03-20.19,5.17-.62.1-1.3.3-1.94.3-3.1.38-6.21.68-9.33.9-13.9,1.02-39.1,2.93-66.01-4.62-7.48-2.1-14.68-5.01-22.12-7.23-3.6-1.07-7.27-1.93-10.99-2.45-4.18-.58-8.5-1.28-12.73-1.05-.01,0-.03,0-.04,0-2.72.15-5.45.77-7.8,2.14,0-.05,0-.1,0-.15-11.88,9.72-21.88,16.02-29.05,20.04-4.51,2.53-9.85,5.26-12.23,3.3-1.14-.94-1.38-3.06-.99-4.41.77-2.66,2.29-2.19,4.84-3.2,1.49-.59,2.91-1.32,4.29-2.12Z"/>
    <path class="cls-9" d="m344.57,344.73c.88-2.01,1.63-4.08,1.84-6.1.56-5.43-2.75-9.6-5.93-13.32-3.27,2.07-3.16,6.26-3.32,9.62-.34,6.83-4.26,14.24-10.28,19.38-1.44-2.06-5.54.02-7.42,2.55s-3.11,5.67-5.84,7.29c-3.01,1.79-6.84,1.06-9.45,3.42-1,.91-1.61,2.11-2.19,3.26-2.45,4.94-4.9,9.88-7.35,14.81-.41.83-.84,1.74-.67,2.51.97,4.42,8.76,1.56,11.47-.45,5.36-3.97,10.56-8.34,15.52-12.8,9.71-8.74,18.65-18.74,23.63-30.18Z"/>
    <path class="cls-8" d="m156.82,306.66c6.28,5.25,13.25,9.69,20.66,13.17-4.61-1.81-9.6-2.65-14.55-2.47,1.61,2.05,3.64,3.76,5.94,4.98-.93.56-1.86,1.13-2.79,1.69,3.6,2.57,7.56,4.64,11.73,6.11-1.36,1.69-3.45,2.77-5.62,2.9.07,1.41,1.22,2.7,2.62,2.92-.66,1.87-2.11,3.44-3.91,4.26,1.17,1.62,2.74,2.95,4.53,3.83-.66,2.4-1.89,4.65-3.56,6.5.6.5,1.48.63,2.2.33-1.3,1.46-2.13,3.35-2.32,5.3,2.53.47,5.19.29,7.63-.54-2.51,2.42-5.02,4.84-7.54,7.26-.63.61-1.32,1.34-1.25,2.22s1.46,1.45,1.82.65c-.22,1.17-.44,2.34-.65,3.51,1.94.57,4.19-.17,5.41-1.78-3.04,1.47-5.53,4.06-6.88,7.16,4.61-1.21,8.04-3.62,11.87-6.29,3.53-2.46,7.18-4.4,10.47-7.35,1.41-1.26,2.74-3.01,4.32-4.03,1.6-1.03,2.53-2.24,3.51-3.91-.68.24-1.36.48-2.03.72-.13.05-.27.09-.4.05-.32-.12-.22-.6-.05-.89,1.13-1.91,2.95-3.45,3.55-5.59-1.08-.1-2.18,0-3.23.28-2.03.55-3.96,1.81-6.06,1.58-.56-.06-1.24-.4-1.19-.97.02-.21.14-.39.25-.56.7-1.05,1.4-2.1,2.11-3.15-2.36-.36-4.85.77-7.12.05-.59-.19-1.19-.56-1.35-1.16-.13-.5.09-1.03.43-1.42s.79-.66,1.21-.96c.8-.57,1.52-1.25,2.15-2.01.22-.27.43-.68.2-.94-.12-.14-.32-.18-.5-.2-.92-.14-1.84-.27-2.75-.41-.22-.03-.45-.07-.59-.24-.3-.35.07-.87.41-1.18,1.23-1.11,2.88-1.77,4.39-2.46,2.19-1.01,4.44-1.88,6.73-2.6.2-.06.42-.14.51-.33.1-.22-.05-.5-.27-.62s-.48-.12-.72-.12c-1.28,0-2.53.03-3.79-.18-.88-.15-1.76-.29-2.62-.51-.48-.12-2.06-1.01-2.45-.91.83-.17,1.76-.49,2.6-.51.67-.01,1.32.14,2.01.08.24-.02.49-.05.7-.18s.36-.38.3-.61c-.18-.71-2.49-1.07-3.09-1.29-1.31-.48-2.59-1.06-3.82-1.72.35.19,1.38-.02,1.79-.02.73,0,1.46,0,2.19.02,1.17.03,2.32.23,3.48.27.34.01.74-.1.87-.41.35-.85-3.88-3.03-4.6-3.49-1.92-1.22-3.86-2.4-5.86-3.5-8.77-4.82-18.7-6.32-27.62-10.83.19.16.39.33.58.49Z"/>
    <ellipse class="cls-7" cx="372.07" cy="303.71" rx="10.96" ry="11.86"/>
    <ellipse class="cls-2" cx="378.77" cy="303.71" rx="4.26" ry="6.52"/>
  </g>
  <path class="cls-4" d="m368.34,1685.88c6.32-6.1,7.28-16.28,4.36-24.57-2.91-8.29-9.02-15.04-15.4-21.09-8.33-7.89-18.2-15.34-29.65-15.96-7.2-.39-14.4,1.99-21.57,1.2-8.58-.95-15.97-6.26-22.88-11.43-14.31-10.69-66.99-52.22-90.83-70.78-4.51-3.51-11.04-2.57-14.38,2.07h0c-3.34,4.65-2.15,11.14,2.63,14.3,25.21,16.66,81.38,53.28,96.09,63.42,7.11,4.9,14.51,10.2,18.15,18.02,3.04,6.54,3.09,14.12,5.76,20.82,4.25,10.65,14.47,17.63,24.6,22.99,7.77,4.11,16.12,7.74,24.9,7.85,8.79.11,18.12-4.05,21.88-11.99"/>
  <path class="cls-6" d="m346.39,1975.11c-4.69.4-8.95,4.49-11.06,9.14-2.11,4.65-2.44,9.77-2.41,14.68.05,6.41.84,13.18,4.84,17.54,2.52,2.74,6.09,4.28,8.44,7.18,2.81,3.48,3.5,8.43,4.07,13.15,1.18,9.76,4.71,46.65,6.4,63.24.32,3.14,3.1,5.06,6.12,4.23h0c3.03-.83,5.08-4.08,4.53-7.16-2.92-16.26-9.63-52.26-11.18-61.92-.75-4.67-1.45-9.62.21-14.33,1.39-3.93,4.29-7.25,5.87-11.12,2.52-6.16,1.42-12.84-.26-18.8-1.29-4.56-2.99-9.13-6.2-12.31-3.21-3.19-8.26-4.71-12.71-2.6"/>
  <path class="cls-3" d="m2163.62,821.48c22.29,16.79,71.1-10.13,110.78-60.39-15.21,41.69-14.65,77.53,4.05,88.47,24.9,14.56,72.51-20.57,106.35-78.45,30.38-51.96,39.32-104.59,22.82-125.35,26.91,2.79,63.34-39.24,84.06-98.57,19.26-55.15,18.58-107.05.08-125.79,23.76-11.98,36.39-64.39,28.61-124.71-8.58-66.5-38.72-117.41-67.32-113.72-19.58,2.53-33.36,29.99-37.36,68.39-12.81-48.71-37.24-82.24-60.64-79.22-28.6,3.69-44.84,60.59-36.26,127.08,6.63,51.42,26.16,93.51,47.89,108.25-24.79,8.61-53.69,46.5-71.28,96.85-17.13,49.05-18.49,95.52-5.57,118.38-26.17,2.23-63.81,29.11-94.9,70.38-40.34,53.55-54.38,111.03-31.34,128.39Zm208.22-57.06c-29.08,49.74-67.59,81.32-86.02,70.55-18.43-10.77-9.8-59.83,19.28-109.56,29.08-49.74,67.59-81.32,86.02-70.55,18.43,10.77,9.8,59.83-19.28,109.57Zm105.84-221.3c-19,54.39-50.73,92.78-70.88,85.74-20.15-7.04-21.09-56.84-2.1-111.23,18.99-54.39,50.73-92.78,70.88-85.74,20.15,7.04,21.09,56.84,2.1,111.23Zm-23.33-342.31c21.17-2.73,44.31,41.38,51.68,98.52,7.37,57.14-3.82,105.68-24.99,108.41-21.17,2.73-44.31-41.38-51.68-98.52-7.37-57.14,3.82-105.68,24.99-108.41Zm-122.99,97.58c-7.37-57.14,3.82-105.68,24.99-108.41,21.17-2.73,44.31,41.38,51.68,98.52,7.37,57.14-3.82,105.68-24.99,108.41-21.17,2.73-44.31-41.38-51.68-98.52Zm-24.34,210.81c19-54.39,50.73-92.78,70.88-85.74,20.15,7.04,21.09,56.84,2.1,111.23-18.99,54.39-50.73,92.78-70.88,85.74-20.15-7.04-21.09-56.84-2.1-111.23Zm-102.5,192.07c34.67-46.02,76.59-72.91,93.64-60.06,17.05,12.85,2.77,60.56-31.9,106.58-34.67,46.02-76.59,72.91-93.64,60.06-17.05-12.85-2.77-60.56,31.9-106.58Z"/>
</svg>