<?xml version="1.0" encoding="UTF-8"?>
<svg id="Layer_1" data-name="Layer 1" xmlns="http://www.w3.org/2000/svg" xmlns:xlink="http://www.w3.org/1999/xlink" viewBox="0 0 1157.45 1132.84">
  <defs>
    <style>
      .cls-1, .cls-2, .cls-3, .cls-4, .cls-5, .cls-6, .cls-7, .cls-8, .cls-9, .cls-10, .cls-11, .cls-12, .cls-13, .cls-14, .cls-15, .cls-16, .cls-17, .cls-18, .cls-19, .cls-20, .cls-21 {
        stroke-width: 0px;
      }

      .cls-1, .cls-22 {
        opacity: .3;
      }

      .cls-23 {
        clip-path: url(#clippath);
      }

      .cls-2 {
        fill: none;
      }

      .cls-3 {
        fill: url(#linear-gradient);
      }

      .cls-4 {
        fill: #fff;
        opacity: .5;
      }

      .cls-24 {
        opacity: .2;
      }

      .cls-25 {
        opacity: .85;
      }

      .cls-6 {
        fill: #5273b8;
      }

      .cls-7 {
        fill: #7b7a7a;
      }

      .cls-8 {
        fill: #263238;
      }

      .cls-9 {
        fill: #6d6c6c;
      }

      .cls-10 {
        fill: #6f6f70;
      }

      .cls-11 {
        fill: #2e5463;
      }

      .cls-12 {
        fill: #422732;
      }

      .cls-13 {
        fill: #234754;
      }

      .cls-14 {
        fill: #ccb59f;
      }

      .cls-15 {
        fill: #e0e0e0;
      }

      .cls-16 {
        fill: #e26d6d;
      }

      .cls-17 {
        fill: #d3dce9;
      }

      .cls-18 {
        fill: #9e7d63;
      }

      .cls-19 {
        fill: #8e6578;
      }

      .cls-20 {
        fill: #8193af;
      }

      .cls-21 {
        fill: #e59595;
      }
    </style>
    <clipPath id="clippath">
      <rect class="cls-2" x="-2.29" y="-36.29" width="1162.03" height="1048.04"/>
    </clipPath>
    <linearGradient id="linear-gradient" x1="-2368.8" y1="2298.44" x2="-30.01" y2="2298.44" gradientTransform="translate(2896.89 1738.12) rotate(90)" gradientUnits="userSpaceOnUse">
      <stop offset="0" stop-color="#cbf7f7"/>
      <stop offset=".25" stop-color="#6cadb0"/>
      <stop offset=".52" stop-color="#3c8b90"/>
      <stop offset="1" stop-color="#1f7378"/>
    </linearGradient>
  </defs>
  <g class="cls-23">
    <path class="cls-3" d="m1164.34,1111.38v84.41c0,.06-.1.06-.1,0v-84.41H-3.37v289.24c0,.06-.1.06-.1,0v-289.24h-52.51v596.72h1308.86v-596.72h-88.54Z"/>
    <path class="cls-3" d="m-55.98-630.68v1741.96H-3.47V-75.38c0-.06.1-.06.1,0v1186.67h1167.61V110.44c0-.06.1-.06.1,0v1000.85h88.54V-630.68H-55.98Z"/>
  </g>
  <path class="cls-15" d="m310.27,82.04c1.46,3.03,4.83,4.36,7.93,4.02,3.1-.34,5.99-2.08,8.66-3.98,3.49-2.48,6.97-5.61,8.29-9.99.83-2.76.72-5.77,1.68-8.48,1.15-3.24,3.67-5.6,6.1-7.79,5.02-4.54,24.23-21.04,32.85-28.53,1.63-1.42,1.94-4.04.69-5.77h0c-1.26-1.74-3.58-1.89-5.12-.34-8.1,8.2-25.99,26.52-30.86,31.26-2.35,2.29-4.87,4.66-7.88,5.33-2.52.56-5.1-.14-7.63.26-4.03.64-7.39,3.94-10.2,7.37-2.15,2.62-4.19,5.52-5.08,8.92-.89,3.4-.38,7.41,1.96,9.62"/>
  <path class="cls-18" d="m999.18,241.22c4.91-31.74-6.23-63.44-11.2-95.17-4.97-31.73-1.48-69.05,24.2-88.33-4.17,16.18-7.17,32.66-8.97,49.28-1.2,11.07-1.86,22.42.85,33.23,2.08,8.29,6.07,15.97,8.82,24.07,14.18,41.81-6.21,87.84.08,131.54,18.16-12.11,26.6-34.94,27.56-56.74.95-21.81-4.38-43.32-8.12-64.82s-5.82-44.13,1.36-64.74c1.11-3.19,4.26-6.95,7.08-5.09-3.19,18.37-.96,37.64,6.35,54.79,3.79,8.89,8.9,17.21,12.13,26.31,8.3,23.42,3.38,49.2-1.62,73.54-4.08,19.86-8.48,40.45-20.7,56.64-5.92,7.84-14.42,14.73-24.24,14.91-11.18.2-20.98-8.65-25.12-19.04-10.65-26.75,7.62-45.03,11.54-70.36Z"/>
  <path class="cls-18" d="m137.92,167.01c.34,20.64,2.79,40.64,9.87,59.08,7.1-21.44,11.5-44.46,12.97-67.81.82-13.01.82-26.57,5.09-38.32,4.92-13.57,14.71-22.56,22.51-33.46,8.62-12.06,15.01-26.95,18.44-42.98,8.06,19.96.37,44.64-9.11,63.45-7.12,14.12-16.98,28.99-19.96,45.96-2.27,12.94-.42,25.79-2.49,39.23-3.32,21.58-6.9,43.95-16.85,61.53-4.82,8.52-11.73,16-19.73,16.2-15.31.37-19.5-22.37-32.08-29.71-4.48-2.61-9.68-4.22-12.62-9.44-2.62-4.65-2.7-10.93-2.68-16.75.07-16.68.15-33.36.22-50.04,6.72,2.68,10.05,13,10.44,22.35s-1.23,18.76-.35,28.05c.88,9.29,5.48,19.13,12.47,19.88,6.61-63.09,13.22-126.18,19.82-189.26,7.8,9.26,8.43,25.03,7.89,38.95-1.07,27.38-4.3,55.8-3.85,83.11Z"/>
  <path class="cls-18" d="m832.01,213.85c-.18-6.35-.34-12.86,1.72-18.88,2.06-6.01,6.83-11.51,13.1-12.57-.29,24.52.75,49.06,3.09,73.47.23,2.42.53,4.98,2,6.91,2.35,3.08,6.71,3.5,10.37,4.77,11.32,3.94,16.71,17.05,17.64,29,.48,6.18.04,12.76-3.38,17.93s-10.59,8.24-16.09,5.39c-1.93-7.16-8.04-13.03-15.27-14.66-13.74-3.1-29.8,7.8-41.27-.38-4.04-2.88-6.37-7.58-7.91-12.3-7.71-23.61.73-50.64-8.88-73.55-1.32-3.14-3-6.39-2.53-9.77s4.42-6.41,7.27-4.54c4.53,9.35,7.19,19.6,7.77,29.97.54,9.62-.4,20.23,5.5,27.84,7.08,9.13,20.46,9.56,32.01,9.18,3.63-.12,7.38-.27,10.64-1.87,6.42-3.16,9.01-10.8,10.97-17.68,3.4-11.9,6.81-23.79,10.21-35.69,1.6-5.6,4.32-12.23,10.1-13.01-.41,20.07-10.15,39.65-7.28,59.52,1.34,9.3,5.25,19.49.36,27.52-2.24,3.68-6.01,6.15-9.82,8.17-5.06,2.7-20.2,11.06-25.73,7.33-4.97-3.36-2.57-21.12-2.71-25.92-.63-22.06-1.26-44.12-1.89-66.18Z"/>
  <path class="cls-12" d="m393.43,253.56c-1.58-.98-3.39-1.74-5.27-2.42-1.51-.54-3.06-1.02-4.6-1.52-4.23-1.38-28.72-12.98-30.26-11.78-.61.48-1.51,1.05-2.49,1.58-1.74.07-3.47.13-5.2.19.12-.23.28-.5.48-.8,3.29-4.8,11.14-7.85,6.8-10.46-4.35-2.6-4.98-.99-5.9,2.63-.75,2.96-6.15,5.54-6.96,8.8-1.4.04-2.8.08-4.19.11-1.58-1.36-5.62-2.1-4.85.11-.91.02-1.82.04-2.72.05-1.26-4.48-4.76-5.27-10.95-3.39-5.15,1.56-1.75,1.68.49,3.5-1.61,0-3.22,0-4.81,0,.63-2.07,2.39-3.02,2.39-3.02,3.87-4.3,2.11-5.81.05-8.67-2.04-2.87-2.04-5.83-.95-8.52,1.07-2.69,4-2.3,3.57-5.76-.43-3.47.13-7.72-4.18-6.79-4.3.94-.7,1.93-.24,5.83.47,3.88-3.31.04-5.14-2.31-1.81-2.35-3.96-3.41-4.75.54-.78,3.94-.28,1.91,5.28,4.4,5.56,2.49,2.09,3.39,2.29,6.56.2,3.16-1.63,3.66-5.17.34-3.54-3.33-7.31-3.79-7.93-.59-.63,3.2,8.62,1.72,13.11,6.8,4.47,5.08-.6,6.9-1.89,9.39-.27.53-.34,1.14-.3,1.76-2.17-.02-4.33-.05-6.45-.1.42-.43,1.07-1.23,1.39-2.29,1.09-.68,2.01-1.49,2.45-2.51,1.63-3.78-.1-4.86-5.05-4.21-.56.07-.98.15-1.31.22-3.05-1.38-6.38-.82-4.94,1.29,1.07,1.58,1.85,4.4,1.18,5.76-.76-.07-1.48-.56-2.03-1.66-1.66-3.31-3.42-4.71-3.42-4.71,0,0,3.43-1.53,3.04-4.26-.38-2.74-4.58-3.39-4.45-1.39.13,2-1.87,6.53-4.21,2.52-2.33-4.02.31-8.05-5.33-8.64-5.65-.59-4.54.63-1.67,3.25.94.86,1.29,1.86,1.53,2.92-.99-.33-2.16-.51-3.58-.5-.31-.42-.63-.86-.96-1.32-2.86-3.99-2.85-8.11-1.34-11.86,1.48-3.74,5.57-3.2,4.96-8.02-.61-4.83.17-10.75-5.81-9.45-5.99,1.3-.99,2.69-.35,8.11.64,5.41-4.62.07-7.16-3.2-2.52-3.27-5.51-4.75-6.6.75-1.09,5.5-.4,2.66,7.34,6.14,7.75,3.47,2.91,4.72,3.19,9.13.15,2.32-.49,3.61-1.84,3.64.14-.74.26-1.53.32-2.4.79-10.49-5.15-9.11-7.22-4.56-.29.64-.46,1.35-.56,2.07-3.05-2.15-5.96-2.71-7.63-1.42-4.74-6.35-5.13-8.64-8.74-4.81-4.2,4.46-5.22,3.98,1.19,7.33,6.41,3.35,11.09,6.19,12.52,8.31.6.89.36,2.13.23,3.6-.61.04-1.25.1-1.96.19-6.87.9.4,1.6-1.37,5.51-.29.64-.66,1.26-1.08,1.83-2.52-.31-5.07-.52-7.65-.66,1.6-2.11-.18-4.6-3.31-4.17-.76-.85-1.25-1.25-1.25-1.25,0,0,4.79-2.13,4.25-5.93-.46-3.26-4.82-4.39-5.93-2.88-.02-.05-.03-.09-.06-.14-1.35-2.4-2.89-3.38-7.73-1.19-.42-3.2-.71-5.71-5.76-6.23-.75-.08-1.41-.13-1.99-.17,1.36-1.53,3.6-3.35,7.53-5.62,9.65-5.56-3.99-4.87-7.89-.47-3.34,3.77-6.46,6.35-8.41,3.14.74-.86,1.5-1.84,2.26-2.98,6.06-9.1.31-8.69-3.8-4.98-.41.38-.79.8-1.15,1.24-1.27-1.97-2.71-1.39-4.69,3.16-.13.3-.24.57-.34.84-.19-.6-.38-1.39-.58-2.41-1.72-8.75.38-12.09-5.48-8.73-5.85,3.36-6.47,2.8-2.75,6.6,3.72,3.81,6.24,6.93,6.37,8.98.13,2.05-4.86,5.23-3.12,9.86.07.18.16.38.26.58-1.86.08-2.92,3-4.34,4.35-2.83-1.92-5.34-3.65-7.2-4.31-.87-.86-1.56-1.58-1.99-2.32.15-.07.29-.14.42-.21,3.09-1.65,2.96-4.5-.32-4.43,1.88-4.81,6.43-7.61,1.7-8.02-.09,0-.17,0-.26-.01.88-.33,1.43-.76,1.45-1.34.12-2.8-1.1-3.77-10.18-.86-1.72.55-3.03.85-4.01.95-.17-.33-.33-.62-.48-.84-.39-.58-1.11-.79-1.92-.72.27-.92,1.19-2.05,2.13-2.88,2.46-2.17,3.46-4.72,14.51-8.31,11.04-3.6-.89-4.82-6.46-1.47-5.57,3.35-10.07,5.32-8.41-.35,1.65-5.67,1.23-7.71-4.77-2.14-6,5.57-.06,3.39,1.01,6.58,1.07,3.18-9.14,10.72-3.71,14.29,0,0-.12.19-.31.52-1.08-.69-2.4-.89-4.15-.3-5.06,1.69-.78,2.58,1.94,6.81-.08.67-.11,1.36-.06,2.06.03.48.04.91.04,1.3-.69-.17-1.61-.63-2.62-1.22.36-2.77-.82-4.04-3.4-2.27-.51-.38-1-.75-1.45-1.1-1.35-1.46-2.69-2.68-3.7-3.69,1-1.87,1.87-3.58,1.99-4.99,2.12-1.43,3.92-3.24,2.29-4.64-1.08-.92-2.81.3-4.5,1.52-.01.01-.03.02-.04.03-.74-.28-1.68-.49-2.88-.63-.87-.1-1.61-.14-2.25-.13-1.2-4.25-2.75-5.19,1.06-8.93,4.07-4.01,9.45-5.88,5.62-6.88-3.82-1-7.12,1.65-9.84,4.42-2.71,2.77-.38-5.87-.52-8.07-.14-2.2-7.53-.09-7.28,3.72.25,3.81,10.22,19.25,4.16,14.96-6.06-4.28-8.17-5.66-7.89-1.25.28,4.4,2.21,2.98,10.24,6.3.28.12.55.24.8.37.11,1.67.3,3.67-.16,5.85-.54.21-1.18.55-1.91,1.05-1.68,1.17-2.58,2.22-3.2,2.92-.73-1.92-1.49-4.82-2.99-6.81-3.03-3.99-6.95-2.88-6.31.28-1.65-1.04-2.56-.68-2.06,2.08.88,4.92,1.2,5.09,7.61,7.97.63.43,1.38.83,2.27,1.19.35.46.69,1.09.97,1.98.76,2.45-.43,5.42.43,7.31.13.39.37.83.76,1.34-3.25-.97-6.48-2.12-9.7-3.47,4.75-2.69-2.69-4.92-4.58-2.41-.34-.07-.68-.09-1-.05-.38-.17-.76-.33-1.15-.49,0-.33,0-.68-.01-1.08-.04-5-1.76-4.64-5.01-.93-1.36-.52-2.73-1.02-4.11-1.5,1.62-1.44,3.66-3.26,5.73-6.21,4.88-2.02,7.51-2.58,3.88-8.32-4.63-7.32-3.83-8.17-3.83-8.17,0,0-.78-.1-1.8-.11,2.11-.64,4.12-1.56,5.61-3.02,4.91-4.79,4.98-7.88-2.54-3.56-7.53,4.32-9.54,4.56-4.42-1.27,5.12-5.82,15.78-10.88,7.52-13.29-8.26-2.42-5.5,4.51-12.9,10.73-7.41,6.23-2.41-1.65-2.99-6.04-.57-4.39-5.43-3.29-5.75.56-.32,3.84-3.52,8.11,3.61,11.17,0,0,1.98-.83.14,2.2-1.83,3.03-6.81,2.08-6.26,6.03.23,1.62-.03,3.31-.56,4.37-.23.21-.37.42-.41.63-.77.88-1.85.61-2.88-2.03-2.03-5.19-3.32-11.67-7.5-9.97.98-1.97,1.71-3.84,1.69-5.77-.01-1.15-.52-2.38-1.33-3.52,6.84-1.77,10.18-1.03,10.03-7.36-.17-7.06.95-7.7.95-7.7,0,0-7.39-2.31-6.77,2.81.63,5.12,2.41,5.78-2.11,7.6-1.43.58-3.14,1.28-4.8,1.87-2.47-1.87-5.41-2.72-6.78-.98-.05.07-.11.13-.16.2.26-3.44,3.45-7.01-.13-5.99-3.7,1.05-11.45,1.85-7.76,5.21,3.69,3.36,6.17,1.48,2.65,5.18-1.17,1.23-2.3,1.98-3.15,2.65-.42-.2-.88-.4-1.38-.6-1.61-.63-2.91-.85-3.96-.8,1.86-2.75,4.78-7.43-1.19-7.59-6.07-.16-4.29,5.2-4.5,6.54-.14,1-2.63,1.11-5.82,1.26-1.05.05-2.19.1-3.34.19-2.16.17-3.06.08-3.45-.58,2.51-2.93,2.17-2.59.5-7.7-.03-.08-.05-.16-.07-.24,1.33-.88,4.28-.16,9.01-1.75,7.08-2.38,5.67-1.73,10.25-6.94,4.58-5.21,10.44-8.43,12.78-12.5,2.34-4.08-1.54-10.38-5.42-7.85-3.89,2.53-5.42,1.13-3.68,5.75,1.75,4.64-2.03,8.78-4.48,6.68-2.45-2.09,1.17-4.32-3.69-7.93-4.87-3.59-8.87,1.59-7.06,2.68,1.81,1.1,8.47,5.8,6.11,9.58-2.36,3.79-1.97,5.38-9.68,6.76-2.41.43-4.02.63-5.17.61-.56-3.51-.95-5.89-4.16-4.64-.69.27-1.34.52-1.96.76-3.57-2.77-10.29-7.28-9-10.81,1.47-4.04,5.22-4.22,10.78-7.7,5.56-3.49,4.75-2.43,6.15-7.79,1.38-5.36,5.41-10.25.55-9.29-4.86.95-8.3,1.41-7.8,4.48.48,3.07-5.57,12.47-5.63,6.88-.07-5.59,4.05-13.28-.29-13.38-4.35-.09-9.71,1.92-9.76,5.6-.05,3.68,2.79,7.38,4.97,9.78,2.18,2.41-.07,3.39-5.07,6.56-5,3.18-1.96,5.4.53,8.22,1.68,1.9,6.79,6.8,10.13,10.89.03.51.27,1.09.8,1.77,2.47,3.12,1.88,13.91-1.72,8.1-3.6-5.81-4-14.51-8.75-13.89-2.34.3-4.62,1.18-6.06,2.46-2.12-8.42-4.67-5.28-6.36-10.83-1.83-6.1-11.04-5.38-10.5-1.58.54,3.8,5.54,5.19,7.47,8.19,1.93,3,.8,3.49,1.09,8.04.29,4.55,17.23,15.99,12.49,14.29-4.74-1.7-17.98-9.63-18.87-5.61,0,0-4.21,1.96,1.72,4.33,4.75,1.9,13.93,3.88,21.52,6.21-1.85,3.41,2.38,5.12,6.47,7.44,1.07.61,2.87,1.55,5.02,2.68.87,1.62.79,2.62-2.33,1.98-5.25-1.08-12.01-3.75-14.91-2.72-.5-.42-1.04-.92-1.64-1.55-.22-.23-.45-.44-.68-.65,1.73-.2,2.56-.6,1.42-2.6-1.28-2.24-4.94-1.63-8.27-.43-3.03-.29-5.44.77-5.37,2.41-2.22.97-.4-1.39-2.75-5.05-2.57-4.01-7.58-.98-5.68,1.73,0,0,.66,5.71,6.55,7.2,0,0,2.18,2.4,3.8,5.12,1.62,2.72,1.03,2.46-2.74,2.33-3.77-.12-12.99.45-3.91,2.24,9.08,1.79,4.79,2.43,2.25,3.43-1.2.48-1.63-.08-2.14-.64-.56-.62-1.22-1.23-3.14-.45-.62.25-1.26.58-1.85.94-4.76-2.88-4.48-2.43-11.82-.35v3.24c3,.63,7.46,1.48,13.05,2.85,15.23,3.73.62,1.82-7.71,3.02-2.31.33-4.21.82-5.34,1.33v1.81c1.79.54,5.8.84,12.93.59,9.91-.34,14.74-1.56,18.86-1.96-1.07,7.11-.59,13.39,1.35,18.9-7.36-1.95-14.49-.28-18-.97-3.68-.72-8.39-3.14-13.87-6.47-.47-.28-.89-.54-1.27-.77v5.71c.64.15,1.29.3,1.97.47,12.04,2.95,5.44,2.37-1.97,2.59v4.22c.59-.01,1.2-.03,1.85-.05,18.88-.65,19.35-4.52,31.53.31,1,.4,1.9.76,2.72,1.09,8.36,13.34,27.3,21.32,55.38,25.53,4.6,2.66,8.24,4.59,8.24,4.59,6.21,1.99,7.6.04,6.63-2.79,51.75,4.97,128.12.21,222.47-6.95,7.19,1.92,14.86,2.62,12.3-.94,5.34-.41,10.74-.83,16.18-1.25.16,0,.32-.02.47-.04,17.67-1.89,37.91-.89,54.86-4.5-.78-5.52-2.89-12.82-8.98-16.61Z"/>
  <g>
    <path class="cls-12" d="m673.2,324.91c15.98,5.89.49,2.26-8.58,2.96-9.07.7-12.56,4.29,7.77,5.21,10.67.48,15.98-.56,20.44-.67-.7,3.24-1.16,6.36-1.36,9.35,1.1-.64,2.26-1.22,3.55-1.64.56-.18,1.15-.29,1.73-.42,1.22-.27,2.43-.54,3.65-.81,2.73-.61,5.47-1.22,8.2-1.83.54-.12,1.26-.17,1.7-.46,1.1-.71,2.01-1.7,2.8-2.65,1.59-1.92,2.71-4.08,3.81-6.23.91-1.77,1.77-3.64,3.15-5.19,1.06-1.19,2.52-2.05,4.37-1.97,2.86.12,5.53,1.87,7.65,3.33.89.61,1.75,1.26,2.59,1.92.29.23.57.45.86.68.07.06.62.6.72.59.21-.02.12-1.31.13-1.52l.54-21.83s.05-.04.08-.02c4.46,3.16,9.66,5.97,15.44,6.98,1.31.23,2.64.36,3.97.36.36,0,.73,0,1.09-.02.15,0,.35.02.47-.07.18-.12.13-.07,0-.24-.29-.35-.57-.7-.85-1.06-1.06-1.36-2.05-2.75-2.89-4.2-1.29-2.21-2.32-4.66-2.17-7.14.37-5.91,7.73-8.88,13.54-10.63.02,0,.05,0,.05.03,1.46,4.63,2.88,9.27,4.85,13.78,1.74,3.98,3.92,7.86,6.91,11.31,3.14,3.63,7.15,6.68,11.82,8.88.37.18.79.43,1.19.54.37.11.35-.02.47-.31.16-.41.32-.81.49-1.21.38-.88.8-1.74,1.27-2.59.92-1.65,2.04-3.23,3.5-4.58,1.37-1.26,3.06-2.29,5.03-2.82,1.48-.4,3.04-.48,4.58-.35-2.42-5.95-1.74-6.65-1.74-6.65,0,0-.83-.19-1.93-.3,2.33-.59,4.58-1.52,6.32-3.15,5.74-5.36,6.13-9.1-2.37-4.55-8.52,4.55-10.7,4.66-4.62-1.94,6.07-6.59,18.02-11.75,9.4-15.42-8.62-3.68-6.35,4.97-14.91,11.84-8.57,6.88-2.43-2.22-2.61-7.59-.18-5.37-5.5-4.47-6.23.16-.73,4.62-4.59,9.51,2.77,13.86,0,0,2.2-.82-.07,2.68-2.27,3.5-7.52,1.91-7.32,6.74.08,1.98-.36,4.01-1.03,5.25-.27.24-.44.47-.5.73-.91.99-2.05.57-2.89-2.73-1.67-6.48-2.4-14.44-7.06-12.75,1.25-2.3,2.22-4.5,2.39-6.83.1-1.39-.33-2.93-1.07-4.39,7.51-1.53,11.03-.33,11.5-8.01.52-8.57,1.79-9.24,1.79-9.24,0,0-7.71-3.47-7.55,2.8.16,6.26,2.01,7.22-3.02,9.02-1.59.57-3.5,1.27-5.34,1.83-2.46-2.49-5.53-3.78-7.18-1.8-.07.08-.13.15-.19.22.62-4.14,4.4-8.18.45-7.27-4.08.94-12.47,1.2-8.85,5.61,3.63,4.41,6.48,2.35,2.34,6.51-1.37,1.38-2.67,2.19-3.64,2.93-.43-.28-.9-.56-1.43-.85-1.66-.91-3.04-1.29-4.17-1.32,2.27-3.17,5.88-8.57-.52-9.3-6.5-.75-5.12,5.92-5.48,7.51-.25,1.2-2.94,1.11-6.37,1-1.14-.04-2.36-.08-3.61-.07-2.33,0-3.29-.18-3.64-1.02,2.99-3.32,2.59-2.94,1.3-9.29-.02-.1-.04-.2-.06-.3,1.52-.95,4.61.19,9.85-1.31,7.84-2.25,6.25-1.58,11.69-7.48,5.44-5.9,12.05-9.27,14.97-13.99,2.91-4.74-.62-12.72-5.04-10-4.43,2.71-5.94.88-4.52,6.64,1.42,5.78-3.05,10.45-5.48,7.69-2.42-2.76,1.68-5.13-3.17-9.94-4.87-4.79-9.68,1.12-7.85,2.61,1.83,1.49,8.51,7.79,5.61,12.16-2.91,4.37-2.65,6.34-11.07,7.32-2.63.31-4.38.4-5.62.28-.25-4.3-.43-7.22-4-6-.76.26-1.49.5-2.18.74-3.56-3.68-10.33-9.75-8.59-13.91,1.98-4.77,6.02-4.64,12.34-8.36,6.32-3.73,5.34-2.51,7.38-8.89,2.02-6.37,6.82-11.93,1.51-11.21-5.31.72-9.05.96-8.82,4.72.21,3.76-7.21,14.6-6.73,7.82.48-6.78,5.67-15.73,1.02-16.23-4.66-.5-10.62,1.45-11.04,5.9-.42,4.46,2.27,9.19,4.36,12.3,2.1,3.11-.42,4.1-6.1,7.49-5.68,3.4-2.64,6.36-.25,10.01,1.61,2.45,6.61,8.86,9.8,14.11-.02.62.18,1.34.69,2.21,2.34,4,.63,17.02-2.66,9.65-3.29-7.37-2.85-17.94-8.01-17.62-2.54.16-5.08,1.02-6.75,2.43-1.44-10.4-4.49-6.81-5.75-13.69-1.35-7.55-11.32-7.51-11.12-2.86.2,4.66,5.43,6.79,7.2,10.6,1.78,3.81.51,4.3.38,9.84-.14,5.54,16.91,20.93,11.99,18.45-4.92-2.48-18.34-13.29-19.7-8.5,0,0-4.71,1.99,1.42,5.41,4.91,2.73,14.57,5.96,22.48,9.47-2.32,3.96,2.04,6.42,6.2,9.6,1.09.83,2.93,2.14,5.13,3.7.77,2.04.59,3.25-2.69,2.19-5.53-1.78-12.52-5.62-15.74-4.65-.5-.55-1.03-1.21-1.61-2.02-.21-.3-.44-.58-.66-.85,1.88-.08,2.81-.49,1.79-3.02-1.15-2.83-5.15-2.42-8.84-1.27-3.22-.62-5.91.44-6,2.43-2.48.98-.29-1.72-2.45-6.36-2.37-5.09-8.04-1.87-6.27,1.59,0,0,.14,6.97,6.31,9.32,0,0,2.1,3.11,3.57,6.55,1.47,3.45.86,3.07-3.17,2.57-4.03-.48-13.99-.63-4.42,2.36,9.57,2.99,4.9,3.38,2.07,4.36-1.34.47-1.74-.25-2.23-.97-.53-.8-1.18-1.6-3.33-.83-.69.25-1.41.59-2.09.97-4.98-4.04-4.54-3.31-13.43-1.31-9.19,2.06-1.82,2.48,14.18,8.38Z"/>
    <path class="cls-12" d="m1010.32,223.33c-.21,1.44-.45,3.17-.8,4.79-3.79.43-6.66,1.92-5.46,4.16.05.09.09.17.13.26-3.94-2.66-6.19-7.51-7.24-4.21-1.08,3.41-5.03,9.53,1.31,9.31,6.35-.23,5.67-3.36,7.86,1.81.72,1.72.91,3.07,1.18,4.16-.5.16-1.03.34-1.59.56-1.77.7-2.86,1.48-3.45,2.27-2.11-3.31-5.85-8.77-9.81-4.6-4.03,4.24,3.5,6.81,4.96,7.91.67.49.41,1.37-.3,2.5,1.59-.9,3.2-1.79,4.88-2.58,3.79-1.78,7.69-3.39,11.66-4.87-1.29-3.34-.77-7.34-.04-10.61,0-.02.03-.03.06-.02,5.48,1.43,10.97,2.9,16.58,3.9.89.16,1.79.3,2.69.43,2.48-.73,4.96-1.44,7.44-2.15-7.03-2.26-14.41-5.17-14.97-1.26-1.73-2.12-3.5-3.98-5.82-5.35-1.38-.82-3.17-1.33-5.04-1.58,2.21-6.17,5.21-8.04-2.45-12.47-8.54-4.94-8.59-6.21-8.59-6.21,0,0-7.43,3.64-.92,6.87,6.51,3.23,8.42,2.43,7.74,6.97Z"/>
    <path class="cls-12" d="m1110.18,293.82c-.17.17-.33.33-.5.47-.35.15-.6.32-.78.54-1.27.67-2.17-.05-1.62-3.36.07-.44.15-.89.23-1.34-1.36-1.89-2.73-3.77-4.11-5.64.18,3.4.71,6.8,1.85,10.09,1.49,4.28,4.05,8.26,7.57,11.64.28.27.57.62.91.84.31.2.34.08.57-.16.31-.33.63-.66.96-.99.72-.71,1.46-1.4,2.25-2.06.02-.02.04-.03.06-.04-2.53-3.3-4.98-6.64-7.41-9.99Z"/>
    <path class="cls-12" d="m1088.72,266.34c-2.33-2.5-4.72-5.02-7.42-7.25-.66-.54-1.32-1.08-1.98-1.62-.94-.25-2.04-.62-3.24-1.02-1.06-.36-2.21-.74-3.39-1.09-2.21-.65-3.05-1.1-3.04-1.98,1.33-.72,2.18-1.19,2.77-1.69-1.44-1.3-2.83-2.65-4.1-4.07-1.36-1.53-2.59-3.15-3.57-4.87-1.89,4.05-4.86,7.24-4.93,2.15-.11-7.81,4.61-17.57-.41-18.74-2.47-.57-5.22-.49-7.38.36,2.87-10.12-1.48-7.64.14-14.42,1.8-7.44-7.66-10.22-9.36-5.81-1.71,4.41,2.37,7.88,2.5,11.94.13,4.06-1.27,4.17-3.65,9.3-2.38,5.13,7.48,24.33,3.84,20.63-3.64-3.71-11.95-17.6-15.19-13.52,0,0-5.27.53-.86,5.45,3.53,3.94,11.37,9.69,17.43,15.21-3.81,3.05-.68,6.58,1.96,10.72.69,1.09,1.9,2.83,3.35,4.9-.1,2.12-.77,3.2-3.44,1.28-4.51-3.23-9.57-8.8-13.01-8.79-.24-.66-.48-1.42-.7-2.34-.08-.34-.18-.66-.28-.98,1.81.45,2.86.33,2.92-2.32.07-2.97-3.89-3.71-7.85-3.69-2.8-1.49-5.78-1.26-6.68.58-2.75.21.43-1.69.28-6.64-.17-5.42-6.85-4.02-6.58-.29,0,0-2.7,6.56,2.18,10.49,0,0,.72,3.5.71,7.13-.01,3.64-.44,3.11-4.05,1.51-3.62-1.59-12.99-4.55-5.15.96,7.85,5.5,3.26,4.54.19,4.66-1.46.06-1.55-.73-1.72-1.54-.18-.9-.47-1.83-2.81-1.71-.75.04-1.57.15-2.37.32-3.07-5.18-2.96-4.37-12.19-5.03-9.54-.67-2.73,1.8,10.02,11.84,12.73,10.02-.46,2.25-9.33.34-8.87-1.91-13.64.46,5.24,7.07,9.9,3.47,15.36,3.99,19.63,5.16-1.99,2.83-3.68,5.61-5.1,8.35,1.3-.29,2.64-.5,4.03-.53.6-.01,1.2.06,1.8.1,1.26.09,2.53.18,3.79.27,2.84.2,5.67.41,8.51.61.56.04,1.26.2,1.8.06,1.33-.35,2.6-1.02,3.72-1.68,2.29-1.35,4.23-3.05,6.15-4.74,1.58-1.4,3.16-2.9,5.1-3.96,1.49-.81,3.22-1.21,4.95-.61,2.66.92,4.47,3.31,5.88,5.27.59.83,1.15,1.67,1.67,2.52.18.29.36.59.53.88.04.07.34.74.44.76.2.04.65-1.18.74-1.38l9.4-20.24s.06-.03.08,0c2.94,4.21,6.71,8.31,11.77,10.89,1.15.58,2.36,1.08,3.62,1.46.34.1.69.2,1.04.28.15.04.32.11.48.07.22-.07.15-.03.09-.23-.13-.41-.25-.82-.37-1.23-.45-1.56-.82-3.15-1.03-4.74-.32-2.43-.3-5.01.86-7.28.97-1.9,2.61-3.21,4.6-4.12-1-1.14-2-2.28-3.04-3.39Z"/>
    <path class="cls-12" d="m1086.09,256.73c8.43-4.44,21.86-5.88,15.18-11.75-6.67-5.88-8.04,2.85-18.95,6.85-10.92,4.01-1.4-2.76.62-7.83,2.02-5.07-3.38-5.73-5.96-1.61-2.58,4.11-8.22,7.59-3.02,13.73,0,0,2.42-.14-1.15,2.48-3.58,2.63-7.9-.35-9.68,4.22-.61,1.57-1.59,3.06-2.56,4.07,2.42,3.36,4.87,6.71,7.41,10.01,1.51-1.24,3.18-2.37,5.06-3.2,1.81-.79,3.83-1.27,5.91-1.21,1.57.04,3.07.41,4.48.96.13-6.25,1.06-6.7,1.06-6.7,0,0-.71-.41-1.7-.83,2.44.11,4.95-.13,7.27-1.16,7.62-3.38,9.51-6.77-.4-4.92-9.92,1.84-12.03,1.33-3.58-3.12Z"/>
    <path class="cls-12" d="m1139.08,284.66c-9.01-1.29-24.66,1.34-8.41-3.51,7.48-2.23,13.08-3.42,16.06-4.31l.13-2.61c-.47-.16-1.01-.33-1.63-.51-9.09-2.66-8.26-3.32-14.03.84-5.76,4.17-10.74,7.21-14.67,8.16-3.75.91-11.49-.97-19.33,1.55,1.15-4.15,1.69-8.65,1.6-13.51-1.48-.98-3.08-1.78-4.88-2.31-4.18-1.21-8.36-2.43-12.54-3.64-.32-.09-.73-.15-1.02-.3-.44-.22-.84-.71-1.16-1.03-.37-.36-.71-.73-1.03-1.12-1.33-1.59-2.31-3.37-3.17-5.16-.81-1.7-1.51-3.43-2.37-5.11-.68-1.32-1.48-2.74-2.83-3.69-1.36-.97-3.08-1.09-4.74-.72-2.93.66-5.53,2.32-7.84,3.87-.85.57-1.69,1.17-2.51,1.78-.03.02-.08,0-.07-.03l.54-22.01c0-.37.06-.75.03-1.12-.04-.42-.27-.12-.56.05-.61.37-1.23.73-1.86,1.07-2.66,1.46-5.51,2.73-8.55,3.58-3.4.96-7.02,1.37-10.61.84-.03,0-.04-.04-.03-.05,1.72-1.87,3.35-3.81,4.64-5.91,1.05-1.71,1.9-3.56,2.08-5.49.17-1.73-.26-3.45-1.3-4.98-1.25-1.83-3.2-3.27-5.27-4.45-1.32-.75-2.71-1.4-4.14-2-.4-.17-.8-.33-1.2-.48-.16-.06-.58-.3-.77-.29-.26,0-.26.21-.32.38-.22.59-.44,1.18-.66,1.78-.89,2.38-1.79,4.76-2.8,7.11-1.97,4.61-4.34,9.15-7.72,13.16-3.42,4.05-7.89,7.4-13.21,9.64-.74.31-1.49.6-2.25.87-.03,0-.06,0-.06-.02-1.52-4.81-4.26-10.79-10.52-12.5-1.26-.34-2.56-.47-3.86-.44-.46.99-1.02,2.12-1.7,3.42-3.68,7.06-.83,7.68,4.51,10.04,2.34,3.55,4.62,5.73,6.41,7.44-1.46.62-2.92,1.25-4.37,1.91-3.64-4.43-5.51-4.85-5.35,1.24.01.48.02.92.03,1.32-.41.21-.81.42-1.21.63-.35-.03-.71,0-1.07.08-2.13-3-10.06-.14-4.83,3.03-3.41,1.71-6.85,3.18-10.3,4.42.4-.63.64-1.17.77-1.65.85-2.31-.55-5.9.17-8.9.27-1.08.6-1.86.96-2.42.94-.45,1.73-.95,2.4-1.49,6.78-3.63,7.12-3.84,7.87-9.85.43-3.37-.56-3.79-2.3-2.49.57-3.85-3.7-5.13-6.8-.21-1.54,2.46-2.24,6-2.95,8.35-.7-.83-1.7-2.09-3.56-3.48-.81-.6-1.5-1-2.09-1.24-.59-2.63-.46-5.08-.41-7.11.27-.16.55-.31.85-.46,8.5-4.2,10.64-2.52,10.77-7.88.13-5.36-2.09-3.64-8.44,1.69-6.35,5.34,3.77-13.64,3.88-18.28.11-4.64-7.92-7.05-7.99-4.37-.07,2.68,2.79,13.14-.24,9.83-3.03-3.32-6.7-6.48-10.76-5.18-4.08,1.3,1.78,3.45,6.33,8.25,4.25,4.48,2.61,5.65,1.49,10.84-.69,0-1.48.06-2.42.2-1.29.19-2.29.47-3.08.82-.02-.01-.03-.02-.05-.04-1.87-1.45-3.78-2.9-4.9-1.76-1.7,1.73.31,3.89,2.65,5.59.18,1.72,1.18,3.78,2.34,6.03-1.05,1.25-2.44,2.76-3.84,4.56-.46.44-.97.9-1.51,1.37-2.85-2.1-4.07-.53-3.57,2.83-1.06.74-2.04,1.31-2.77,1.54-.02-.47-.02-1-.01-1.58.02-.85-.04-1.69-.15-2.51,2.75-5.21,7.33-6.37,1.82-8.32-1.91-.68-3.33-.41-4.46.45-.22-.4-.36-.63-.36-.63,5.71-4.46-5.58-13.41-4.56-17.3,1.03-3.9,7.51-1.37.83-8.02-6.68-6.65-7.05-4.16-5.05,2.7,2.02,6.86-2.91,4.55-9.04.6-6.13-3.95-18.92-2.22-6.89,1.93,12.04,4.15,13.21,7.22,15.95,9.81,1.05.99,2.08,2.35,2.41,3.46-.87-.07-1.64.2-2.04.91-.15.27-.31.62-.48,1.03-1.06-.1-2.48-.44-4.35-1.07-9.88-3.36-11.16-2.15-10.92,1.25.04.71.65,1.22,1.61,1.6-.09,0-.18,0-.28.02-5.07.6-.07,3.91,2.15,9.72-3.53-.03-3.56,3.44-.17,5.39.14.08.3.17.46.25-.43.92-1.14,1.8-2.04,2.87-1.97.84-4.61,3-7.58,5.39-1.58-1.62-2.84-5.14-4.85-5.2.1-.24.19-.48.25-.71,1.69-5.67-3.81-9.42-3.75-11.92.06-2.5,2.64-6.35,6.5-11.06,3.84-4.69,3.21-4-3.23-7.97-6.44-3.96-4.05.05-5.55,10.73-.18,1.25-.35,2.21-.53,2.95-.12-.32-.25-.65-.4-1.01-2.32-5.49-3.89-6.16-5.17-3.74-.4-.53-.82-1.03-1.29-1.48-4.57-4.43-10.77-4.81-3.89,6.13.86,1.37,1.72,2.55,2.55,3.58-1.98,3.95-5.44.87-9.18-3.64-4.37-5.27-19.07-5.83-8.47.73,4.33,2.68,6.81,4.84,8.33,6.68-.63.05-1.33.13-2.13.24-5.41.74-5.62,3.78-5.95,7.69-5.3-2.56-6.92-1.34-8.27,1.61-.03.06-.04.12-.06.17-1.26-1.82-5.91-.36-6.27,3.62-.43,4.63,4.81,7.13,4.81,7.13,0,0-.52.5-1.3,1.55-3.39-.47-5.21,2.6-3.4,5.14-2.77.22-5.51.54-8.21.97-.47-.68-.89-1.42-1.23-2.2-2.06-4.72,5.74-5.72-1.7-6.67-.76-.1-1.46-.16-2.12-.2-.2-1.79-.51-3.29.1-4.38,1.46-2.6,6.39-6.15,13.15-10.37,6.77-4.21,5.69-3.6.99-8.94-4.04-4.59-4.37-1.79-9.22,6.02-1.84-1.54-4.95-.8-8.15,1.88-.14-.88-.35-1.74-.69-2.51-2.41-5.49-8.86-7.04-7.59,5.7.11,1.06.26,2.02.44,2.91-1.46,0-2.2-1.56-2.13-4.38.13-5.36-5.13-6.78,3.07-11.16,8.2-4.38,9.05-.95,7.66-7.61-1.4-6.67-4.55-4.8-7.14-.78-2.6,4.03-8.05,10.64-7.58,4.04.48-6.59,5.8-8.39-.7-9.85-6.49-1.46-5.42,5.72-5.88,11.61-.46,5.88,3.92,5.13,5.66,9.65,1.78,4.53,1.95,9.54-.97,14.45-.34.57-.67,1.1-.98,1.62-1.53.02-2.77.27-3.83.69.22-1.29.56-2.52,1.54-3.58,2.99-3.24,4.13-4.75-1.92-3.92-6.05.83-3.05,5.68-5.4,10.61-2.36,4.93-4.69-.54-4.63-2.98.06-2.44-4.43-1.55-4.73,1.78-.3,3.32,3.45,5.11,3.45,5.11,0,0-1.84,1.74-3.49,5.8-.55,1.34-1.31,1.96-2.12,2.06-.78-1.64-.05-5.08,1.04-7.03,1.46-2.6-2.14-3.21-5.37-1.47-.35-.08-.81-.16-1.42-.24-5.36-.68-7.18.67-5.27,5.22.51,1.23,1.53,2.21,2.74,3.01.38,1.28,1.11,2.24,1.59,2.76-2.28.1-4.6.18-6.94.26.01-.76-.08-1.5-.39-2.14-1.49-3-7.02-5.11-2.41-11.38,4.63-6.27,14.65-4.66,13.84-8.54-.79-3.88-4.83-3.24-8.51.88-3.68,4.12-5.67,3.54-5.58-.31.09-3.85-3.68-4.87,2.21-8.02,5.88-3.15,6.51-.69,5.51-5.47-1-4.79-3.28-3.45-5.13-.56-1.87,2.9-5.79,7.65-5.44,2.91.34-4.74,4.17-6.03-.5-7.08-4.67-1.05-3.91,4.1-4.23,8.34-.33,4.22,2.81,3.68,4.07,6.93,1.27,3.25,1.4,6.85-.69,10.39-2.1,3.52-3.94,5.39.4,10.54,0,0,1.93,1.11,2.69,3.62-1.72.04-3.44.08-5.18.1,2.34-2.26,6-2.47.39-4.26-6.74-2.15-10.48-1.13-11.65,4.35-.97,0-1.95,0-2.93,0,.73-2.7-3.58-1.71-5.23-.03-1.5-.01-3.01-.03-4.52-.05-1-3.95-6.91-6.97-7.84-10.56-1.13-4.38-1.88-6.32-6.45-3.07-4.56,3.26,4,6.8,7.73,12.57.23.36.41.68.55.96-1.87-.04-3.73-.08-5.61-.12-1.08-.63-2.07-1.31-2.75-1.87-1.7-1.43-27.59,13.19-32.1,14.95-1.63.64-3.29,1.26-4.89,1.95-2,.86-3.92,1.82-5.58,3.05-6.4,4.73-8.38,13.66-9,20.38,18.39,4.05,40.14,2.42,59.23,4.34.17.02.34.03.51.03,5.88.4,11.7.79,17.47,1.18-2.61,4.38,5.62,3.38,13.28.89,101.83,6.75,184.22,10.95,239.72,3.84-.93,3.47.64,5.81,7.25,3.26,0,0,3.85-2.43,8.69-5.76,30.05-5.69,50.12-15.79,58.58-32.19.87-.42,1.82-.88,2.88-1.38,12.92-6.13,13.57-1.43,33.92-1.03,20.34.4,17.03-3.42,8.01-4.71Z"/>
    <path class="cls-12" d="m1146.95,274.25l-.13,2.56c2.94-.89,3.23-1.49.13-2.56Z"/>
  </g>
  <path class="cls-19" d="m127.54,306.02c2.61-6.49,8.09-5.06-.24-7.01-7.42-1.72-11.95-10.88-15.3-18.08-2.09-.49-7.28-2.22-7.06-7.65.26-6.82-4.53-9.99-.4-16.77,4.12-6.76,5.96-7.29,4.87,2.36-.18,1.53-.31,2.74-.41,3.74.74-.66,1.5-.75,2.24-.4,2.51-4.65,9.69.52,3.97,5.25l-.04.04c1.99,4.02,4.01,9.57,6.11,14.5.42,1.01.82,1.86,1.18,2.53.02-.09.02-.17.02-.24.29-3.25,1.59-6.3,2.33-7.82-.05-.18-.09-.36-.14-.55-1.62-1.48-1.82-3.82-1.61-6.26.23-2.71.94-5.79,1.16-8.67.07-.91.1-1.82.07-2.68-.12-2.85-.61-4.32-.99-4.98-.2-.32-.36-.46-.44-.51h-.05s-.4.1-.4.1l-.36-.37c-6.02-6.23-6.6-7.28-6.29-16.86,0-.71.04-1.38.1-1.94.11-1.12.23-1.94.48-2.61.2-.59.72-1.32,1.63-1.33.63.06.99.35,1.33.69.64-5,4.39-5.9,6.39,1.47.96,3.51,1.15,8.32,1.4,12,.78-1.23,1.88-2.79,3.4-4.4,1.16-1.22,2.12-1.99,3.05-2.31.16-.76.29-1.52.39-2.22-1.54-1.2-2.71-1.94-3.64-2.78-1.66-1.53-2.09-3.48-1.7-7.74.15-1.8.36-3.13.65-4.07.27-.88.8-1.86,1.96-1.88,1.37.14,1.95,1.15,3.06,2.58.32.47.66,1.04,1.04,1.63.4-2,1.02-3.41,2.27-4-.92-7.36-2.35-16.53-2.06-20.28.54-5.59,4.68-9.11,7.74-9.17.66,0,1.34.23,1.8.76.43.52.59,1.23.52,2-.26,2.95-2.2,10.94-2.52,14.57,2.74-3.98,5.7-7.87,9.46-7.96.84.02,1.65.27,2.41.75,1.01.6,1.59,1.53,1.49,2.54-.19,1.62-1.47,2.93-3.05,4.69-1.61,1.75-3.63,3.92-5.51,6.63-2.18,3.16-2.95,5.11-3.21,7.16,2.61,2.31,1.98,6.19.3,10.91,0,.14,0,.28,0,.43,0,1.09.13,1.84.27,2.18.05.14.1.19.12.22.14-.03.56-.23,1.05-.73.94-.82,2.09-2.16,3.19-3.29,1.18-1.15,2.12-2.24,3.62-2.32.76,0,1.41.53,1.69,1.2.4.83.53,1.73.45,2.62-.44,4.36-5.26,8.32-7.67,10.25-.25.22-.38.43-.44.94-.09.62.11,1.46.48,2.55,2.79-2.55,3.52.42,2.33,5.96,1.07,2.73,2.25,5.93,3.15,9.62.64,2.73,1.24,4.72,1.72,5.99.19.46.39.84.53,1.09.33-.92.72-3.04.95-5.92.67-8.08,3.78-15.35,4.58-17.16-.86-1.57-1.12-3.31-.95-5.11.69-7.51,7.78-16.73,8.05-21.42.03-.22.05-.44.02-.65-.13-1.89-.74-2.59-1.45-3.32-.66-.68-1.7-1.53-1.56-3.12.15-1.56,1.16-3.47,3.63-6.9,1.52-2.04,2.71-3.55,3.69-4.55.99-1,1.63-1.64,2.72-1.71.77,0,1.24.65,1.36,1.13.14.53.11,1.11.08,1.85-.17,1.9-.87,4.83-1.88,8.51-.48,1.72-.73,3.07-.81,4.04-.09.91.04,1.49.15,1.73.14.22.13.19.3.24.86.15,4.11-2.12,7.38-5.23,2.61-2.37,5.92-3.32,8.51-3.26,2.25.02,4.48.8,4.42,2.95-.25,1.8-2.01,3.35-5.73,5.18-11.9,5.77-13.16,10.15-16.31,14.25-1.32,1.75-2.74,4.43-2.85,5.98.06,1.03.02,1.16,1.04,1.27.77,0,2.22-.33,4.33-1.34,3.94-1.87,6.49-2.73,8.4-2.74,1.28,0,2.33.6,2.78,1.55.45.94.49,2.06.37,3.37-.03.44-.07.87-.16,1.36-.21,1.7-1.48,2.87-2.97,3.45-4.34,1.74-11.95,1.06-14.18,3.38-3.41,3.03-3.47,12.19-6.78,19.77-.41.87-.6,1.54-.65,1.87.68-.22,2.51-1.27,4.46-2.78,2.44-1.76,5.41-4.14,8.42-6.39,2.29-1.71,4.12-2.48,5.69-2.47,2.38.02,3.34,2.14,3.17,4.14-.17,2.02-1.27,4.31-3.25,5.94-2.58,2.11-7.67,4.55-12.37,6.77-2.36,1.11-4.57,2.14-6.28,3-1.67.81-2.96,1.62-2.95,1.71v.02c-.65,1.48-2.17,10.5-3.4,18.87-1.27,8.43-2.35,16.37-2.35,16.41l-.17,1.23-1.15-.51s-1.66-.75-3.36-1.71c-.83-.49-1.68-1.04-2.32-1.62-.63-.58-1.23-1.12-1.22-2.11.07-.76,1.05-5.49,2.22-10.99-2.65,3.22-6.62,5.01-10.02,7.07-5.71,3.47-3.67,1.95-1.05,13.14,2.58,11.2,4.21,7.85,10.34,3.3,6.13-4.53,5.54,1.73.33,7.32-5.2,5.56-1.78,8.5-1.78,8.5,3.07,21.99-8.54.05-11.47-8.14-2.96-8.21-8.46-15.7-5.88-22.19Zm6.46-81.01c-.69,1.88-1.34,3.79-1.85,5.7-3.19,12.14-1.54,12.27,4.08,3.92-.49-3.58-1.03-6.9-2.23-9.62Zm-7.48,50.61c5.38,4.01,6.43-1.73,8.99-9.81,2.24-6.98,6.62-5.68,7.74,1.2.67-3.09,1.18-5.45,1.35-6.22l-2.65-5.77c-1.86-3.07-3.03-6.25-3.83-9.44-.74.73-1.5,1.35-2.31,1.94.32,0,.63.07.92.18,1.21.31,2.14,1.14,2.06,2.23-.4,2.12-2.86,3.65-5.59,5.59-2.71,1.83-5.8,3.72-7.23,5.07-.8.73-1.43,1.87-1.91,3.19-.68,4.61-.7,9.48,2.46,11.83Z"/>
  <path class="cls-19" d="m105.79,326.66c-2.9-6.36,1.92-9.35-5.24-4.66-6.36,4.18-16.12,1.14-23.65-1.4-1.8,1.17-6.63,3.74-10.41-.16-4.75-4.89-10.36-3.62-12.41-11.28-2.05-7.64-1.16-9.34,5.07-1.9.99,1.19,1.77,2.12,2.42,2.88.03-.99.49-1.61,1.26-1.9-1.63-5.02,7.06-6.66,6.54.75v.06c4.28,1.33,9.69,3.7,14.72,5.58,1.02.39,1.91.69,2.65.89-.05-.07-.11-.13-.16-.18-2.15-2.45-3.47-5.5-4.05-7.08-.16-.08-.32-.19-.5-.27-2.19.16-4.02-1.32-5.64-3.16-1.81-2.04-3.54-4.67-5.48-6.82-.61-.68-1.24-1.33-1.9-1.9-2.14-1.88-3.55-2.54-4.29-2.72-.37-.08-.58-.05-.67-.04l-.04.03-.2.37h-.51c-8.67.06-9.82-.24-16.55-7.08-.52-.5-.97-.99-1.34-1.41-.74-.85-1.25-1.51-1.56-2.15-.29-.56-.46-1.44.16-2.1.47-.41.93-.48,1.42-.49-3.18-3.92-1.24-7.25,5.48-3.61,3.2,1.72,6.82,4.9,9.65,7.27-.35-1.41-.72-3.28-.84-5.5-.08-1.68.02-2.9.43-3.8-.44-.64-.9-1.26-1.33-1.81-1.93.28-3.27.62-4.53.72-2.26.15-3.97-.89-6.78-4.11-1.2-1.36-2.02-2.42-2.5-3.27-.45-.8-.79-1.86-.01-2.72,1.05-.9,2.18-.62,3.97-.43.56.09,1.21.24,1.9.37-1.17-1.67-1.76-3.09-1.34-4.4-5.96-4.41-13.59-9.7-16.1-12.5-3.67-4.25-3.36-9.67-1.3-11.93.45-.48,1.09-.81,1.79-.78.67.05,1.3.42,1.81,1,1.95,2.22,6.4,9.14,8.81,11.88-.99-4.73-1.76-9.56.76-12.34.59-.59,1.33-1.01,2.2-1.23,1.13-.32,2.21-.1,2.86.67,1.04,1.25,1.1,3.08,1.29,5.45.16,2.37.34,5.33,1,8.56.78,3.75,1.66,5.67,2.97,7.27,3.47-.29,5.85,2.83,8.11,7.31.1.1.21.18.32.29.79.75,1.42,1.17,1.76,1.31.14.06.21.06.24.06.07-.12.22-.56.19-1.26.06-1.24-.12-3-.18-4.58-.01-1.65-.16-3.08.81-4.22.52-.56,1.35-.66,2.03-.39.88.28,1.62.81,2.21,1.49,2.85,3.33,2.4,9.55,2.12,12.62-.02.33.05.57.38.97.38.49,1.14.93,2.18,1.41.08-3.78,2.73-2.26,5.92,2.43,2.71,1.11,5.84,2.46,9.13,4.36,2.42,1.42,4.28,2.36,5.53,2.89.46.19.88.3,1.15.37-.43-.87-1.71-2.62-3.63-4.78-5.39-6.06-8.51-13.33-9.26-15.15-1.73-.46-3.17-1.47-4.35-2.83-4.96-5.68-6.75-17.18-9.96-20.6-.14-.18-.28-.34-.46-.46-1.46-1.21-2.39-1.26-3.4-1.25-.95,0-2.28.18-3.33-1.03-1.02-1.18-1.71-3.23-2.49-7.39-.43-2.51-.7-4.41-.75-5.81-.04-1.41-.06-2.31.64-3.15.53-.56,1.33-.45,1.76-.21.48.26.88.68,1.4,1.22,1.26,1.43,2.89,3.96,4.86,7.24.91,1.54,1.72,2.64,2.36,3.37.6.7,1.1,1,1.35,1.09.26.05.23.04.38-.05.71-.52,1.3-4.44,1.3-8.95.08-3.53,1.68-6.57,3.51-8.41,1.57-1.62,3.67-2.69,5.19-1.17,1.13,1.42,1.04,3.76-.2,7.72-4.03,12.6-1.73,16.53-.93,21.64.35,2.17,1.32,5.04,2.37,6.19.79.67.85.79,1.63.13.54-.55,1.3-1.84,2.02-4.06,1.36-4.14,2.5-6.58,3.81-7.97.88-.92,2.04-1.28,3.04-.94,1,.32,1.83,1.06,2.7,2.05.29.33.58.65.87,1.05,1.08,1.33,1.06,3.05.45,4.53-1.73,4.34-7.48,9.39-7.33,12.6-.16,4.56,6.44,10.92,9.63,18.55.35.9.7,1.49.91,1.76.31-.64.81-2.69,1.06-5.15.4-2.98.74-6.77,1.19-10.51.35-2.84,1.05-4.69,2.14-5.82,1.66-1.71,3.85-.95,5.19.56,1.34,1.51,2.24,3.89,2.06,6.45-.26,3.32-2,8.7-3.63,13.62-.82,2.47-1.6,4.79-2.16,6.62-.57,1.76-.87,3.26-.8,3.32v.02c.64,1.48,6.12,8.81,11.33,15.47,5.23,6.73,10.23,12.99,10.26,13.02l.77.97-1.16.48s-1.69.68-3.56,1.25c-.92.26-1.91.5-2.77.57-.85.05-1.65.12-2.37-.57-.5-.57-3.25-4.55-6.42-9.19.5,4.14-.95,8.25-1.79,12.13-1.43,6.53-1.12,4,8.79,9.83,9.89,5.86,8.58,2.37,9.52-5.22.95-7.56,5.08-2.81,5.53,4.81.43,7.6,4.92,7.15,4.92,7.15,18.04,12.95-5.86,6.21-13.8,2.69-7.98-3.52-17.21-4.71-20.12-11.05Zm-37.12-53.34c.88,1.8,1.82,3.58,2.85,5.27,6.59,10.68,7.82,9.58,5.65-.25-2.93-2.12-5.71-4.01-8.5-5.03Zm31.48,40.33c6.61-1.13,3.19-5.85-.9-13.28-3.51-6.44.45-8.71,6.21-4.77-1.78-2.62-3.13-4.61-3.57-5.27l-6-2.06c-3.5-.77-6.61-2.12-9.47-3.74.01,1.04-.06,2.02-.18,3.01.23-.23.49-.41.76-.54,1.06-.66,2.3-.76,3.04.05,1.26,1.75.67,4.59.19,7.9-.55,3.22-1.31,6.77-1.32,8.73-.02,1.08.37,2.32.99,3.58,2.87,3.67,6.38,7.04,10.26,6.38Z"/>
  <path class="cls-13" d="m1164.24,255.77c-25.73,3.25-51.61,8.52-77.04,12.2-53.5,7.73-107.6,8.14-161.53,8.54-101.97.76-204.02,1.51-305.83-5.03-72.94-4.68-145.63-13.07-218.32-21.12-127.88-14.16-256.64-27.88-385.21-18.3-6.3.47-12.92.79-19.69,1.11v902.66h1167.61V255.77Z"/>
  <g class="cls-25">
    <path class="cls-17" d="m655.4,255.63c-1.71,1.7-2.49,3.72-2.95,5.7-1.01,4.34-.64,8.7,1.03,12.68,1.4,3.32,5.23,6.42,2.06,10.23-1.43,1.72-3.65,3.05-5.86,4.28-2.2,1.23-4.48,2.45-6.16,4.05-2.7,2.58-3.49,5.79-4.6,8.82-1.1,3.03-2.9,6.28-6.63,8-5.08,2.34-12.29,1.15-16.29,4.4-1.48,1.2-2.32,2.89-4.25,3.63-1.91.73-4.08.2-5.79-.51-5.44-2.26-9.12-6.13-12.19-10.1-3.05-3.95-5.68-8.14-9.66-11.54-1.11-.95-2.36-1.85-3.98-2.28-1.61-.44-3.67-.32-5.12.58-1.38.86-1.95,2.26-1.86,3.51.09,1.25.74,2.38,1.38,3.49,2.37,4.1,4.48,8.38,7.15,12.38.99,1.49,2.68,1.84,4.34,2.89,1.92,1.22,3.57,2.67,4.83,4.31,4.23,5.52,3.14,12.87,9.06,17.74,3.49,2.87,13.01,5.04,17.11,7.5,10.3,6.19,7.58,20.1,18.89,25.54,6.17,2.97,15.5,2.77,19.78,7.2,2.75,2.85,2.45,6.72,3.42,10.19,1.63,5.77,7.42,10.59,14.87,12.95,3.49,1.11,8.14,2.14,12.02,1.26,5.46-1.24,10.55-3.31,15.59-5.33,3.51-1.41,7.19-2.93,9.37-5.35,3.62-4.01,2.07-8.86,2.82-13.22.81-4.69,6.85-7.21,12.71-8.87,5.12-1.46,10.72-2.72,14.37-5.72,2.98-2.45,4.12-5.64,5.78-8.6,1.66-2.96,4.36-6.07,8.69-7.12,2.01-.49,4.23-.48,6.11-1.22,2.76-1.08,3.99-3.56,3.43-5.61s-2.57-3.68-4.86-4.95c-2.28-1.26-4.88-2.23-7.17-3.48-4.99-2.71-8.41-6.66-13.85-8.88-6.11-2.49-13.71-1.82-19.35-4.77-4.72-2.47-7.37-6.63-8.68-10.66-1.56-4.83-2.37-9.84-4.7-14.43s-6.42-8.85-12.75-10.65c-3.76-1.07-8.07-1.21-11.72-2.38-4.93-1.58-8.2-4.92-9.94-8.58-1.74-3.66-2.12-7.67-2.47-11.63-.16-1.81-.33-3.67-1.31-5.27-.97-1.6-2.91-2.93-5.43-3.06-2.7-.13-5.52,1.17-7.23,2.87Zm-46.39,68.69c.19.93.2,4.26.01,5.31s-1.16,2.23-2.59,2.32c-1.15.07-2.03-.59-2.62-1.27-2.96-3.39-2.68-8.13-6.01-11.3-1.71-1.63-4.21-2.67-6.3-4.02-3.27-2.1-4.77-5.3-7.45-7.79-4.18-3.87-6.85-8.96-5.18-9.45,2.52,0,4.3,1.59,5.23,3.25.93,1.66,1.34,3.54,2.68,5.02,1.08,1.2,2.7,2.05,4.11,3.04,5.45,3.82,7.89,9.66,13.61,13.34,1.25.81,2.75,1.53,4.51,1.54Zm53.59-66.24c.79,3.15.28,6.5.21,9.78-.07,3.28.38,6.67,2.84,9.22,1.95,2.03,5.19,3.62,5.35,6.21l-8.13,1.34c-.12-3.12-1.37-6.05-2.65-8.93-1.28-2.87-2.6-5.76-2.88-8.85-.29-3.08.57-6.44,3.26-9.16.22-.22.49-.46.85-.52.68-.11,1.04.45,1.15.91Z"/>
    <g class="cls-22">
      <path class="cls-20" d="m625.1,336.42c1.05-6.25,2.5-13.79,10.68-17.89,4.02-2.02,8.95-2.31,13.17-4.05,3.28-1.35,5.94-3.37,8.08-5.61,2.59-2.72,4.47-5.71,6.26-8.7.24-.4-.58-.6-.82-.2-3.32,5.51-7.32,11.84-15.41,14.52-4.13,1.37-8.63,1.82-12.36,3.86-3.2,1.75-5.55,4.26-7.08,6.86-2.11,3.59-2.75,7.42-3.38,11.16-.07.41.8.46.87.05h0Z"/>
    </g>
    <g class="cls-22">
      <path class="cls-20" d="m670.25,362.44c12.65-14.1,18.81-30.8,17.47-46.78-.37-4.46-1.35-8.83-2.89-13.06-.14-.39-1-.09-.86.3,5.43,14.96,3.4,31.68-5.39,46.82-2.49,4.28-5.51,8.42-9.03,12.35-.33.36.38.74.7.37h0Z"/>
    </g>
    <g class="cls-22">
      <path class="cls-20" d="m697.47,346.53c2.15-4.2,5.34-8.16,9.43-11.69.4-.34-.32-.71-.72-.37-4.14,3.57-7.38,7.59-9.55,11.84-.21.41.64.63.84.22h0Z"/>
    </g>
    <g class="cls-22">
      <path class="cls-20" d="m733.26,348.12c-10.57,10.34-25.51,18.24-42.05,22.31-.57.14-.24.74.33.6,16.69-4.1,31.8-12.09,42.46-22.52.37-.36-.37-.74-.74-.38h0Z"/>
    </g>
  </g>
  <g>
    <path class="cls-19" d="m50.57,1110.27c-.98-3.48-3.83-2.71.49-3.76,3.85-.93,6.62-5.85,8.69-9.71,1.09-.27,3.8-1.2,3.98-4.11.22-3.66,2.82-5.37,1.08-9-1.73-3.62-2.64-3.91-2.59,1.27.01.82.01,1.47.01,2.01-.34-.35-.72-.4-1.11-.21-1.03-2.49-4.93.28-2.29,2.82l.02.02c-1.22,2.16-2.53,5.14-3.85,7.78-.27.54-.51,1-.73,1.36,0-.05,0-.09,0-.13.02-1.74-.48-3.38-.77-4.19.04-.1.06-.19.1-.29.9-.79,1.12-2.05,1.14-3.36.03-1.46-.17-3.1-.13-4.65.01-.49.04-.97.11-1.44.21-1.53.53-2.32.76-2.67.12-.17.21-.25.25-.28h.03s.2.05.2.05l.2-.2c3.38-3.35,3.72-3.91,4.07-9.05.04-.38.05-.74.05-1.04,0-.6-.02-1.04-.11-1.4-.07-.32-.3-.71-.76-.71-.32.03-.52.19-.71.37-.06-2.68-1.91-3.16-3.31.79-.67,1.88-1.02,4.46-1.34,6.44-.33-.66-.8-1.49-1.49-2.36-.52-.66-.97-1.07-1.42-1.24-.04-.41-.07-.81-.08-1.19.84-.65,1.47-1.04,1.99-1.5.92-.82,1.24-1.87,1.27-4.16.02-.97-.02-1.68-.12-2.18-.09-.47-.31-1-.89-1.01-.7.08-1.05.62-1.68,1.38-.19.25-.39.56-.61.87-.1-1.07-.34-1.83-.94-2.15.85-3.95,2.06-8.87,2.1-10.89.02-3-1.9-4.88-3.44-4.91-.33,0-.69.13-.95.41-.24.28-.36.66-.37,1.07-.02,1.58.54,5.87.51,7.82-1.18-2.13-2.48-4.22-4.37-4.27-.42.01-.85.15-1.26.4-.54.32-.89.82-.89,1.36.01.87.59,1.57,1.3,2.51.72.94,1.63,2.1,2.44,3.55.94,1.69,1.23,2.74,1.25,3.84-1.44,1.24-1.33,3.32-.72,5.86,0,.08-.02.15-.03.23-.06.59-.16.98-.25,1.17-.03.07-.06.1-.07.12-.07-.02-.27-.12-.49-.39-.43-.44-.95-1.16-1.45-1.76-.54-.61-.96-1.2-1.71-1.24-.39,0-.74.28-.92.64-.25.45-.36.93-.36,1.41,0,2.34,2.23,4.46,3.35,5.49.12.12.17.23.17.51.01.33-.13.79-.38,1.37-1.28-1.37-1.8.23-1.49,3.2-.68,1.46-1.45,3.18-2.1,5.16-.47,1.46-.88,2.53-1.19,3.22-.12.25-.24.45-.32.58-.12-.49-.2-1.63-.17-3.18.08-4.34-1.11-8.24-1.42-9.21.52-.84.74-1.78.75-2.74.04-4.03-3.06-8.97-2.95-11.49,0-.12,0-.23.03-.35.17-1.01.51-1.39.91-1.78.37-.37.94-.82.95-1.68,0-.83-.4-1.86-1.48-3.7-.66-1.09-1.19-1.9-1.63-2.44-.45-.54-.74-.88-1.29-.91-.39,0-.66.35-.75.61-.1.28-.12.6-.14.99-.01,1.02.19,2.59.51,4.57.16.92.21,1.64.2,2.17,0,.49-.1.8-.16.93-.09.12-.07.1-.16.13-.44.08-1.97-1.14-3.46-2.8-1.2-1.27-2.82-1.78-4.14-1.75-1.14.01-2.31.43-2.39,1.59.03.96.84,1.8,2.63,2.77,5.73,3.09,6.13,5.44,7.51,7.64.58.94,1.16,2.38,1.13,3.21-.08.55-.07.62-.59.68-.39,0-1.11-.18-2.12-.71-1.9-1-3.14-1.46-4.11-1.47-.65,0-1.21.32-1.49.84-.28.51-.36,1.1-.37,1.81,0,.23,0,.47,0,.73.02.91.6,1.54,1.32,1.85,2.11.93,6,.56,7,1.81,1.57,1.62,1.12,6.54,2.4,10.61.16.47.22.82.23,1-.33-.12-1.2-.68-2.11-1.49-1.14-.95-2.52-2.22-3.93-3.42-1.07-.91-1.96-1.33-2.75-1.32-1.21.01-1.8,1.15-1.82,2.23-.02,1.08.42,2.31,1.33,3.18,1.2,1.13,3.65,2.44,5.91,3.63,1.13.6,2.2,1.15,3.02,1.61.8.43,1.41.87,1.4.92h0c.25.81.54,5.65.73,10.13.2,4.52.33,8.78.33,8.8l.02.66.61-.27s.88-.4,1.79-.92c.44-.26.91-.56,1.26-.87.35-.31.68-.6.73-1.13,0-.41-.24-2.94-.55-5.89,1.17,1.73,3.09,2.68,4.7,3.79,2.71,1.86,1.76,1.04-.16,7.05-1.89,6.01-2.54,4.21-5.41,1.77-2.87-2.43-2.9.93-.55,3.93,2.34,2.98.46,4.56.46,4.56-2.7,11.8,4.32.02,6.23-4.37,1.93-4.41,5.11-8.43,4.14-11.91Zm-3.26-34.16c.25,1.01.48,2.03.64,3.06.98,6.51.14,6.58-2.27,2.11.43-1.92.88-3.7,1.63-5.16Zm1.14,27.15c-2.93,2.16-3.17-.92-4.04-5.26-.77-3.74-3.05-3.04-3.98.65-.18-1.66-.31-2.92-.36-3.34l1.64-3.1c1.1-1.65,1.86-3.35,2.43-5.07.34.39.69.72,1.07,1.04-.16,0-.32.04-.48.1-.63.17-1.14.61-1.16,1.2.09,1.14,1.26,1.96,2.54,3,1.28.98,2.74,1.99,3.39,2.72.37.39.62,1,.8,1.71.1,2.47-.14,5.08-1.86,6.35Z"/>
    <path class="cls-19" d="m71.91,1095.94c-4.62,2.01-4.22-.35-.05-6.4,4.17-6.04,2.17-5.75,1.34-10.25-.83-4.5-.01-2.13,3.11-5.47,3.14-3.34-.98-5.07-2.73-6.65-1.76-1.59-.99,3.08-2.06,7.02-1.07,3.94-4.22-.35-6.19-2.87-1.96-2.53-.76-3.07,1.2-8.7,1.96-5.64-2.93-3.88-2.93-3.88,0,0,.44.84-1.88,8.67-2.31,7.84.58,6.38,4.51,10.37,3.94,3.99,4.02,8.63,2.16,12.33-1.88,3.71-6.01,6.93-4.7,12.1,1.3,5.17-1.32,7.96-3.55,11.73-2.24,3.78-14.29,12.3-14.29,12.3,0,0-2.65,5.62,5.33.14,7.97-5.47,16.13-13.71,17.06-16.1.93-2.4-.14-3.94.47-8.01.6-4.08,3.53-.22,5.89-1.65,2.36-1.44,1.95-6.71-2.67-4.69Z"/>
    <path class="cls-19" d="m2.46,1090.51c-.28-.25-.58-.27-.94.08-1.99,2.02-.1,5.84.94,7.62v-7.7Z"/>
    <path class="cls-19" d="m2.53,1064.79c.17,1.25.61,2.93,1.41,5.15,1.09,3.01,2.17,4.89,3.05,6.32.34,1.36,1.32,3.34,1.9,5.98-.08.86-.28,1.9-.62,3.18-1.39,5.37-2,6.61-2.28,8.81-1.63,3.16-2.27-2.38-3.47-3.66v7.75s0,0,0,0c.21.35.18.74,0,1.2v4.31c.99-1.71,1.99-3.26,3.21-4.46-.14,5.45-.56,7.61-3.21,12.05v6.26c.71-1.26,1.6-2.74,2.74-4.44,3.02-4.59,3.7-7.13,3.73-8.74.02-1.05-.25-1.71-.23-1.92.03-.1-.03-.06.19-.24,1.66-1.21,2.75-3.39,2.77-3.41l.04-.08v-.08c.2-2.03,4.91-6.06,8.55-8.49,1.41-.97,2.08-1.81,2.1-2.74-.05-1.49-1.41-2.38-2.14-3.81-.18-.37-.54-.64-.95-.62-.75.05-1.3.64-1.98,1.44-1.16,1.38-2.58,3.64-4.1,5.81-.69.56-1.5,1.24-2.43,2.05-.38.32-.65.51-.85.6.28-.71.59-1.5.92-2.32.46-1.18.96-2.44,1.38-3.63,2.16-3.98,4.96-8.81,5.61-10.85,1.34-4.22-2.16-7.38-2.94-4.94-.49,1.56-1.24,6.16-1.89,8.38-.54-2.66-1.76-4.55-1.69-5.76.03-1.96,1.26-5.33,3.15-9.44.75-1.67,1.18-2.56,1.21-3.42-.03-1.37-1.01-1.89-2.82-3.78-.8-.77-1.27-1.24-1.93-1.28-.6.02-.88.57-.97,1.04-.35,1.5-.17,4.73-.61,9.88-.13,1.53-.26,2.57-.38,3.21-.01.04-.02.07-.03.1-.48-1.27-1.18-4.2-2.31-6.07-.92-1.47-1.87-2.46-2.91-2.49-.39-.02-.78.23-.98.59-.11.18-.18.39-.23.62v1.93Z"/>
    <path class="cls-19" d="m23.84,1102.01c-.09.01-.19.01-.28.02-1,.14-2.34,1.14-3.68,2.21,1.94-2.75,3.91-6.4,3.99-9.59.01-.48-.02-.93-.1-1.39-.18-.89-.34-1.54-.54-2.01-.2-.44-.41-.86-.96-.89-.75.1-.99.71-1.44,1.57-.4.89-.87,2.16-1.45,3.79-.8,2.29-1.66,4.66-2.37,6.47-.07.18-.15.36-.21.54-.05-1.14-.29-2.33-.68-3.3-.47-1.12-1.12-2.09-2.19-2.12-.07,0-.16,0-.24.03-.64.12-.96.7-1.12,1.3-.18.6-.25,1.37-.27,2.22-.04,2.55.38,5.94.35,7.61.06,1.03-2,3.19-4.48,5.36-1.96,1.75-4.12,3.61-5.63,5.39v7.24c1.86-4.13,4.57-7.32,7.9-9.18,3.71-2.05,4.36-3.5,5.58-6.25.97-2.38,6.02-2.89,8.82-4.82,1-.73,1.52-1.5,1.54-2.27,0-1.28-1.26-1.95-2.53-1.93Z"/>
    <path class="cls-19" d="m2.46,1119.3c-.36.43-.69.85-.96,1.27-.36.56-.68,1-.94,1.29.23-.75.83-2.13,1.9-4.05v-6.27c-.3.49-.61,1.01-.96,1.57-3.76,5.92-8.65,18.47-8.66,18.49l-.02.04v.06c-.1.55-.15,1.05-.16,1.46,0,.71.09,1.26.35,1.66.25.42.71.62,1.16.62h.04c1.32-.06,2.84-1.31,4.38-2.92,1.51-1.61,2.91-3.61,3.61-5.29.09-.21.19-.41.28-.61v-7.31Z"/>
    <path class="cls-19" d="m2.46,1103.97v-4.28c-.86,1.78-4.14,4.46-7.17,8.94-3.91,5.77-4.49,4.89-2.85-.3,1.65-5.2,1.4-10.41,1.4-10.41,4.19-3.38.8-12.89,2.41-16.33,1.6-3.43,4.26-.35,2.63-7.21-1.63-6.85-2.51-4.62-3.36,1.87-.84,6.49-2.77,3.78-4.86-.54-2.09-4.34-9.2-4.29-4.1.92,5.1,5.23,4.86,8.18,5.57,10.86.71,2.68.69,7.65-3.51,3.41-4.19-4.24-5.19-3.3-6.01-.17-.81,3.13,6.3,3.61,7.54,6.28,1.23,2.67-.88,7.72-.81,12.36.09,4.63-2.68-.79-5.79-5.78-3.1-4.98-5.49-.18-3.82,2.78,1.65,2.97,8.6,8.91,8.94,10.06.32,1.17-4.91,20.92-4.91,20.92,0,0,4.17-.56,4.48-1.53.3-.98,3.39-17.81,3.39-17.81l2.83-2.89c3.91-3.23,5.94-7.54,8.01-11.15Z"/>
    <path class="cls-19" d="m166.75,1111.87c.98,4.14,2.38,9.43,6.36,11.04,4.48,1.8,1.55.54-.74,3.76-2.3,3.21-.13,7.7.5,12.34.12.91.37,2.14.69,3.43h4.63c.28-.68.91-1.5,2.24-2.41,3.65-2.49,4.78-5.77.74-3.91-4.05,1.85-5.39,3.48-5.45-2.72-.05-6.2-1.4-5.58,2.25-6.89,2.2-.8,4.68-1.37,6.59-2.84-1.36,2.81-2.52,5.25-2.66,5.63-.13.53.15.87.43,1.24.3.36.71.73,1.13,1.06.82.68,1.68,1.23,1.68,1.23l.58.38.25-.64s1.62-4.14,3.4-8.52c1.78-4.34,3.78-9.01,4.32-9.72l.02-.02s.84-.36,1.89-.63c1.08-.3,2.47-.65,3.94-1.03,2.93-.75,6.14-1.58,7.86-2.46,1.34-.68,2.23-1.8,2.6-2.87.34-1.05.08-2.26-1.28-2.49-.88-.16-2.01.1-3.52.78-2,.93-3.99,1.92-5.58,2.63-1.31.62-2.47,1.01-2.88,1.07.07-.17.26-.51.61-.94,2.83-3.73,4.02-8.6,6.34-9.91,1.54-1.02,5.77.04,8.45-.49.9-.18,1.8-.68,2.12-1.57.1-.24.19-.48.26-.7.23-.69.35-1.29.22-1.83-.14-.56-.67-.96-1.39-1.09-1.07-.16-2.63.06-5.1.7-1.32.33-2.19.4-2.62.3-.56-.15-.52-.22-.43-.77.27-.81,1.41-2.12,2.38-2.91,2.31-1.89,3.57-4.11,11.04-6.1,2.33-.63,3.54-1.29,3.91-2.23.29-1.13-.87-1.75-2.14-1.98-1.47-.26-3.46-.06-5.22.97-2.27,1.34-4.38,2.26-4.84,2.1-.11-.05-.1-.01-.15-.16-.03-.13-.02-.46.14-.94.18-.5.49-1.21.98-2.07,1.05-1.87,1.81-3.36,2.14-4.36.12-.38.19-.7.18-.98.01-.27-.18-.66-.62-.72-.62-.07-1.07.22-1.75.65-.69.45-1.55,1.13-2.66,2.1-1.86,1.6-2.67,2.52-2.95,3.34-.28.84.2,1.38.5,1.8.3.45.55.89.4,1.91-.02.1-.05.23-.09.34-.75,2.47-5.94,6.73-7.28,10.65-.31.95-.41,1.9-.11,2.81-.68.88-3.36,4.47-4.78,8.71-.49,1.52-.97,2.62-1.29,3.07-.04-.14-.1-.36-.15-.63-.12-.71-.21-1.82-.23-3.34-.04-2.04-.3-3.86-.55-5.41,1.37-2.84,1.35-4.48-.58-3.38-.06-.62-.06-1.09.06-1.41.09-.27.19-.38.37-.46,1.61-.81,4.84-2.47,5.64-4.76.16-.47.2-.96.08-1.44-.07-.38-.36-.72-.8-.78-.86-.1-1.53.39-2.34.88-.77.52-1.59,1.12-2.22,1.48-.34.21-.61.28-.69.29-.02,0-.03-.05-.04-.14-.03-.19-.03-.59.11-1.18.02-.09.03-.16.06-.24,1.55-2.36,2.4-4.36,1.22-5.83.4-1.08,1.09-2.05,2.73-3.51,1.42-1.28,2.82-2.23,3.95-3.02,1.13-.81,2.02-1.38,2.34-2.22.18-.54-.04-1.07-.53-1.49-.36-.32-.79-.54-1.26-.61-2.14-.31-4.32,1.5-6.39,3.36.65-1.92,2.77-5.99,3.29-7.53.13-.41.13-.8-.05-1.11-.2-.31-.55-.51-.92-.57-1.73-.25-4.53,1.24-5.54,4.17-.64,1.97-1,6.99-1.4,10.99-.8.2-1.34.89-1.8,1.93-.14-.35-.26-.69-.39-.97-.45-.87-.65-1.44-1.4-1.66-.66-.08-1.08.38-1.35.82-.29.49-.57,1.16-.89,2.11-.76,2.23-.76,3.31-.01,4.28.42.54.99,1.05,1.72,1.81-.16.38-.33.76-.52,1.14-.56.1-1.2.42-2.02.96-1.06.73-1.89,1.45-2.48,2.02.32-1.97.81-4.55.73-6.51-.19-4.11-2.43-3.97-3.43-1.36-.14-.23-.32-.41-.67-.5-.51-.07-.91.27-1.09.56-.22.32-.41.76-.61,1.35-.1.3-.2.64-.3,1.03-1.4,5.07-1.2,5.68,1.42,9.55l.15.23.25-.02s0,0,.03,0c.04.05.1.12.18.33.13.38.22,1.21-.07,2.74-.09.46-.22.94-.38,1.42-.5,1.51-1.29,3.08-1.75,4.5-.43,1.28-.62,2.56.11,3.49,0,.1,0,.19,0,.31-.61.74-1.73,2.25-2.3,3.94-.02.05-.03.09-.04.13-.12-.39-.24-.87-.37-1.45-.56-2.82-.99-5.96-1.6-8.28h.03c3.83-2,.42-5.42-1.59-3.17-.37-.26-.82-.28-1.32,0,.19-.52.42-1.15.71-1.96,1.84-5.04.75-4.92-2.45-1.7-3.2,3.22-.89,5.36-1.91,8.97-.81,2.87,1.91,4.26,3.04,4.71Zm19.29-15.04c.52-.98,1.13-1.94,1.76-2.87.33,1.56.22,3.38.05,5.33-4.25,3.93-5.17,3.72-1.81-2.46Zm-8.79,16.86c.45-.65.95-1.21,1.49-1.52.98-.58,2.97-1.32,4.74-2.05,1.78-.78,3.38-1.36,3.87-2.45.19-.59-.23-1.1-.87-1.38-.15-.08-.33-.13-.5-.18.52-.24,1.04-.5,1.55-.83.04,1.77.3,3.58.96,5.38l.77,3.31c-.19.4-.78,1.61-1.55,3.18.24-3.76-2.07-4.86-4.23-1.34-2.48,4.07-3.79,7.02-6.34,4.4-1.48-1.54-.85-4.13.11-6.52Z"/>
    <path class="cls-19" d="m148.82,1112.93c2.15,1.83,6.77-1.42,6.02,2.67-.73,4.08-2.46,5.4-2.25,7.9.22,2.5,6.5,12,13.52,18.78.06.06.11.11.17.16h5.18c-2.31-2.35-10.08-10.44-11.09-13.92-1.21-4.08-3.16-7.26.08-12.07,3.25-4.8-.26-8.69-1.07-12.64-.83-3.95.88-8.45,6.66-11.63,5.77-3.18,8.5-1.24,8.62-9.29.13-8.06.9-8.78.9-8.78,0,0-4.86-2.61-4.61,3.23.24,5.84,1.41,6.58-1.67,8.69-3.08,2.1-8.09,5.71-7.92,1.68.16-4.03,2.64-8.42.13-7.21-2.51,1.22-7.71,2.17-5.37,5.99,2.36,3.81,4.08,1.65,1.6,5.89-2.48,4.23-4.6,3.57-2.04,10.23,2.59,6.65,2.21,9.02-2.26,6.23-4.47-2.8-6.76,2.25-4.61,4.08Z"/>
    <path class="cls-19" d="m58.66,1134.24s14.98,7.41,18.56,8.1c.18.03.34.07.48.09h1.4c.4-.4.39-1.73,4.41-4.63,6.29-4.55,5.85-.41,8.84-1.67,3-1.24,2.09-2.76,8.06-1.36,5.97,1.4,4.61-3.61,3.02-5.67-1.61-2.07-2.21,2.01-3.33.61-1.11-1.39-3.34-2.57,2.35-3.57,5.69-.99.66-2.65-1.51-2.92-2.17-.27-2.58-.05-.81-2.9,1.77-2.85,3.75-5.28,3.75-5.28,1.1-.29,2.06-1.04,2.87-1.94.03.13.06.26.11.39,0,0,.26,6.52,4.14,8.2,0,0,1.38,2.72,2.37,5.83,1,3.1.61,2.8-1.91,2.68-2.51-.11-8.7.59-2.68,2.58,6.02,2,3.12,2.75,1.39,3.91-1.74,1.15-1-2.94-3.5-1.2-2.51,1.71-5.76,6.35,1.4,6.07,4.17-.17,5.39.2,6.26.9h12.71c-.37-.14-.75-.32-1.17-.58-3.89-2.51-6.77-.93-7.4-5.39-.61-4.48-.02-3.52,4.02-5.88,4.05-2.36,4.62-3.41-.97-2.09-5.61,1.32-4.06,1.85-5.25-1.9-1.2-3.74-1.4-5.91-1.4-5.91,0,0-.4-.81,2.49-2.06,2.89-1.25,5.42.21,4.23-3.7-1.2-3.92-6.38-.12-8.68,1.91-2.31,2.04-.6-.78-2.18-5.34-.43-1.25-1.01-1.88-1.59-2.09.45-.96.7-1.65.7-1.65,1.92-2.81.05-6.72-2.65-2.55-2.71,4.17-2.11,7.19-3.44,4.84-1.34-2.34-4.6-6.84-6.78-3.23s.39,2.61,2.46,4.26c2.07,1.68,1.5,2.39,1.5,2.39,0,0-.82,2.06-2.97,5.52-2.13,3.45-.66,3.17-5,1.01-4.34-2.16-4.16-1.04-1.45,1.88,2.71,2.92,3.49,2.08,1.62,6.33-1.86,4.24-3.82,2.24-7.87,4.08-4.05,1.83-4.55-2.05-6.57-4.41-2.03-2.36-1.53-.63.75-5.1,2.28-4.47-.67-3.92,7.7-5.18,8.37-1.28,8.68-2.25,8.14-4.89-.55-2.65-5.91.04-9.6.73-3.69.7.57-3.91,2.64-7.74,2.07-3.82,2.77-3.26,2.77-3.26,5.5-2.64,13.56-4,17.66-5.99,4.11-2,2.34-4.63,2.34-4.63.76-4.57-9.21,2.79-12.41,4.16-3.2,1.37,9.93-9.5,11.54-14.53,1.26-3.97,1.23-5.23,2.15-7.11,1,1.35,2.12,2.59,2.71,4.3,1.19,3.42.42,3.99.47,9.18.04,5.19,10.99,18.15,7.88,16.24-3.12-1.91-11.72-10.89-12.44-6.3,0,0-2.89,2.26,1.01,4.94,3.9,2.69,12.43,5.47,17.68,9.03,0,0,.96-.42,1.97,3.68.99,4.1,4.14,9.36.26,8.02-3.88-1.34-8.95-4.94-10.48-2.45-1.52,2.48-1.51,3.48,7.41,6.24,8.93,2.74,5.82,1.67,6.83,6.45,1,4.78,2.16,3.16-.92,5.1-1.88,1.18-3.32,3.02-5.05,3.69h16.23c-.24-.7-.1-1.39.63-2.03,3.85-3.34,8.44-8.93,3.02-8.64-5.4.3-3.78,9.71-7.57-3.04,0,0-2.13-.81,1.89-4.01,4.04-3.2,4.81-3.43,2.65-6.59,0,0-.6-2.63-4.83,1.25-4.22,3.88-3.73-6.88-3.95-10.21,0,0,4.61-2.91,8.09-3.89,3.47-.96,3.65-1.65,4.98-4.78,1.33-3.13,3.6-8.7-.46-8.85-4.07-.14-3.05,5.96-3.23,7.49-.17,1.52-3.09,1.27-6.17,1.71-3.09.43-2.33-.47-2.38-6.34-.05-5.85,1.91-2.67,6.72-5.43,4.82-2.76,3.87-2.01,7.09-7.98,3.25-5.97,7.27-9.68,8.97-14.34,1.7-4.68-.68-11.83-3.37-8.93-2.68,2.91-3.67,1.32-2.66,6.58,1.02,5.29-1.65,10.04-3.22,7.66-1.57-2.38.92-4.94-2.22-9.03-3.13-4.08-5.98,1.86-4.81,3.1,1.18,1.24,5.48,6.58,3.77,10.9-1.7,4.33-1.49,6.16-6.7,7.78-5.21,1.62-4.84.41-6.6-2.45-1.77-2.87-7.62-8.9-6.49-13.51,1.12-4.63,3.64-4.84,7.46-8.86,3.83-4.01,3.28-2.79,4.37-8.93,1.11-6.13,3.97-11.73.68-10.61-3.29,1.12-5.59,1.65-5.37,5.15.22,3.5-4.14,14.25-4,7.89.14-6.39,3.16-15.2.25-15.28-2.89-.08-6.55,2.24-6.7,6.44-.17,4.2,1.61,8.41,2.99,11.14,1.37,2.73-.15,3.87-3.61,7.53-3.46,3.64-1.49,6.14.08,9.36,1.58,3.23,8.05,14.06,8.29,18.06.22,4,.92,16.84-1.83,13.06-2.73-3.79-9.11-3.58-10.21-17.21-1.09-13.65-3.17-8.61-4.19-15.56-.12-.79-.3-1.47-.53-2.06,1.31-1.2,2.57-2.5,3.35-4.68,1.5-4.17-3.48-5.98-6.43.59-.17.39-.34.73-.49,1.04-1.59-.03-2.99,1.26-2.88,3.36,0,.13.03.25.04.38-1.06,1.15-2.38,3.11-4.89,9.67-5.02,13.06-10.35,11.86-13.8,15.1-3.46,3.25.99-9.1,2.38-12.95,1.4-3.85,10.12-13.36,12.43-16.23,2.3-2.88,4.71-5.01,2.89-9.08-1.83-4.08-2.79-5.42-.81-7.86,1.98-2.44,4.76-6.24,5.88-10.35,1.13-4.1-1.27-6.92-3.75-7.31-2.49-.37-2.57,8.66-4.36,14.87-1.81,6.21-2.26-4.92-1.02-8.28,1.24-3.36-.56-4.24-3-5.84-2.43-1.6-1.71,4.28-2.6,10.41-.91,6.11-1.02,4.84,1.01,9.34,2.05,4.5,4.1,5.11,3.67,9.76-.43,4.67-7.2,9.59-9.55,12.1-2.35,2.5-2.4,3.73-6.32,1.34-3.92-2.39-3.19-4.13-3.34-8.6-.13-4.47,5.1-8.97,6.46-9.99,1.37-1.02.74-7.23-3.14-3.77-3.88,3.48-2.53,6.36-4.58,8.42-2.04,2.05-2.87-2.97-.43-7.94,2.45-4.95,1.13-3.56-.26-6.81-1.4-3.25-5.57,3.34-5.53,8.14.04,4.79,2.33,9.01,3.28,15.32.95,6.3.37,5.43,3.6,8.86,3.25,3.43,5.86.65,4.06,6.33-1.8,5.67-1.43,6.68-3.92,5.77-2.47-.91-5.01-1.12-4.69-2.62.29-1.5,2.99-7.27-.5-7.76-3.48-.49-3.22,5.25-3.03,8.51.18,3.24.13,3.94,2.77,5.42,2.66,1.49,5.69,5.04,5.69,5.04-1.19,3.19-4,13.72-6.4,9.29-2.42-4.43-3.71-1.97-3.71-1.97-2.77,2.72-2.19,3.08.25,6.81,2.46,3.74.41,4.2.41,4.2-7.02,11.77-2.83,2.9-7.32,1.76-4.48-1.13-2.28,5-.03,8.86,2.24,3.84-9.55,6.59-9.55,6.59Z"/>
    <path class="cls-19" d="m219.71,1122.47l-.02.08.02.08s.47,2.35,1.91,3.83c.19.21.15.17.14.27-.04.21-.57.79-.91,1.82-.53,1.57-.65,4.19,1.15,9.19.65,1.81,1.14,3.38,1.49,4.7h3.86c-.33-1.53-.69-2.95-1.1-4.15-2.06-6.18-1.94-8.18,0-14.16,2.99,4.35,2.34,11.65,7.2,17.38l.6.93h7.51c3.24-1.85,9.24-4.86,11.38-6.78,2.88-2.59,1.86-7.7-3.33-3.41-5.18,4.31-10.17,9.09-8.47,4.59,1.71-4.5,1.08-9.82,3.38-12.19,2.3-2.37,10.44-1.56,10.61-4.77.17-3.19-.62-4.29-6.77-.92-6.18,3.38-4.47-1.46-2.75-3.96,1.72-2.48,2.48-5.39,9.98-9.57,7.5-4.16-.45-5.48-4.27-1.63-3.83,3.84-6.92,6.11-5.62-.35,1.31-6.48,1.09-8.81-3.11-2.42-4.2,6.4-.16,3.87.46,7.5.61,3.64-6.47,12.3-2.96,16.34,0,0-2.09,5.04-2.03,10.39.04,5.36-.91,6.11-3.29-.22-2.38-6.33-6.28-9.85-4.55-11.34,1.72-1.49,5.37-4.99,3.81-7.37-1.5-2.27-5.36,6.94-6.26,2.76.44-2.2.2-3.52.49-9.01.07-1.31.21-2.36.42-3.21,1.57-2.48,3.36-4.23,4.19-5.49,1.48-1.24,3.35-2.87,5.6-5.61,2.25-2.73,3.43-4.62,3.85-5.9.17-.55.23-1,.12-1.38-.1-.4-.46-.7-.9-.77-1.17-.15-2.57.66-4.12,1.92-1.9,1.63-3.71,4.34-4.68,5.49,0-.02,0-.06,0-.1.08-.64.3-1.68.69-3.2,1.29-5.09,2.61-8.22,2.74-9.73.07-.48-.07-1.08-.73-1.2-.76-.08-1.44.28-2.61.91-2.66,1.5-3.96,1.82-4.46,3.17-.27.84-.09,1.79.17,3.55.69,4.34.91,7.86.25,9.78-.34,1.19-2.36,2.81-3.86,5.3.05-2.28.79-6.9.78-8.51-.02-2.52-5.03-.07-5,4.28.03,2.11,1.48,7.33,2.53,11.59.05,1.24.16,2.56.28,3.8.08.84.16,1.67.21,2.41-.19-.13-.44-.36-.73-.74-.77-.95-1.43-1.76-2.01-2.44-.95-2.39-1.76-4.84-2.57-6.41-.5-.89-.88-1.56-1.72-1.75-.44-.1-.95.11-1.29.44-1.3,1.26-3.13,1.88-3.69,3.32-.29.91.16,1.85,1.4,3.06,3.22,3.01,7.09,7.79,6.61,9.81Z"/>
    <path class="cls-19" d="m210.73,1133.63c.42,2.89.65,4.44,4.08,7.1.65.51,1.24,1.09,1.79,1.7h5.42c-1.02-1.54-2.3-3.14-3.47-4.66-2.03-2.56-3.58-5.04-3.17-6.04.55-1.63,2.2-4.86,3.02-7.34.28-.83.46-1.59.48-2.23.01-.6-.14-1.23-.81-1.46-.08-.03-.17-.06-.26-.07-1.22-.17-2.28.65-3.18,1.65-.77.89-1.46,2.01-1.91,3.11-.02-.18-.04-.37-.05-.56-.17-1.88-.32-4.35-.42-6.73-.07-1.7-.15-3.01-.31-3.96-.2-.91-.26-1.54-1.06-1.79-.63-.07-1.02.3-1.39.7-.38.43-.8,1.04-1.29,1.86-.26.42-.46.87-.6,1.33-1.01,3.13-.07,7.04,1.15,10.07-1.13-1.28-2.29-2.51-3.35-2.81-.11-.04-.21-.06-.32-.08-1.4-.24-3.03.17-3.49,1.41-.24.77.06,1.6.94,2.49,2.46,2.38,7.93,3.8,8.19,6.28Z"/>
  </g>
  <g>
    <path class="cls-8" d="m139.45,243.64l6.49,3.76c.22.13.54.12.71-.02l9.98-7.89c.17-.14.13-.35-.09-.48l-6.49-3.76c-.22-.13-.54-.12-.71.02l-9.98,7.89c-.17.14-.13.35.09.48Z"/>
    <path class="cls-6" d="m197.86,243.53c3.76,1.79,9.39,9.11,9.39,9.11,2.94-2.18,18.84-5.67,21.65,4.37.74,2.64-21.76,29.31-29.01,28.8-7.24-.5-26.42-4.71-29.62-6.64-3.2-1.92-6.6-6.48-6.6-6.48,0,0-5.94,2.17-8.22.32-2.28-1.84-1.88-8.52-1.88-8.52,0,0-6.61,1.14-8.4.38-1.8-.76-2.11-3.23-2.11-3.23l2.88-14.15s11.16-9.41,11.43-9.33,3.76-2.85,7.07-1.1c3.3,1.75,3.34,7.12,3.34,7.12,0,0,8.29-6.18,12.67-5.44,4.38.74,4.33,5.99,4.33,5.99,0,0,7.38-3.89,13.06-1.19Z"/>
    <path class="cls-4" d="m197.86,243.53c3.76,1.79,9.39,9.11,9.39,9.11,2.94-2.18,18.84-5.67,21.65,4.37.74,2.64-21.76,29.31-29.01,28.8-7.24-.5-26.42-4.71-29.62-6.64-3.2-1.92-6.6-6.48-6.6-6.48,0,0-5.94,2.17-8.22.32-2.28-1.84-1.88-8.52-1.88-8.52,0,0-6.61,1.14-8.4.38-1.8-.76-2.11-3.23-2.11-3.23l2.88-14.15s11.16-9.41,11.43-9.33,3.76-2.85,7.07-1.1c3.3,1.75,3.34,7.12,3.34,7.12,0,0,8.29-6.18,12.67-5.44,4.38.74,4.33,5.99,4.33,5.99,0,0,7.38-3.89,13.06-1.19Z"/>
    <path class="cls-1" d="m171.8,241.57c-.19.47,3.68,9.6-.23,12.96s-18.61,5.73-18.27,5.65,14.35-3.09,14.98-6.12c.63-3.03-.48-9.89-.48-9.89l4-2.6Z"/>
    <path class="cls-1" d="m211.43,251c.87.53,6.35,2.08,5.83,8.49-.13,1.6-9.18,12.67-14.29,13.73-1.06.22,9.93-10.9,8.18-13.58s-3.89-7-3.89-7c1.08-.66,2.51-1.19,4.17-1.63Z"/>
    <path class="cls-5" d="m185.57,248.83c.28,2.39,1.52,4.76,1.62,7.16.09,2.12-1,3.99-2.97,5.51-4.66,3.6-12.32,4.62-17.1,8.12-.3.22-.91-.1-.6-.32,4.55-3.33,11.66-4.4,16.38-7.59,2.35-1.59,3.72-3.58,3.55-5.94-.16-2.31-1.33-4.59-1.6-6.89-.04-.32.69-.35.73-.03h0Z"/>
    <path class="cls-5" d="m165.03,273.45c4.05-1.31,8.09-2.62,12.14-3.93.41-.13.71.33.3.47-4.05,1.31-8.09,2.62-12.14,3.93-.41.13-.71-.33-.3-.47h0Z"/>
    <path class="cls-5" d="m153.84,264.35c3.97-1.14,7.94-2.29,11.91-3.43.42-.12.72.35.3.47-3.97,1.14-7.94,2.29-11.91,3.43-.42.12-.72-.35-.3-.47h0Z"/>
  </g>
  <g class="cls-24">
    <path class="cls-11" d="m1166.12,378.6c-8.7,1.32-17.59,2.53-26.88,3.19-46.99,3.32-93.94,6.91-140.82,11.21-23.91,2.19-48.07,4.58-70.69,11.64-22.14,6.91-42.22,18.11-64.32,25.1-25.36,8.03-49.41,7.42-75.8,7.44-27.99.02-54.97,1.7-82.11-5.98-26.65-7.54-51.28-24.02-60.26-47.03-3.15-8.08-4.3-16.64-6.95-24.85s-7.19-16.43-15.27-21.3c-8.08-4.87-20.35-5.22-27.03,1.04-8.84,8.29-4.02,22.63-11.6,31.82-4.71,5.71-13.39,8.11-21.47,7.79-8.08-.31-15.78-2.92-23.31-5.5-18.77-6.42-37.48-15.69-57.52-15.12-19.62.56-40.16.48-58.07,8.45-14.45,6.5-26.15,19.31-25.65,33.41.12,3.52,1.07,7.15,3.64,9.87,4.51,4.79,12.52,5.5,19.64,5.79,25.39,1.05,50.82,1.52,76.24,1.42,3.19-.01,6.44-.03,9.47.83,3.21.91,5.95,2.74,8.62,4.54l20.85,14.05c3.66,2.47,7.42,4.98,11.82,6.23,4.53,1.29,9.41,1.16,14.17,1.03,13-.38,26-.74,39-1.08,31.31-.82,65.67-.68,89.78,16.65-23.86,20.66-70.87,11.82-100.94,9.51-30.35-2.33-62.89-2.74-88.93,10.98-3.97,2.09-8.22,5.63-6.84,9.47,1.31,3.66,6.65,4.63,11.05,4.97,43.52,3.33,87.2,5.22,130.89,5.66,30.76.31,61.57-2.78,92.04-3.25,34.03-.53,67.67,8.88,98.85-8.45,16.26-9.04,27.53-23.45,42.66-33.87,37.16-25.59,89.65-23,136.97-19.72,8.39.58,16.71.83,24.98.78,38.91-.24,74.1-8.86,111.25-17.53,7.48-1.75,15.01-2.98,22.55-4.03v-35.17Z"/>
    <path class="cls-11" d="m66.05,321.72c-3.52-.29-7.05-.46-10.57-.45-14.05.04-10.7,11.59-3.15,18.53,19.72,18.15,50.13,16.67,76.55,12.19,7.04-1.19,14.14-2.52,21.27-2.08,12.76.79,24.4,7.13,36.5,11.3,21.35,7.35,44.98,7.73,66.63,1.42,9.26-2.7,17.94-9.07,26.93-11.07,12.48-2.77,22.36-.78,33.66-9.2,1.69-1.26,3.46-3.03,3.13-5.11-.38-2.38-3.19-3.43-5.57-3.78-14.55-2.16-28.81,4.19-43.18,7.33-21.99,4.81-45.59,1.91-65.76-8.08-12.98-6.43-25.26-15.88-39.72-16.6-12.81-.63-24.81,5.78-37.37,8.38-19.48,4.05-39.42-1.17-59.34-2.78Z"/>
    <path class="cls-11" d="m145.77,743.07c-.67-2.44-3.7-3.21-6.21-3.31-15.32-.58-29.36,7.7-43.88,12.64-22.22,7.56-47,7.26-69.06-.84-10.64-3.91-21.07-9.64-31.98-11.88v38.48c6.3,1.59,12.58,3.57,18.9,5,22.97,5.21,47.49,2.87,69.19-6.22,9.28-3.89,17.53-11.55,26.61-14.67,12.61-4.33,23.07-3.4,33.79-13.5,1.6-1.51,3.23-3.56,2.64-5.7Z"/>
    <path class="cls-11" d="m1166.12,983.95v-49.97c-38.08-2.29-76.89.63-113.06,8.94-30.04,6.9-58.95,17.41-90.64,18.72-17.7.73-35.34-1.47-52.83-3.45-65.62-7.41-141.15-9.87-190.12,20.21-18.75,11.52-27.07,30.65,7.83,30.72,8.75.02,17.5-.27,26.25-.74,26.1-1.41,52.12-4.52,78.21-6.09,10.48-.63,62.19-9.5,68.71,1.32,1.65,2.74.46,6.91-1.67,9.09s-4.89,3.02-7.44,4.31c-5.71,2.91-10.53,8.46-13.34,15.33,24.93,6.86,50.16-8.44,75.65-10.02,48.66-3.02,91.48-16.55,138.71-32.16,12.98-4.29,64.44-26.21,73.73-6.2Z"/>
    <path class="cls-11" d="m1166.12,1000.35c-1.26,3.61-3.21,6.91-5.56,9.51-5.15,5.69-11.87,8.58-18.5,10.83-8.7,2.95-17.59,5.02-26.56,6.18-3.68,5.34-.91,14.32,3.98,17.83s10.89,3.13,16.51,2.65c7.83-.67,15.66-1.33,23.48-2,2.2-.19,4.42-.39,6.66-.63v-44.36Z"/>
    <path class="cls-11" d="m387.59,760.97c-39.22-7.92-80.16,5.17-119.77-.56-22.16-3.21-45.13-12.18-66.14-4.45-10.56,3.89-19.17,11.6-28.84,17.33-4.13,2.45-8.37,4.44-12.69,6.02-42.21,15.43-92.42-7.96-134.77-13.97-10.2-1.45-20.46-2.19-30.74-2.45v35.1c20.55,5.91,40.09,15.31,61.96,16.17,22.35.88,45.07,2.52,67.53.84,20.44-1.53,41.63-1.11,61.73-2.69,20.22-1.59,37.85-13.46,57.66-17.54,10.27-2.11,20.84-2.27,31.32-2.42,23.07-.33,46.13-.66,69.2-.99,15.94-.23,28.97-2.18,42.01-11.04,9.63-6.55,19.46-15.72,1.55-19.34Z"/>
    <path class="cls-11" d="m260.73,509.4c-11.13-3.5-22.44-6.18-33.8-8.32-25.04-4.72-50.19-5.6-75.35-8.59-21.92-2.61-43.56,6.51-66.14,3.27-6.23-.9-12.55-2.28-18.74-.91-5.31,1.18-10.18,4.32-15.14,6.94-11.22,5.94-23.3,9.37-35.47,10.08-6.97.41-14.02-.06-20.87,1.63-.19.05-.39.11-.58.16v50.32c25.67,0,51.34-1.45,76.91-4.4,17.16-1.98,34.26-4.62,51.36-7.27,3.6-.56,7.31-1.16,10.44-3.43,3.62-2.63,6.12-7.46,6.54-12.6-19.6-3.45-39.54,3.38-59.32,2.03-10.14-.69-11.4-11.83-2.29-18.18,4.33-3.02,9.51-3.34,14.47-3.6,24.84,1.55,50.84-2.57,75.72-3.83,12.65-.64,25.18-2.21,37.69.24,12.78,2.5,25.56,4.93,38.35,7.35,9.27,1.75,23.1,7.32,31.91,1.1,10.93-7.72-11.76-10.79-15.68-12.02Z"/>
  </g>
  <g>
    <path class="cls-14" d="m325.09,258.59c19.11-.47,45.42,6.8,45.42,6.8l4.61-1.35,2.07,7.28,2.07,7.28-4.61,1.35s-18.43,20.39-34.84,30.34c-16.42,9.94-55.16,16.57-56.58,16.59l-22.94,2.92c-4.61.59-8.96-2.32-10.25-6.85l-3.77-13.25-3.77-13.25c-1.29-4.53.86-9.35,5.07-11.35l20.94-9.94c1.21-.75,37.47-16.11,56.58-16.59Zm-8.61,4.69c-1.64.83.83,10.23,2.59,11.61,1.76,1.39,29.67-5.42,29.67-5.42,2.58-.52,3.47-3.36,2.37-4.25-1.1-.89-32.99-2.77-34.63-1.95Z"/>
    <path class="cls-8" d="m372.31,263.09l5.29,17.61c.18.61.81.95,1.41.76l6-1.86c.6-.18.93-.83.75-1.43l-5.29-17.61c-.18-.61-.81-.95-1.41-.76l-6,1.86c-.6.18-.93.83-.75,1.43Z"/>
    <path class="cls-4" d="m357.59,296.73s-32.89,10.54-48.14,4.4c-15.25-6.14-23.37-32.95-23.37-32.95l-14.66,5.69s3.93,16.21,24,25.34c20.06,9.12,47.05,9.39,47.05,9.39l15.13-11.87"/>
  </g>
  <path class="cls-7" d="m25.04,446.41c-2.11.13-4.46.45-5.83,2.4-.92,1.32-1.19,3.11-1.43,4.81-.11.81-.22,1.69.13,2.39.24.49.65.81,1.05,1.11,2.03,1.52,4.12,3.06,6.46,3.55,1.74.36,3.54.12,5.26.59,1.05.29,2.04.84,3.09,1.17,2.85.92,5.92.18,8.6-1.33s5.02-3.74,7.33-5.95c.28-.27.58-.57.65-.99.05-.32-.04-.65-.15-.95-1.71-4.43-7.84-4.7-11.19-6.02-4.44-1.74-9.32-1.08-13.95-.79Z"/>
  <g>
    <path class="cls-19" d="m1101.32,331.15c2.39,3.65,11.16,13.44,7.78,3.63,0,0-2.35-1.31.57-3.79,2.93-2.49,2.89-5.28-.69-3.26-3.58,2.03-4.39,3.52-6.76-1.47-2.39-4.99-3.58-4.32-.2-5.86,2.01-.92,4.41-1.71,5.87-3.15-.38,2.45-.69,4.56-.69,4.9.06.44.48.68.91.94.44.26,1.02.51,1.57.72,1.14.43,2.24.77,2.24.77l.76.23.03-.55s.16-3.56.41-7.32c.24-3.73.61-7.75.91-8.41h0c-.01-.05.75-.41,1.75-.77,1.03-.38,2.36-.84,3.78-1.33,2.82-.99,5.88-2.07,7.38-3.01,1.15-.73,1.69-1.75,1.67-2.65-.02-.9-.77-1.84-2.27-1.85-.99,0-2.09.34-3.43,1.1-1.76,1-3.48,2.06-4.91,2.85-1.14.67-2.22,1.14-2.64,1.24,0-.15.08-.44.29-.83,1.6-3.38,1.04-7.46,3-8.81,1.25-1.03,6.11-.73,8.74-1.5.9-.26,1.63-.78,1.65-1.54.02-.22.02-.41.01-.6-.01-.59-.11-1.08-.46-1.5-.35-.43-1.05-.69-1.86-.69-1.21,0-2.77.39-5.13,1.22-1.26.45-2.16.6-2.65.59-.65-.05-.63-.11-.74-.57-.03-.69.69-1.89,1.41-2.67,1.72-1.83,2.23-3.78,9.38-6.35,2.23-.81,3.24-1.51,3.28-2.31-.11-.96-1.57-1.31-2.99-1.32-1.65-.02-3.68.39-5.17,1.45-1.86,1.38-3.77,2.4-4.32,2.33-.11-.02-.1,0-.2-.11-.09-.11-.2-.37-.2-.77-.01-.43.05-1.03.25-1.8.4-1.64.65-2.95.63-3.8-.03-.33-.05-.59-.17-.83-.11-.21-.45-.5-.94-.5-.69.03-1.05.31-1.61.76-.55.45-1.21,1.12-2.04,2.03-1.34,1.53-1.85,2.38-1.85,3.08.01.71.73,1.09,1.19,1.39.49.32.92.64,1.13,1.48.03.1.04.19.03.29.14,2.09-3.74,6.2-3.69,9.55,0,.8.29,1.58.93,2.28-.39.81-1.88,4.05-1.78,7.65.04,1.29-.06,2.23-.22,2.64-.1-.11-.26-.28-.4-.49-.39-.57-.9-1.46-1.48-2.67-.81-1.65-1.77-3.07-2.62-4.29.39-2.47-.27-3.8-1.86-2.66-.31-.48-.49-.86-.47-1.14,0-.23.07-.32.22-.42,1.4-.86,4.19-2.62,4.18-4.57,0-.4-.15-.8-.46-1.17-.22-.3-.66-.54-1.14-.53-.94.03-1.46.52-2.13,1.03-.62.5-1.26,1.1-1.8,1.47-.28.22-.53.31-.62.33-.01-.01-.05-.04-.09-.1-.11-.15-.24-.48-.31-.97,0-.07-.03-.13-.03-.19.76-2.1.9-3.83-.9-4.87.03-.91.39-1.79,1.56-3.19,1.01-1.21,2.14-2.17,3.05-2.95.89-.79,1.61-1.37,1.62-2.09,0-.45-.43-.86-1.11-1.13-.51-.21-1.04-.32-1.57-.33-2.37.04-3.99,1.77-5.46,3.55-.04-1.62.67-5.18.64-6.5-.01-.34-.16-.66-.46-.89-.32-.23-.77-.34-1.18-.34-1.93.02-4.32,1.59-4.29,4.08.06,1.67,1.56,5.77,2.63,9.05-.75.26-1.05.89-1.17,1.78-.28-.26-.53-.52-.77-.73-.79-.64-1.23-1.09-2.1-1.15-.73.01-1,.45-1.11.84-.12.42-.17,1.01-.14,1.81.03,1.9.43,2.77,1.58,3.45.65.38,1.43.71,2.48,1.24-.02.31-.05.65-.1.99-.57.14-1.12.48-1.77,1.03-.86.72-1.45,1.41-1.86,1.96-.4-1.64-.83-3.79-1.67-5.35-1.75-3.29-4.06-2.89-4.14-.66-.24-.15-.49-.28-.89-.31-.57,0-.85.33-.94.59-.11.3-.14.66-.13,1.16,0,.25.02.55.06.87.43,4.27.86,4.74,5.08,7.52l.25.17.25-.05h.03c.05.03.16.09.31.23.28.29.69.95.95,2.22.08.39.12.79.13,1.2.05,1.29-.2,2.66-.17,3.87.02,1.09.3,2.13,1.42,2.79.05.08.08.16.13.24-.37.68-.99,2.04-.96,3.49,0,.03,0,.07,0,.11-.28-.3-.58-.68-.91-1.13-1.65-2.2-3.29-4.68-4.81-6.47l.02-.02c3.31-2.11-1.57-4.41-2.85-2.34-.49-.16-.97-.12-1.39.18,0-.45,0-.98.02-1.67.06-4.3-1.07-4.07-3.24-1.06-2.17,3.02,1.07,4.44,1.35,7.48.22,2.42,3.61,3.19,4.97,3.42,2.59,3.21,6.05,7.3,10.85,8.07,5.4.87,1.84.23.61,3.12-1.21,2.89,2.76,6.24,5.17,9.9Zm.94-33.99c-3.01,3.72-4.06,3.66-2.84-1.75.2-.85.48-1.71.8-2.54.93,1.22,1.49,2.7,2.04,4.29Zm-5.79,13c.22-.59.54-1.09,1-1.42.81-.6,2.64-1.44,4.24-2.26,1.6-.86,3.06-1.54,3.17-2.49-.02-.49-.66-.86-1.45-1-.19-.05-.39-.08-.59-.08.47-.27.91-.54,1.33-.87.72,1.42,1.66,2.84,3.04,4.21l2.05,2.57c-.06.34-.23,1.39-.45,2.77-1.16-3.07-4.01-3.65-4.97-.54-1.09,3.61-1.38,6.16-5.04,4.37-2.15-1.05-2.46-3.22-2.33-5.28Z"/>
    <path class="cls-19" d="m1152.23,309.45c.44-1.22,7.57-6.39,12.01-10.53v-9.77c-1.03.31-2.21,1.17-3.45,2.8-5.2,6.8-9.83,14.19-9.68,7.87.12-6.32-3.41-13.21-1.35-16.85,2.07-3.64,13.98-4.29,12.62-8.56-1.38-4.26-3.05-5.55-10.06.23-7.03,5.78-7.05-.99-5.87-4.64,1.18-3.65.78-7.67,9.32-14.79,8.53-7.1-3.37-7.16-6.86-1.25-3.5,5.9-6.72,9.58-8.13.74-1.41-8.85-2.89-11.88-5.61-2.54-2.74,9.35,1.72,5.15,4.4,9.83,2.68,4.68-2.99,17.64,4.03,22.25,0,0-.42,7.09,2.34,14.18,2.74,7.06,1.76,8.27-4.78.41-6.54-7.87-13.82-11.68-12.12-14.02,1.7-2.34,5.09-7.73,1.69-10.56-3.28-2.68-4.11,10.33-7.49,4.98-.46-3.01-1.48-4.69-3.81-12.01-.57-1.75-.9-3.17-1.04-4.33.98-3.61,2.63-6.31,3.19-8.15,1.48-1.95,3.29-4.51,5.11-8.62,1.8-4.09,2.52-6.84,2.5-8.63-.03-.78-.18-1.38-.53-1.86-.33-.49-.99-.82-1.64-.8-1.75.05-3.33,1.4-4.87,3.4-1.89,2.55-3.06,6.54-3.87,8.27-.01-.04-.03-.09-.05-.14-.2-.87-.41-2.28-.63-4.37-.74-7.02-.43-11.42-1.02-13.46-.16-.64-.63-1.39-1.63-1.42-1.11.05-1.89.69-3.23,1.74-3.02,2.56-4.68,3.28-4.72,5.14.05,1.17.78,2.39,2.03,4.66,3.15,5.61,5.21,10.2,5.27,12.87.11,1.65-1.93,4.23-2.83,7.85-1.08-3.03-2.33-9.3-3.16-11.42-1.3-3.32-7.17.99-4.92,6.73,1.08,2.78,5.76,9.37,9.38,14.79.7,1.62,1.52,3.34,2.3,4.94.55,1.12,1.07,2.19,1.54,3.16-.34-.12-.79-.38-1.43-.82-1.56-1.1-2.91-2.03-4.06-2.79-2.54-2.96-4.91-6.04-6.85-7.92-1.14-1.09-2.05-1.9-3.31-1.96-.69-.03-1.29.35-1.59.85-1.22,1.94-3.5,3.16-3.58,5.19.04,1.26,1.16,2.41,3.52,3.73,6.08,3.31,13.95,8.8,14.29,11.56v.11s.07.1.07.1c.05.04,1.86,3.01,4.64,4.65.37.24.28.19.32.33.02.28-.43,1.17-.39,2.61.05,2.19,1.19,5.66,6.24,11.91,4.92,6,7.25,10.05,7.88,11.75-.45-.4-.97-1-1.58-1.76-2.34-2.98-7.02-6.2-11.14-9.21-4.15-2.95-7.59-5.9-7.49-7.3-.05-2.27.64-6.9.58-10.37-.02-1.15-.14-2.2-.45-3.02-.27-.82-.81-1.6-1.88-1.77-.13-.03-.28-.04-.4-.04-1.8.03-2.89,1.35-3.66,2.88-.66,1.33-1.05,2.94-1.14,4.5-.11-.24-.24-.48-.35-.73-1.18-2.46-2.63-5.69-3.96-8.81-.97-2.22-1.75-3.95-2.42-5.16-.75-1.16-1.15-1.99-2.41-2.14-.92.04-1.29.61-1.61,1.21-.32.63-.6,1.53-.9,2.73-.14.62-.2,1.24-.18,1.89.12,4.34,3.43,9.33,6.67,13.07-2.23-1.45-4.48-2.82-6.15-3-.16-.01-.33-.01-.48-.03-2.12-.02-4.23.89-4.23,2.63.03,1.05.89,2.09,2.57,3.09,4.68,2.62,13.13,3.32,14.75,6.56,2.04,3.74,3.13,5.72,9.34,8.51,5.92,2.7,10.69,7.4,13.8,13.56,1.17,2.29,3.51,5.01,6.04,7.21,2.58,2.19,5.13,3.89,7.33,3.98h.07c.74,0,1.51-.27,1.93-.84.43-.55.58-1.3.58-2.27-.01-.56-.1-1.23-.27-1.98v-.08s-.04-.06-.04-.06c-.02-.02-8.2-17.12-14.49-25.2-5.99-7.72-6.84-10.4-7.1-18.71,6.39,5.1,9.15,14.89,18.89,21.45l4.74,3.94s5.16,22.94,5.67,24.26c.51,1.32,7.49,2.08,7.49,2.08,0,0-8.75-26.91-8.22-28.5Z"/>
  </g>
  <rect class="cls-2" x="1009.56" y="692.62" width="29.01" height="29.01"/>
  <path class="cls-9" d="m105.49,342.77c-10.06-14.39-44.46-12.45-59.68-14.33-8.23-1.01-16.78-2-24.68.47-7.6,2.38-13.81,7.73-19.26,13.39-1.81,1.88-3.54,3.81-5.24,5.79v25.71c13.06,3.02,25.94,8,39.05,5.89,10.52-1.69,19.89-7.84,30.45-9.3,13.37-1.85,57.99-.97,39.35-27.63Z"/>
  <path class="cls-10" d="m1164.24,299.81c-5.87-1.27-11.22-2.36-15.19-3.51-8.26-2.39-16.85-4.81-25.35-3.47-8.18,1.29-15.42,5.95-21.94,11.05-10.14,7.94-19.2,17.25-26.88,27.59,19.24,2.81,35.87,17.49,55.31,17.32,11.05-.1,21.66-5.08,32.72-4.93.41,0,.86.02,1.32.04v-44.09Z"/>
  <path class="cls-7" d="m1013.04,324.67c-6.76.35-14.28,1.18-18.67,6.34-2.95,3.47-3.82,8.19-4.59,12.68-.36,2.13-.69,4.46.4,6.31.76,1.29,2.09,2.13,3.36,2.92,6.48,4,13.17,8.07,20.67,9.36,5.57.95,11.34.31,16.85,1.56,3.37.76,6.54,2.21,9.87,3.09,9.12,2.42,18.95.47,27.51-3.51,8.55-3.98,16.06-9.86,23.47-15.69.89-.7,1.85-1.5,2.07-2.61.17-.85-.12-1.72-.49-2.51-5.46-11.68-25.08-12.41-35.81-15.87-14.22-4.59-29.82-2.84-44.65-2.08Z"/>
  <g>
    <path class="cls-19" d="m180.92,400.52c1.8,3,8.4,11.04,5.86,2.99,0,0-1.77-1.08.43-3.11,2.2-2.04,2.18-4.34-.52-2.68-2.7,1.67-3.31,2.89-5.08-1.21-1.8-4.1-2.69-3.55-.15-4.82,1.51-.75,3.32-1.41,4.42-2.59-.29,2.01-.52,3.75-.52,4.02.05.36.36.56.68.77.33.21.77.42,1.19.59.86.35,1.68.63,1.68.63l.57.19.02-.45s.12-2.92.31-6.01c.18-3.06.46-6.37.69-6.91h0s.57-.34,1.32-.63c.77-.31,1.78-.69,2.84-1.1,2.12-.81,4.43-1.7,5.55-2.48.86-.6,1.27-1.44,1.25-2.17-.02-.74-.58-1.51-1.71-1.52-.75,0-1.58.28-2.58.9-1.32.82-2.62,1.69-3.7,2.34-.85.55-1.67.94-1.99,1.02,0-.12.06-.37.22-.68,1.21-2.78.78-6.13,2.26-7.24.94-.85,4.6-.6,6.58-1.23.68-.21,1.22-.64,1.24-1.26.02-.18.01-.34,0-.5,0-.48-.08-.89-.34-1.24-.26-.35-.79-.57-1.4-.57-.91,0-2.08.32-3.86,1-.95.37-1.63.49-1.99.49-.49-.04-.48-.09-.56-.47-.03-.57.52-1.55,1.06-2.19,1.3-1.5,1.68-3.1,7.06-5.21,1.68-.67,2.44-1.24,2.47-1.89-.08-.79-1.18-1.07-2.25-1.08-1.24-.02-2.77.32-3.89,1.19-1.4,1.14-2.84,1.97-3.25,1.91-.08-.02-.07,0-.15-.09-.06-.09-.15-.3-.15-.63,0-.36.04-.85.19-1.48.3-1.35.49-2.42.48-3.12-.02-.27-.03-.48-.13-.68-.08-.18-.34-.41-.7-.41-.52.03-.79.26-1.21.62-.42.37-.91.92-1.53,1.67-1.01,1.26-1.4,1.96-1.39,2.53,0,.58.55.89.89,1.15.37.27.69.53.85,1.22.03.08.03.16.02.24.1,1.72-2.82,5.09-2.78,7.84,0,.66.22,1.3.7,1.87-.29.66-1.42,3.32-1.34,6.29.03,1.06-.05,1.83-.16,2.17-.08-.09-.19-.23-.3-.4-.29-.47-.68-1.2-1.11-2.2-.61-1.35-1.33-2.52-1.97-3.52.29-2.03-.2-3.12-1.4-2.19-.23-.4-.37-.71-.36-.93,0-.19.05-.27.16-.35,1.05-.7,3.15-2.15,3.15-3.75,0-.33-.11-.66-.34-.96-.17-.25-.5-.44-.86-.44-.71.03-1.1.43-1.61.85-.47.41-.95.91-1.36,1.2-.21.18-.4.25-.46.27,0-.01-.04-.03-.07-.08-.08-.13-.18-.4-.23-.8,0-.06-.02-.11-.03-.16.57-1.73.68-3.15-.68-4,.02-.75.3-1.47,1.18-2.62.76-.99,1.61-1.79,2.29-2.43.67-.65,1.21-1.12,1.22-1.72,0-.37-.32-.71-.83-.93-.38-.17-.78-.27-1.18-.27-1.78.03-3,1.46-4.11,2.91-.03-1.33.5-4.26.48-5.34,0-.28-.12-.54-.35-.73-.24-.19-.58-.28-.89-.28-1.45.02-3.25,1.31-3.23,3.36.04,1.38,1.18,4.74,1.98,7.43-.56.22-.79.73-.88,1.47-.21-.21-.4-.42-.58-.6-.6-.52-.92-.89-1.58-.95-.55,0-.76.37-.84.69-.09.34-.12.83-.11,1.49.02,1.56.32,2.28,1.19,2.84.49.31,1.08.58,1.87,1.02-.01.26-.04.53-.08.81-.43.12-.84.4-1.34.85-.64.59-1.09,1.16-1.4,1.61-.3-1.35-.62-3.11-1.26-4.4-1.32-2.7-3.05-2.37-3.12-.54-.18-.13-.37-.23-.67-.25-.43,0-.64.27-.71.49-.09.24-.1.54-.1.96,0,.2.01.45.05.71.33,3.51.65,3.89,3.82,6.18l.19.14.19-.04h.02s.12.08.23.19c.21.24.52.78.72,1.82.06.32.09.65.1.98.04,1.06-.15,2.18-.12,3.18.02.89.23,1.75,1.07,2.29.04.07.06.14.1.2-.28.56-.75,1.68-.72,2.86,0,.03,0,.05,0,.09-.21-.25-.44-.56-.69-.93-1.25-1.81-2.48-3.84-3.62-5.31l.02-.02c2.49-1.73-1.18-3.63-2.15-1.93-.37-.13-.73-.1-1.05.14,0-.37,0-.81.01-1.37.04-3.54-.81-3.34-2.44-.87-1.63,2.48.8,3.65,1.01,6.14.17,1.99,2.72,2.62,3.74,2.81,1.95,2.64,4.55,6,8.17,6.63,4.06.72,1.38.19.46,2.57-.91,2.37,2.08,5.12,3.89,8.13Zm.71-27.93c-2.26,3.06-3.06,3.01-2.13-1.44.15-.7.36-1.4.6-2.09.7,1,1.12,2.21,1.53,3.53Zm-4.36,10.68c.17-.48.41-.9.75-1.17.61-.49,1.99-1.19,3.19-1.85,1.2-.71,2.3-1.27,2.38-2.05-.02-.4-.5-.7-1.09-.82-.14-.04-.29-.06-.45-.07.35-.22.68-.45,1-.71.54,1.17,1.25,2.33,2.29,3.46l1.55,2.11c-.04.28-.17,1.14-.34,2.28-.87-2.52-3.02-3-3.74-.44-.82,2.96-1.04,5.06-3.8,3.59-1.62-.86-1.85-2.65-1.75-4.34Z"/>
    <path class="cls-19" d="m100.4,384.27c4.34,1.38,3.97-.24.05-4.37-3.92-4.12-2.04-3.92-1.26-7,.78-3.07.01-1.45-2.93-3.73-2.95-2.28.92-3.46,2.56-4.54,1.65-1.08.93,2.1,1.94,4.79,1.01,2.69,3.96-.24,5.82-1.96,1.85-1.73.71-2.1-1.13-5.94-1.84-3.85,2.76-2.65,2.76-2.65,0,0-.41.57,1.77,5.92,2.17,5.35-.54,4.36-4.24,7.08-3.7,2.73-3.78,5.89-2.03,8.42,1.76,2.53,5.65,4.73,4.42,8.26-1.23,3.53,1.24,5.44,3.34,8.01,2.1,2.58,13.43,8.4,13.43,8.4,0,0,2.49,3.83-5.01.1-7.49-3.73-15.16-9.36-16.03-10.99-.87-1.64.13-2.69-.44-5.47-.56-2.79-3.32-.15-5.54-1.13-2.22-.98-1.83-4.58,2.51-3.2Z"/>
    <path class="cls-19" d="m55.01,386.34c.08,0,.18,0,.27.01.94.09,2.2.78,3.45,1.51-1.82-1.87-3.68-4.37-3.75-6.55-.01-.32.02-.63.1-.95.17-.61.32-1.05.5-1.37.18-.3.39-.59.91-.61.71.07.93.49,1.35,1.07.38.61.82,1.47,1.36,2.59.75,1.57,1.56,3.18,2.23,4.42.06.12.14.24.2.37.05-.78.27-1.59.64-2.25.44-.77,1.05-1.43,2.06-1.44.07,0,.15,0,.22.02.6.08.9.48,1.05.89.17.41.24.94.25,1.52.03,1.74-.35,4.06-.32,5.2-.06.7,1.88,2.18,4.21,3.66,2.32,1.51,4.95,3.12,6.26,4.61.34.38.64.68.89.88-.36-.85-1.67-2.88-4.43-5.89-2.83-3.13-3.48-4.87-3.5-5.97-.02-.72.23-1.17.22-1.31-.02-.07.03-.04-.18-.16-1.56-.82-2.58-2.31-2.61-2.33l-.03-.05v-.06c-.19-1.38-4.62-4.14-8.03-5.79-1.33-.66-1.95-1.24-1.98-1.87.04-1.02,1.33-1.63,2.01-2.6.17-.25.51-.44.89-.42.71.03,1.22.44,1.86.98,1.09.94,2.42,2.48,3.85,3.97.65.38,1.41.85,2.28,1.4.36.22.61.35.8.41-.26-.49-.55-1.02-.86-1.58-.44-.8-.9-1.67-1.29-2.48-2.03-2.72-4.66-6.02-5.27-7.41-1.26-2.88,2.03-5.04,2.76-3.37.46,1.06,1.17,4.21,1.78,5.72.51-1.82,1.65-3.11,1.59-3.94-.03-1.34-1.19-3.64-2.96-6.45-.7-1.14-1.11-1.75-1.14-2.34.02-.94.95-1.29,2.65-2.58.76-.53,1.19-.85,1.82-.87.56.01.83.39.91.71.33,1.02.16,3.23.57,6.75.12,1.05.24,1.75.35,2.19.01.03.02.05.03.07.45-.87,1.11-2.87,2.17-4.15.87-1,1.76-1.68,2.74-1.7.37-.01.74.15.92.4.19.24.28.54.3.93.01.9-.39,2.27-1.4,4.32-1.02,2.06-2.04,3.34-2.87,4.32-.32.93-1.24,2.28-1.79,4.09.08.58.26,1.3.58,2.17,1.31,3.67,1.88,4.51,2.14,6.02,1.9,2.68,2.37-3.84,4.21-2.49,1.91,1.42,0,4.12-.95,5.29-.95,1.18,3.13,3.08,6.81,7.03,3.67,3.94,4.22,3.34,2.68-.2-1.55-3.55-1.31-7.11-1.31-7.11-3.94-2.31-.75-8.8-2.26-11.15-1.5-2.35-4.01-.24-2.47-4.93,1.53-4.68,2.36-3.16,3.15,1.28.79,4.43,2.6,2.58,4.57-.37,1.96-2.96,8.65-2.93,3.86.63-4.8,3.57-4.57,5.58-5.24,7.41-.67,1.83-.65,5.22,3.3,2.33,3.94-2.89,4.88-2.25,5.65-.11.76,2.14-5.92,2.47-7.09,4.29-1.15,1.82.83,5.27.76,8.44-.08,3.16,2.52-.54,5.44-3.95,2.91-3.4,5.16-.13,3.59,1.9-1.55,2.02-8.08,6.08-8.4,6.87-.3.8,4.62,14.28,4.62,14.28,0,0-3.92-.38-4.21-1.04-.29-.67-3.18-12.16-3.18-12.16l-2.66-1.98c-5.47-3.29-7.03-8.19-10.61-10.75.14,4.16.62,5.51,3.99,9.38,3.54,4.04,8.13,12.61,8.14,12.63l.02.03v.04c.09.38.14.71.15.99,0,.48-.08.86-.33,1.14-.24.28-.67.42-1.09.42h-.04c-1.24-.04-2.67-.9-4.12-1.99-1.42-1.1-2.74-2.46-3.4-3.61-1.75-3.08-4.43-5.44-7.76-6.79-3.49-1.4-4.1-2.39-5.25-4.26-.91-1.63-5.66-1.97-8.29-3.29-.94-.5-1.43-1.02-1.44-1.55,0-.87,1.19-1.33,2.38-1.32Z"/>
    <path class="cls-19" d="m125.52,390.62c-1.16-1.32-14.16-8.4-18.22-11.82-4.06-3.43-3.85-8.71,3.4-2.92,7.23,5.79,14.34,12.05,11.34,6.83-3.01-5.23-3.33-10.81-6.63-13.88-3.31-3.07-13.14-4.01-14-7.5-.85-3.47-.11-4.48,8.13.52,8.28,5.02,5.19-.57,2.58-3.65-2.61-3.05-4.14-6.36-14.21-12.53-10.05-6.15-.57-5.81,4.92-.81,5.49,4.99,9.74,8.13,6.83.87-2.93-7.27-3.14-9.73,3.33-1.91,6.47,7.83.98,4.2.97,7.97,0,3.78,10.45,14.68,6.96,18.25,0,0,3.6,5.89,4.62,11.65,1.04,5.76,2.36,6.78,4,.5,1.63-6.29,5.7-9.21,3.27-11.2-2.42-1.99-7.61-6.57-6.17-8.78,1.38-2.1,8,8.67,8.25,4.36-.99-2.47-.97-3.83-2.43-9.81-.35-1.43-.74-2.59-1.17-3.55-2.43-3.02-4.98-5.3-6.27-6.84-2.07-1.67-4.7-3.83-8.02-7.29-3.31-3.44-5.15-5.74-5.93-7.22-.32-.63-.48-1.13-.43-1.51.04-.41.42-.65.94-.63,1.41.1,3.29,1.28,5.45,2.99,2.66,2.18,5.44,5.51,6.86,6.95,0-.02,0-.07-.03-.11-.23-.71-.71-1.87-1.49-3.6-2.62-5.77-4.88-9.43-5.34-11.08-.18-.53-.13-1.14.65-1.13.92.08,1.82.62,3.38,1.56,3.57,2.2,5.23,2.84,6.12,4.41.5.96.47,1.95.52,3.79.04,4.52.48,8.26,1.68,10.47.66,1.35,3.47,3.55,5.82,6.57-.52-2.47-2.37-7.6-2.69-9.33-.49-2.71,6.16,1.05,7.01,5.72.39,2.26-.33,7.56-.74,11.91.19,1.32.32,2.72.43,4.03.07.89.14,1.76.23,2.55.21-.1.46-.29.75-.63.75-.85,1.4-1.58,1.97-2.18.68-2.36,1.17-4.82,1.85-6.32.43-.85.77-1.49,1.75-1.51.52,0,1.19.33,1.67.76,1.86,1.65,4.23,2.73,5.21,4.4.55,1.05.18,1.95-1.1,2.98-3.34,2.52-7.12,6.8-6.12,9.08l.04.09v.08s-.1,2.43-1.57,3.7c-.19.19-.14.15-.11.26.1.23.86.98,1.49,2.17.98,1.81,1.65,4.65.46,9.64-1.16,4.8-1.19,8.07-.9,9.46.16-.31.31-.79.43-1.42.51-2.38,2.79-4.88,4.7-7.23,1.98-2.3,3.38-4.63,2.66-5.79-1.01-1.88-3.69-5.72-5.21-8.58-.51-.96-.89-1.82-1.05-2.5-.14-.64-.07-1.29.69-1.39.1-.01.2-.02.31-.01,1.46.08,2.93,1.21,4.24,2.48,1.13,1.13,2.2,2.49,2.97,3.77-.02-.19-.03-.39-.05-.6-.18-1.99-.49-4.61-.85-7.15-.26-1.81-.43-3.21-.42-4.19.06-.93,0-1.6.94-1.69.75.07,1.31.55,1.84,1.06.55.55,1.2,1.29,1.96,2.29.4.51.74,1.04,1.01,1.57,1.88,3.6,1.52,7.6.65,10.59,1.13-1.13,2.3-2.19,3.54-2.27.13-.02.25-.02.37-.01,1.67.06,3.76.86,4.57,2.3.45.88.25,1.71-.65,2.48-2.54,2.02-8.96,2.32-8.77,4.94.07,3.02.11,4.64-3.56,6.74-3.5,2.04-5.17,5.76-4.84,10.74.12,1.85-.52,4.03-1.52,5.77-1.06,1.72-2.33,3.05-4.04,3.05h-.05c-.59-.02-1.32-.28-1.92-.76-.62-.47-1.08-1.09-1.5-1.89-.26-.47-.49-1.03-.71-1.65l-.03-.05v-.03s-1.28-13.89.07-20.36c1.27-6.19.72-8.38-2.88-15.25-2.78,4.02-.5,12.02-5.3,17.11l-1.96,3.12s6.35,18.78,6.55,19.86c.2,1.08-5.01,1.48-5.01,1.48,0,0-5.32-21.95-6.48-23.29Z"/>
  </g>
  <g>
    <path class="cls-16" d="m283.41,372.52l53.96-21.51c1.18-.61,4.71,3.48,9.13,11.36,4.41,7.88,6.03,12.99,4.85,13.62l-48.02,32.24-19.92-35.71Z"/>
    <path class="cls-16" d="m302.4,408.02c-2.59-2.28-7.06-8.57-11.44-16.37-4.38-7.8-7.4-14.87-7.94-18.23-.03-.21-.07-.43-.08-.61l1.93-.77c2.54,2.01,7.19,8.5,11.74,16.64,4.55,8.13,7.65,15.45,7.99,18.6l-1.69,1.18c-.17-.16-.33-.28-.52-.44Z"/>
    <path class="cls-21" d="m290.34,391.98c-.44-.79-10.69-19.17-7.31-20.95.64-.34,1.56.07,2.58.95,4.38,3.69,11.22,15.81,11.49,16.44.27.63,7.12,12.77,7.92,18.33.2,1.32.04,2.27-.63,2.59-3.24,1.73-13.53-16.63-14.05-17.36Zm-6.68-19.22c.09,1.04.31,2.08.66,3.09h0c1.89,5.36,4.3,10.56,7.18,15.52,2.71,5.05,5.9,9.84,9.52,14.29.67.84,1.44,1.59,2.3,2.22h0c.13.08.28.14.43.17.07-.15.1-.33.08-.51-.03-1.96-2.27-8.6-7.85-18.53-5.58-9.93-10.08-15.39-11.76-16.47-.14-.12-.31-.2-.48-.22-.06.14-.09.29-.09.45"/>
  </g>
  <g>
    <path class="cls-16" d="m968.49,381.07l-87.92,33.92c-2.08.6-1.71,8.46,1.84,21.12,3.55,12.66,7.33,19.57,9.41,19l92.83-16.76-16.17-57.28Z"/>
    <path class="cls-16" d="m985.52,437.17c.53-5.02-1.18-16.11-4.68-28.65-3.5-12.54-7.8-22.92-10.89-26.93-.2-.25-.39-.51-.58-.71l-3.15,1.22c-.76,4.69.96,16.17,4.62,29.23,3.67,13.06,8.14,23.77,11.25,27.37l3.31-.54c.02-.34.08-.64.13-.98Z"/>
    <path class="cls-21" d="m981.96,408.21c-.36-1.26-8.69-30.75-14.67-29.07-1.14.32-1.77,1.69-2,3.65-1.08,8.33,4.32,27.85,4.7,28.78.38.92,5.79,20.47,11.04,27.01,1.24,1.56,2.49,2.37,3.62,2,5.76-1.59-2.49-31.09-2.7-32.38Zm-13.49-26.64c1.06,1.16,1.95,2.45,2.65,3.85h0c3.73,7.46,6.67,15.29,8.78,23.36,2.41,7.99,3.97,16.21,4.63,24.53.14,1.56.06,3.13-.25,4.66h0c-.06.23-.17.44-.31.62-.26-.09-.49-.24-.67-.44-2.15-2.04-6.89-11.18-11.34-27.15-4.45-15.97-5.2-26.23-4.42-29.08.04-.27.15-.52.32-.73.22.09.43.21.61.37"/>
  </g>
</svg>